%TF.GenerationSoftware,KiCad,Pcbnew,(5.99.0-12610-g07e01e6297)*%
%TF.CreationDate,2021-11-07T21:17:50+00:00*%
%TF.ProjectId,Envoy-Switchplate,456e766f-792d-4537-9769-746368706c61,rev?*%
%TF.SameCoordinates,Original*%
%TF.FileFunction,Legend,Top*%
%TF.FilePolarity,Positive*%
%FSLAX46Y46*%
G04 Gerber Fmt 4.6, Leading zero omitted, Abs format (unit mm)*
G04 Created by KiCad (PCBNEW (5.99.0-12610-g07e01e6297)) date 2021-11-07 21:17:50*
%MOMM*%
%LPD*%
G01*
G04 APERTURE LIST*
%ADD10C,0.150000*%
G04 APERTURE END LIST*
D10*
%TO.C,G\u002A\u002A\u002A*%
X170014826Y-149976777D02*
X176237365Y-156199316D01*
X176237365Y-156199316D02*
X181519453Y-150917229D01*
X170014826Y-149976777D02*
X176590919Y-143400684D01*
X176590919Y-143400684D02*
X181526524Y-148336289D01*
X181526524Y-150910157D02*
G75*
G03*
X181526524Y-148336289I-1286934J1286934D01*
G01*
G36*
X176179626Y-153546365D02*
G01*
X175050207Y-154675784D01*
X173975882Y-153601459D01*
X175105301Y-152472040D01*
X176179626Y-153546365D01*
G37*
G36*
X176262265Y-151039606D02*
G01*
X175132847Y-152169025D01*
X174058522Y-151094700D01*
X175187940Y-149965281D01*
X176262265Y-151039606D01*
G37*
G36*
X176400000Y-151177341D02*
G01*
X177474325Y-152251666D01*
X176344906Y-153381084D01*
X175270581Y-152306759D01*
X175546049Y-152306759D01*
X176344906Y-153105617D01*
X177198857Y-152251666D01*
X176400000Y-151452808D01*
X175546049Y-152306759D01*
X175270581Y-152306759D01*
X176400000Y-151177341D01*
G37*
G36*
X175270581Y-147458523D02*
G01*
X176344906Y-148532848D01*
X175215488Y-149662266D01*
X174141163Y-148587941D01*
X174416631Y-148587941D01*
X175215488Y-149386799D01*
X176069439Y-148532848D01*
X175270581Y-147733990D01*
X174416631Y-148587941D01*
X174141163Y-148587941D01*
X175270581Y-147458523D01*
G37*
G36*
X173838148Y-148615489D02*
G01*
X172708729Y-149744907D01*
X171634404Y-148670581D01*
X172763822Y-147541163D01*
X173838148Y-148615489D01*
G37*
G36*
X178824118Y-148477754D02*
G01*
X177694699Y-149607173D01*
X175408315Y-147320789D01*
X176537734Y-146191370D01*
X178824118Y-148477754D01*
G37*
G36*
X178658837Y-153436178D02*
G01*
X176234719Y-155860296D01*
X175160394Y-154785971D01*
X177584512Y-152361853D01*
X178658837Y-153436178D01*
G37*
G36*
X178961852Y-148615489D02*
G01*
X181220689Y-150874326D01*
X180091271Y-152003744D01*
X177832434Y-149744907D01*
X178107901Y-149744907D01*
X180091271Y-151728277D01*
X180945222Y-150874326D01*
X178961852Y-148890956D01*
X178107901Y-149744907D01*
X177832434Y-149744907D01*
X178961852Y-148615489D01*
G37*
G36*
X177149981Y-146497331D02*
G01*
X177050515Y-146275121D01*
X177023010Y-146038022D01*
X177028557Y-146008542D01*
X177223197Y-146008542D01*
X177236869Y-146191446D01*
X177321150Y-146360974D01*
X177372496Y-146419896D01*
X177538693Y-146538684D01*
X177719698Y-146584120D01*
X177904906Y-146556509D01*
X178083712Y-146456151D01*
X178149015Y-146397765D01*
X178270288Y-146241397D01*
X178321167Y-146118069D01*
X178330131Y-145934498D01*
X178275210Y-145765397D01*
X178169464Y-145623164D01*
X178025946Y-145520197D01*
X177857711Y-145468892D01*
X177677818Y-145481649D01*
X177657303Y-145487677D01*
X177549988Y-145541251D01*
X177435558Y-145626097D01*
X177405458Y-145654207D01*
X177279579Y-145825163D01*
X177223197Y-146008542D01*
X177028557Y-146008542D01*
X177067563Y-145801254D01*
X177144402Y-145639392D01*
X177293690Y-145464756D01*
X177484984Y-145343582D01*
X177701503Y-145279562D01*
X177926465Y-145276393D01*
X178143089Y-145337767D01*
X178247192Y-145396638D01*
X178392141Y-145540231D01*
X178487595Y-145727842D01*
X178529592Y-145940269D01*
X178514171Y-146158306D01*
X178444016Y-146350783D01*
X178370787Y-146478797D01*
X178306158Y-146562198D01*
X178224511Y-146626370D01*
X178100228Y-146696699D01*
X178088789Y-146702761D01*
X177894065Y-146768067D01*
X177682963Y-146776884D01*
X177476168Y-146733738D01*
X177294364Y-146643156D01*
X177221091Y-146571301D01*
X177158237Y-146509665D01*
X177149981Y-146497331D01*
G37*
G36*
X173975882Y-148753222D02*
G01*
X175050207Y-149827547D01*
X173920788Y-150956966D01*
X172846463Y-149882641D01*
X173121931Y-149882641D01*
X173920788Y-150681498D01*
X174774739Y-149827547D01*
X173975882Y-149028690D01*
X173121931Y-149882641D01*
X172846463Y-149882641D01*
X173975882Y-148753222D01*
G37*
G36*
X175132848Y-147320789D02*
G01*
X174003429Y-148450207D01*
X172929103Y-147375882D01*
X174058522Y-146246463D01*
X175132848Y-147320789D01*
G37*
G36*
X179601646Y-148948996D02*
G01*
X179502179Y-148726786D01*
X179474675Y-148489687D01*
X179480222Y-148460207D01*
X179674863Y-148460207D01*
X179688534Y-148643111D01*
X179772815Y-148812639D01*
X179824161Y-148871561D01*
X179990357Y-148990349D01*
X180171363Y-149035785D01*
X180356571Y-149008174D01*
X180535377Y-148907817D01*
X180600680Y-148849430D01*
X180721953Y-148693062D01*
X180772832Y-148569734D01*
X180781796Y-148386163D01*
X180726875Y-148217062D01*
X180621129Y-148074829D01*
X180477611Y-147971862D01*
X180309376Y-147920558D01*
X180129483Y-147933314D01*
X180108968Y-147939343D01*
X180001653Y-147992916D01*
X179887223Y-148077762D01*
X179857123Y-148105873D01*
X179731244Y-148276828D01*
X179674863Y-148460207D01*
X179480222Y-148460207D01*
X179519228Y-148252919D01*
X179596067Y-148091057D01*
X179745355Y-147916421D01*
X179936648Y-147795246D01*
X180153168Y-147731227D01*
X180378130Y-147728058D01*
X180594754Y-147789432D01*
X180698857Y-147848303D01*
X180843806Y-147991896D01*
X180939260Y-148179507D01*
X180981257Y-148391934D01*
X180965836Y-148609971D01*
X180895681Y-148802448D01*
X180822452Y-148930462D01*
X180757823Y-149013863D01*
X180676176Y-149078035D01*
X180551893Y-149148364D01*
X180540455Y-149154426D01*
X180345730Y-149219732D01*
X180134628Y-149228548D01*
X179927834Y-149185403D01*
X179746029Y-149094821D01*
X179672756Y-149022966D01*
X179609901Y-148961329D01*
X179601646Y-148948996D01*
G37*
G36*
X173755508Y-151122247D02*
G01*
X172626088Y-152251666D01*
X171551763Y-151177341D01*
X172681183Y-150047922D01*
X173755508Y-151122247D01*
G37*
G36*
X177556965Y-149744906D02*
G01*
X176427547Y-150874325D01*
X175353222Y-149800000D01*
X176482640Y-148670581D01*
X177556965Y-149744906D01*
G37*
G36*
X179953537Y-152141478D02*
G01*
X178824118Y-153270897D01*
X177749793Y-152196572D01*
X178879212Y-151067153D01*
X179953537Y-152141478D01*
G37*
G36*
X177694700Y-149882641D02*
G01*
X178769025Y-150956966D01*
X177639606Y-152086385D01*
X176565281Y-151012060D01*
X176840749Y-151012060D01*
X177639606Y-151810917D01*
X178493557Y-150956966D01*
X177694700Y-150158109D01*
X176840749Y-151012060D01*
X176565281Y-151012060D01*
X177694700Y-149882641D01*
G37*
G36*
X175937921Y-145285272D02*
G01*
X175838455Y-145063062D01*
X175816290Y-144871995D01*
X176008189Y-144871995D01*
X176055338Y-145047642D01*
X176157977Y-145202189D01*
X176305762Y-145316895D01*
X176390150Y-145352441D01*
X176573409Y-145371595D01*
X176756950Y-145317504D01*
X176928692Y-145193852D01*
X176936956Y-145185706D01*
X177058229Y-145029338D01*
X177109108Y-144906009D01*
X177118071Y-144722439D01*
X177063152Y-144553338D01*
X176957405Y-144411105D01*
X176813887Y-144308138D01*
X176645652Y-144256834D01*
X176465759Y-144269590D01*
X176445244Y-144275619D01*
X176302497Y-144351762D01*
X176164985Y-144475206D01*
X176060102Y-144618557D01*
X176026870Y-144693993D01*
X176008189Y-144871995D01*
X175816290Y-144871995D01*
X175810950Y-144825962D01*
X175855504Y-144589195D01*
X175932343Y-144427333D01*
X176081631Y-144252696D01*
X176272924Y-144131522D01*
X176489444Y-144067503D01*
X176714406Y-144064334D01*
X176931029Y-144125708D01*
X177035133Y-144184579D01*
X177180082Y-144328172D01*
X177275536Y-144515783D01*
X177317533Y-144728210D01*
X177302112Y-144946247D01*
X177231956Y-145138724D01*
X177158728Y-145266738D01*
X177094099Y-145350139D01*
X177012452Y-145414312D01*
X176888168Y-145484639D01*
X176876731Y-145490702D01*
X176682005Y-145556007D01*
X176470904Y-145564824D01*
X176264110Y-145521679D01*
X176082305Y-145431097D01*
X176004939Y-145355228D01*
X175946177Y-145297605D01*
X175937921Y-145285272D01*
G37*
G36*
X175325674Y-144979311D02*
G01*
X176400000Y-146053637D01*
X175270581Y-147183055D01*
X175132847Y-147045321D01*
X174196257Y-146108730D01*
X174471724Y-146108730D01*
X175270581Y-146907587D01*
X176124532Y-146053636D01*
X175325675Y-145254779D01*
X174471724Y-146108730D01*
X174196257Y-146108730D01*
X174196256Y-146108729D01*
X175325674Y-144979311D01*
G37*
G36*
X171469123Y-148835862D02*
G01*
X172543449Y-149910188D01*
X171414030Y-151039607D01*
X170339704Y-149965281D01*
X170615173Y-149965281D01*
X171414030Y-150764138D01*
X172267980Y-149910188D01*
X171469123Y-149111331D01*
X170615173Y-149965281D01*
X170339704Y-149965281D01*
X171469123Y-148835862D01*
G37*
G36*
X174967566Y-152334305D02*
G01*
X173838147Y-153463725D01*
X172763822Y-152389400D01*
X173893241Y-151259980D01*
X174967566Y-152334305D01*
G37*
G36*
X178389586Y-147736937D02*
G01*
X178290120Y-147514727D01*
X178262615Y-147277627D01*
X178268162Y-147248148D01*
X178462803Y-147248148D01*
X178476475Y-147431052D01*
X178560756Y-147600580D01*
X178612102Y-147659502D01*
X178778299Y-147778290D01*
X178959304Y-147823726D01*
X179144513Y-147796115D01*
X179323318Y-147695758D01*
X179388621Y-147637371D01*
X179509895Y-147481003D01*
X179560773Y-147357674D01*
X179569736Y-147174104D01*
X179514817Y-147005003D01*
X179409070Y-146862770D01*
X179265552Y-146759803D01*
X179097318Y-146708499D01*
X178917424Y-146721255D01*
X178896909Y-146727284D01*
X178789595Y-146780857D01*
X178675164Y-146865703D01*
X178645064Y-146893814D01*
X178519185Y-147064768D01*
X178462803Y-147248148D01*
X178268162Y-147248148D01*
X178307170Y-147040860D01*
X178384008Y-146878998D01*
X178533296Y-146704361D01*
X178724590Y-146583187D01*
X178941109Y-146519168D01*
X179166071Y-146515999D01*
X179382694Y-146577373D01*
X179486798Y-146636244D01*
X179631747Y-146779837D01*
X179727201Y-146967448D01*
X179769198Y-147179875D01*
X179753777Y-147397912D01*
X179683621Y-147590389D01*
X179610393Y-147718403D01*
X179545764Y-147801804D01*
X179464116Y-147865976D01*
X179339833Y-147936304D01*
X179328396Y-147942368D01*
X179133671Y-148007672D01*
X178922569Y-148016489D01*
X178715774Y-147973343D01*
X178533970Y-147882762D01*
X178460697Y-147810907D01*
X178397843Y-147749270D01*
X178389586Y-147736937D01*
G37*
%TD*%
M02*
