%TF.GenerationSoftware,KiCad,Pcbnew,(5.99.0-12610-g07e01e6297)*%
%TF.CreationDate,2021-10-01T22:50:03+01:00*%
%TF.ProjectId,Envoy-Switchplate,456e766f-792d-4537-9769-746368706c61,rev?*%
%TF.SameCoordinates,Original*%
%TF.FileFunction,Legend,Bot*%
%TF.FilePolarity,Positive*%
%FSLAX46Y46*%
G04 Gerber Fmt 4.6, Leading zero omitted, Abs format (unit mm)*
G04 Created by KiCad (PCBNEW (5.99.0-12610-g07e01e6297)) date 2021-10-01 22:50:03*
%MOMM*%
%LPD*%
G01*
G04 APERTURE LIST*
%ADD10C,0.150000*%
G04 APERTURE END LIST*
D10*
X125426190Y-102834523D02*
X125426190Y-103441666D01*
X125466666Y-103563095D01*
X125547619Y-103644047D01*
X125669047Y-103684523D01*
X125750000Y-103684523D01*
X124616666Y-103684523D02*
X125021428Y-103684523D01*
X125021428Y-102834523D01*
X123847619Y-103603571D02*
X123888095Y-103644047D01*
X124009523Y-103684523D01*
X124090476Y-103684523D01*
X124211904Y-103644047D01*
X124292857Y-103563095D01*
X124333333Y-103482142D01*
X124373809Y-103320238D01*
X124373809Y-103198809D01*
X124333333Y-103036904D01*
X124292857Y-102955952D01*
X124211904Y-102875000D01*
X124090476Y-102834523D01*
X124009523Y-102834523D01*
X123888095Y-102875000D01*
X123847619Y-102915476D01*
X123240476Y-102834523D02*
X123240476Y-103441666D01*
X123280952Y-103563095D01*
X123361904Y-103644047D01*
X123483333Y-103684523D01*
X123564285Y-103684523D01*
X122430952Y-103684523D02*
X122835714Y-103684523D01*
X122835714Y-102834523D01*
X121661904Y-103603571D02*
X121702380Y-103644047D01*
X121823809Y-103684523D01*
X121904761Y-103684523D01*
X122026190Y-103644047D01*
X122107142Y-103563095D01*
X122147619Y-103482142D01*
X122188095Y-103320238D01*
X122188095Y-103198809D01*
X122147619Y-103036904D01*
X122107142Y-102955952D01*
X122026190Y-102875000D01*
X121904761Y-102834523D01*
X121823809Y-102834523D01*
X121702380Y-102875000D01*
X121661904Y-102915476D01*
X121054761Y-102834523D02*
X121054761Y-103441666D01*
X121095238Y-103563095D01*
X121176190Y-103644047D01*
X121297619Y-103684523D01*
X121378571Y-103684523D01*
X120245238Y-103684523D02*
X120650000Y-103684523D01*
X120650000Y-102834523D01*
X119476190Y-103603571D02*
X119516666Y-103644047D01*
X119638095Y-103684523D01*
X119719047Y-103684523D01*
X119840476Y-103644047D01*
X119921428Y-103563095D01*
X119961904Y-103482142D01*
X120002380Y-103320238D01*
X120002380Y-103198809D01*
X119961904Y-103036904D01*
X119921428Y-102955952D01*
X119840476Y-102875000D01*
X119719047Y-102834523D01*
X119638095Y-102834523D01*
X119516666Y-102875000D01*
X119476190Y-102915476D01*
X118869047Y-102834523D02*
X118869047Y-103441666D01*
X118909523Y-103563095D01*
X118990476Y-103644047D01*
X119111904Y-103684523D01*
X119192857Y-103684523D01*
X118059523Y-103684523D02*
X118464285Y-103684523D01*
X118464285Y-102834523D01*
X117290476Y-103603571D02*
X117330952Y-103644047D01*
X117452380Y-103684523D01*
X117533333Y-103684523D01*
X117654761Y-103644047D01*
X117735714Y-103563095D01*
X117776190Y-103482142D01*
X117816666Y-103320238D01*
X117816666Y-103198809D01*
X117776190Y-103036904D01*
X117735714Y-102955952D01*
X117654761Y-102875000D01*
X117533333Y-102834523D01*
X117452380Y-102834523D01*
X117330952Y-102875000D01*
X117290476Y-102915476D01*
M02*
