%TF.GenerationSoftware,KiCad,Pcbnew,(5.99.0-12610-g07e01e6297)*%
%TF.CreationDate,2021-11-07T21:17:50+00:00*%
%TF.ProjectId,Envoy-Switchplate,456e766f-792d-4537-9769-746368706c61,rev?*%
%TF.SameCoordinates,Original*%
%TF.FileFunction,Soldermask,Bot*%
%TF.FilePolarity,Negative*%
%FSLAX46Y46*%
G04 Gerber Fmt 4.6, Leading zero omitted, Abs format (unit mm)*
G04 Created by KiCad (PCBNEW (5.99.0-12610-g07e01e6297)) date 2021-11-07 21:17:50*
%MOMM*%
%LPD*%
G01*
G04 APERTURE LIST*
%ADD10C,0.150000*%
G04 APERTURE END LIST*
D10*
X156379785Y-123379321D02*
X156046452Y-123379321D01*
X155903595Y-123903130D02*
X156379785Y-123903130D01*
X156379785Y-122903130D01*
X155903595Y-122903130D01*
X155475023Y-123236464D02*
X155475023Y-123903130D01*
X155475023Y-123331702D02*
X155427404Y-123284083D01*
X155332166Y-123236464D01*
X155189309Y-123236464D01*
X155094071Y-123284083D01*
X155046452Y-123379321D01*
X155046452Y-123903130D01*
X154665500Y-123236464D02*
X154427404Y-123903130D01*
X154189309Y-123236464D01*
X153665500Y-123903130D02*
X153760738Y-123855511D01*
X153808357Y-123807892D01*
X153855976Y-123712654D01*
X153855976Y-123426940D01*
X153808357Y-123331702D01*
X153760738Y-123284083D01*
X153665500Y-123236464D01*
X153522642Y-123236464D01*
X153427404Y-123284083D01*
X153379785Y-123331702D01*
X153332166Y-123426940D01*
X153332166Y-123712654D01*
X153379785Y-123807892D01*
X153427404Y-123855511D01*
X153522642Y-123903130D01*
X153665500Y-123903130D01*
X152998833Y-123236464D02*
X152760738Y-123903130D01*
X152522642Y-123236464D02*
X152760738Y-123903130D01*
X152855976Y-124141226D01*
X152903595Y-124188845D01*
X152998833Y-124236464D01*
X151379785Y-123903130D02*
X151379785Y-122903130D01*
X151379785Y-123284083D02*
X151284547Y-123236464D01*
X151094071Y-123236464D01*
X150998833Y-123284083D01*
X150951214Y-123331702D01*
X150903595Y-123426940D01*
X150903595Y-123712654D01*
X150951214Y-123807892D01*
X150998833Y-123855511D01*
X151094071Y-123903130D01*
X151284547Y-123903130D01*
X151379785Y-123855511D01*
X150570261Y-123236464D02*
X150332166Y-123903130D01*
X150094071Y-123236464D02*
X150332166Y-123903130D01*
X150427404Y-124141226D01*
X150475023Y-124188845D01*
X150570261Y-124236464D01*
X148665500Y-122903130D02*
X148665500Y-123617416D01*
X148713119Y-123760273D01*
X148808357Y-123855511D01*
X148951214Y-123903130D01*
X149046452Y-123903130D01*
X147808357Y-123855511D02*
X147903595Y-123903130D01*
X148094071Y-123903130D01*
X148189309Y-123855511D01*
X148236928Y-123760273D01*
X148236928Y-123379321D01*
X148189309Y-123284083D01*
X148094071Y-123236464D01*
X147903595Y-123236464D01*
X147808357Y-123284083D01*
X147760738Y-123379321D01*
X147760738Y-123474559D01*
X148236928Y-123569797D01*
X147046452Y-122903130D02*
X147046452Y-123617416D01*
X147094071Y-123760273D01*
X147189309Y-123855511D01*
X147332166Y-123903130D01*
X147427404Y-123903130D01*
X146189309Y-123855511D02*
X146284547Y-123903130D01*
X146475023Y-123903130D01*
X146570261Y-123855511D01*
X146617880Y-123760273D01*
X146617880Y-123379321D01*
X146570261Y-123284083D01*
X146475023Y-123236464D01*
X146284547Y-123236464D01*
X146189309Y-123284083D01*
X146141690Y-123379321D01*
X146141690Y-123474559D01*
X146617880Y-123569797D01*
X145855976Y-123236464D02*
X145475023Y-123236464D01*
X145713119Y-123903130D02*
X145713119Y-123045988D01*
X145665500Y-122950750D01*
X145570261Y-122903130D01*
X145475023Y-122903130D01*
X145284547Y-123236464D02*
X144903595Y-123236464D01*
X145141690Y-123903130D02*
X145141690Y-123045988D01*
X145094071Y-122950750D01*
X144998833Y-122903130D01*
X144903595Y-122903130D01*
X143808357Y-123522178D02*
X143046452Y-123522178D01*
X141855976Y-123855511D02*
X141760738Y-123903130D01*
X141570261Y-123903130D01*
X141475023Y-123855511D01*
X141427404Y-123760273D01*
X141427404Y-123712654D01*
X141475023Y-123617416D01*
X141570261Y-123569797D01*
X141713119Y-123569797D01*
X141808357Y-123522178D01*
X141855976Y-123426940D01*
X141855976Y-123379321D01*
X141808357Y-123284083D01*
X141713119Y-123236464D01*
X141570261Y-123236464D01*
X141475023Y-123284083D01*
X141094071Y-123236464D02*
X140903595Y-123903130D01*
X140713119Y-123426940D01*
X140522642Y-123903130D01*
X140332166Y-123236464D01*
X139951214Y-123903130D02*
X139951214Y-123236464D01*
X139951214Y-122903130D02*
X139998833Y-122950750D01*
X139951214Y-122998369D01*
X139903595Y-122950750D01*
X139951214Y-122903130D01*
X139951214Y-122998369D01*
X139617880Y-123236464D02*
X139236928Y-123236464D01*
X139475023Y-122903130D02*
X139475023Y-123760273D01*
X139427404Y-123855511D01*
X139332166Y-123903130D01*
X139236928Y-123903130D01*
X138475023Y-123855511D02*
X138570261Y-123903130D01*
X138760738Y-123903130D01*
X138855976Y-123855511D01*
X138903595Y-123807892D01*
X138951214Y-123712654D01*
X138951214Y-123426940D01*
X138903595Y-123331702D01*
X138855976Y-123284083D01*
X138760738Y-123236464D01*
X138570261Y-123236464D01*
X138475023Y-123284083D01*
X138046452Y-123903130D02*
X138046452Y-122903130D01*
X137617880Y-123903130D02*
X137617880Y-123379321D01*
X137665500Y-123284083D01*
X137760738Y-123236464D01*
X137903595Y-123236464D01*
X137998833Y-123284083D01*
X138046452Y-123331702D01*
X136379785Y-123236464D02*
X136379785Y-124236464D01*
X136379785Y-123284083D02*
X136284547Y-123236464D01*
X136094071Y-123236464D01*
X135998833Y-123284083D01*
X135951214Y-123331702D01*
X135903595Y-123426940D01*
X135903595Y-123712654D01*
X135951214Y-123807892D01*
X135998833Y-123855511D01*
X136094071Y-123903130D01*
X136284547Y-123903130D01*
X136379785Y-123855511D01*
X135332166Y-123903130D02*
X135427404Y-123855511D01*
X135475023Y-123760273D01*
X135475023Y-122903130D01*
X134522642Y-123903130D02*
X134522642Y-123379321D01*
X134570261Y-123284083D01*
X134665500Y-123236464D01*
X134855976Y-123236464D01*
X134951214Y-123284083D01*
X134522642Y-123855511D02*
X134617880Y-123903130D01*
X134855976Y-123903130D01*
X134951214Y-123855511D01*
X134998833Y-123760273D01*
X134998833Y-123665035D01*
X134951214Y-123569797D01*
X134855976Y-123522178D01*
X134617880Y-123522178D01*
X134522642Y-123474559D01*
X134189309Y-123236464D02*
X133808357Y-123236464D01*
X134046452Y-122903130D02*
X134046452Y-123760273D01*
X133998833Y-123855511D01*
X133903595Y-123903130D01*
X133808357Y-123903130D01*
X133094071Y-123855511D02*
X133189309Y-123903130D01*
X133379785Y-123903130D01*
X133475023Y-123855511D01*
X133522642Y-123760273D01*
X133522642Y-123379321D01*
X133475023Y-123284083D01*
X133379785Y-123236464D01*
X133189309Y-123236464D01*
X133094071Y-123284083D01*
X133046452Y-123379321D01*
X133046452Y-123474559D01*
X133522642Y-123569797D01*
X131855976Y-123522178D02*
X131094071Y-123522178D01*
X129855976Y-123903130D02*
X129855976Y-123236464D01*
X129855976Y-123426940D02*
X129808357Y-123331702D01*
X129760738Y-123284083D01*
X129665500Y-123236464D01*
X129570261Y-123236464D01*
X128855976Y-123855511D02*
X128951214Y-123903130D01*
X129141690Y-123903130D01*
X129236928Y-123855511D01*
X129284547Y-123760273D01*
X129284547Y-123379321D01*
X129236928Y-123284083D01*
X129141690Y-123236464D01*
X128951214Y-123236464D01*
X128855976Y-123284083D01*
X128808357Y-123379321D01*
X128808357Y-123474559D01*
X129284547Y-123569797D01*
X128475023Y-123236464D02*
X128236928Y-123903130D01*
X127998833Y-123236464D01*
X126665500Y-122903130D02*
X126570261Y-122903130D01*
X126475023Y-122950750D01*
X126427404Y-122998369D01*
X126379785Y-123093607D01*
X126332166Y-123284083D01*
X126332166Y-123522178D01*
X126379785Y-123712654D01*
X126427404Y-123807892D01*
X126475023Y-123855511D01*
X126570261Y-123903130D01*
X126665500Y-123903130D01*
X126760738Y-123855511D01*
X126808357Y-123807892D01*
X126855976Y-123712654D01*
X126903595Y-123522178D01*
X126903595Y-123284083D01*
X126855976Y-123093607D01*
X126808357Y-122998369D01*
X126760738Y-122950750D01*
X126665500Y-122903130D01*
X125903595Y-123807892D02*
X125855976Y-123855511D01*
X125903595Y-123903130D01*
X125951214Y-123855511D01*
X125903595Y-123807892D01*
X125903595Y-123903130D01*
X125475023Y-122998369D02*
X125427404Y-122950750D01*
X125332166Y-122903130D01*
X125094071Y-122903130D01*
X124998833Y-122950750D01*
X124951214Y-122998369D01*
X124903595Y-123093607D01*
X124903595Y-123188845D01*
X124951214Y-123331702D01*
X125522642Y-123903130D01*
X124903595Y-123903130D01*
M02*
