%TF.GenerationSoftware,KiCad,Pcbnew,(5.99.0-12610-g07e01e6297)*%
%TF.CreationDate,2021-11-07T21:17:50+00:00*%
%TF.ProjectId,Envoy-Switchplate,456e766f-792d-4537-9769-746368706c61,rev?*%
%TF.SameCoordinates,Original*%
%TF.FileFunction,Copper,L1,Top*%
%TF.FilePolarity,Positive*%
%FSLAX46Y46*%
G04 Gerber Fmt 4.6, Leading zero omitted, Abs format (unit mm)*
G04 Created by KiCad (PCBNEW (5.99.0-12610-g07e01e6297)) date 2021-11-07 21:17:50*
%MOMM*%
%LPD*%
G01*
G04 APERTURE LIST*
G04 APERTURE END LIST*
%TA.AperFunction,NonConductor*%
G36*
X187295057Y-66803500D02*
G01*
X187309858Y-66805805D01*
X187309861Y-66805805D01*
X187318730Y-66807186D01*
X187327633Y-66806022D01*
X187336608Y-66806131D01*
X187336605Y-66806339D01*
X187358029Y-66806348D01*
X187365838Y-66807376D01*
X187407164Y-66812817D01*
X187438934Y-66821330D01*
X187444155Y-66823492D01*
X187500174Y-66846696D01*
X187528659Y-66863142D01*
X187581247Y-66903494D01*
X187604506Y-66926753D01*
X187644858Y-66979341D01*
X187661304Y-67007826D01*
X187686670Y-67069064D01*
X187695183Y-67100836D01*
X187701170Y-67146309D01*
X187702239Y-67164294D01*
X187702196Y-67167858D01*
X187700814Y-67176730D01*
X187703274Y-67195539D01*
X187704936Y-67208251D01*
X187706000Y-67224589D01*
X187706000Y-142444672D01*
X187704500Y-142464056D01*
X187700814Y-142487730D01*
X187704114Y-142512965D01*
X187705144Y-142532116D01*
X187687266Y-143328739D01*
X187687013Y-143334380D01*
X187656412Y-143788249D01*
X187631034Y-144164657D01*
X187630527Y-144170288D01*
X187612990Y-144325931D01*
X187539359Y-144979433D01*
X187537358Y-144997191D01*
X187536602Y-145002772D01*
X187448469Y-145559226D01*
X187406423Y-145824696D01*
X187405415Y-145830250D01*
X187388456Y-145913078D01*
X187238498Y-146645466D01*
X187237244Y-146650962D01*
X187033916Y-147457892D01*
X187032412Y-147463343D01*
X186793082Y-148260348D01*
X186791334Y-148265725D01*
X186516502Y-149051150D01*
X186514515Y-149056444D01*
X186356348Y-149450750D01*
X186204718Y-149828757D01*
X186202500Y-149833946D01*
X185989346Y-150303222D01*
X185858363Y-150591590D01*
X185855917Y-150596671D01*
X185811900Y-150683059D01*
X185478116Y-151338146D01*
X185475436Y-151343125D01*
X185064778Y-152066855D01*
X185061878Y-152071709D01*
X184619152Y-152776302D01*
X184616037Y-152781021D01*
X184413573Y-153073261D01*
X184163497Y-153434226D01*
X184142159Y-153465025D01*
X184138836Y-153469600D01*
X183634713Y-154131697D01*
X183631187Y-154136117D01*
X183097905Y-154774886D01*
X183094185Y-154779144D01*
X182532761Y-155393367D01*
X182528853Y-155397454D01*
X181940454Y-155985853D01*
X181936367Y-155989761D01*
X181322144Y-156551185D01*
X181317886Y-156554905D01*
X180679117Y-157088187D01*
X180674698Y-157091712D01*
X180037109Y-157577175D01*
X180012600Y-157595836D01*
X180008025Y-157599159D01*
X179324021Y-158073037D01*
X179319302Y-158076152D01*
X178614709Y-158518878D01*
X178609856Y-158521778D01*
X178080088Y-158822378D01*
X177886125Y-158932436D01*
X177881150Y-158935114D01*
X177139671Y-159312917D01*
X177134604Y-159315356D01*
X176376946Y-159659500D01*
X176371766Y-159661714D01*
X175985600Y-159816617D01*
X175599444Y-159971515D01*
X175594150Y-159973502D01*
X175199917Y-160111450D01*
X174808716Y-160248337D01*
X174803357Y-160250079D01*
X174507517Y-160338916D01*
X174006343Y-160489412D01*
X174000895Y-160490915D01*
X173193962Y-160694244D01*
X173188483Y-160695494D01*
X172373250Y-160862415D01*
X172367705Y-160863421D01*
X171545772Y-160993602D01*
X171540208Y-160994356D01*
X171033855Y-161051408D01*
X170713288Y-161087527D01*
X170707657Y-161088034D01*
X170502622Y-161101858D01*
X169877380Y-161144013D01*
X169871748Y-161144266D01*
X169477269Y-161153119D01*
X169082766Y-161161973D01*
X169060554Y-161160505D01*
X169052144Y-161159195D01*
X169052138Y-161159195D01*
X169043270Y-161157814D01*
X169034368Y-161158978D01*
X169034365Y-161158978D01*
X169011749Y-161161936D01*
X168995411Y-161163000D01*
X93775328Y-161163000D01*
X93755943Y-161161500D01*
X93741142Y-161159195D01*
X93741139Y-161159195D01*
X93732270Y-161157814D01*
X93723367Y-161158978D01*
X93714392Y-161158869D01*
X93714395Y-161158661D01*
X93692971Y-161158652D01*
X93678087Y-161156693D01*
X93643836Y-161152183D01*
X93612066Y-161143670D01*
X93581445Y-161130987D01*
X93550826Y-161118304D01*
X93522341Y-161101858D01*
X93469753Y-161061506D01*
X93446494Y-161038247D01*
X93406142Y-160985659D01*
X93389696Y-160957174D01*
X93364330Y-160895936D01*
X93355817Y-160864164D01*
X93350280Y-160822108D01*
X93349749Y-160796455D01*
X93350071Y-160794539D01*
X93350224Y-160782000D01*
X93346273Y-160754412D01*
X93345000Y-160736549D01*
X93345000Y-145300745D01*
X94912275Y-145300745D01*
X94912965Y-145305562D01*
X94916227Y-145328343D01*
X94917499Y-145346204D01*
X94917501Y-158751423D01*
X94916001Y-158770808D01*
X94913697Y-158785608D01*
X94912315Y-158794481D01*
X94915703Y-158820386D01*
X94915703Y-158820387D01*
X94916158Y-158824363D01*
X94928468Y-158949345D01*
X94930263Y-158955263D01*
X94930264Y-158955267D01*
X94970014Y-159086304D01*
X94971811Y-159092228D01*
X94974730Y-159097689D01*
X95039279Y-159218451D01*
X95042197Y-159223911D01*
X95136920Y-159339331D01*
X95252340Y-159434054D01*
X95384023Y-159504440D01*
X95389943Y-159506236D01*
X95389946Y-159506237D01*
X95520984Y-159545987D01*
X95520988Y-159545988D01*
X95526906Y-159547783D01*
X95620843Y-159557035D01*
X95629382Y-159558172D01*
X95662961Y-159563821D01*
X95669289Y-159563898D01*
X95670641Y-159563915D01*
X95670645Y-159563915D01*
X95675500Y-159563974D01*
X95703088Y-159560023D01*
X95720951Y-159558750D01*
X110654459Y-159558749D01*
X128172292Y-159558748D01*
X128193195Y-159560494D01*
X128212959Y-159563819D01*
X128219097Y-159563894D01*
X128220633Y-159563913D01*
X128220638Y-159563913D01*
X128225498Y-159563972D01*
X128230311Y-159563283D01*
X128230323Y-159563282D01*
X128257560Y-159559381D01*
X128263051Y-159558718D01*
X128374092Y-159547781D01*
X128516976Y-159504439D01*
X128522430Y-159501524D01*
X128522432Y-159501523D01*
X128606597Y-159456536D01*
X128648658Y-159434054D01*
X128764079Y-159339331D01*
X128858802Y-159223911D01*
X128861721Y-159218451D01*
X128914129Y-159120402D01*
X133017024Y-159120402D01*
X133019490Y-159129031D01*
X133019491Y-159129036D01*
X133025139Y-159148798D01*
X133028717Y-159165559D01*
X133031630Y-159185902D01*
X133031633Y-159185912D01*
X133032905Y-159194795D01*
X133043521Y-159218145D01*
X133049964Y-159235657D01*
X133057012Y-159260315D01*
X133072774Y-159285298D01*
X133080904Y-159300364D01*
X133093133Y-159327260D01*
X133109874Y-159346689D01*
X133120979Y-159361697D01*
X133134660Y-159383381D01*
X133141388Y-159389323D01*
X133156796Y-159402931D01*
X133168841Y-159415124D01*
X133181768Y-159430126D01*
X133188119Y-159437497D01*
X133195647Y-159442376D01*
X133195650Y-159442379D01*
X133209639Y-159451446D01*
X133224513Y-159462736D01*
X133243728Y-159479706D01*
X133251854Y-159483521D01*
X133251855Y-159483522D01*
X133257521Y-159486182D01*
X133270466Y-159492260D01*
X133285435Y-159500574D01*
X133310227Y-159516643D01*
X133327150Y-159521704D01*
X133334790Y-159523989D01*
X133352236Y-159530651D01*
X133375448Y-159541549D01*
X133404630Y-159546093D01*
X133421349Y-159549876D01*
X133441036Y-159555764D01*
X133441039Y-159555765D01*
X133449641Y-159558337D01*
X133458616Y-159558392D01*
X133458617Y-159558392D01*
X133465310Y-159558433D01*
X133484056Y-159558547D01*
X133484828Y-159558580D01*
X133485923Y-159558750D01*
X133516798Y-159558750D01*
X133517568Y-159558752D01*
X133591216Y-159559202D01*
X133591217Y-159559202D01*
X133595152Y-159559226D01*
X133596496Y-159558842D01*
X133597841Y-159558750D01*
X147516798Y-159558750D01*
X147517569Y-159558752D01*
X147595152Y-159559226D01*
X147603781Y-159556760D01*
X147603786Y-159556759D01*
X147623548Y-159551111D01*
X147640309Y-159547533D01*
X147660652Y-159544620D01*
X147660662Y-159544617D01*
X147669545Y-159543345D01*
X147692895Y-159532729D01*
X147710407Y-159526286D01*
X147726437Y-159521704D01*
X147735065Y-159519238D01*
X147760048Y-159503476D01*
X147775114Y-159495346D01*
X147802010Y-159483117D01*
X147821439Y-159466376D01*
X147836447Y-159455271D01*
X147850539Y-159446380D01*
X147858131Y-159441590D01*
X147877682Y-159419453D01*
X147889874Y-159407409D01*
X147905449Y-159393989D01*
X147905450Y-159393987D01*
X147912247Y-159388131D01*
X147917126Y-159380603D01*
X147917129Y-159380600D01*
X147926196Y-159366611D01*
X147937486Y-159351737D01*
X147944979Y-159343253D01*
X147954456Y-159332522D01*
X147967010Y-159305784D01*
X147975324Y-159290815D01*
X147991393Y-159266023D01*
X147998739Y-159241459D01*
X148005401Y-159224014D01*
X148012483Y-159208929D01*
X148016299Y-159200802D01*
X148020843Y-159171620D01*
X148024626Y-159154901D01*
X148030514Y-159135214D01*
X148030515Y-159135211D01*
X148033087Y-159126609D01*
X148033297Y-159092194D01*
X148033330Y-159091422D01*
X148033500Y-159090327D01*
X148033500Y-159059452D01*
X148033502Y-159058682D01*
X148033952Y-158985034D01*
X148033952Y-158985033D01*
X148033976Y-158981098D01*
X148033592Y-158979754D01*
X148033500Y-158978409D01*
X148033500Y-153175745D01*
X151092275Y-153175745D01*
X151092965Y-153180562D01*
X151096228Y-153203350D01*
X151097500Y-153221211D01*
X151097500Y-155626422D01*
X151096000Y-155645806D01*
X151092314Y-155669480D01*
X151095702Y-155695386D01*
X151096157Y-155699362D01*
X151108467Y-155824344D01*
X151151810Y-155967227D01*
X151154727Y-155972685D01*
X151154729Y-155972689D01*
X151219277Y-156093450D01*
X151222195Y-156098909D01*
X151316918Y-156214329D01*
X151432337Y-156309053D01*
X151564019Y-156379439D01*
X151706902Y-156422783D01*
X151800843Y-156432036D01*
X151809373Y-156433172D01*
X151842956Y-156438822D01*
X151849122Y-156438897D01*
X151850630Y-156438916D01*
X151850635Y-156438916D01*
X151855495Y-156438975D01*
X151883093Y-156435023D01*
X151900953Y-156433751D01*
X151941500Y-156433751D01*
X152009621Y-156453753D01*
X152056114Y-156507409D01*
X152067500Y-156559751D01*
X152067500Y-158751422D01*
X152066000Y-158770807D01*
X152065635Y-158773154D01*
X152062314Y-158794480D01*
X152065401Y-158818084D01*
X152065702Y-158820386D01*
X152066157Y-158824362D01*
X152078467Y-158949344D01*
X152080262Y-158955262D01*
X152080263Y-158955266D01*
X152120013Y-159086304D01*
X152120014Y-159086307D01*
X152121810Y-159092227D01*
X152124727Y-159097685D01*
X152124729Y-159097689D01*
X152189277Y-159218450D01*
X152192195Y-159223909D01*
X152286918Y-159339329D01*
X152291698Y-159343252D01*
X152364416Y-159402931D01*
X152402337Y-159434053D01*
X152534019Y-159504439D01*
X152676902Y-159547783D01*
X152770843Y-159557036D01*
X152779373Y-159558172D01*
X152812956Y-159563822D01*
X152819146Y-159563898D01*
X152820631Y-159563916D01*
X152820636Y-159563916D01*
X152825495Y-159563975D01*
X152841328Y-159561708D01*
X152853093Y-159560023D01*
X152870954Y-159558751D01*
X159040545Y-159558750D01*
X166272294Y-159558749D01*
X166293198Y-159560495D01*
X166312962Y-159563820D01*
X166319290Y-159563897D01*
X166320642Y-159563914D01*
X166320646Y-159563914D01*
X166325501Y-159563973D01*
X166330318Y-159563283D01*
X166330320Y-159563283D01*
X166357547Y-159559384D01*
X166363059Y-159558718D01*
X166467932Y-159548389D01*
X166474095Y-159547782D01*
X166480013Y-159545987D01*
X166480017Y-159545986D01*
X166611055Y-159506236D01*
X166611058Y-159506235D01*
X166616978Y-159504439D01*
X166748661Y-159434053D01*
X166864081Y-159339330D01*
X166958804Y-159223910D01*
X166961723Y-159218450D01*
X167024975Y-159100113D01*
X167029190Y-159092227D01*
X167030986Y-159086307D01*
X167030987Y-159086304D01*
X167070737Y-158955266D01*
X167070738Y-158955262D01*
X167072533Y-158949344D01*
X167081785Y-158855407D01*
X167082923Y-158846858D01*
X167088571Y-158813289D01*
X167088724Y-158800750D01*
X167084772Y-158773154D01*
X167083500Y-158755299D01*
X167083499Y-149970750D01*
X170015500Y-149970750D01*
X176235500Y-156190750D01*
X181585500Y-150840750D01*
X181715500Y-150680750D01*
X181835500Y-150500750D01*
X181925500Y-150300750D01*
X181995500Y-150100750D01*
X182025500Y-149960750D01*
X182045500Y-149820750D01*
X182055500Y-149600750D01*
X182055500Y-149450750D01*
X182054949Y-149446614D01*
X182054948Y-149446606D01*
X182035909Y-149303818D01*
X182035500Y-149300750D01*
X181995500Y-149130750D01*
X181945500Y-148960750D01*
X181815500Y-148700750D01*
X181755500Y-148600750D01*
X181675500Y-148490750D01*
X181585500Y-148390750D01*
X176595500Y-143400750D01*
X170015500Y-149970750D01*
X167083499Y-149970750D01*
X167083499Y-139244480D01*
X171612314Y-139244480D01*
X171615702Y-139270386D01*
X171616157Y-139274362D01*
X171628467Y-139399344D01*
X171671810Y-139542227D01*
X171742195Y-139673909D01*
X171836918Y-139789329D01*
X171952337Y-139884053D01*
X172084019Y-139954439D01*
X172226902Y-139997783D01*
X172320843Y-140007036D01*
X172329373Y-140008172D01*
X172362956Y-140013822D01*
X172369146Y-140013898D01*
X172370631Y-140013916D01*
X172370636Y-140013916D01*
X172375495Y-140013975D01*
X172391324Y-140011708D01*
X172403100Y-140010022D01*
X172420961Y-140008750D01*
X184822300Y-140008750D01*
X184843204Y-140010496D01*
X184862962Y-140013820D01*
X184869290Y-140013897D01*
X184870642Y-140013914D01*
X184870646Y-140013914D01*
X184875501Y-140013973D01*
X184880318Y-140013283D01*
X184880320Y-140013283D01*
X184907547Y-140009384D01*
X184913059Y-140008718D01*
X185017932Y-139998389D01*
X185024095Y-139997782D01*
X185030013Y-139995987D01*
X185030017Y-139995986D01*
X185161055Y-139956236D01*
X185161058Y-139956235D01*
X185166978Y-139954439D01*
X185298661Y-139884053D01*
X185414081Y-139789330D01*
X185508804Y-139673910D01*
X185511723Y-139668450D01*
X185559809Y-139578486D01*
X185579190Y-139542227D01*
X185622533Y-139399344D01*
X185631785Y-139305407D01*
X185632923Y-139296858D01*
X185638571Y-139263289D01*
X185638724Y-139250750D01*
X185634773Y-139223162D01*
X185633500Y-139205299D01*
X185633500Y-126803958D01*
X185635246Y-126783052D01*
X185636433Y-126776001D01*
X185638571Y-126763291D01*
X185638724Y-126750752D01*
X185638035Y-126745939D01*
X185638034Y-126745927D01*
X185634133Y-126718691D01*
X185633467Y-126713177D01*
X185633219Y-126710650D01*
X185622533Y-126602157D01*
X185620737Y-126596234D01*
X185580987Y-126465196D01*
X185580986Y-126465193D01*
X185579190Y-126459273D01*
X185508804Y-126327590D01*
X185414081Y-126212169D01*
X185298660Y-126117446D01*
X185166977Y-126047060D01*
X185161057Y-126045264D01*
X185161054Y-126045263D01*
X185030015Y-126005513D01*
X185030011Y-126005512D01*
X185024093Y-126003717D01*
X185017932Y-126003110D01*
X185017931Y-126003110D01*
X184930160Y-125994465D01*
X184921610Y-125993326D01*
X184892839Y-125988486D01*
X184892829Y-125988485D01*
X184888037Y-125987679D01*
X184881682Y-125987601D01*
X184880357Y-125987585D01*
X184880353Y-125987585D01*
X184875498Y-125987526D01*
X184847911Y-125991477D01*
X184830048Y-125992750D01*
X172428700Y-125992750D01*
X172407796Y-125991004D01*
X172404832Y-125990505D01*
X172388038Y-125987680D01*
X172381710Y-125987603D01*
X172380358Y-125987586D01*
X172380354Y-125987586D01*
X172375499Y-125987527D01*
X172370682Y-125988217D01*
X172370680Y-125988217D01*
X172343453Y-125992116D01*
X172337941Y-125992782D01*
X172233078Y-126003110D01*
X172226905Y-126003718D01*
X172220987Y-126005513D01*
X172220983Y-126005514D01*
X172089945Y-126045264D01*
X172089942Y-126045265D01*
X172084022Y-126047061D01*
X171952339Y-126117447D01*
X171836919Y-126212170D01*
X171742196Y-126327590D01*
X171671810Y-126459273D01*
X171628467Y-126602156D01*
X171627860Y-126608319D01*
X171618474Y-126703616D01*
X171617581Y-126710650D01*
X171613695Y-126735606D01*
X171613695Y-126735611D01*
X171612314Y-126744480D01*
X171613478Y-126753382D01*
X171613478Y-126753385D01*
X171616436Y-126776001D01*
X171617500Y-126792339D01*
X171617500Y-139201422D01*
X171616000Y-139220806D01*
X171612314Y-139244480D01*
X167083499Y-139244480D01*
X167083498Y-126303958D01*
X167085244Y-126283052D01*
X167087763Y-126268082D01*
X167087763Y-126268081D01*
X167088569Y-126263291D01*
X167088722Y-126250752D01*
X167088033Y-126245939D01*
X167088032Y-126245927D01*
X167084131Y-126218690D01*
X167083465Y-126213177D01*
X167082980Y-126208247D01*
X167072531Y-126102158D01*
X167029189Y-125959274D01*
X167018926Y-125940072D01*
X166961720Y-125833048D01*
X166958804Y-125827592D01*
X166864081Y-125712171D01*
X166748661Y-125617448D01*
X166734559Y-125609910D01*
X166708963Y-125596229D01*
X166616979Y-125547062D01*
X166474096Y-125503718D01*
X166380154Y-125494465D01*
X166371624Y-125493329D01*
X166338041Y-125487679D01*
X166331851Y-125487603D01*
X166330366Y-125487585D01*
X166330361Y-125487585D01*
X166325502Y-125487526D01*
X166309669Y-125489793D01*
X166297904Y-125491478D01*
X166280043Y-125492750D01*
X152878702Y-125492750D01*
X152857801Y-125491004D01*
X152838035Y-125487679D01*
X152831680Y-125487601D01*
X152830355Y-125487585D01*
X152830351Y-125487585D01*
X152825496Y-125487526D01*
X152808139Y-125490012D01*
X152793453Y-125492115D01*
X152787941Y-125492781D01*
X152732334Y-125498258D01*
X152676902Y-125503718D01*
X152534019Y-125547062D01*
X152442035Y-125596229D01*
X152416440Y-125609910D01*
X152402337Y-125617448D01*
X152286917Y-125712171D01*
X152192194Y-125827592D01*
X152189278Y-125833048D01*
X152132073Y-125940072D01*
X152121809Y-125959274D01*
X152078467Y-126102158D01*
X152076961Y-126117446D01*
X152069215Y-126196090D01*
X152068076Y-126204640D01*
X152063236Y-126233411D01*
X152063235Y-126233421D01*
X152062429Y-126238213D01*
X152062276Y-126250752D01*
X152062966Y-126255567D01*
X152066227Y-126278339D01*
X152067500Y-126296202D01*
X152067500Y-128491750D01*
X152047498Y-128559871D01*
X151993842Y-128606364D01*
X151941500Y-128617750D01*
X151908702Y-128617750D01*
X151887801Y-128616004D01*
X151868035Y-128612679D01*
X151861680Y-128612601D01*
X151860355Y-128612585D01*
X151860351Y-128612585D01*
X151855496Y-128612526D01*
X151838139Y-128615012D01*
X151823453Y-128617115D01*
X151817941Y-128617781D01*
X151762334Y-128623258D01*
X151706902Y-128628718D01*
X151564019Y-128672062D01*
X151432337Y-128742448D01*
X151316917Y-128837171D01*
X151222194Y-128952592D01*
X151151809Y-129084274D01*
X151108467Y-129227158D01*
X151107860Y-129233323D01*
X151099215Y-129321090D01*
X151098076Y-129329640D01*
X151093236Y-129358411D01*
X151093235Y-129358421D01*
X151092429Y-129363213D01*
X151092276Y-129375752D01*
X151092966Y-129380567D01*
X151096227Y-129403339D01*
X151097500Y-129421202D01*
X151097500Y-131822548D01*
X151095754Y-131843449D01*
X151092429Y-131863215D01*
X151092276Y-131875754D01*
X151092966Y-131880570D01*
X151096865Y-131907797D01*
X151097531Y-131913309D01*
X151108468Y-132024348D01*
X151151812Y-132167231D01*
X151222198Y-132298913D01*
X151316921Y-132414333D01*
X151432342Y-132509056D01*
X151498183Y-132544248D01*
X151558568Y-132576525D01*
X151558570Y-132576526D01*
X151564024Y-132579441D01*
X151706908Y-132622783D01*
X151741949Y-132626234D01*
X151800840Y-132632035D01*
X151809390Y-132633174D01*
X151838161Y-132638014D01*
X151838171Y-132638015D01*
X151842963Y-132638821D01*
X151849318Y-132638899D01*
X151850643Y-132638915D01*
X151850647Y-132638915D01*
X151855502Y-132638974D01*
X151883090Y-132635023D01*
X151900952Y-132633750D01*
X151941500Y-132633750D01*
X152009621Y-132653752D01*
X152056114Y-132707408D01*
X152067500Y-132759750D01*
X152067500Y-152291750D01*
X152047498Y-152359871D01*
X151993842Y-152406364D01*
X151941500Y-152417750D01*
X151908707Y-152417750D01*
X151887803Y-152416004D01*
X151884637Y-152415471D01*
X151868039Y-152412679D01*
X151861711Y-152412602D01*
X151860359Y-152412585D01*
X151860355Y-152412585D01*
X151855500Y-152412526D01*
X151850683Y-152413216D01*
X151850681Y-152413216D01*
X151823454Y-152417115D01*
X151817942Y-152417781D01*
X151713069Y-152428110D01*
X151706906Y-152428717D01*
X151700988Y-152430512D01*
X151700984Y-152430513D01*
X151569946Y-152470263D01*
X151569943Y-152470264D01*
X151564023Y-152472060D01*
X151558565Y-152474977D01*
X151558561Y-152474979D01*
X151437800Y-152539527D01*
X151432341Y-152542445D01*
X151316921Y-152637168D01*
X151222197Y-152752587D01*
X151151811Y-152884269D01*
X151108467Y-153027152D01*
X151107386Y-153038132D01*
X151099215Y-153121083D01*
X151098078Y-153129623D01*
X151092428Y-153163206D01*
X151092275Y-153175745D01*
X148033500Y-153175745D01*
X148033500Y-145059452D01*
X148033502Y-145058682D01*
X148033843Y-145002795D01*
X148033976Y-144981098D01*
X148031510Y-144972469D01*
X148031509Y-144972464D01*
X148025861Y-144952702D01*
X148022283Y-144935941D01*
X148019370Y-144915598D01*
X148019367Y-144915588D01*
X148018095Y-144906705D01*
X148007479Y-144883355D01*
X148001036Y-144865843D01*
X147996454Y-144849813D01*
X147993988Y-144841185D01*
X147978226Y-144816202D01*
X147970096Y-144801136D01*
X147957867Y-144774240D01*
X147941126Y-144754811D01*
X147930021Y-144739803D01*
X147921130Y-144725711D01*
X147916340Y-144718119D01*
X147894203Y-144698568D01*
X147882159Y-144686376D01*
X147868739Y-144670801D01*
X147868737Y-144670800D01*
X147862881Y-144664003D01*
X147855353Y-144659124D01*
X147855350Y-144659121D01*
X147841361Y-144650054D01*
X147826487Y-144638764D01*
X147814002Y-144627738D01*
X147807272Y-144621794D01*
X147799146Y-144617979D01*
X147799145Y-144617978D01*
X147793479Y-144615318D01*
X147780534Y-144609240D01*
X147765565Y-144600926D01*
X147740773Y-144584857D01*
X147716209Y-144577511D01*
X147698764Y-144570849D01*
X147694327Y-144568766D01*
X147675552Y-144559951D01*
X147646370Y-144555407D01*
X147629651Y-144551624D01*
X147609964Y-144545736D01*
X147609961Y-144545735D01*
X147601359Y-144543163D01*
X147592384Y-144543108D01*
X147592383Y-144543108D01*
X147585690Y-144543067D01*
X147566944Y-144542953D01*
X147566172Y-144542920D01*
X147565077Y-144542750D01*
X147534202Y-144542750D01*
X147533432Y-144542748D01*
X147459784Y-144542298D01*
X147459783Y-144542298D01*
X147455848Y-144542274D01*
X147454504Y-144542658D01*
X147453159Y-144542750D01*
X133534202Y-144542750D01*
X133533432Y-144542748D01*
X133532578Y-144542743D01*
X133455848Y-144542274D01*
X133447219Y-144544740D01*
X133447214Y-144544741D01*
X133427452Y-144550389D01*
X133410691Y-144553967D01*
X133390348Y-144556880D01*
X133390338Y-144556883D01*
X133381455Y-144558155D01*
X133358105Y-144568771D01*
X133340593Y-144575214D01*
X133332557Y-144577511D01*
X133315935Y-144582262D01*
X133290952Y-144598024D01*
X133275886Y-144606154D01*
X133248990Y-144618383D01*
X133229561Y-144635124D01*
X133214553Y-144646229D01*
X133192869Y-144659910D01*
X133186927Y-144666638D01*
X133173319Y-144682046D01*
X133161127Y-144694090D01*
X133138753Y-144713369D01*
X133133874Y-144720897D01*
X133133871Y-144720900D01*
X133124804Y-144734889D01*
X133113514Y-144749763D01*
X133096544Y-144768978D01*
X133083990Y-144795716D01*
X133075676Y-144810685D01*
X133059607Y-144835477D01*
X133057035Y-144844077D01*
X133052261Y-144860040D01*
X133045599Y-144877486D01*
X133034701Y-144900698D01*
X133030158Y-144929878D01*
X133026374Y-144946599D01*
X133020486Y-144966286D01*
X133020485Y-144966289D01*
X133017913Y-144974891D01*
X133017743Y-145002795D01*
X133017703Y-145009296D01*
X133017670Y-145010078D01*
X133017500Y-145011173D01*
X133017500Y-145042048D01*
X133017498Y-145042818D01*
X133017024Y-145120402D01*
X133017408Y-145121746D01*
X133017500Y-145123091D01*
X133017500Y-159042048D01*
X133017498Y-159042818D01*
X133017024Y-159120402D01*
X128914129Y-159120402D01*
X128915609Y-159117633D01*
X128929188Y-159092229D01*
X128972532Y-158949346D01*
X128981785Y-158855404D01*
X128982921Y-158846874D01*
X128988571Y-158813291D01*
X128988724Y-158800752D01*
X128984772Y-158773154D01*
X128983500Y-158755293D01*
X128983500Y-145353952D01*
X128985246Y-145333048D01*
X128988571Y-145313285D01*
X128988724Y-145300746D01*
X128984135Y-145268703D01*
X128983469Y-145263191D01*
X128976732Y-145194795D01*
X128972532Y-145152152D01*
X128929188Y-145009269D01*
X128858802Y-144877587D01*
X128764079Y-144762167D01*
X128648658Y-144667444D01*
X128556113Y-144617978D01*
X128522432Y-144599975D01*
X128522430Y-144599974D01*
X128516976Y-144597059D01*
X128374092Y-144553717D01*
X128339051Y-144550266D01*
X128280160Y-144544465D01*
X128271610Y-144543326D01*
X128242839Y-144538486D01*
X128242829Y-144538485D01*
X128238037Y-144537679D01*
X128231682Y-144537601D01*
X128230357Y-144537585D01*
X128230353Y-144537585D01*
X128225498Y-144537526D01*
X128197911Y-144541477D01*
X128180048Y-144542750D01*
X125984500Y-144542750D01*
X125916379Y-144522748D01*
X125869886Y-144469092D01*
X125858500Y-144416750D01*
X125858500Y-144383952D01*
X125860246Y-144363048D01*
X125862764Y-144348079D01*
X125863571Y-144343285D01*
X125863724Y-144330746D01*
X125859135Y-144298703D01*
X125858469Y-144293191D01*
X125848139Y-144188316D01*
X125847532Y-144182152D01*
X125804188Y-144039269D01*
X125733802Y-143907587D01*
X125639079Y-143792167D01*
X125523658Y-143697444D01*
X125397439Y-143629979D01*
X125397432Y-143629975D01*
X125397430Y-143629974D01*
X125391976Y-143627059D01*
X125249092Y-143583717D01*
X125214051Y-143580266D01*
X125155160Y-143574465D01*
X125146610Y-143573326D01*
X125117839Y-143568486D01*
X125117829Y-143568485D01*
X125113037Y-143567679D01*
X125106682Y-143567601D01*
X125105357Y-143567585D01*
X125105353Y-143567585D01*
X125100498Y-143567526D01*
X125072911Y-143571477D01*
X125055048Y-143572750D01*
X122653702Y-143572750D01*
X122632801Y-143571004D01*
X122613035Y-143567679D01*
X122606680Y-143567601D01*
X122605355Y-143567585D01*
X122605351Y-143567585D01*
X122600496Y-143567526D01*
X122583139Y-143570012D01*
X122568453Y-143572115D01*
X122562941Y-143572781D01*
X122507334Y-143578258D01*
X122451902Y-143583718D01*
X122309019Y-143627062D01*
X122198639Y-143686062D01*
X122182804Y-143694526D01*
X122177337Y-143697448D01*
X122061917Y-143792171D01*
X121967194Y-143907592D01*
X121896809Y-144039274D01*
X121853467Y-144182158D01*
X121852860Y-144188323D01*
X121844215Y-144276090D01*
X121843076Y-144284640D01*
X121838236Y-144313411D01*
X121838236Y-144313413D01*
X121837429Y-144318213D01*
X121837276Y-144330752D01*
X121841227Y-144358339D01*
X121842500Y-144376202D01*
X121842500Y-144416750D01*
X121822498Y-144484871D01*
X121768842Y-144531364D01*
X121716500Y-144542750D01*
X102184500Y-144542750D01*
X102116379Y-144522748D01*
X102069886Y-144469092D01*
X102058500Y-144416750D01*
X102058500Y-144383957D01*
X102060246Y-144363053D01*
X102062764Y-144348085D01*
X102062765Y-144348079D01*
X102063571Y-144343289D01*
X102063724Y-144330750D01*
X102063034Y-144325930D01*
X102059135Y-144298704D01*
X102058469Y-144293192D01*
X102048140Y-144188319D01*
X102047533Y-144182156D01*
X102004190Y-144039273D01*
X102001270Y-144033809D01*
X101936723Y-143913050D01*
X101936722Y-143913048D01*
X101933805Y-143907591D01*
X101839082Y-143792171D01*
X101834302Y-143788248D01*
X101728453Y-143701378D01*
X101728449Y-143701375D01*
X101723663Y-143697447D01*
X101591981Y-143627061D01*
X101449098Y-143583717D01*
X101355157Y-143574464D01*
X101346627Y-143573328D01*
X101313044Y-143567678D01*
X101306854Y-143567602D01*
X101305369Y-143567584D01*
X101305364Y-143567584D01*
X101300505Y-143567525D01*
X101284676Y-143569792D01*
X101272900Y-143571478D01*
X101255039Y-143572750D01*
X98853707Y-143572750D01*
X98832803Y-143571004D01*
X98829637Y-143570471D01*
X98813039Y-143567679D01*
X98806711Y-143567602D01*
X98805359Y-143567585D01*
X98805355Y-143567585D01*
X98800500Y-143567526D01*
X98795683Y-143568216D01*
X98795681Y-143568216D01*
X98768454Y-143572115D01*
X98762942Y-143572781D01*
X98658069Y-143583110D01*
X98651906Y-143583717D01*
X98645988Y-143585512D01*
X98645984Y-143585513D01*
X98514946Y-143625263D01*
X98514943Y-143625264D01*
X98509023Y-143627060D01*
X98503565Y-143629977D01*
X98503561Y-143629979D01*
X98382802Y-143694526D01*
X98377341Y-143697445D01*
X98261921Y-143792168D01*
X98167197Y-143907587D01*
X98096811Y-144039269D01*
X98053467Y-144182152D01*
X98052860Y-144188316D01*
X98044215Y-144276083D01*
X98043078Y-144284623D01*
X98037428Y-144318206D01*
X98037275Y-144330745D01*
X98039757Y-144348079D01*
X98041227Y-144358342D01*
X98042499Y-144376203D01*
X98042499Y-144416750D01*
X98022497Y-144484871D01*
X97968841Y-144531364D01*
X97916499Y-144542750D01*
X95728707Y-144542750D01*
X95707803Y-144541004D01*
X95704637Y-144540471D01*
X95688039Y-144537679D01*
X95681711Y-144537602D01*
X95680359Y-144537585D01*
X95680355Y-144537585D01*
X95675500Y-144537526D01*
X95670683Y-144538216D01*
X95670681Y-144538216D01*
X95643454Y-144542115D01*
X95637942Y-144542781D01*
X95536714Y-144552751D01*
X95526906Y-144553717D01*
X95520988Y-144555512D01*
X95520984Y-144555513D01*
X95389946Y-144595263D01*
X95389943Y-144595264D01*
X95384023Y-144597060D01*
X95378565Y-144599977D01*
X95378561Y-144599979D01*
X95257800Y-144664527D01*
X95252341Y-144667445D01*
X95136921Y-144762168D01*
X95042197Y-144877587D01*
X94971811Y-145009269D01*
X94928467Y-145152152D01*
X94927386Y-145163133D01*
X94919215Y-145246083D01*
X94918078Y-145254623D01*
X94912428Y-145288206D01*
X94912275Y-145300745D01*
X93345000Y-145300745D01*
X93345000Y-140070402D01*
X94917024Y-140070402D01*
X94919490Y-140079031D01*
X94919491Y-140079036D01*
X94925139Y-140098798D01*
X94928717Y-140115559D01*
X94931630Y-140135902D01*
X94931633Y-140135912D01*
X94932905Y-140144795D01*
X94943521Y-140168145D01*
X94949964Y-140185657D01*
X94957012Y-140210315D01*
X94972774Y-140235298D01*
X94980904Y-140250364D01*
X94993133Y-140277260D01*
X95009874Y-140296689D01*
X95020979Y-140311697D01*
X95034660Y-140333381D01*
X95041388Y-140339323D01*
X95056796Y-140352931D01*
X95068840Y-140365123D01*
X95088119Y-140387497D01*
X95095647Y-140392376D01*
X95095650Y-140392379D01*
X95109639Y-140401446D01*
X95124513Y-140412736D01*
X95143728Y-140429706D01*
X95151854Y-140433521D01*
X95151855Y-140433522D01*
X95157521Y-140436182D01*
X95170466Y-140442260D01*
X95185435Y-140450574D01*
X95210227Y-140466643D01*
X95227150Y-140471704D01*
X95234790Y-140473989D01*
X95252236Y-140480651D01*
X95275448Y-140491549D01*
X95304630Y-140496093D01*
X95321349Y-140499876D01*
X95341036Y-140505764D01*
X95341039Y-140505765D01*
X95349641Y-140508337D01*
X95358616Y-140508392D01*
X95358617Y-140508392D01*
X95365310Y-140508433D01*
X95384056Y-140508547D01*
X95384828Y-140508580D01*
X95385923Y-140508750D01*
X95416798Y-140508750D01*
X95417568Y-140508752D01*
X95491216Y-140509202D01*
X95491217Y-140509202D01*
X95495152Y-140509226D01*
X95496496Y-140508842D01*
X95497841Y-140508750D01*
X109416798Y-140508750D01*
X109417569Y-140508752D01*
X109495152Y-140509226D01*
X109503781Y-140506760D01*
X109503786Y-140506759D01*
X109523548Y-140501111D01*
X109540309Y-140497533D01*
X109560652Y-140494620D01*
X109560662Y-140494617D01*
X109569545Y-140493345D01*
X109592895Y-140482729D01*
X109610407Y-140476286D01*
X109626437Y-140471704D01*
X109635065Y-140469238D01*
X109660048Y-140453476D01*
X109675114Y-140445346D01*
X109702010Y-140433117D01*
X109721439Y-140416376D01*
X109736447Y-140405271D01*
X109750539Y-140396380D01*
X109758131Y-140391590D01*
X109777682Y-140369453D01*
X109789874Y-140357409D01*
X109805449Y-140343989D01*
X109805450Y-140343987D01*
X109812247Y-140338131D01*
X109817126Y-140330603D01*
X109817129Y-140330600D01*
X109826196Y-140316611D01*
X109837486Y-140301737D01*
X109848512Y-140289252D01*
X109854456Y-140282522D01*
X109867010Y-140255784D01*
X109875324Y-140240815D01*
X109891393Y-140216023D01*
X109898739Y-140191459D01*
X109905401Y-140174014D01*
X109912483Y-140158929D01*
X109916299Y-140150802D01*
X109920843Y-140121620D01*
X109924626Y-140104901D01*
X109930514Y-140085214D01*
X109930515Y-140085211D01*
X109933087Y-140076609D01*
X109933125Y-140070402D01*
X113967024Y-140070402D01*
X113969490Y-140079031D01*
X113969491Y-140079036D01*
X113975139Y-140098798D01*
X113978717Y-140115559D01*
X113981630Y-140135902D01*
X113981633Y-140135912D01*
X113982905Y-140144795D01*
X113993521Y-140168145D01*
X113999964Y-140185657D01*
X114007012Y-140210315D01*
X114022774Y-140235298D01*
X114030904Y-140250364D01*
X114043133Y-140277260D01*
X114059874Y-140296689D01*
X114070979Y-140311697D01*
X114084660Y-140333381D01*
X114091388Y-140339323D01*
X114106796Y-140352931D01*
X114118840Y-140365123D01*
X114138119Y-140387497D01*
X114145647Y-140392376D01*
X114145650Y-140392379D01*
X114159639Y-140401446D01*
X114174513Y-140412736D01*
X114193728Y-140429706D01*
X114201854Y-140433521D01*
X114201855Y-140433522D01*
X114207521Y-140436182D01*
X114220466Y-140442260D01*
X114235435Y-140450574D01*
X114260227Y-140466643D01*
X114277150Y-140471704D01*
X114284790Y-140473989D01*
X114302236Y-140480651D01*
X114325448Y-140491549D01*
X114354630Y-140496093D01*
X114371349Y-140499876D01*
X114391036Y-140505764D01*
X114391039Y-140505765D01*
X114399641Y-140508337D01*
X114408616Y-140508392D01*
X114408617Y-140508392D01*
X114415310Y-140508433D01*
X114434056Y-140508547D01*
X114434828Y-140508580D01*
X114435923Y-140508750D01*
X114466798Y-140508750D01*
X114467568Y-140508752D01*
X114541216Y-140509202D01*
X114541217Y-140509202D01*
X114545152Y-140509226D01*
X114546496Y-140508842D01*
X114547841Y-140508750D01*
X128466798Y-140508750D01*
X128467569Y-140508752D01*
X128545152Y-140509226D01*
X128553781Y-140506760D01*
X128553786Y-140506759D01*
X128573548Y-140501111D01*
X128590309Y-140497533D01*
X128610652Y-140494620D01*
X128610662Y-140494617D01*
X128619545Y-140493345D01*
X128642895Y-140482729D01*
X128660407Y-140476286D01*
X128676437Y-140471704D01*
X128685065Y-140469238D01*
X128710048Y-140453476D01*
X128725114Y-140445346D01*
X128752010Y-140433117D01*
X128771439Y-140416376D01*
X128786447Y-140405271D01*
X128800539Y-140396380D01*
X128808131Y-140391590D01*
X128827682Y-140369453D01*
X128839874Y-140357409D01*
X128855449Y-140343989D01*
X128855450Y-140343987D01*
X128862247Y-140338131D01*
X128867126Y-140330603D01*
X128867129Y-140330600D01*
X128876196Y-140316611D01*
X128887486Y-140301737D01*
X128898512Y-140289252D01*
X128904456Y-140282522D01*
X128917010Y-140255784D01*
X128925324Y-140240815D01*
X128941393Y-140216023D01*
X128948739Y-140191459D01*
X128955401Y-140174014D01*
X128962483Y-140158929D01*
X128966299Y-140150802D01*
X128970843Y-140121620D01*
X128974626Y-140104901D01*
X128980514Y-140085214D01*
X128980515Y-140085211D01*
X128983087Y-140076609D01*
X128983125Y-140070402D01*
X133017024Y-140070402D01*
X133019490Y-140079031D01*
X133019491Y-140079036D01*
X133025139Y-140098798D01*
X133028717Y-140115559D01*
X133031630Y-140135902D01*
X133031633Y-140135912D01*
X133032905Y-140144795D01*
X133043521Y-140168145D01*
X133049964Y-140185657D01*
X133057012Y-140210315D01*
X133072774Y-140235298D01*
X133080904Y-140250364D01*
X133093133Y-140277260D01*
X133109874Y-140296689D01*
X133120979Y-140311697D01*
X133134660Y-140333381D01*
X133141388Y-140339323D01*
X133156796Y-140352931D01*
X133168840Y-140365123D01*
X133188119Y-140387497D01*
X133195647Y-140392376D01*
X133195650Y-140392379D01*
X133209639Y-140401446D01*
X133224513Y-140412736D01*
X133243728Y-140429706D01*
X133251854Y-140433521D01*
X133251855Y-140433522D01*
X133257521Y-140436182D01*
X133270466Y-140442260D01*
X133285435Y-140450574D01*
X133310227Y-140466643D01*
X133327150Y-140471704D01*
X133334790Y-140473989D01*
X133352236Y-140480651D01*
X133375448Y-140491549D01*
X133404630Y-140496093D01*
X133421349Y-140499876D01*
X133441036Y-140505764D01*
X133441039Y-140505765D01*
X133449641Y-140508337D01*
X133458616Y-140508392D01*
X133458617Y-140508392D01*
X133465310Y-140508433D01*
X133484056Y-140508547D01*
X133484828Y-140508580D01*
X133485923Y-140508750D01*
X133516798Y-140508750D01*
X133517568Y-140508752D01*
X133591216Y-140509202D01*
X133591217Y-140509202D01*
X133595152Y-140509226D01*
X133596496Y-140508842D01*
X133597841Y-140508750D01*
X147516798Y-140508750D01*
X147517569Y-140508752D01*
X147595152Y-140509226D01*
X147603781Y-140506760D01*
X147603786Y-140506759D01*
X147623548Y-140501111D01*
X147640309Y-140497533D01*
X147660652Y-140494620D01*
X147660662Y-140494617D01*
X147669545Y-140493345D01*
X147692895Y-140482729D01*
X147710407Y-140476286D01*
X147726437Y-140471704D01*
X147735065Y-140469238D01*
X147760048Y-140453476D01*
X147775114Y-140445346D01*
X147802010Y-140433117D01*
X147821439Y-140416376D01*
X147836447Y-140405271D01*
X147850539Y-140396380D01*
X147858131Y-140391590D01*
X147877682Y-140369453D01*
X147889874Y-140357409D01*
X147905449Y-140343989D01*
X147905450Y-140343987D01*
X147912247Y-140338131D01*
X147917126Y-140330603D01*
X147917129Y-140330600D01*
X147926196Y-140316611D01*
X147937486Y-140301737D01*
X147948512Y-140289252D01*
X147954456Y-140282522D01*
X147967010Y-140255784D01*
X147975324Y-140240815D01*
X147991393Y-140216023D01*
X147998739Y-140191459D01*
X148005401Y-140174014D01*
X148012483Y-140158929D01*
X148016299Y-140150802D01*
X148020843Y-140121620D01*
X148024626Y-140104901D01*
X148030514Y-140085214D01*
X148030515Y-140085211D01*
X148033087Y-140076609D01*
X148033297Y-140042194D01*
X148033330Y-140041422D01*
X148033500Y-140040327D01*
X148033500Y-140009384D01*
X148033502Y-140008663D01*
X148033952Y-139935034D01*
X148033952Y-139935033D01*
X148033976Y-139931098D01*
X148033592Y-139929754D01*
X148033500Y-139928409D01*
X148033500Y-126009452D01*
X148033502Y-126008682D01*
X148033921Y-125940072D01*
X148033976Y-125931098D01*
X148031510Y-125922469D01*
X148031509Y-125922464D01*
X148025861Y-125902702D01*
X148022283Y-125885941D01*
X148019370Y-125865598D01*
X148019367Y-125865588D01*
X148018095Y-125856705D01*
X148007479Y-125833355D01*
X148001036Y-125815843D01*
X147996454Y-125799813D01*
X147993988Y-125791185D01*
X147978226Y-125766202D01*
X147970096Y-125751136D01*
X147957867Y-125724240D01*
X147941126Y-125704811D01*
X147930021Y-125689803D01*
X147921130Y-125675711D01*
X147916340Y-125668119D01*
X147894203Y-125648568D01*
X147882159Y-125636376D01*
X147868739Y-125620801D01*
X147868737Y-125620800D01*
X147862881Y-125614003D01*
X147855353Y-125609124D01*
X147855350Y-125609121D01*
X147841361Y-125600054D01*
X147826487Y-125588764D01*
X147814002Y-125577738D01*
X147807272Y-125571794D01*
X147799146Y-125567979D01*
X147799145Y-125567978D01*
X147793479Y-125565318D01*
X147780534Y-125559240D01*
X147765565Y-125550926D01*
X147740773Y-125534857D01*
X147716209Y-125527511D01*
X147698764Y-125520849D01*
X147694327Y-125518766D01*
X147675552Y-125509951D01*
X147646370Y-125505407D01*
X147629651Y-125501624D01*
X147609964Y-125495736D01*
X147609961Y-125495735D01*
X147601359Y-125493163D01*
X147592384Y-125493108D01*
X147592383Y-125493108D01*
X147585690Y-125493067D01*
X147566944Y-125492953D01*
X147566172Y-125492920D01*
X147565077Y-125492750D01*
X147534202Y-125492750D01*
X147533432Y-125492748D01*
X147459784Y-125492298D01*
X147459783Y-125492298D01*
X147455848Y-125492274D01*
X147454504Y-125492658D01*
X147453159Y-125492750D01*
X133534202Y-125492750D01*
X133533432Y-125492748D01*
X133532578Y-125492743D01*
X133455848Y-125492274D01*
X133447219Y-125494740D01*
X133447214Y-125494741D01*
X133427452Y-125500389D01*
X133410691Y-125503967D01*
X133390348Y-125506880D01*
X133390338Y-125506883D01*
X133381455Y-125508155D01*
X133358105Y-125518771D01*
X133340593Y-125525214D01*
X133332557Y-125527511D01*
X133315935Y-125532262D01*
X133290952Y-125548024D01*
X133275886Y-125556154D01*
X133248990Y-125568383D01*
X133229561Y-125585124D01*
X133214553Y-125596229D01*
X133192869Y-125609910D01*
X133186927Y-125616638D01*
X133173319Y-125632046D01*
X133161127Y-125644090D01*
X133138753Y-125663369D01*
X133133874Y-125670897D01*
X133133871Y-125670900D01*
X133124804Y-125684889D01*
X133113514Y-125699763D01*
X133096544Y-125718978D01*
X133083990Y-125745716D01*
X133075676Y-125760685D01*
X133059607Y-125785477D01*
X133057035Y-125794077D01*
X133052261Y-125810040D01*
X133045599Y-125827486D01*
X133034701Y-125850698D01*
X133030158Y-125879878D01*
X133026374Y-125896599D01*
X133020486Y-125916286D01*
X133020485Y-125916289D01*
X133017913Y-125924891D01*
X133017858Y-125933866D01*
X133017858Y-125933867D01*
X133017703Y-125959296D01*
X133017670Y-125960078D01*
X133017500Y-125961173D01*
X133017500Y-125992048D01*
X133017498Y-125992750D01*
X133017024Y-126070402D01*
X133017408Y-126071746D01*
X133017500Y-126073091D01*
X133017500Y-139992048D01*
X133017498Y-139992818D01*
X133017024Y-140070402D01*
X128983125Y-140070402D01*
X128983297Y-140042194D01*
X128983330Y-140041422D01*
X128983500Y-140040327D01*
X128983500Y-140009384D01*
X128983502Y-140008663D01*
X128983952Y-139935034D01*
X128983952Y-139935033D01*
X128983976Y-139931098D01*
X128983592Y-139929754D01*
X128983500Y-139928409D01*
X128983500Y-126009452D01*
X128983502Y-126008682D01*
X128983921Y-125940072D01*
X128983976Y-125931098D01*
X128981510Y-125922469D01*
X128981509Y-125922464D01*
X128975861Y-125902702D01*
X128972283Y-125885941D01*
X128969370Y-125865598D01*
X128969367Y-125865588D01*
X128968095Y-125856705D01*
X128957479Y-125833355D01*
X128951036Y-125815843D01*
X128946454Y-125799813D01*
X128943988Y-125791185D01*
X128928226Y-125766202D01*
X128920096Y-125751136D01*
X128907867Y-125724240D01*
X128891126Y-125704811D01*
X128880021Y-125689803D01*
X128871130Y-125675711D01*
X128866340Y-125668119D01*
X128844203Y-125648568D01*
X128832159Y-125636376D01*
X128818739Y-125620801D01*
X128818737Y-125620800D01*
X128812881Y-125614003D01*
X128805353Y-125609124D01*
X128805350Y-125609121D01*
X128791361Y-125600054D01*
X128776487Y-125588764D01*
X128764002Y-125577738D01*
X128757272Y-125571794D01*
X128749146Y-125567979D01*
X128749145Y-125567978D01*
X128743479Y-125565318D01*
X128730534Y-125559240D01*
X128715565Y-125550926D01*
X128690773Y-125534857D01*
X128666209Y-125527511D01*
X128648764Y-125520849D01*
X128644327Y-125518766D01*
X128625552Y-125509951D01*
X128596370Y-125505407D01*
X128579651Y-125501624D01*
X128559964Y-125495736D01*
X128559961Y-125495735D01*
X128551359Y-125493163D01*
X128542384Y-125493108D01*
X128542383Y-125493108D01*
X128535690Y-125493067D01*
X128516944Y-125492953D01*
X128516172Y-125492920D01*
X128515077Y-125492750D01*
X128484202Y-125492750D01*
X128483432Y-125492748D01*
X128409784Y-125492298D01*
X128409783Y-125492298D01*
X128405848Y-125492274D01*
X128404504Y-125492658D01*
X128403159Y-125492750D01*
X114484202Y-125492750D01*
X114483432Y-125492748D01*
X114482578Y-125492743D01*
X114405848Y-125492274D01*
X114397219Y-125494740D01*
X114397214Y-125494741D01*
X114377452Y-125500389D01*
X114360691Y-125503967D01*
X114340348Y-125506880D01*
X114340338Y-125506883D01*
X114331455Y-125508155D01*
X114308105Y-125518771D01*
X114290593Y-125525214D01*
X114282557Y-125527511D01*
X114265935Y-125532262D01*
X114240952Y-125548024D01*
X114225886Y-125556154D01*
X114198990Y-125568383D01*
X114179561Y-125585124D01*
X114164553Y-125596229D01*
X114142869Y-125609910D01*
X114136927Y-125616638D01*
X114123319Y-125632046D01*
X114111127Y-125644090D01*
X114088753Y-125663369D01*
X114083874Y-125670897D01*
X114083871Y-125670900D01*
X114074804Y-125684889D01*
X114063514Y-125699763D01*
X114046544Y-125718978D01*
X114033990Y-125745716D01*
X114025676Y-125760685D01*
X114009607Y-125785477D01*
X114007035Y-125794077D01*
X114002261Y-125810040D01*
X113995599Y-125827486D01*
X113984701Y-125850698D01*
X113980158Y-125879878D01*
X113976374Y-125896599D01*
X113970486Y-125916286D01*
X113970485Y-125916289D01*
X113967913Y-125924891D01*
X113967858Y-125933866D01*
X113967858Y-125933867D01*
X113967703Y-125959296D01*
X113967670Y-125960078D01*
X113967500Y-125961173D01*
X113967500Y-125992048D01*
X113967498Y-125992750D01*
X113967024Y-126070402D01*
X113967408Y-126071746D01*
X113967500Y-126073091D01*
X113967500Y-139992048D01*
X113967498Y-139992818D01*
X113967024Y-140070402D01*
X109933125Y-140070402D01*
X109933297Y-140042194D01*
X109933330Y-140041422D01*
X109933500Y-140040327D01*
X109933500Y-140009384D01*
X109933502Y-140008663D01*
X109933952Y-139935034D01*
X109933952Y-139935033D01*
X109933976Y-139931098D01*
X109933592Y-139929754D01*
X109933500Y-139928409D01*
X109933500Y-126009452D01*
X109933502Y-126008682D01*
X109933921Y-125940072D01*
X109933976Y-125931098D01*
X109931510Y-125922469D01*
X109931509Y-125922464D01*
X109925861Y-125902702D01*
X109922283Y-125885941D01*
X109919370Y-125865598D01*
X109919367Y-125865588D01*
X109918095Y-125856705D01*
X109907479Y-125833355D01*
X109901036Y-125815843D01*
X109896454Y-125799813D01*
X109893988Y-125791185D01*
X109878226Y-125766202D01*
X109870096Y-125751136D01*
X109857867Y-125724240D01*
X109841126Y-125704811D01*
X109830021Y-125689803D01*
X109821130Y-125675711D01*
X109816340Y-125668119D01*
X109794203Y-125648568D01*
X109782159Y-125636376D01*
X109768739Y-125620801D01*
X109768737Y-125620800D01*
X109762881Y-125614003D01*
X109755353Y-125609124D01*
X109755350Y-125609121D01*
X109741361Y-125600054D01*
X109726487Y-125588764D01*
X109714002Y-125577738D01*
X109707272Y-125571794D01*
X109699146Y-125567979D01*
X109699145Y-125567978D01*
X109693479Y-125565318D01*
X109680534Y-125559240D01*
X109665565Y-125550926D01*
X109640773Y-125534857D01*
X109616209Y-125527511D01*
X109598764Y-125520849D01*
X109594327Y-125518766D01*
X109575552Y-125509951D01*
X109546370Y-125505407D01*
X109529651Y-125501624D01*
X109509964Y-125495736D01*
X109509961Y-125495735D01*
X109501359Y-125493163D01*
X109492384Y-125493108D01*
X109492383Y-125493108D01*
X109485690Y-125493067D01*
X109466944Y-125492953D01*
X109466172Y-125492920D01*
X109465077Y-125492750D01*
X109434202Y-125492750D01*
X109433432Y-125492748D01*
X109359784Y-125492298D01*
X109359783Y-125492298D01*
X109355848Y-125492274D01*
X109354504Y-125492658D01*
X109353159Y-125492750D01*
X95434202Y-125492750D01*
X95433432Y-125492748D01*
X95432578Y-125492743D01*
X95355848Y-125492274D01*
X95347219Y-125494740D01*
X95347214Y-125494741D01*
X95327452Y-125500389D01*
X95310691Y-125503967D01*
X95290348Y-125506880D01*
X95290338Y-125506883D01*
X95281455Y-125508155D01*
X95258105Y-125518771D01*
X95240593Y-125525214D01*
X95232557Y-125527511D01*
X95215935Y-125532262D01*
X95190952Y-125548024D01*
X95175886Y-125556154D01*
X95148990Y-125568383D01*
X95129561Y-125585124D01*
X95114553Y-125596229D01*
X95092869Y-125609910D01*
X95086927Y-125616638D01*
X95073319Y-125632046D01*
X95061127Y-125644090D01*
X95038753Y-125663369D01*
X95033874Y-125670897D01*
X95033871Y-125670900D01*
X95024804Y-125684889D01*
X95013514Y-125699763D01*
X94996544Y-125718978D01*
X94983990Y-125745716D01*
X94975676Y-125760685D01*
X94959607Y-125785477D01*
X94957035Y-125794077D01*
X94952261Y-125810040D01*
X94945599Y-125827486D01*
X94934701Y-125850698D01*
X94930158Y-125879878D01*
X94926374Y-125896599D01*
X94920486Y-125916286D01*
X94920485Y-125916289D01*
X94917913Y-125924891D01*
X94917858Y-125933866D01*
X94917858Y-125933867D01*
X94917703Y-125959296D01*
X94917670Y-125960078D01*
X94917500Y-125961173D01*
X94917500Y-125992048D01*
X94917498Y-125992750D01*
X94917024Y-126070402D01*
X94917408Y-126071746D01*
X94917500Y-126073091D01*
X94917500Y-139992048D01*
X94917498Y-139992818D01*
X94917024Y-140070402D01*
X93345000Y-140070402D01*
X93345000Y-121020402D01*
X94917024Y-121020402D01*
X94919490Y-121029031D01*
X94919491Y-121029036D01*
X94925139Y-121048798D01*
X94928717Y-121065559D01*
X94931630Y-121085902D01*
X94931633Y-121085912D01*
X94932905Y-121094795D01*
X94943521Y-121118145D01*
X94949964Y-121135657D01*
X94957012Y-121160315D01*
X94972774Y-121185298D01*
X94980904Y-121200364D01*
X94993133Y-121227260D01*
X95009874Y-121246689D01*
X95020979Y-121261697D01*
X95034660Y-121283381D01*
X95041388Y-121289323D01*
X95056796Y-121302931D01*
X95068841Y-121315124D01*
X95081768Y-121330126D01*
X95088119Y-121337497D01*
X95095647Y-121342376D01*
X95095650Y-121342379D01*
X95109639Y-121351446D01*
X95124513Y-121362736D01*
X95143728Y-121379706D01*
X95151854Y-121383521D01*
X95151855Y-121383522D01*
X95157521Y-121386182D01*
X95170466Y-121392260D01*
X95185435Y-121400574D01*
X95210227Y-121416643D01*
X95227150Y-121421704D01*
X95234790Y-121423989D01*
X95252236Y-121430651D01*
X95275448Y-121441549D01*
X95304630Y-121446093D01*
X95321349Y-121449876D01*
X95341036Y-121455764D01*
X95341039Y-121455765D01*
X95349641Y-121458337D01*
X95358616Y-121458392D01*
X95358617Y-121458392D01*
X95365310Y-121458433D01*
X95384056Y-121458547D01*
X95384828Y-121458580D01*
X95385923Y-121458750D01*
X95416798Y-121458750D01*
X95417568Y-121458752D01*
X95491216Y-121459202D01*
X95491217Y-121459202D01*
X95495152Y-121459226D01*
X95496496Y-121458842D01*
X95497841Y-121458750D01*
X109416798Y-121458750D01*
X109417569Y-121458752D01*
X109495152Y-121459226D01*
X109503781Y-121456760D01*
X109503786Y-121456759D01*
X109523548Y-121451111D01*
X109540309Y-121447533D01*
X109560652Y-121444620D01*
X109560662Y-121444617D01*
X109569545Y-121443345D01*
X109592895Y-121432729D01*
X109610407Y-121426286D01*
X109626437Y-121421704D01*
X109635065Y-121419238D01*
X109660048Y-121403476D01*
X109675114Y-121395346D01*
X109702010Y-121383117D01*
X109721439Y-121366376D01*
X109736447Y-121355271D01*
X109750539Y-121346380D01*
X109758131Y-121341590D01*
X109777682Y-121319453D01*
X109789874Y-121307409D01*
X109805449Y-121293989D01*
X109805450Y-121293987D01*
X109812247Y-121288131D01*
X109817126Y-121280603D01*
X109817129Y-121280600D01*
X109826196Y-121266611D01*
X109837486Y-121251737D01*
X109841953Y-121246679D01*
X109854456Y-121232522D01*
X109867010Y-121205784D01*
X109875324Y-121190815D01*
X109891393Y-121166023D01*
X109898739Y-121141459D01*
X109905401Y-121124014D01*
X109912483Y-121108929D01*
X109916299Y-121100802D01*
X109920843Y-121071620D01*
X109924626Y-121054901D01*
X109930514Y-121035214D01*
X109930515Y-121035211D01*
X109933087Y-121026609D01*
X109933125Y-121020402D01*
X113967024Y-121020402D01*
X113969490Y-121029031D01*
X113969491Y-121029036D01*
X113975139Y-121048798D01*
X113978717Y-121065559D01*
X113981630Y-121085902D01*
X113981633Y-121085912D01*
X113982905Y-121094795D01*
X113993521Y-121118145D01*
X113999964Y-121135657D01*
X114007012Y-121160315D01*
X114022774Y-121185298D01*
X114030904Y-121200364D01*
X114043133Y-121227260D01*
X114059874Y-121246689D01*
X114070979Y-121261697D01*
X114084660Y-121283381D01*
X114091388Y-121289323D01*
X114106796Y-121302931D01*
X114118841Y-121315124D01*
X114131768Y-121330126D01*
X114138119Y-121337497D01*
X114145647Y-121342376D01*
X114145650Y-121342379D01*
X114159639Y-121351446D01*
X114174513Y-121362736D01*
X114193728Y-121379706D01*
X114201854Y-121383521D01*
X114201855Y-121383522D01*
X114207521Y-121386182D01*
X114220466Y-121392260D01*
X114235435Y-121400574D01*
X114260227Y-121416643D01*
X114277150Y-121421704D01*
X114284790Y-121423989D01*
X114302236Y-121430651D01*
X114325448Y-121441549D01*
X114354630Y-121446093D01*
X114371349Y-121449876D01*
X114391036Y-121455764D01*
X114391039Y-121455765D01*
X114399641Y-121458337D01*
X114408616Y-121458392D01*
X114408617Y-121458392D01*
X114415310Y-121458433D01*
X114434056Y-121458547D01*
X114434828Y-121458580D01*
X114435923Y-121458750D01*
X114466798Y-121458750D01*
X114467568Y-121458752D01*
X114541216Y-121459202D01*
X114541217Y-121459202D01*
X114545152Y-121459226D01*
X114546496Y-121458842D01*
X114547841Y-121458750D01*
X128466798Y-121458750D01*
X128467569Y-121458752D01*
X128545152Y-121459226D01*
X128553781Y-121456760D01*
X128553786Y-121456759D01*
X128573548Y-121451111D01*
X128590309Y-121447533D01*
X128610652Y-121444620D01*
X128610662Y-121444617D01*
X128619545Y-121443345D01*
X128642895Y-121432729D01*
X128660407Y-121426286D01*
X128676437Y-121421704D01*
X128685065Y-121419238D01*
X128710048Y-121403476D01*
X128725114Y-121395346D01*
X128752010Y-121383117D01*
X128771439Y-121366376D01*
X128786447Y-121355271D01*
X128800539Y-121346380D01*
X128808131Y-121341590D01*
X128827682Y-121319453D01*
X128839874Y-121307409D01*
X128855449Y-121293989D01*
X128855450Y-121293987D01*
X128862247Y-121288131D01*
X128867126Y-121280603D01*
X128867129Y-121280600D01*
X128876196Y-121266611D01*
X128887486Y-121251737D01*
X128891953Y-121246679D01*
X128904456Y-121232522D01*
X128917010Y-121205784D01*
X128925324Y-121190815D01*
X128941393Y-121166023D01*
X128948739Y-121141459D01*
X128955401Y-121124014D01*
X128962483Y-121108929D01*
X128966299Y-121100802D01*
X128970843Y-121071620D01*
X128974626Y-121054901D01*
X128980514Y-121035214D01*
X128980515Y-121035211D01*
X128983087Y-121026609D01*
X128983125Y-121020402D01*
X133017024Y-121020402D01*
X133019490Y-121029031D01*
X133019491Y-121029036D01*
X133025139Y-121048798D01*
X133028717Y-121065559D01*
X133031630Y-121085902D01*
X133031633Y-121085912D01*
X133032905Y-121094795D01*
X133043521Y-121118145D01*
X133049964Y-121135657D01*
X133057012Y-121160315D01*
X133072774Y-121185298D01*
X133080904Y-121200364D01*
X133093133Y-121227260D01*
X133109874Y-121246689D01*
X133120979Y-121261697D01*
X133134660Y-121283381D01*
X133141388Y-121289323D01*
X133156796Y-121302931D01*
X133168841Y-121315124D01*
X133181768Y-121330126D01*
X133188119Y-121337497D01*
X133195647Y-121342376D01*
X133195650Y-121342379D01*
X133209639Y-121351446D01*
X133224513Y-121362736D01*
X133243728Y-121379706D01*
X133251854Y-121383521D01*
X133251855Y-121383522D01*
X133257521Y-121386182D01*
X133270466Y-121392260D01*
X133285435Y-121400574D01*
X133310227Y-121416643D01*
X133327150Y-121421704D01*
X133334790Y-121423989D01*
X133352236Y-121430651D01*
X133375448Y-121441549D01*
X133404630Y-121446093D01*
X133421349Y-121449876D01*
X133441036Y-121455764D01*
X133441039Y-121455765D01*
X133449641Y-121458337D01*
X133458616Y-121458392D01*
X133458617Y-121458392D01*
X133465310Y-121458433D01*
X133484056Y-121458547D01*
X133484828Y-121458580D01*
X133485923Y-121458750D01*
X133516798Y-121458750D01*
X133517568Y-121458752D01*
X133591216Y-121459202D01*
X133591217Y-121459202D01*
X133595152Y-121459226D01*
X133596496Y-121458842D01*
X133597841Y-121458750D01*
X147516798Y-121458750D01*
X147517569Y-121458752D01*
X147595152Y-121459226D01*
X147603781Y-121456760D01*
X147603786Y-121456759D01*
X147623548Y-121451111D01*
X147640309Y-121447533D01*
X147660652Y-121444620D01*
X147660662Y-121444617D01*
X147669545Y-121443345D01*
X147692895Y-121432729D01*
X147710407Y-121426286D01*
X147726437Y-121421704D01*
X147735065Y-121419238D01*
X147760048Y-121403476D01*
X147775114Y-121395346D01*
X147802010Y-121383117D01*
X147821439Y-121366376D01*
X147836447Y-121355271D01*
X147850539Y-121346380D01*
X147858131Y-121341590D01*
X147877682Y-121319453D01*
X147889874Y-121307409D01*
X147905449Y-121293989D01*
X147905450Y-121293987D01*
X147912247Y-121288131D01*
X147917126Y-121280603D01*
X147917129Y-121280600D01*
X147926196Y-121266611D01*
X147937486Y-121251737D01*
X147941953Y-121246679D01*
X147954456Y-121232522D01*
X147967010Y-121205784D01*
X147975324Y-121190815D01*
X147991393Y-121166023D01*
X147998739Y-121141459D01*
X148005401Y-121124014D01*
X148012483Y-121108929D01*
X148016299Y-121100802D01*
X148020843Y-121071620D01*
X148024626Y-121054901D01*
X148030514Y-121035214D01*
X148030515Y-121035211D01*
X148033087Y-121026609D01*
X148033297Y-120992194D01*
X148033330Y-120991422D01*
X148033500Y-120990327D01*
X148033500Y-120959384D01*
X148033502Y-120958663D01*
X148033952Y-120885034D01*
X148033952Y-120885033D01*
X148033976Y-120881098D01*
X148033592Y-120879754D01*
X148033500Y-120878409D01*
X148033500Y-115075745D01*
X151092275Y-115075745D01*
X151092965Y-115080562D01*
X151096228Y-115103350D01*
X151097500Y-115121211D01*
X151097500Y-117526422D01*
X151096000Y-117545806D01*
X151092314Y-117569480D01*
X151095702Y-117595386D01*
X151096157Y-117599362D01*
X151108467Y-117724344D01*
X151151810Y-117867227D01*
X151222195Y-117998909D01*
X151316918Y-118114329D01*
X151432337Y-118209053D01*
X151564019Y-118279439D01*
X151706902Y-118322783D01*
X151800843Y-118332036D01*
X151809373Y-118333172D01*
X151842956Y-118338822D01*
X151849122Y-118338897D01*
X151850630Y-118338916D01*
X151850635Y-118338916D01*
X151855495Y-118338975D01*
X151883093Y-118335023D01*
X151900953Y-118333751D01*
X151941500Y-118333751D01*
X152009621Y-118353753D01*
X152056114Y-118407409D01*
X152067500Y-118459751D01*
X152067500Y-120651422D01*
X152066000Y-120670806D01*
X152062314Y-120694480D01*
X152065702Y-120720386D01*
X152066157Y-120724362D01*
X152078467Y-120849344D01*
X152080262Y-120855262D01*
X152080263Y-120855266D01*
X152113211Y-120963881D01*
X152121810Y-120992227D01*
X152124727Y-120997685D01*
X152124729Y-120997689D01*
X152189277Y-121118450D01*
X152192195Y-121123909D01*
X152286918Y-121239329D01*
X152291698Y-121243252D01*
X152364416Y-121302931D01*
X152402337Y-121334053D01*
X152534019Y-121404439D01*
X152676902Y-121447783D01*
X152770843Y-121457036D01*
X152779373Y-121458172D01*
X152812956Y-121463822D01*
X152819146Y-121463898D01*
X152820631Y-121463916D01*
X152820636Y-121463916D01*
X152825495Y-121463975D01*
X152841328Y-121461708D01*
X152853093Y-121460023D01*
X152870954Y-121458751D01*
X159040545Y-121458750D01*
X166272294Y-121458749D01*
X166293198Y-121460495D01*
X166312962Y-121463820D01*
X166319290Y-121463897D01*
X166320642Y-121463914D01*
X166320646Y-121463914D01*
X166325501Y-121463973D01*
X166330318Y-121463283D01*
X166330320Y-121463283D01*
X166357547Y-121459384D01*
X166363059Y-121458718D01*
X166467932Y-121448389D01*
X166474095Y-121447782D01*
X166480013Y-121445987D01*
X166480017Y-121445986D01*
X166611055Y-121406236D01*
X166611058Y-121406235D01*
X166616978Y-121404439D01*
X166748661Y-121334053D01*
X166864081Y-121239330D01*
X166958804Y-121123910D01*
X166961723Y-121118450D01*
X167018927Y-121011428D01*
X167029190Y-120992227D01*
X167037789Y-120963881D01*
X167070737Y-120855266D01*
X167070738Y-120855262D01*
X167072533Y-120849344D01*
X167081785Y-120755407D01*
X167082923Y-120746858D01*
X167083530Y-120743252D01*
X167088571Y-120713289D01*
X167088724Y-120700750D01*
X167084773Y-120673162D01*
X167083500Y-120655299D01*
X167083500Y-120194480D01*
X171612314Y-120194480D01*
X171615702Y-120220386D01*
X171616157Y-120224362D01*
X171628467Y-120349344D01*
X171630262Y-120355262D01*
X171630263Y-120355266D01*
X171670013Y-120486304D01*
X171671810Y-120492227D01*
X171742195Y-120623909D01*
X171836918Y-120739329D01*
X171952337Y-120834053D01*
X172084019Y-120904439D01*
X172226902Y-120947783D01*
X172320843Y-120957036D01*
X172329373Y-120958172D01*
X172362956Y-120963822D01*
X172369146Y-120963898D01*
X172370631Y-120963916D01*
X172370636Y-120963916D01*
X172375495Y-120963975D01*
X172391324Y-120961708D01*
X172403100Y-120960022D01*
X172420961Y-120958750D01*
X184822300Y-120958750D01*
X184843204Y-120960496D01*
X184862962Y-120963820D01*
X184869290Y-120963897D01*
X184870642Y-120963914D01*
X184870646Y-120963914D01*
X184875501Y-120963973D01*
X184880318Y-120963283D01*
X184880320Y-120963283D01*
X184907547Y-120959384D01*
X184913059Y-120958718D01*
X185017932Y-120948389D01*
X185024095Y-120947782D01*
X185030013Y-120945987D01*
X185030017Y-120945986D01*
X185161055Y-120906236D01*
X185161058Y-120906235D01*
X185166978Y-120904439D01*
X185298661Y-120834053D01*
X185414081Y-120739330D01*
X185508804Y-120623910D01*
X185511723Y-120618450D01*
X185559809Y-120528486D01*
X185579190Y-120492227D01*
X185580987Y-120486304D01*
X185620737Y-120355266D01*
X185620738Y-120355262D01*
X185622533Y-120349344D01*
X185631785Y-120255407D01*
X185632923Y-120246858D01*
X185638571Y-120213289D01*
X185638724Y-120200750D01*
X185634773Y-120173162D01*
X185633500Y-120155299D01*
X185633500Y-107753958D01*
X185635246Y-107733052D01*
X185636433Y-107726001D01*
X185638571Y-107713291D01*
X185638724Y-107700752D01*
X185638035Y-107695939D01*
X185638034Y-107695927D01*
X185634133Y-107668691D01*
X185633467Y-107663177D01*
X185633219Y-107660650D01*
X185622533Y-107552157D01*
X185620737Y-107546234D01*
X185580987Y-107415196D01*
X185580986Y-107415193D01*
X185579190Y-107409273D01*
X185508804Y-107277590D01*
X185414081Y-107162169D01*
X185298660Y-107067446D01*
X185166977Y-106997060D01*
X185161057Y-106995264D01*
X185161054Y-106995263D01*
X185030015Y-106955513D01*
X185030011Y-106955512D01*
X185024093Y-106953717D01*
X185017932Y-106953110D01*
X185017931Y-106953110D01*
X184930160Y-106944465D01*
X184921610Y-106943326D01*
X184892839Y-106938486D01*
X184892829Y-106938485D01*
X184888037Y-106937679D01*
X184881682Y-106937601D01*
X184880357Y-106937585D01*
X184880353Y-106937585D01*
X184875498Y-106937526D01*
X184847911Y-106941477D01*
X184830048Y-106942750D01*
X172428700Y-106942750D01*
X172407796Y-106941004D01*
X172404832Y-106940505D01*
X172388038Y-106937680D01*
X172381710Y-106937603D01*
X172380358Y-106937586D01*
X172380354Y-106937586D01*
X172375499Y-106937527D01*
X172370682Y-106938217D01*
X172370680Y-106938217D01*
X172343453Y-106942116D01*
X172337941Y-106942782D01*
X172233078Y-106953110D01*
X172226905Y-106953718D01*
X172220987Y-106955513D01*
X172220983Y-106955514D01*
X172089945Y-106995264D01*
X172089942Y-106995265D01*
X172084022Y-106997061D01*
X171952339Y-107067447D01*
X171836919Y-107162170D01*
X171742196Y-107277590D01*
X171671810Y-107409273D01*
X171628467Y-107552156D01*
X171627860Y-107558319D01*
X171618474Y-107653616D01*
X171617581Y-107660650D01*
X171613695Y-107685606D01*
X171613695Y-107685611D01*
X171612314Y-107694480D01*
X171613478Y-107703382D01*
X171613478Y-107703385D01*
X171616436Y-107726001D01*
X171617500Y-107742339D01*
X171617500Y-120151422D01*
X171616000Y-120170806D01*
X171612314Y-120194480D01*
X167083500Y-120194480D01*
X167083499Y-101144480D01*
X171612314Y-101144480D01*
X171615702Y-101170386D01*
X171616157Y-101174362D01*
X171628467Y-101299344D01*
X171671810Y-101442227D01*
X171742195Y-101573909D01*
X171836918Y-101689329D01*
X171952337Y-101784053D01*
X172084019Y-101854439D01*
X172226902Y-101897783D01*
X172320843Y-101907036D01*
X172329373Y-101908172D01*
X172362956Y-101913822D01*
X172369146Y-101913898D01*
X172370631Y-101913916D01*
X172370636Y-101913916D01*
X172375495Y-101913975D01*
X172391324Y-101911708D01*
X172403100Y-101910022D01*
X172420961Y-101908750D01*
X184822300Y-101908750D01*
X184843204Y-101910496D01*
X184862962Y-101913820D01*
X184869290Y-101913897D01*
X184870642Y-101913914D01*
X184870646Y-101913914D01*
X184875501Y-101913973D01*
X184880318Y-101913283D01*
X184880320Y-101913283D01*
X184907547Y-101909384D01*
X184913059Y-101908718D01*
X185017932Y-101898389D01*
X185024095Y-101897782D01*
X185030013Y-101895987D01*
X185030017Y-101895986D01*
X185161055Y-101856236D01*
X185161058Y-101856235D01*
X185166978Y-101854439D01*
X185298661Y-101784053D01*
X185414081Y-101689330D01*
X185508804Y-101573910D01*
X185511723Y-101568450D01*
X185559809Y-101478486D01*
X185579190Y-101442227D01*
X185622533Y-101299344D01*
X185631785Y-101205407D01*
X185632923Y-101196858D01*
X185638571Y-101163289D01*
X185638724Y-101150750D01*
X185634773Y-101123162D01*
X185633500Y-101105299D01*
X185633500Y-88703958D01*
X185635246Y-88683052D01*
X185636433Y-88676001D01*
X185638571Y-88663291D01*
X185638724Y-88650752D01*
X185638035Y-88645939D01*
X185638034Y-88645927D01*
X185634133Y-88618691D01*
X185633467Y-88613177D01*
X185633219Y-88610650D01*
X185622533Y-88502157D01*
X185620737Y-88496234D01*
X185580987Y-88365196D01*
X185580986Y-88365193D01*
X185579190Y-88359273D01*
X185508804Y-88227590D01*
X185414081Y-88112169D01*
X185298660Y-88017446D01*
X185166977Y-87947060D01*
X185161057Y-87945264D01*
X185161054Y-87945263D01*
X185030015Y-87905513D01*
X185030011Y-87905512D01*
X185024093Y-87903717D01*
X185017932Y-87903110D01*
X185017931Y-87903110D01*
X184930160Y-87894465D01*
X184921610Y-87893326D01*
X184892839Y-87888486D01*
X184892829Y-87888485D01*
X184888037Y-87887679D01*
X184881682Y-87887601D01*
X184880357Y-87887585D01*
X184880353Y-87887585D01*
X184875498Y-87887526D01*
X184847911Y-87891477D01*
X184830048Y-87892750D01*
X172428700Y-87892750D01*
X172407796Y-87891004D01*
X172404832Y-87890505D01*
X172388038Y-87887680D01*
X172381710Y-87887603D01*
X172380358Y-87887586D01*
X172380354Y-87887586D01*
X172375499Y-87887527D01*
X172370682Y-87888217D01*
X172370680Y-87888217D01*
X172343453Y-87892116D01*
X172337941Y-87892782D01*
X172233078Y-87903110D01*
X172226905Y-87903718D01*
X172220987Y-87905513D01*
X172220983Y-87905514D01*
X172089945Y-87945264D01*
X172089942Y-87945265D01*
X172084022Y-87947061D01*
X171952339Y-88017447D01*
X171836919Y-88112170D01*
X171742196Y-88227590D01*
X171671810Y-88359273D01*
X171628467Y-88502156D01*
X171627860Y-88508319D01*
X171618474Y-88603616D01*
X171617581Y-88610650D01*
X171613695Y-88635606D01*
X171613695Y-88635611D01*
X171612314Y-88644480D01*
X171613478Y-88653382D01*
X171613478Y-88653385D01*
X171616436Y-88676001D01*
X171617500Y-88692339D01*
X171617500Y-101101422D01*
X171616000Y-101120806D01*
X171612314Y-101144480D01*
X167083499Y-101144480D01*
X167083498Y-88203958D01*
X167085244Y-88183052D01*
X167087763Y-88168082D01*
X167087763Y-88168081D01*
X167088569Y-88163291D01*
X167088722Y-88150752D01*
X167088033Y-88145939D01*
X167088032Y-88145927D01*
X167084131Y-88118690D01*
X167083465Y-88113177D01*
X167082980Y-88108247D01*
X167072531Y-88002158D01*
X167029189Y-87859274D01*
X167018926Y-87840072D01*
X166961720Y-87733048D01*
X166958804Y-87727592D01*
X166864081Y-87612171D01*
X166748661Y-87517448D01*
X166734559Y-87509910D01*
X166708963Y-87496229D01*
X166616979Y-87447062D01*
X166474096Y-87403718D01*
X166380154Y-87394465D01*
X166371624Y-87393329D01*
X166338041Y-87387679D01*
X166331851Y-87387603D01*
X166330366Y-87387585D01*
X166330361Y-87387585D01*
X166325502Y-87387526D01*
X166309669Y-87389793D01*
X166297904Y-87391478D01*
X166280043Y-87392750D01*
X152878702Y-87392750D01*
X152857801Y-87391004D01*
X152838035Y-87387679D01*
X152831680Y-87387601D01*
X152830355Y-87387585D01*
X152830351Y-87387585D01*
X152825496Y-87387526D01*
X152808139Y-87390012D01*
X152793453Y-87392115D01*
X152787941Y-87392781D01*
X152732334Y-87398258D01*
X152676902Y-87403718D01*
X152534019Y-87447062D01*
X152442035Y-87496229D01*
X152416440Y-87509910D01*
X152402337Y-87517448D01*
X152286917Y-87612171D01*
X152192194Y-87727592D01*
X152189278Y-87733048D01*
X152132073Y-87840072D01*
X152121809Y-87859274D01*
X152078467Y-88002158D01*
X152076961Y-88017446D01*
X152069215Y-88096090D01*
X152068076Y-88104640D01*
X152063236Y-88133411D01*
X152063235Y-88133421D01*
X152062429Y-88138213D01*
X152062276Y-88150752D01*
X152062966Y-88155567D01*
X152066227Y-88178339D01*
X152067500Y-88196202D01*
X152067500Y-90391750D01*
X152047498Y-90459871D01*
X151993842Y-90506364D01*
X151941500Y-90517750D01*
X151908702Y-90517750D01*
X151887801Y-90516004D01*
X151868035Y-90512679D01*
X151861680Y-90512601D01*
X151860355Y-90512585D01*
X151860351Y-90512585D01*
X151855496Y-90512526D01*
X151838139Y-90515012D01*
X151823453Y-90517115D01*
X151817941Y-90517781D01*
X151762334Y-90523258D01*
X151706902Y-90528718D01*
X151564019Y-90572062D01*
X151432337Y-90642448D01*
X151316917Y-90737171D01*
X151222194Y-90852592D01*
X151151809Y-90984274D01*
X151108467Y-91127158D01*
X151107860Y-91133323D01*
X151099215Y-91221090D01*
X151098076Y-91229640D01*
X151093236Y-91258411D01*
X151093235Y-91258421D01*
X151092429Y-91263213D01*
X151092276Y-91275752D01*
X151092966Y-91280567D01*
X151096227Y-91303339D01*
X151097500Y-91321202D01*
X151097500Y-93722548D01*
X151095754Y-93743449D01*
X151092429Y-93763215D01*
X151092276Y-93775754D01*
X151092966Y-93780570D01*
X151096865Y-93807797D01*
X151097531Y-93813309D01*
X151108468Y-93924348D01*
X151151812Y-94067231D01*
X151222198Y-94198913D01*
X151316921Y-94314333D01*
X151432342Y-94409056D01*
X151498183Y-94444248D01*
X151558568Y-94476525D01*
X151558570Y-94476526D01*
X151564024Y-94479441D01*
X151706908Y-94522783D01*
X151741949Y-94526234D01*
X151800840Y-94532035D01*
X151809390Y-94533174D01*
X151838161Y-94538014D01*
X151838171Y-94538015D01*
X151842963Y-94538821D01*
X151849318Y-94538899D01*
X151850643Y-94538915D01*
X151850647Y-94538915D01*
X151855502Y-94538974D01*
X151883090Y-94535023D01*
X151900952Y-94533750D01*
X151941500Y-94533750D01*
X152009621Y-94553752D01*
X152056114Y-94607408D01*
X152067500Y-94659750D01*
X152067500Y-114191750D01*
X152047498Y-114259871D01*
X151993842Y-114306364D01*
X151941500Y-114317750D01*
X151908707Y-114317750D01*
X151887803Y-114316004D01*
X151884637Y-114315471D01*
X151868039Y-114312679D01*
X151861711Y-114312602D01*
X151860359Y-114312585D01*
X151860355Y-114312585D01*
X151855500Y-114312526D01*
X151850683Y-114313216D01*
X151850681Y-114313216D01*
X151823454Y-114317115D01*
X151817942Y-114317781D01*
X151713069Y-114328110D01*
X151706906Y-114328717D01*
X151700988Y-114330512D01*
X151700984Y-114330513D01*
X151569946Y-114370263D01*
X151569943Y-114370264D01*
X151564023Y-114372060D01*
X151558565Y-114374977D01*
X151558561Y-114374979D01*
X151437800Y-114439527D01*
X151432341Y-114442445D01*
X151316921Y-114537168D01*
X151222197Y-114652587D01*
X151151811Y-114784269D01*
X151108467Y-114927152D01*
X151107386Y-114938132D01*
X151099215Y-115021083D01*
X151098078Y-115029623D01*
X151092428Y-115063206D01*
X151092275Y-115075745D01*
X148033500Y-115075745D01*
X148033500Y-106959452D01*
X148033502Y-106958682D01*
X148033921Y-106890072D01*
X148033976Y-106881098D01*
X148031510Y-106872469D01*
X148031509Y-106872464D01*
X148025861Y-106852702D01*
X148022283Y-106835941D01*
X148019370Y-106815598D01*
X148019367Y-106815588D01*
X148018095Y-106806705D01*
X148007479Y-106783355D01*
X148001036Y-106765843D01*
X147996454Y-106749813D01*
X147993988Y-106741185D01*
X147978226Y-106716202D01*
X147970096Y-106701136D01*
X147957867Y-106674240D01*
X147941126Y-106654811D01*
X147930021Y-106639803D01*
X147921130Y-106625711D01*
X147916340Y-106618119D01*
X147894203Y-106598568D01*
X147882159Y-106586376D01*
X147868739Y-106570801D01*
X147868737Y-106570800D01*
X147862881Y-106564003D01*
X147855353Y-106559124D01*
X147855350Y-106559121D01*
X147841361Y-106550054D01*
X147826487Y-106538764D01*
X147814002Y-106527738D01*
X147807272Y-106521794D01*
X147799146Y-106517979D01*
X147799145Y-106517978D01*
X147793479Y-106515318D01*
X147780534Y-106509240D01*
X147765565Y-106500926D01*
X147740773Y-106484857D01*
X147716209Y-106477511D01*
X147698764Y-106470849D01*
X147694327Y-106468766D01*
X147675552Y-106459951D01*
X147646370Y-106455407D01*
X147629651Y-106451624D01*
X147609964Y-106445736D01*
X147609961Y-106445735D01*
X147601359Y-106443163D01*
X147592384Y-106443108D01*
X147592383Y-106443108D01*
X147585690Y-106443067D01*
X147566944Y-106442953D01*
X147566172Y-106442920D01*
X147565077Y-106442750D01*
X147534202Y-106442750D01*
X147533432Y-106442748D01*
X147459784Y-106442298D01*
X147459783Y-106442298D01*
X147455848Y-106442274D01*
X147454504Y-106442658D01*
X147453159Y-106442750D01*
X133534202Y-106442750D01*
X133533432Y-106442748D01*
X133532578Y-106442743D01*
X133455848Y-106442274D01*
X133447219Y-106444740D01*
X133447214Y-106444741D01*
X133427452Y-106450389D01*
X133410691Y-106453967D01*
X133390348Y-106456880D01*
X133390338Y-106456883D01*
X133381455Y-106458155D01*
X133358105Y-106468771D01*
X133340593Y-106475214D01*
X133332557Y-106477511D01*
X133315935Y-106482262D01*
X133290952Y-106498024D01*
X133275886Y-106506154D01*
X133248990Y-106518383D01*
X133229561Y-106535124D01*
X133214553Y-106546229D01*
X133192869Y-106559910D01*
X133186927Y-106566638D01*
X133173319Y-106582046D01*
X133161127Y-106594090D01*
X133138753Y-106613369D01*
X133133874Y-106620897D01*
X133133871Y-106620900D01*
X133124804Y-106634889D01*
X133113514Y-106649763D01*
X133096544Y-106668978D01*
X133083990Y-106695716D01*
X133075676Y-106710685D01*
X133059607Y-106735477D01*
X133057035Y-106744077D01*
X133052261Y-106760040D01*
X133045599Y-106777486D01*
X133034701Y-106800698D01*
X133030158Y-106829878D01*
X133026374Y-106846599D01*
X133020486Y-106866286D01*
X133020485Y-106866289D01*
X133017913Y-106874891D01*
X133017858Y-106883866D01*
X133017858Y-106883867D01*
X133017703Y-106909296D01*
X133017670Y-106910078D01*
X133017500Y-106911173D01*
X133017500Y-106942048D01*
X133017498Y-106942750D01*
X133017024Y-107020402D01*
X133017408Y-107021746D01*
X133017500Y-107023091D01*
X133017500Y-120942048D01*
X133017498Y-120942818D01*
X133017024Y-121020402D01*
X128983125Y-121020402D01*
X128983297Y-120992194D01*
X128983330Y-120991422D01*
X128983500Y-120990327D01*
X128983500Y-120959384D01*
X128983502Y-120958663D01*
X128983952Y-120885034D01*
X128983952Y-120885033D01*
X128983976Y-120881098D01*
X128983592Y-120879754D01*
X128983500Y-120878409D01*
X128983500Y-106959452D01*
X128983502Y-106958682D01*
X128983921Y-106890072D01*
X128983976Y-106881098D01*
X128981510Y-106872469D01*
X128981509Y-106872464D01*
X128975861Y-106852702D01*
X128972283Y-106835941D01*
X128969370Y-106815598D01*
X128969367Y-106815588D01*
X128968095Y-106806705D01*
X128957479Y-106783355D01*
X128951036Y-106765843D01*
X128946454Y-106749813D01*
X128943988Y-106741185D01*
X128928226Y-106716202D01*
X128920096Y-106701136D01*
X128907867Y-106674240D01*
X128891126Y-106654811D01*
X128880021Y-106639803D01*
X128871130Y-106625711D01*
X128866340Y-106618119D01*
X128844203Y-106598568D01*
X128832159Y-106586376D01*
X128818739Y-106570801D01*
X128818737Y-106570800D01*
X128812881Y-106564003D01*
X128805353Y-106559124D01*
X128805350Y-106559121D01*
X128791361Y-106550054D01*
X128776487Y-106538764D01*
X128764002Y-106527738D01*
X128757272Y-106521794D01*
X128749146Y-106517979D01*
X128749145Y-106517978D01*
X128743479Y-106515318D01*
X128730534Y-106509240D01*
X128715565Y-106500926D01*
X128690773Y-106484857D01*
X128666209Y-106477511D01*
X128648764Y-106470849D01*
X128644327Y-106468766D01*
X128625552Y-106459951D01*
X128596370Y-106455407D01*
X128579651Y-106451624D01*
X128559964Y-106445736D01*
X128559961Y-106445735D01*
X128551359Y-106443163D01*
X128542384Y-106443108D01*
X128542383Y-106443108D01*
X128535690Y-106443067D01*
X128516944Y-106442953D01*
X128516172Y-106442920D01*
X128515077Y-106442750D01*
X128484202Y-106442750D01*
X128483432Y-106442748D01*
X128409784Y-106442298D01*
X128409783Y-106442298D01*
X128405848Y-106442274D01*
X128404504Y-106442658D01*
X128403159Y-106442750D01*
X114484202Y-106442750D01*
X114483432Y-106442748D01*
X114482578Y-106442743D01*
X114405848Y-106442274D01*
X114397219Y-106444740D01*
X114397214Y-106444741D01*
X114377452Y-106450389D01*
X114360691Y-106453967D01*
X114340348Y-106456880D01*
X114340338Y-106456883D01*
X114331455Y-106458155D01*
X114308105Y-106468771D01*
X114290593Y-106475214D01*
X114282557Y-106477511D01*
X114265935Y-106482262D01*
X114240952Y-106498024D01*
X114225886Y-106506154D01*
X114198990Y-106518383D01*
X114179561Y-106535124D01*
X114164553Y-106546229D01*
X114142869Y-106559910D01*
X114136927Y-106566638D01*
X114123319Y-106582046D01*
X114111127Y-106594090D01*
X114088753Y-106613369D01*
X114083874Y-106620897D01*
X114083871Y-106620900D01*
X114074804Y-106634889D01*
X114063514Y-106649763D01*
X114046544Y-106668978D01*
X114033990Y-106695716D01*
X114025676Y-106710685D01*
X114009607Y-106735477D01*
X114007035Y-106744077D01*
X114002261Y-106760040D01*
X113995599Y-106777486D01*
X113984701Y-106800698D01*
X113980158Y-106829878D01*
X113976374Y-106846599D01*
X113970486Y-106866286D01*
X113970485Y-106866289D01*
X113967913Y-106874891D01*
X113967858Y-106883866D01*
X113967858Y-106883867D01*
X113967703Y-106909296D01*
X113967670Y-106910078D01*
X113967500Y-106911173D01*
X113967500Y-106942048D01*
X113967498Y-106942750D01*
X113967024Y-107020402D01*
X113967408Y-107021746D01*
X113967500Y-107023091D01*
X113967500Y-120942048D01*
X113967498Y-120942818D01*
X113967024Y-121020402D01*
X109933125Y-121020402D01*
X109933297Y-120992194D01*
X109933330Y-120991422D01*
X109933500Y-120990327D01*
X109933500Y-120959384D01*
X109933502Y-120958663D01*
X109933952Y-120885034D01*
X109933952Y-120885033D01*
X109933976Y-120881098D01*
X109933592Y-120879754D01*
X109933500Y-120878409D01*
X109933500Y-106959452D01*
X109933502Y-106958682D01*
X109933921Y-106890072D01*
X109933976Y-106881098D01*
X109931510Y-106872469D01*
X109931509Y-106872464D01*
X109925861Y-106852702D01*
X109922283Y-106835941D01*
X109919370Y-106815598D01*
X109919367Y-106815588D01*
X109918095Y-106806705D01*
X109907479Y-106783355D01*
X109901036Y-106765843D01*
X109896454Y-106749813D01*
X109893988Y-106741185D01*
X109878226Y-106716202D01*
X109870096Y-106701136D01*
X109857867Y-106674240D01*
X109841126Y-106654811D01*
X109830021Y-106639803D01*
X109821130Y-106625711D01*
X109816340Y-106618119D01*
X109794203Y-106598568D01*
X109782159Y-106586376D01*
X109768739Y-106570801D01*
X109768737Y-106570800D01*
X109762881Y-106564003D01*
X109755353Y-106559124D01*
X109755350Y-106559121D01*
X109741361Y-106550054D01*
X109726487Y-106538764D01*
X109714002Y-106527738D01*
X109707272Y-106521794D01*
X109699146Y-106517979D01*
X109699145Y-106517978D01*
X109693479Y-106515318D01*
X109680534Y-106509240D01*
X109665565Y-106500926D01*
X109640773Y-106484857D01*
X109616209Y-106477511D01*
X109598764Y-106470849D01*
X109594327Y-106468766D01*
X109575552Y-106459951D01*
X109546370Y-106455407D01*
X109529651Y-106451624D01*
X109509964Y-106445736D01*
X109509961Y-106445735D01*
X109501359Y-106443163D01*
X109492384Y-106443108D01*
X109492383Y-106443108D01*
X109485690Y-106443067D01*
X109466944Y-106442953D01*
X109466172Y-106442920D01*
X109465077Y-106442750D01*
X109434202Y-106442750D01*
X109433432Y-106442748D01*
X109359784Y-106442298D01*
X109359783Y-106442298D01*
X109355848Y-106442274D01*
X109354504Y-106442658D01*
X109353159Y-106442750D01*
X95434202Y-106442750D01*
X95433432Y-106442748D01*
X95432578Y-106442743D01*
X95355848Y-106442274D01*
X95347219Y-106444740D01*
X95347214Y-106444741D01*
X95327452Y-106450389D01*
X95310691Y-106453967D01*
X95290348Y-106456880D01*
X95290338Y-106456883D01*
X95281455Y-106458155D01*
X95258105Y-106468771D01*
X95240593Y-106475214D01*
X95232557Y-106477511D01*
X95215935Y-106482262D01*
X95190952Y-106498024D01*
X95175886Y-106506154D01*
X95148990Y-106518383D01*
X95129561Y-106535124D01*
X95114553Y-106546229D01*
X95092869Y-106559910D01*
X95086927Y-106566638D01*
X95073319Y-106582046D01*
X95061127Y-106594090D01*
X95038753Y-106613369D01*
X95033874Y-106620897D01*
X95033871Y-106620900D01*
X95024804Y-106634889D01*
X95013514Y-106649763D01*
X94996544Y-106668978D01*
X94983990Y-106695716D01*
X94975676Y-106710685D01*
X94959607Y-106735477D01*
X94957035Y-106744077D01*
X94952261Y-106760040D01*
X94945599Y-106777486D01*
X94934701Y-106800698D01*
X94930158Y-106829878D01*
X94926374Y-106846599D01*
X94920486Y-106866286D01*
X94920485Y-106866289D01*
X94917913Y-106874891D01*
X94917858Y-106883866D01*
X94917858Y-106883867D01*
X94917703Y-106909296D01*
X94917670Y-106910078D01*
X94917500Y-106911173D01*
X94917500Y-106942048D01*
X94917498Y-106942750D01*
X94917024Y-107020402D01*
X94917408Y-107021746D01*
X94917500Y-107023091D01*
X94917500Y-120942048D01*
X94917498Y-120942818D01*
X94917024Y-121020402D01*
X93345000Y-121020402D01*
X93345000Y-101970402D01*
X94917024Y-101970402D01*
X94919490Y-101979031D01*
X94919491Y-101979036D01*
X94925139Y-101998798D01*
X94928717Y-102015559D01*
X94931630Y-102035902D01*
X94931633Y-102035912D01*
X94932905Y-102044795D01*
X94943521Y-102068145D01*
X94949964Y-102085657D01*
X94957012Y-102110315D01*
X94972774Y-102135298D01*
X94980904Y-102150364D01*
X94993133Y-102177260D01*
X95009874Y-102196689D01*
X95020979Y-102211697D01*
X95034660Y-102233381D01*
X95041388Y-102239323D01*
X95056796Y-102252931D01*
X95068840Y-102265123D01*
X95088119Y-102287497D01*
X95095647Y-102292376D01*
X95095650Y-102292379D01*
X95109639Y-102301446D01*
X95124513Y-102312736D01*
X95143728Y-102329706D01*
X95151854Y-102333521D01*
X95151855Y-102333522D01*
X95157521Y-102336182D01*
X95170466Y-102342260D01*
X95185435Y-102350574D01*
X95210227Y-102366643D01*
X95227150Y-102371704D01*
X95234790Y-102373989D01*
X95252236Y-102380651D01*
X95275448Y-102391549D01*
X95304630Y-102396093D01*
X95321349Y-102399876D01*
X95341036Y-102405764D01*
X95341039Y-102405765D01*
X95349641Y-102408337D01*
X95358616Y-102408392D01*
X95358617Y-102408392D01*
X95365310Y-102408433D01*
X95384056Y-102408547D01*
X95384828Y-102408580D01*
X95385923Y-102408750D01*
X95416798Y-102408750D01*
X95417568Y-102408752D01*
X95491216Y-102409202D01*
X95491217Y-102409202D01*
X95495152Y-102409226D01*
X95496496Y-102408842D01*
X95497841Y-102408750D01*
X109416798Y-102408750D01*
X109417569Y-102408752D01*
X109495152Y-102409226D01*
X109503781Y-102406760D01*
X109503786Y-102406759D01*
X109523548Y-102401111D01*
X109540309Y-102397533D01*
X109560652Y-102394620D01*
X109560662Y-102394617D01*
X109569545Y-102393345D01*
X109592895Y-102382729D01*
X109610407Y-102376286D01*
X109626437Y-102371704D01*
X109635065Y-102369238D01*
X109660048Y-102353476D01*
X109675114Y-102345346D01*
X109702010Y-102333117D01*
X109721439Y-102316376D01*
X109736447Y-102305271D01*
X109750539Y-102296380D01*
X109758131Y-102291590D01*
X109777682Y-102269453D01*
X109789874Y-102257409D01*
X109805449Y-102243989D01*
X109805450Y-102243987D01*
X109812247Y-102238131D01*
X109817126Y-102230603D01*
X109817129Y-102230600D01*
X109826196Y-102216611D01*
X109837486Y-102201737D01*
X109848512Y-102189252D01*
X109854456Y-102182522D01*
X109867010Y-102155784D01*
X109875324Y-102140815D01*
X109891393Y-102116023D01*
X109898739Y-102091459D01*
X109905401Y-102074014D01*
X109912483Y-102058929D01*
X109916299Y-102050802D01*
X109920843Y-102021620D01*
X109924626Y-102004901D01*
X109930514Y-101985214D01*
X109930515Y-101985211D01*
X109933087Y-101976609D01*
X109933125Y-101970402D01*
X113967024Y-101970402D01*
X113969490Y-101979031D01*
X113969491Y-101979036D01*
X113975139Y-101998798D01*
X113978717Y-102015559D01*
X113981630Y-102035902D01*
X113981633Y-102035912D01*
X113982905Y-102044795D01*
X113993521Y-102068145D01*
X113999964Y-102085657D01*
X114007012Y-102110315D01*
X114022774Y-102135298D01*
X114030904Y-102150364D01*
X114043133Y-102177260D01*
X114059874Y-102196689D01*
X114070979Y-102211697D01*
X114084660Y-102233381D01*
X114091388Y-102239323D01*
X114106796Y-102252931D01*
X114118840Y-102265123D01*
X114138119Y-102287497D01*
X114145647Y-102292376D01*
X114145650Y-102292379D01*
X114159639Y-102301446D01*
X114174513Y-102312736D01*
X114193728Y-102329706D01*
X114201854Y-102333521D01*
X114201855Y-102333522D01*
X114207521Y-102336182D01*
X114220466Y-102342260D01*
X114235435Y-102350574D01*
X114260227Y-102366643D01*
X114277150Y-102371704D01*
X114284790Y-102373989D01*
X114302236Y-102380651D01*
X114325448Y-102391549D01*
X114354630Y-102396093D01*
X114371349Y-102399876D01*
X114391036Y-102405764D01*
X114391039Y-102405765D01*
X114399641Y-102408337D01*
X114408616Y-102408392D01*
X114408617Y-102408392D01*
X114415310Y-102408433D01*
X114434056Y-102408547D01*
X114434828Y-102408580D01*
X114435923Y-102408750D01*
X114466798Y-102408750D01*
X114467568Y-102408752D01*
X114541216Y-102409202D01*
X114541217Y-102409202D01*
X114545152Y-102409226D01*
X114546496Y-102408842D01*
X114547841Y-102408750D01*
X128466798Y-102408750D01*
X128467569Y-102408752D01*
X128545152Y-102409226D01*
X128553781Y-102406760D01*
X128553786Y-102406759D01*
X128573548Y-102401111D01*
X128590309Y-102397533D01*
X128610652Y-102394620D01*
X128610662Y-102394617D01*
X128619545Y-102393345D01*
X128642895Y-102382729D01*
X128660407Y-102376286D01*
X128676437Y-102371704D01*
X128685065Y-102369238D01*
X128710048Y-102353476D01*
X128725114Y-102345346D01*
X128752010Y-102333117D01*
X128771439Y-102316376D01*
X128786447Y-102305271D01*
X128800539Y-102296380D01*
X128808131Y-102291590D01*
X128827682Y-102269453D01*
X128839874Y-102257409D01*
X128855449Y-102243989D01*
X128855450Y-102243987D01*
X128862247Y-102238131D01*
X128867126Y-102230603D01*
X128867129Y-102230600D01*
X128876196Y-102216611D01*
X128887486Y-102201737D01*
X128898512Y-102189252D01*
X128904456Y-102182522D01*
X128917010Y-102155784D01*
X128925324Y-102140815D01*
X128941393Y-102116023D01*
X128948739Y-102091459D01*
X128955401Y-102074014D01*
X128962483Y-102058929D01*
X128966299Y-102050802D01*
X128970843Y-102021620D01*
X128974626Y-102004901D01*
X128980514Y-101985214D01*
X128980515Y-101985211D01*
X128983087Y-101976609D01*
X128983125Y-101970402D01*
X133017024Y-101970402D01*
X133019490Y-101979031D01*
X133019491Y-101979036D01*
X133025139Y-101998798D01*
X133028717Y-102015559D01*
X133031630Y-102035902D01*
X133031633Y-102035912D01*
X133032905Y-102044795D01*
X133043521Y-102068145D01*
X133049964Y-102085657D01*
X133057012Y-102110315D01*
X133072774Y-102135298D01*
X133080904Y-102150364D01*
X133093133Y-102177260D01*
X133109874Y-102196689D01*
X133120979Y-102211697D01*
X133134660Y-102233381D01*
X133141388Y-102239323D01*
X133156796Y-102252931D01*
X133168840Y-102265123D01*
X133188119Y-102287497D01*
X133195647Y-102292376D01*
X133195650Y-102292379D01*
X133209639Y-102301446D01*
X133224513Y-102312736D01*
X133243728Y-102329706D01*
X133251854Y-102333521D01*
X133251855Y-102333522D01*
X133257521Y-102336182D01*
X133270466Y-102342260D01*
X133285435Y-102350574D01*
X133310227Y-102366643D01*
X133327150Y-102371704D01*
X133334790Y-102373989D01*
X133352236Y-102380651D01*
X133375448Y-102391549D01*
X133404630Y-102396093D01*
X133421349Y-102399876D01*
X133441036Y-102405764D01*
X133441039Y-102405765D01*
X133449641Y-102408337D01*
X133458616Y-102408392D01*
X133458617Y-102408392D01*
X133465310Y-102408433D01*
X133484056Y-102408547D01*
X133484828Y-102408580D01*
X133485923Y-102408750D01*
X133516798Y-102408750D01*
X133517568Y-102408752D01*
X133591216Y-102409202D01*
X133591217Y-102409202D01*
X133595152Y-102409226D01*
X133596496Y-102408842D01*
X133597841Y-102408750D01*
X147516798Y-102408750D01*
X147517569Y-102408752D01*
X147595152Y-102409226D01*
X147603781Y-102406760D01*
X147603786Y-102406759D01*
X147623548Y-102401111D01*
X147640309Y-102397533D01*
X147660652Y-102394620D01*
X147660662Y-102394617D01*
X147669545Y-102393345D01*
X147692895Y-102382729D01*
X147710407Y-102376286D01*
X147726437Y-102371704D01*
X147735065Y-102369238D01*
X147760048Y-102353476D01*
X147775114Y-102345346D01*
X147802010Y-102333117D01*
X147821439Y-102316376D01*
X147836447Y-102305271D01*
X147850539Y-102296380D01*
X147858131Y-102291590D01*
X147877682Y-102269453D01*
X147889874Y-102257409D01*
X147905449Y-102243989D01*
X147905450Y-102243987D01*
X147912247Y-102238131D01*
X147917126Y-102230603D01*
X147917129Y-102230600D01*
X147926196Y-102216611D01*
X147937486Y-102201737D01*
X147948512Y-102189252D01*
X147954456Y-102182522D01*
X147967010Y-102155784D01*
X147975324Y-102140815D01*
X147991393Y-102116023D01*
X147998739Y-102091459D01*
X148005401Y-102074014D01*
X148012483Y-102058929D01*
X148016299Y-102050802D01*
X148020843Y-102021620D01*
X148024626Y-102004901D01*
X148030514Y-101985214D01*
X148030515Y-101985211D01*
X148033087Y-101976609D01*
X148033297Y-101942194D01*
X148033330Y-101941422D01*
X148033500Y-101940327D01*
X148033500Y-101909384D01*
X148033502Y-101908663D01*
X148033952Y-101835034D01*
X148033952Y-101835033D01*
X148033976Y-101831098D01*
X148033592Y-101829754D01*
X148033500Y-101828409D01*
X148033500Y-87909452D01*
X148033502Y-87908682D01*
X148033921Y-87840072D01*
X148033976Y-87831098D01*
X148031510Y-87822469D01*
X148031509Y-87822464D01*
X148025861Y-87802702D01*
X148022283Y-87785941D01*
X148019370Y-87765598D01*
X148019367Y-87765588D01*
X148018095Y-87756705D01*
X148007479Y-87733355D01*
X148001036Y-87715843D01*
X147996454Y-87699813D01*
X147993988Y-87691185D01*
X147978226Y-87666202D01*
X147970096Y-87651136D01*
X147957867Y-87624240D01*
X147941126Y-87604811D01*
X147930021Y-87589803D01*
X147921130Y-87575711D01*
X147916340Y-87568119D01*
X147894203Y-87548568D01*
X147882159Y-87536376D01*
X147868739Y-87520801D01*
X147868737Y-87520800D01*
X147862881Y-87514003D01*
X147855353Y-87509124D01*
X147855350Y-87509121D01*
X147841361Y-87500054D01*
X147826487Y-87488764D01*
X147814002Y-87477738D01*
X147807272Y-87471794D01*
X147799146Y-87467979D01*
X147799145Y-87467978D01*
X147793479Y-87465318D01*
X147780534Y-87459240D01*
X147765565Y-87450926D01*
X147740773Y-87434857D01*
X147716209Y-87427511D01*
X147698764Y-87420849D01*
X147694327Y-87418766D01*
X147675552Y-87409951D01*
X147646370Y-87405407D01*
X147629651Y-87401624D01*
X147609964Y-87395736D01*
X147609961Y-87395735D01*
X147601359Y-87393163D01*
X147592384Y-87393108D01*
X147592383Y-87393108D01*
X147585690Y-87393067D01*
X147566944Y-87392953D01*
X147566172Y-87392920D01*
X147565077Y-87392750D01*
X147534202Y-87392750D01*
X147533432Y-87392748D01*
X147459784Y-87392298D01*
X147459783Y-87392298D01*
X147455848Y-87392274D01*
X147454504Y-87392658D01*
X147453159Y-87392750D01*
X133534202Y-87392750D01*
X133533432Y-87392748D01*
X133532578Y-87392743D01*
X133455848Y-87392274D01*
X133447219Y-87394740D01*
X133447214Y-87394741D01*
X133427452Y-87400389D01*
X133410691Y-87403967D01*
X133390348Y-87406880D01*
X133390338Y-87406883D01*
X133381455Y-87408155D01*
X133358105Y-87418771D01*
X133340593Y-87425214D01*
X133332557Y-87427511D01*
X133315935Y-87432262D01*
X133290952Y-87448024D01*
X133275886Y-87456154D01*
X133248990Y-87468383D01*
X133229561Y-87485124D01*
X133214553Y-87496229D01*
X133192869Y-87509910D01*
X133186927Y-87516638D01*
X133173319Y-87532046D01*
X133161127Y-87544090D01*
X133138753Y-87563369D01*
X133133874Y-87570897D01*
X133133871Y-87570900D01*
X133124804Y-87584889D01*
X133113514Y-87599763D01*
X133096544Y-87618978D01*
X133083990Y-87645716D01*
X133075676Y-87660685D01*
X133059607Y-87685477D01*
X133057035Y-87694077D01*
X133052261Y-87710040D01*
X133045599Y-87727486D01*
X133034701Y-87750698D01*
X133030158Y-87779878D01*
X133026374Y-87796599D01*
X133020486Y-87816286D01*
X133020485Y-87816289D01*
X133017913Y-87824891D01*
X133017858Y-87833866D01*
X133017858Y-87833867D01*
X133017703Y-87859296D01*
X133017670Y-87860078D01*
X133017500Y-87861173D01*
X133017500Y-87892048D01*
X133017498Y-87892750D01*
X133017024Y-87970402D01*
X133017408Y-87971746D01*
X133017500Y-87973091D01*
X133017500Y-101892048D01*
X133017498Y-101892818D01*
X133017024Y-101970402D01*
X128983125Y-101970402D01*
X128983297Y-101942194D01*
X128983330Y-101941422D01*
X128983500Y-101940327D01*
X128983500Y-101909384D01*
X128983502Y-101908663D01*
X128983952Y-101835034D01*
X128983952Y-101835033D01*
X128983976Y-101831098D01*
X128983592Y-101829754D01*
X128983500Y-101828409D01*
X128983500Y-87909452D01*
X128983502Y-87908682D01*
X128983921Y-87840072D01*
X128983976Y-87831098D01*
X128981510Y-87822469D01*
X128981509Y-87822464D01*
X128975861Y-87802702D01*
X128972283Y-87785941D01*
X128969370Y-87765598D01*
X128969367Y-87765588D01*
X128968095Y-87756705D01*
X128957479Y-87733355D01*
X128951036Y-87715843D01*
X128946454Y-87699813D01*
X128943988Y-87691185D01*
X128928226Y-87666202D01*
X128920096Y-87651136D01*
X128907867Y-87624240D01*
X128891126Y-87604811D01*
X128880021Y-87589803D01*
X128871130Y-87575711D01*
X128866340Y-87568119D01*
X128844203Y-87548568D01*
X128832159Y-87536376D01*
X128818739Y-87520801D01*
X128818737Y-87520800D01*
X128812881Y-87514003D01*
X128805353Y-87509124D01*
X128805350Y-87509121D01*
X128791361Y-87500054D01*
X128776487Y-87488764D01*
X128764002Y-87477738D01*
X128757272Y-87471794D01*
X128749146Y-87467979D01*
X128749145Y-87467978D01*
X128743479Y-87465318D01*
X128730534Y-87459240D01*
X128715565Y-87450926D01*
X128690773Y-87434857D01*
X128666209Y-87427511D01*
X128648764Y-87420849D01*
X128644327Y-87418766D01*
X128625552Y-87409951D01*
X128596370Y-87405407D01*
X128579651Y-87401624D01*
X128559964Y-87395736D01*
X128559961Y-87395735D01*
X128551359Y-87393163D01*
X128542384Y-87393108D01*
X128542383Y-87393108D01*
X128535690Y-87393067D01*
X128516944Y-87392953D01*
X128516172Y-87392920D01*
X128515077Y-87392750D01*
X128484202Y-87392750D01*
X128483432Y-87392748D01*
X128409784Y-87392298D01*
X128409783Y-87392298D01*
X128405848Y-87392274D01*
X128404504Y-87392658D01*
X128403159Y-87392750D01*
X114484202Y-87392750D01*
X114483432Y-87392748D01*
X114482578Y-87392743D01*
X114405848Y-87392274D01*
X114397219Y-87394740D01*
X114397214Y-87394741D01*
X114377452Y-87400389D01*
X114360691Y-87403967D01*
X114340348Y-87406880D01*
X114340338Y-87406883D01*
X114331455Y-87408155D01*
X114308105Y-87418771D01*
X114290593Y-87425214D01*
X114282557Y-87427511D01*
X114265935Y-87432262D01*
X114240952Y-87448024D01*
X114225886Y-87456154D01*
X114198990Y-87468383D01*
X114179561Y-87485124D01*
X114164553Y-87496229D01*
X114142869Y-87509910D01*
X114136927Y-87516638D01*
X114123319Y-87532046D01*
X114111127Y-87544090D01*
X114088753Y-87563369D01*
X114083874Y-87570897D01*
X114083871Y-87570900D01*
X114074804Y-87584889D01*
X114063514Y-87599763D01*
X114046544Y-87618978D01*
X114033990Y-87645716D01*
X114025676Y-87660685D01*
X114009607Y-87685477D01*
X114007035Y-87694077D01*
X114002261Y-87710040D01*
X113995599Y-87727486D01*
X113984701Y-87750698D01*
X113980158Y-87779878D01*
X113976374Y-87796599D01*
X113970486Y-87816286D01*
X113970485Y-87816289D01*
X113967913Y-87824891D01*
X113967858Y-87833866D01*
X113967858Y-87833867D01*
X113967703Y-87859296D01*
X113967670Y-87860078D01*
X113967500Y-87861173D01*
X113967500Y-87892048D01*
X113967498Y-87892750D01*
X113967024Y-87970402D01*
X113967408Y-87971746D01*
X113967500Y-87973091D01*
X113967500Y-101892048D01*
X113967498Y-101892818D01*
X113967024Y-101970402D01*
X109933125Y-101970402D01*
X109933297Y-101942194D01*
X109933330Y-101941422D01*
X109933500Y-101940327D01*
X109933500Y-101909384D01*
X109933502Y-101908663D01*
X109933952Y-101835034D01*
X109933952Y-101835033D01*
X109933976Y-101831098D01*
X109933592Y-101829754D01*
X109933500Y-101828409D01*
X109933500Y-87909452D01*
X109933502Y-87908682D01*
X109933921Y-87840072D01*
X109933976Y-87831098D01*
X109931510Y-87822469D01*
X109931509Y-87822464D01*
X109925861Y-87802702D01*
X109922283Y-87785941D01*
X109919370Y-87765598D01*
X109919367Y-87765588D01*
X109918095Y-87756705D01*
X109907479Y-87733355D01*
X109901036Y-87715843D01*
X109896454Y-87699813D01*
X109893988Y-87691185D01*
X109878226Y-87666202D01*
X109870096Y-87651136D01*
X109857867Y-87624240D01*
X109841126Y-87604811D01*
X109830021Y-87589803D01*
X109821130Y-87575711D01*
X109816340Y-87568119D01*
X109794203Y-87548568D01*
X109782159Y-87536376D01*
X109768739Y-87520801D01*
X109768737Y-87520800D01*
X109762881Y-87514003D01*
X109755353Y-87509124D01*
X109755350Y-87509121D01*
X109741361Y-87500054D01*
X109726487Y-87488764D01*
X109714002Y-87477738D01*
X109707272Y-87471794D01*
X109699146Y-87467979D01*
X109699145Y-87467978D01*
X109693479Y-87465318D01*
X109680534Y-87459240D01*
X109665565Y-87450926D01*
X109640773Y-87434857D01*
X109616209Y-87427511D01*
X109598764Y-87420849D01*
X109594327Y-87418766D01*
X109575552Y-87409951D01*
X109546370Y-87405407D01*
X109529651Y-87401624D01*
X109509964Y-87395736D01*
X109509961Y-87395735D01*
X109501359Y-87393163D01*
X109492384Y-87393108D01*
X109492383Y-87393108D01*
X109485690Y-87393067D01*
X109466944Y-87392953D01*
X109466172Y-87392920D01*
X109465077Y-87392750D01*
X109434202Y-87392750D01*
X109433432Y-87392748D01*
X109359784Y-87392298D01*
X109359783Y-87392298D01*
X109355848Y-87392274D01*
X109354504Y-87392658D01*
X109353159Y-87392750D01*
X95434202Y-87392750D01*
X95433432Y-87392748D01*
X95432578Y-87392743D01*
X95355848Y-87392274D01*
X95347219Y-87394740D01*
X95347214Y-87394741D01*
X95327452Y-87400389D01*
X95310691Y-87403967D01*
X95290348Y-87406880D01*
X95290338Y-87406883D01*
X95281455Y-87408155D01*
X95258105Y-87418771D01*
X95240593Y-87425214D01*
X95232557Y-87427511D01*
X95215935Y-87432262D01*
X95190952Y-87448024D01*
X95175886Y-87456154D01*
X95148990Y-87468383D01*
X95129561Y-87485124D01*
X95114553Y-87496229D01*
X95092869Y-87509910D01*
X95086927Y-87516638D01*
X95073319Y-87532046D01*
X95061127Y-87544090D01*
X95038753Y-87563369D01*
X95033874Y-87570897D01*
X95033871Y-87570900D01*
X95024804Y-87584889D01*
X95013514Y-87599763D01*
X94996544Y-87618978D01*
X94983990Y-87645716D01*
X94975676Y-87660685D01*
X94959607Y-87685477D01*
X94957035Y-87694077D01*
X94952261Y-87710040D01*
X94945599Y-87727486D01*
X94934701Y-87750698D01*
X94930158Y-87779878D01*
X94926374Y-87796599D01*
X94920486Y-87816286D01*
X94920485Y-87816289D01*
X94917913Y-87824891D01*
X94917858Y-87833866D01*
X94917858Y-87833867D01*
X94917703Y-87859296D01*
X94917670Y-87860078D01*
X94917500Y-87861173D01*
X94917500Y-87892048D01*
X94917498Y-87892750D01*
X94917024Y-87970402D01*
X94917408Y-87971746D01*
X94917500Y-87973091D01*
X94917500Y-101892048D01*
X94917498Y-101892818D01*
X94917024Y-101970402D01*
X93345000Y-101970402D01*
X93345000Y-82920402D01*
X94917024Y-82920402D01*
X94919490Y-82929031D01*
X94919491Y-82929036D01*
X94925139Y-82948798D01*
X94928717Y-82965559D01*
X94931630Y-82985902D01*
X94931633Y-82985912D01*
X94932905Y-82994795D01*
X94943521Y-83018145D01*
X94949964Y-83035657D01*
X94957012Y-83060315D01*
X94972774Y-83085298D01*
X94980904Y-83100364D01*
X94993133Y-83127260D01*
X95009874Y-83146689D01*
X95020979Y-83161697D01*
X95034660Y-83183381D01*
X95041388Y-83189323D01*
X95056796Y-83202931D01*
X95068840Y-83215123D01*
X95088119Y-83237497D01*
X95095647Y-83242376D01*
X95095650Y-83242379D01*
X95109639Y-83251446D01*
X95124513Y-83262736D01*
X95143728Y-83279706D01*
X95151854Y-83283521D01*
X95151855Y-83283522D01*
X95157521Y-83286182D01*
X95170466Y-83292260D01*
X95185435Y-83300574D01*
X95210227Y-83316643D01*
X95227150Y-83321704D01*
X95234790Y-83323989D01*
X95252236Y-83330651D01*
X95275448Y-83341549D01*
X95304630Y-83346093D01*
X95321349Y-83349876D01*
X95341036Y-83355764D01*
X95341039Y-83355765D01*
X95349641Y-83358337D01*
X95358616Y-83358392D01*
X95358617Y-83358392D01*
X95365310Y-83358433D01*
X95384056Y-83358547D01*
X95384828Y-83358580D01*
X95385923Y-83358750D01*
X95416798Y-83358750D01*
X95417568Y-83358752D01*
X95491216Y-83359202D01*
X95491217Y-83359202D01*
X95495152Y-83359226D01*
X95496496Y-83358842D01*
X95497841Y-83358750D01*
X109416798Y-83358750D01*
X109417569Y-83358752D01*
X109495152Y-83359226D01*
X109503781Y-83356760D01*
X109503786Y-83356759D01*
X109523548Y-83351111D01*
X109540309Y-83347533D01*
X109560652Y-83344620D01*
X109560662Y-83344617D01*
X109569545Y-83343345D01*
X109592895Y-83332729D01*
X109610407Y-83326286D01*
X109626437Y-83321704D01*
X109635065Y-83319238D01*
X109660048Y-83303476D01*
X109675114Y-83295346D01*
X109702010Y-83283117D01*
X109721439Y-83266376D01*
X109736447Y-83255271D01*
X109750539Y-83246380D01*
X109758131Y-83241590D01*
X109777682Y-83219453D01*
X109789874Y-83207409D01*
X109805449Y-83193989D01*
X109805450Y-83193987D01*
X109812247Y-83188131D01*
X109817126Y-83180603D01*
X109817129Y-83180600D01*
X109826196Y-83166611D01*
X109837486Y-83151737D01*
X109848512Y-83139252D01*
X109854456Y-83132522D01*
X109867010Y-83105784D01*
X109875324Y-83090815D01*
X109891393Y-83066023D01*
X109898739Y-83041459D01*
X109905401Y-83024014D01*
X109912483Y-83008929D01*
X109916299Y-83000802D01*
X109920843Y-82971620D01*
X109924626Y-82954901D01*
X109930514Y-82935214D01*
X109930515Y-82935211D01*
X109933087Y-82926609D01*
X109933125Y-82920402D01*
X113967024Y-82920402D01*
X113969490Y-82929031D01*
X113969491Y-82929036D01*
X113975139Y-82948798D01*
X113978717Y-82965559D01*
X113981630Y-82985902D01*
X113981633Y-82985912D01*
X113982905Y-82994795D01*
X113993521Y-83018145D01*
X113999964Y-83035657D01*
X114007012Y-83060315D01*
X114022774Y-83085298D01*
X114030904Y-83100364D01*
X114043133Y-83127260D01*
X114059874Y-83146689D01*
X114070979Y-83161697D01*
X114084660Y-83183381D01*
X114091388Y-83189323D01*
X114106796Y-83202931D01*
X114118840Y-83215123D01*
X114138119Y-83237497D01*
X114145647Y-83242376D01*
X114145650Y-83242379D01*
X114159639Y-83251446D01*
X114174513Y-83262736D01*
X114193728Y-83279706D01*
X114201854Y-83283521D01*
X114201855Y-83283522D01*
X114207521Y-83286182D01*
X114220466Y-83292260D01*
X114235435Y-83300574D01*
X114260227Y-83316643D01*
X114277150Y-83321704D01*
X114284790Y-83323989D01*
X114302236Y-83330651D01*
X114325448Y-83341549D01*
X114354630Y-83346093D01*
X114371349Y-83349876D01*
X114391036Y-83355764D01*
X114391039Y-83355765D01*
X114399641Y-83358337D01*
X114408616Y-83358392D01*
X114408617Y-83358392D01*
X114415310Y-83358433D01*
X114434056Y-83358547D01*
X114434828Y-83358580D01*
X114435923Y-83358750D01*
X114466798Y-83358750D01*
X114467568Y-83358752D01*
X114541216Y-83359202D01*
X114541217Y-83359202D01*
X114545152Y-83359226D01*
X114546496Y-83358842D01*
X114547841Y-83358750D01*
X128466798Y-83358750D01*
X128467569Y-83358752D01*
X128545152Y-83359226D01*
X128553781Y-83356760D01*
X128553786Y-83356759D01*
X128573548Y-83351111D01*
X128590309Y-83347533D01*
X128610652Y-83344620D01*
X128610662Y-83344617D01*
X128619545Y-83343345D01*
X128642895Y-83332729D01*
X128660407Y-83326286D01*
X128676437Y-83321704D01*
X128685065Y-83319238D01*
X128710048Y-83303476D01*
X128725114Y-83295346D01*
X128752010Y-83283117D01*
X128771439Y-83266376D01*
X128786447Y-83255271D01*
X128800539Y-83246380D01*
X128808131Y-83241590D01*
X128827682Y-83219453D01*
X128839874Y-83207409D01*
X128855449Y-83193989D01*
X128855450Y-83193987D01*
X128862247Y-83188131D01*
X128867126Y-83180603D01*
X128867129Y-83180600D01*
X128876196Y-83166611D01*
X128887486Y-83151737D01*
X128898512Y-83139252D01*
X128904456Y-83132522D01*
X128917010Y-83105784D01*
X128925324Y-83090815D01*
X128941393Y-83066023D01*
X128948739Y-83041459D01*
X128955401Y-83024014D01*
X128962483Y-83008929D01*
X128966299Y-83000802D01*
X128970843Y-82971620D01*
X128974626Y-82954901D01*
X128980514Y-82935214D01*
X128980515Y-82935211D01*
X128983087Y-82926609D01*
X128983125Y-82920402D01*
X133017024Y-82920402D01*
X133019490Y-82929031D01*
X133019491Y-82929036D01*
X133025139Y-82948798D01*
X133028717Y-82965559D01*
X133031630Y-82985902D01*
X133031633Y-82985912D01*
X133032905Y-82994795D01*
X133043521Y-83018145D01*
X133049964Y-83035657D01*
X133057012Y-83060315D01*
X133072774Y-83085298D01*
X133080904Y-83100364D01*
X133093133Y-83127260D01*
X133109874Y-83146689D01*
X133120979Y-83161697D01*
X133134660Y-83183381D01*
X133141388Y-83189323D01*
X133156796Y-83202931D01*
X133168840Y-83215123D01*
X133188119Y-83237497D01*
X133195647Y-83242376D01*
X133195650Y-83242379D01*
X133209639Y-83251446D01*
X133224513Y-83262736D01*
X133243728Y-83279706D01*
X133251854Y-83283521D01*
X133251855Y-83283522D01*
X133257521Y-83286182D01*
X133270466Y-83292260D01*
X133285435Y-83300574D01*
X133310227Y-83316643D01*
X133327150Y-83321704D01*
X133334790Y-83323989D01*
X133352236Y-83330651D01*
X133375448Y-83341549D01*
X133404630Y-83346093D01*
X133421349Y-83349876D01*
X133441036Y-83355764D01*
X133441039Y-83355765D01*
X133449641Y-83358337D01*
X133458616Y-83358392D01*
X133458617Y-83358392D01*
X133465310Y-83358433D01*
X133484056Y-83358547D01*
X133484828Y-83358580D01*
X133485923Y-83358750D01*
X133516798Y-83358750D01*
X133517568Y-83358752D01*
X133591216Y-83359202D01*
X133591217Y-83359202D01*
X133595152Y-83359226D01*
X133596496Y-83358842D01*
X133597841Y-83358750D01*
X147516798Y-83358750D01*
X147517569Y-83358752D01*
X147595152Y-83359226D01*
X147603781Y-83356760D01*
X147603786Y-83356759D01*
X147623548Y-83351111D01*
X147640309Y-83347533D01*
X147660652Y-83344620D01*
X147660662Y-83344617D01*
X147669545Y-83343345D01*
X147692895Y-83332729D01*
X147710407Y-83326286D01*
X147726437Y-83321704D01*
X147735065Y-83319238D01*
X147760048Y-83303476D01*
X147775114Y-83295346D01*
X147802010Y-83283117D01*
X147821439Y-83266376D01*
X147836447Y-83255271D01*
X147850539Y-83246380D01*
X147858131Y-83241590D01*
X147877682Y-83219453D01*
X147889874Y-83207409D01*
X147905449Y-83193989D01*
X147905450Y-83193987D01*
X147912247Y-83188131D01*
X147917126Y-83180603D01*
X147917129Y-83180600D01*
X147926196Y-83166611D01*
X147937486Y-83151737D01*
X147948512Y-83139252D01*
X147954456Y-83132522D01*
X147967010Y-83105784D01*
X147975324Y-83090815D01*
X147991393Y-83066023D01*
X147998739Y-83041459D01*
X148005401Y-83024014D01*
X148012483Y-83008929D01*
X148016299Y-83000802D01*
X148020843Y-82971620D01*
X148024626Y-82954901D01*
X148030514Y-82935214D01*
X148030515Y-82935211D01*
X148033087Y-82926609D01*
X148033125Y-82920402D01*
X152067024Y-82920402D01*
X152069490Y-82929031D01*
X152069491Y-82929036D01*
X152075139Y-82948798D01*
X152078717Y-82965559D01*
X152081630Y-82985902D01*
X152081633Y-82985912D01*
X152082905Y-82994795D01*
X152093521Y-83018145D01*
X152099964Y-83035657D01*
X152107012Y-83060315D01*
X152122774Y-83085298D01*
X152130904Y-83100364D01*
X152143133Y-83127260D01*
X152159874Y-83146689D01*
X152170979Y-83161697D01*
X152184660Y-83183381D01*
X152191388Y-83189323D01*
X152206796Y-83202931D01*
X152218840Y-83215123D01*
X152238119Y-83237497D01*
X152245647Y-83242376D01*
X152245650Y-83242379D01*
X152259639Y-83251446D01*
X152274513Y-83262736D01*
X152293728Y-83279706D01*
X152301854Y-83283521D01*
X152301855Y-83283522D01*
X152307521Y-83286182D01*
X152320466Y-83292260D01*
X152335435Y-83300574D01*
X152360227Y-83316643D01*
X152377150Y-83321704D01*
X152384790Y-83323989D01*
X152402236Y-83330651D01*
X152425448Y-83341549D01*
X152454630Y-83346093D01*
X152471349Y-83349876D01*
X152491036Y-83355764D01*
X152491039Y-83355765D01*
X152499641Y-83358337D01*
X152508616Y-83358392D01*
X152508617Y-83358392D01*
X152515310Y-83358433D01*
X152534056Y-83358547D01*
X152534828Y-83358580D01*
X152535923Y-83358750D01*
X152566798Y-83358750D01*
X152567568Y-83358752D01*
X152641216Y-83359202D01*
X152641217Y-83359202D01*
X152645152Y-83359226D01*
X152646496Y-83358842D01*
X152647841Y-83358750D01*
X166566798Y-83358750D01*
X166567569Y-83358752D01*
X166645152Y-83359226D01*
X166653781Y-83356760D01*
X166653786Y-83356759D01*
X166673548Y-83351111D01*
X166690309Y-83347533D01*
X166710652Y-83344620D01*
X166710662Y-83344617D01*
X166719545Y-83343345D01*
X166742895Y-83332729D01*
X166760407Y-83326286D01*
X166776437Y-83321704D01*
X166785065Y-83319238D01*
X166810048Y-83303476D01*
X166825114Y-83295346D01*
X166852010Y-83283117D01*
X166871439Y-83266376D01*
X166886447Y-83255271D01*
X166900539Y-83246380D01*
X166908131Y-83241590D01*
X166927682Y-83219453D01*
X166939874Y-83207409D01*
X166955449Y-83193989D01*
X166955450Y-83193987D01*
X166962247Y-83188131D01*
X166967126Y-83180603D01*
X166967129Y-83180600D01*
X166976196Y-83166611D01*
X166987486Y-83151737D01*
X166998512Y-83139252D01*
X167004456Y-83132522D01*
X167017010Y-83105784D01*
X167025324Y-83090815D01*
X167041393Y-83066023D01*
X167048739Y-83041459D01*
X167055401Y-83024014D01*
X167062483Y-83008929D01*
X167066299Y-83000802D01*
X167070843Y-82971620D01*
X167074626Y-82954901D01*
X167080514Y-82935214D01*
X167080515Y-82935211D01*
X167083087Y-82926609D01*
X167083297Y-82892194D01*
X167083330Y-82891422D01*
X167083500Y-82890327D01*
X167083500Y-82859384D01*
X167083502Y-82858663D01*
X167083952Y-82785034D01*
X167083952Y-82785033D01*
X167083976Y-82781098D01*
X167083592Y-82779754D01*
X167083500Y-82778409D01*
X167083500Y-82094480D01*
X171612314Y-82094480D01*
X171615702Y-82120386D01*
X171616157Y-82124362D01*
X171628467Y-82249344D01*
X171671810Y-82392227D01*
X171742195Y-82523909D01*
X171836918Y-82639329D01*
X171952337Y-82734053D01*
X172084019Y-82804439D01*
X172226902Y-82847783D01*
X172320843Y-82857036D01*
X172329373Y-82858172D01*
X172362956Y-82863822D01*
X172369146Y-82863898D01*
X172370631Y-82863916D01*
X172370636Y-82863916D01*
X172375495Y-82863975D01*
X172391324Y-82861708D01*
X172403100Y-82860022D01*
X172420961Y-82858750D01*
X184822300Y-82858750D01*
X184843204Y-82860496D01*
X184862962Y-82863820D01*
X184869290Y-82863897D01*
X184870642Y-82863914D01*
X184870646Y-82863914D01*
X184875501Y-82863973D01*
X184880318Y-82863283D01*
X184880320Y-82863283D01*
X184907547Y-82859384D01*
X184913059Y-82858718D01*
X185017932Y-82848389D01*
X185024095Y-82847782D01*
X185030013Y-82845987D01*
X185030017Y-82845986D01*
X185161055Y-82806236D01*
X185161058Y-82806235D01*
X185166978Y-82804439D01*
X185298661Y-82734053D01*
X185414081Y-82639330D01*
X185508804Y-82523910D01*
X185511723Y-82518450D01*
X185559809Y-82428486D01*
X185579190Y-82392227D01*
X185622533Y-82249344D01*
X185631785Y-82155407D01*
X185632923Y-82146858D01*
X185638571Y-82113289D01*
X185638724Y-82100750D01*
X185634773Y-82073162D01*
X185633500Y-82055299D01*
X185633500Y-69653958D01*
X185635246Y-69633052D01*
X185636433Y-69626001D01*
X185638571Y-69613291D01*
X185638724Y-69600752D01*
X185638035Y-69595939D01*
X185638034Y-69595927D01*
X185634133Y-69568691D01*
X185633467Y-69563177D01*
X185633219Y-69560650D01*
X185622533Y-69452157D01*
X185620737Y-69446234D01*
X185580987Y-69315196D01*
X185580986Y-69315193D01*
X185579190Y-69309273D01*
X185508804Y-69177590D01*
X185414081Y-69062169D01*
X185298660Y-68967446D01*
X185166977Y-68897060D01*
X185161057Y-68895264D01*
X185161054Y-68895263D01*
X185030015Y-68855513D01*
X185030011Y-68855512D01*
X185024093Y-68853717D01*
X185017932Y-68853110D01*
X185017931Y-68853110D01*
X184930160Y-68844465D01*
X184921610Y-68843326D01*
X184892839Y-68838486D01*
X184892829Y-68838485D01*
X184888037Y-68837679D01*
X184881682Y-68837601D01*
X184880357Y-68837585D01*
X184880353Y-68837585D01*
X184875498Y-68837526D01*
X184847911Y-68841477D01*
X184830048Y-68842750D01*
X172428700Y-68842750D01*
X172407796Y-68841004D01*
X172404832Y-68840505D01*
X172388038Y-68837680D01*
X172381710Y-68837603D01*
X172380358Y-68837586D01*
X172380354Y-68837586D01*
X172375499Y-68837527D01*
X172370682Y-68838217D01*
X172370680Y-68838217D01*
X172343453Y-68842116D01*
X172337941Y-68842782D01*
X172233078Y-68853110D01*
X172226905Y-68853718D01*
X172220987Y-68855513D01*
X172220983Y-68855514D01*
X172089945Y-68895264D01*
X172089942Y-68895265D01*
X172084022Y-68897061D01*
X171952339Y-68967447D01*
X171836919Y-69062170D01*
X171742196Y-69177590D01*
X171671810Y-69309273D01*
X171628467Y-69452156D01*
X171627860Y-69458319D01*
X171618474Y-69553616D01*
X171617581Y-69560650D01*
X171613695Y-69585606D01*
X171613695Y-69585611D01*
X171612314Y-69594480D01*
X171613478Y-69603382D01*
X171613478Y-69603385D01*
X171616436Y-69626001D01*
X171617500Y-69642339D01*
X171617500Y-82051422D01*
X171616000Y-82070806D01*
X171612314Y-82094480D01*
X167083500Y-82094480D01*
X167083500Y-68859452D01*
X167083502Y-68858682D01*
X167083921Y-68790072D01*
X167083976Y-68781098D01*
X167081510Y-68772469D01*
X167081509Y-68772464D01*
X167075861Y-68752702D01*
X167072283Y-68735941D01*
X167069370Y-68715598D01*
X167069367Y-68715588D01*
X167068095Y-68706705D01*
X167057479Y-68683355D01*
X167051036Y-68665843D01*
X167046454Y-68649813D01*
X167043988Y-68641185D01*
X167028226Y-68616202D01*
X167020096Y-68601136D01*
X167007867Y-68574240D01*
X166991126Y-68554811D01*
X166980021Y-68539803D01*
X166971130Y-68525711D01*
X166966340Y-68518119D01*
X166944203Y-68498568D01*
X166932159Y-68486376D01*
X166918739Y-68470801D01*
X166918737Y-68470800D01*
X166912881Y-68464003D01*
X166905353Y-68459124D01*
X166905350Y-68459121D01*
X166891361Y-68450054D01*
X166876487Y-68438764D01*
X166864002Y-68427738D01*
X166857272Y-68421794D01*
X166849146Y-68417979D01*
X166849145Y-68417978D01*
X166843479Y-68415318D01*
X166830534Y-68409240D01*
X166815565Y-68400926D01*
X166790773Y-68384857D01*
X166766209Y-68377511D01*
X166748764Y-68370849D01*
X166744327Y-68368766D01*
X166725552Y-68359951D01*
X166696370Y-68355407D01*
X166679651Y-68351624D01*
X166659964Y-68345736D01*
X166659961Y-68345735D01*
X166651359Y-68343163D01*
X166642384Y-68343108D01*
X166642383Y-68343108D01*
X166635690Y-68343067D01*
X166616944Y-68342953D01*
X166616172Y-68342920D01*
X166615077Y-68342750D01*
X166584202Y-68342750D01*
X166583432Y-68342748D01*
X166509784Y-68342298D01*
X166509783Y-68342298D01*
X166505848Y-68342274D01*
X166504504Y-68342658D01*
X166503159Y-68342750D01*
X152584202Y-68342750D01*
X152583432Y-68342748D01*
X152582578Y-68342743D01*
X152505848Y-68342274D01*
X152497219Y-68344740D01*
X152497214Y-68344741D01*
X152477452Y-68350389D01*
X152460691Y-68353967D01*
X152440348Y-68356880D01*
X152440338Y-68356883D01*
X152431455Y-68358155D01*
X152408105Y-68368771D01*
X152390593Y-68375214D01*
X152382557Y-68377511D01*
X152365935Y-68382262D01*
X152340952Y-68398024D01*
X152325886Y-68406154D01*
X152298990Y-68418383D01*
X152279561Y-68435124D01*
X152264553Y-68446229D01*
X152242869Y-68459910D01*
X152236927Y-68466638D01*
X152223319Y-68482046D01*
X152211127Y-68494090D01*
X152188753Y-68513369D01*
X152183874Y-68520897D01*
X152183871Y-68520900D01*
X152174804Y-68534889D01*
X152163514Y-68549763D01*
X152146544Y-68568978D01*
X152133990Y-68595716D01*
X152125676Y-68610685D01*
X152109607Y-68635477D01*
X152107035Y-68644077D01*
X152102261Y-68660040D01*
X152095599Y-68677486D01*
X152084701Y-68700698D01*
X152080158Y-68729878D01*
X152076374Y-68746599D01*
X152070486Y-68766286D01*
X152070485Y-68766289D01*
X152067913Y-68774891D01*
X152067858Y-68783866D01*
X152067858Y-68783867D01*
X152067703Y-68809296D01*
X152067670Y-68810078D01*
X152067500Y-68811173D01*
X152067500Y-68842048D01*
X152067498Y-68842750D01*
X152067024Y-68920402D01*
X152067408Y-68921746D01*
X152067500Y-68923091D01*
X152067500Y-82842048D01*
X152067498Y-82842818D01*
X152067024Y-82920402D01*
X148033125Y-82920402D01*
X148033297Y-82892194D01*
X148033330Y-82891422D01*
X148033500Y-82890327D01*
X148033500Y-82859384D01*
X148033502Y-82858663D01*
X148033952Y-82785034D01*
X148033952Y-82785033D01*
X148033976Y-82781098D01*
X148033592Y-82779754D01*
X148033500Y-82778409D01*
X148033500Y-68859452D01*
X148033502Y-68858682D01*
X148033921Y-68790072D01*
X148033976Y-68781098D01*
X148031510Y-68772469D01*
X148031509Y-68772464D01*
X148025861Y-68752702D01*
X148022283Y-68735941D01*
X148019370Y-68715598D01*
X148019367Y-68715588D01*
X148018095Y-68706705D01*
X148007479Y-68683355D01*
X148001036Y-68665843D01*
X147996454Y-68649813D01*
X147993988Y-68641185D01*
X147978226Y-68616202D01*
X147970096Y-68601136D01*
X147957867Y-68574240D01*
X147941126Y-68554811D01*
X147930021Y-68539803D01*
X147921130Y-68525711D01*
X147916340Y-68518119D01*
X147894203Y-68498568D01*
X147882159Y-68486376D01*
X147868739Y-68470801D01*
X147868737Y-68470800D01*
X147862881Y-68464003D01*
X147855353Y-68459124D01*
X147855350Y-68459121D01*
X147841361Y-68450054D01*
X147826487Y-68438764D01*
X147814002Y-68427738D01*
X147807272Y-68421794D01*
X147799146Y-68417979D01*
X147799145Y-68417978D01*
X147793479Y-68415318D01*
X147780534Y-68409240D01*
X147765565Y-68400926D01*
X147740773Y-68384857D01*
X147716209Y-68377511D01*
X147698764Y-68370849D01*
X147694327Y-68368766D01*
X147675552Y-68359951D01*
X147646370Y-68355407D01*
X147629651Y-68351624D01*
X147609964Y-68345736D01*
X147609961Y-68345735D01*
X147601359Y-68343163D01*
X147592384Y-68343108D01*
X147592383Y-68343108D01*
X147585690Y-68343067D01*
X147566944Y-68342953D01*
X147566172Y-68342920D01*
X147565077Y-68342750D01*
X147534202Y-68342750D01*
X147533432Y-68342748D01*
X147459784Y-68342298D01*
X147459783Y-68342298D01*
X147455848Y-68342274D01*
X147454504Y-68342658D01*
X147453159Y-68342750D01*
X133534202Y-68342750D01*
X133533432Y-68342748D01*
X133532578Y-68342743D01*
X133455848Y-68342274D01*
X133447219Y-68344740D01*
X133447214Y-68344741D01*
X133427452Y-68350389D01*
X133410691Y-68353967D01*
X133390348Y-68356880D01*
X133390338Y-68356883D01*
X133381455Y-68358155D01*
X133358105Y-68368771D01*
X133340593Y-68375214D01*
X133332557Y-68377511D01*
X133315935Y-68382262D01*
X133290952Y-68398024D01*
X133275886Y-68406154D01*
X133248990Y-68418383D01*
X133229561Y-68435124D01*
X133214553Y-68446229D01*
X133192869Y-68459910D01*
X133186927Y-68466638D01*
X133173319Y-68482046D01*
X133161127Y-68494090D01*
X133138753Y-68513369D01*
X133133874Y-68520897D01*
X133133871Y-68520900D01*
X133124804Y-68534889D01*
X133113514Y-68549763D01*
X133096544Y-68568978D01*
X133083990Y-68595716D01*
X133075676Y-68610685D01*
X133059607Y-68635477D01*
X133057035Y-68644077D01*
X133052261Y-68660040D01*
X133045599Y-68677486D01*
X133034701Y-68700698D01*
X133030158Y-68729878D01*
X133026374Y-68746599D01*
X133020486Y-68766286D01*
X133020485Y-68766289D01*
X133017913Y-68774891D01*
X133017858Y-68783866D01*
X133017858Y-68783867D01*
X133017703Y-68809296D01*
X133017670Y-68810078D01*
X133017500Y-68811173D01*
X133017500Y-68842048D01*
X133017498Y-68842750D01*
X133017024Y-68920402D01*
X133017408Y-68921746D01*
X133017500Y-68923091D01*
X133017500Y-82842048D01*
X133017498Y-82842818D01*
X133017024Y-82920402D01*
X128983125Y-82920402D01*
X128983297Y-82892194D01*
X128983330Y-82891422D01*
X128983500Y-82890327D01*
X128983500Y-82859384D01*
X128983502Y-82858663D01*
X128983952Y-82785034D01*
X128983952Y-82785033D01*
X128983976Y-82781098D01*
X128983592Y-82779754D01*
X128983500Y-82778409D01*
X128983500Y-68859452D01*
X128983502Y-68858682D01*
X128983921Y-68790072D01*
X128983976Y-68781098D01*
X128981510Y-68772469D01*
X128981509Y-68772464D01*
X128975861Y-68752702D01*
X128972283Y-68735941D01*
X128969370Y-68715598D01*
X128969367Y-68715588D01*
X128968095Y-68706705D01*
X128957479Y-68683355D01*
X128951036Y-68665843D01*
X128946454Y-68649813D01*
X128943988Y-68641185D01*
X128928226Y-68616202D01*
X128920096Y-68601136D01*
X128907867Y-68574240D01*
X128891126Y-68554811D01*
X128880021Y-68539803D01*
X128871130Y-68525711D01*
X128866340Y-68518119D01*
X128844203Y-68498568D01*
X128832159Y-68486376D01*
X128818739Y-68470801D01*
X128818737Y-68470800D01*
X128812881Y-68464003D01*
X128805353Y-68459124D01*
X128805350Y-68459121D01*
X128791361Y-68450054D01*
X128776487Y-68438764D01*
X128764002Y-68427738D01*
X128757272Y-68421794D01*
X128749146Y-68417979D01*
X128749145Y-68417978D01*
X128743479Y-68415318D01*
X128730534Y-68409240D01*
X128715565Y-68400926D01*
X128690773Y-68384857D01*
X128666209Y-68377511D01*
X128648764Y-68370849D01*
X128644327Y-68368766D01*
X128625552Y-68359951D01*
X128596370Y-68355407D01*
X128579651Y-68351624D01*
X128559964Y-68345736D01*
X128559961Y-68345735D01*
X128551359Y-68343163D01*
X128542384Y-68343108D01*
X128542383Y-68343108D01*
X128535690Y-68343067D01*
X128516944Y-68342953D01*
X128516172Y-68342920D01*
X128515077Y-68342750D01*
X128484202Y-68342750D01*
X128483432Y-68342748D01*
X128409784Y-68342298D01*
X128409783Y-68342298D01*
X128405848Y-68342274D01*
X128404504Y-68342658D01*
X128403159Y-68342750D01*
X114484202Y-68342750D01*
X114483432Y-68342748D01*
X114482578Y-68342743D01*
X114405848Y-68342274D01*
X114397219Y-68344740D01*
X114397214Y-68344741D01*
X114377452Y-68350389D01*
X114360691Y-68353967D01*
X114340348Y-68356880D01*
X114340338Y-68356883D01*
X114331455Y-68358155D01*
X114308105Y-68368771D01*
X114290593Y-68375214D01*
X114282557Y-68377511D01*
X114265935Y-68382262D01*
X114240952Y-68398024D01*
X114225886Y-68406154D01*
X114198990Y-68418383D01*
X114179561Y-68435124D01*
X114164553Y-68446229D01*
X114142869Y-68459910D01*
X114136927Y-68466638D01*
X114123319Y-68482046D01*
X114111127Y-68494090D01*
X114088753Y-68513369D01*
X114083874Y-68520897D01*
X114083871Y-68520900D01*
X114074804Y-68534889D01*
X114063514Y-68549763D01*
X114046544Y-68568978D01*
X114033990Y-68595716D01*
X114025676Y-68610685D01*
X114009607Y-68635477D01*
X114007035Y-68644077D01*
X114002261Y-68660040D01*
X113995599Y-68677486D01*
X113984701Y-68700698D01*
X113980158Y-68729878D01*
X113976374Y-68746599D01*
X113970486Y-68766286D01*
X113970485Y-68766289D01*
X113967913Y-68774891D01*
X113967858Y-68783866D01*
X113967858Y-68783867D01*
X113967703Y-68809296D01*
X113967670Y-68810078D01*
X113967500Y-68811173D01*
X113967500Y-68842048D01*
X113967498Y-68842750D01*
X113967024Y-68920402D01*
X113967408Y-68921746D01*
X113967500Y-68923091D01*
X113967500Y-82842048D01*
X113967498Y-82842818D01*
X113967024Y-82920402D01*
X109933125Y-82920402D01*
X109933297Y-82892194D01*
X109933330Y-82891422D01*
X109933500Y-82890327D01*
X109933500Y-82859384D01*
X109933502Y-82858663D01*
X109933952Y-82785034D01*
X109933952Y-82785033D01*
X109933976Y-82781098D01*
X109933592Y-82779754D01*
X109933500Y-82778409D01*
X109933500Y-68859452D01*
X109933502Y-68858682D01*
X109933921Y-68790072D01*
X109933976Y-68781098D01*
X109931510Y-68772469D01*
X109931509Y-68772464D01*
X109925861Y-68752702D01*
X109922283Y-68735941D01*
X109919370Y-68715598D01*
X109919367Y-68715588D01*
X109918095Y-68706705D01*
X109907479Y-68683355D01*
X109901036Y-68665843D01*
X109896454Y-68649813D01*
X109893988Y-68641185D01*
X109878226Y-68616202D01*
X109870096Y-68601136D01*
X109857867Y-68574240D01*
X109841126Y-68554811D01*
X109830021Y-68539803D01*
X109821130Y-68525711D01*
X109816340Y-68518119D01*
X109794203Y-68498568D01*
X109782159Y-68486376D01*
X109768739Y-68470801D01*
X109768737Y-68470800D01*
X109762881Y-68464003D01*
X109755353Y-68459124D01*
X109755350Y-68459121D01*
X109741361Y-68450054D01*
X109726487Y-68438764D01*
X109714002Y-68427738D01*
X109707272Y-68421794D01*
X109699146Y-68417979D01*
X109699145Y-68417978D01*
X109693479Y-68415318D01*
X109680534Y-68409240D01*
X109665565Y-68400926D01*
X109640773Y-68384857D01*
X109616209Y-68377511D01*
X109598764Y-68370849D01*
X109594327Y-68368766D01*
X109575552Y-68359951D01*
X109546370Y-68355407D01*
X109529651Y-68351624D01*
X109509964Y-68345736D01*
X109509961Y-68345735D01*
X109501359Y-68343163D01*
X109492384Y-68343108D01*
X109492383Y-68343108D01*
X109485690Y-68343067D01*
X109466944Y-68342953D01*
X109466172Y-68342920D01*
X109465077Y-68342750D01*
X109434202Y-68342750D01*
X109433432Y-68342748D01*
X109359784Y-68342298D01*
X109359783Y-68342298D01*
X109355848Y-68342274D01*
X109354504Y-68342658D01*
X109353159Y-68342750D01*
X95434202Y-68342750D01*
X95433432Y-68342748D01*
X95432578Y-68342743D01*
X95355848Y-68342274D01*
X95347219Y-68344740D01*
X95347214Y-68344741D01*
X95327452Y-68350389D01*
X95310691Y-68353967D01*
X95290348Y-68356880D01*
X95290338Y-68356883D01*
X95281455Y-68358155D01*
X95258105Y-68368771D01*
X95240593Y-68375214D01*
X95232557Y-68377511D01*
X95215935Y-68382262D01*
X95190952Y-68398024D01*
X95175886Y-68406154D01*
X95148990Y-68418383D01*
X95129561Y-68435124D01*
X95114553Y-68446229D01*
X95092869Y-68459910D01*
X95086927Y-68466638D01*
X95073319Y-68482046D01*
X95061127Y-68494090D01*
X95038753Y-68513369D01*
X95033874Y-68520897D01*
X95033871Y-68520900D01*
X95024804Y-68534889D01*
X95013514Y-68549763D01*
X94996544Y-68568978D01*
X94983990Y-68595716D01*
X94975676Y-68610685D01*
X94959607Y-68635477D01*
X94957035Y-68644077D01*
X94952261Y-68660040D01*
X94945599Y-68677486D01*
X94934701Y-68700698D01*
X94930158Y-68729878D01*
X94926374Y-68746599D01*
X94920486Y-68766286D01*
X94920485Y-68766289D01*
X94917913Y-68774891D01*
X94917858Y-68783866D01*
X94917858Y-68783867D01*
X94917703Y-68809296D01*
X94917670Y-68810078D01*
X94917500Y-68811173D01*
X94917500Y-68842048D01*
X94917498Y-68842750D01*
X94917024Y-68920402D01*
X94917408Y-68921746D01*
X94917500Y-68923091D01*
X94917500Y-82842048D01*
X94917498Y-82842818D01*
X94917024Y-82920402D01*
X93345000Y-82920402D01*
X93345000Y-67105329D01*
X93346500Y-67085944D01*
X93348805Y-67071142D01*
X93348805Y-67071140D01*
X93350186Y-67062271D01*
X93349022Y-67053371D01*
X93349132Y-67044395D01*
X93349950Y-67044405D01*
X93350241Y-67022914D01*
X93354310Y-66997222D01*
X93366492Y-66959730D01*
X93384451Y-66924483D01*
X93407623Y-66892590D01*
X93435590Y-66864623D01*
X93467483Y-66841451D01*
X93502730Y-66823492D01*
X93540221Y-66811310D01*
X93565059Y-66807376D01*
X93584768Y-66805946D01*
X93592731Y-66807186D01*
X93624253Y-66803064D01*
X93640590Y-66802000D01*
X187275672Y-66802000D01*
X187295057Y-66803500D01*
G37*
%TD.AperFunction*%
M02*
