%TF.GenerationSoftware,KiCad,Pcbnew,(5.99.0-12610-g07e01e6297)*%
%TF.CreationDate,2021-10-01T22:50:03+01:00*%
%TF.ProjectId,Envoy-Switchplate,456e766f-792d-4537-9769-746368706c61,rev?*%
%TF.SameCoordinates,Original*%
%TF.FileFunction,Soldermask,Bot*%
%TF.FilePolarity,Negative*%
%FSLAX46Y46*%
G04 Gerber Fmt 4.6, Leading zero omitted, Abs format (unit mm)*
G04 Created by KiCad (PCBNEW (5.99.0-12610-g07e01e6297)) date 2021-10-01 22:50:03*
%MOMM*%
%LPD*%
G01*
G04 APERTURE LIST*
%ADD10O,0.500000X14.000000*%
%ADD11O,14.000000X0.500000*%
%ADD12O,0.304800X3.048000*%
%ADD13O,1.473200X0.304800*%
%ADD14O,0.304800X1.473200*%
%ADD15O,3.048000X0.304800*%
%ADD16O,12.000000X0.500000*%
%ADD17O,0.500000X14.200000*%
%ADD18C,2.500000*%
G04 APERTURE END LIST*
D10*
%TO.C,MX12*%
X152825500Y-113950750D03*
D11*
X159575500Y-120700750D03*
D10*
X166325500Y-113950750D03*
%TD*%
%TO.C,MX5*%
X95675500Y-94900750D03*
X109175500Y-94900750D03*
D11*
X102425500Y-101650750D03*
X102425500Y-88150750D03*
%TD*%
D10*
%TO.C,MX20*%
X152825500Y-152050750D03*
D11*
X159575500Y-158800750D03*
D10*
X166325500Y-152050750D03*
%TD*%
D11*
%TO.C,MX17*%
X102425500Y-145300750D03*
D10*
X95675500Y-152050750D03*
D11*
X102425500Y-158800750D03*
%TD*%
D10*
%TO.C,MX8-2u1*%
X166325500Y-104425750D03*
D12*
X151803100Y-116363750D03*
D13*
X152463500Y-117735350D03*
X152463500Y-91116150D03*
D12*
X151803100Y-92487750D03*
D13*
X152463500Y-114992150D03*
X152463500Y-93859350D03*
D10*
X152825500Y-104425750D03*
%TD*%
D14*
%TO.C,MX17-2u1*%
X98640900Y-144938750D03*
D11*
X111950500Y-158800750D03*
D14*
X101384100Y-144938750D03*
D11*
X111950500Y-145300750D03*
D15*
X123888500Y-144278350D03*
X100012500Y-144278350D03*
D14*
X122516900Y-144938750D03*
X125260100Y-144938750D03*
%TD*%
D13*
%TO.C,MX16-2u1*%
X152463500Y-131959350D03*
D10*
X152825500Y-142525750D03*
D12*
X151803100Y-130587750D03*
D13*
X152463500Y-129216150D03*
X152463500Y-153092150D03*
D12*
X151803100Y-154463750D03*
D10*
X166325500Y-142525750D03*
D13*
X152463500Y-155835350D03*
%TD*%
D11*
%TO.C,MX16*%
X159575500Y-126250750D03*
D10*
X152825500Y-133000750D03*
X166325500Y-133000750D03*
%TD*%
D11*
%TO.C,MX13*%
X102425500Y-139750750D03*
D10*
X109175500Y-133000750D03*
D11*
X102425500Y-126250750D03*
D10*
X95675500Y-133000750D03*
%TD*%
D16*
%TO.C,ENC1*%
X178625500Y-69000750D03*
D17*
X184375500Y-75850750D03*
D16*
X178625500Y-82700750D03*
D17*
X172875500Y-75850750D03*
%TD*%
D10*
%TO.C,MX10*%
X114725500Y-113950750D03*
X128225500Y-113950750D03*
D11*
X121475500Y-107200750D03*
X121475500Y-120700750D03*
%TD*%
%TO.C,MX19*%
X140525500Y-158800750D03*
X140525500Y-145300750D03*
D10*
X133775500Y-152050750D03*
X147275500Y-152050750D03*
%TD*%
D11*
%TO.C,MX14*%
X121475500Y-139750750D03*
X121475500Y-126250750D03*
D10*
X128225500Y-133000750D03*
X114725500Y-133000750D03*
%TD*%
%TO.C,MX6*%
X128225500Y-94900750D03*
X114725500Y-94900750D03*
D11*
X121475500Y-88150750D03*
X121475500Y-101650750D03*
%TD*%
%TO.C,MX9*%
X102425500Y-120700750D03*
D10*
X109175500Y-113950750D03*
D11*
X102425500Y-107200750D03*
D10*
X95675500Y-113950750D03*
%TD*%
D11*
%TO.C,MX11*%
X140525500Y-120700750D03*
D10*
X147275500Y-113950750D03*
D11*
X140525500Y-107200750D03*
D10*
X133775500Y-113950750D03*
%TD*%
D11*
%TO.C,MX3*%
X140525500Y-82600750D03*
X140525500Y-69100750D03*
D10*
X147275500Y-75850750D03*
X133775500Y-75850750D03*
%TD*%
%TO.C,MX2*%
X128225500Y-75850750D03*
D11*
X121475500Y-69100750D03*
D10*
X114725500Y-75850750D03*
D11*
X121475500Y-82600750D03*
%TD*%
%TO.C,MX7*%
X140525500Y-101650750D03*
D10*
X133775500Y-94900750D03*
X147275500Y-94900750D03*
D11*
X140525500Y-88150750D03*
%TD*%
D10*
%TO.C,MX8*%
X152825500Y-94900750D03*
X166325500Y-94900750D03*
D11*
X159575500Y-88150750D03*
%TD*%
D10*
%TO.C,MX1*%
X95675500Y-75850750D03*
X109175500Y-75850750D03*
D11*
X102425500Y-82600750D03*
X102425500Y-69100750D03*
%TD*%
%TO.C,MX18*%
X121475500Y-145300750D03*
X121475500Y-158800750D03*
D10*
X128225500Y-152050750D03*
%TD*%
%TO.C,MX4*%
X166325500Y-75850750D03*
D11*
X159575500Y-69100750D03*
X159575500Y-82600750D03*
D10*
X152825500Y-75850750D03*
%TD*%
D17*
%TO.C,ENC2*%
X184375500Y-94900750D03*
X172875500Y-94900750D03*
D16*
X178625500Y-101750750D03*
X178625500Y-88050750D03*
%TD*%
D10*
%TO.C,MX15*%
X133775500Y-133000750D03*
D11*
X140525500Y-139750750D03*
X140525500Y-126250750D03*
D10*
X147275500Y-133000750D03*
%TD*%
D18*
%TO.C,H4*%
X169100500Y-142525750D03*
%TD*%
%TO.C,H1*%
X111950500Y-85375750D03*
%TD*%
D17*
%TO.C,ENC3*%
X172875500Y-113950750D03*
X184375500Y-113950750D03*
D16*
X178625500Y-120800750D03*
X178625500Y-107100750D03*
%TD*%
D18*
%TO.C,H3*%
X111950500Y-142525750D03*
%TD*%
D16*
%TO.C,ENC4*%
X178625500Y-139850750D03*
D17*
X172875500Y-133000750D03*
D16*
X178625500Y-126150750D03*
D17*
X184375500Y-133000750D03*
%TD*%
D18*
%TO.C,H2*%
X150050500Y-85375750D03*
%TD*%
M02*
