M48
; DRILL file {KiCad (5.99.0-12610-g07e01e6297)} date Fri Oct  1 22:50:05 2021
; FORMAT={-:-/ absolute / inch / decimal}
; #@! TF.CreationDate,2021-10-01T22:50:05+01:00
; #@! TF.GenerationSoftware,Kicad,Pcbnew,(5.99.0-12610-g07e01e6297)
; #@! TF.FileFunction,NonPlated,1,2,NPTH
FMAT,2
INCH
; #@! TA.AperFunction,NonPlated,NPTH,ComponentDrill
T1C0.0120
; #@! TA.AperFunction,NonPlated,NPTH,ComponentDrill
T2C0.0197
; #@! TA.AperFunction,NonPlated,NPTH,ComponentDrill
T3C0.0984
%
G90
G05
T3
X4.4075Y-3.3613
X4.4075Y-5.6113
X5.9075Y-3.3613
X6.6575Y-5.6113
T1
G00X3.8835Y-5.6833
M15
G01X3.8835Y-5.7292
M16
G05
G00X3.8835Y-5.6803
M15
G01X3.9915Y-5.6803
M16
G05
G00X3.9915Y-5.6833
M15
G01X3.9915Y-5.7292
M16
G05
G00X4.8235Y-5.6833
M15
G01X4.8235Y-5.7292
M16
G05
G00X4.8235Y-5.6803
M15
G01X4.9315Y-5.6803
M16
G05
G00X4.9315Y-5.6833
M15
G01X4.9315Y-5.7292
M16
G05
G00X5.9765Y-3.5873
M15
G01X5.9765Y-3.6952
M16
G05
G00X5.9765Y-4.5272
M15
G01X5.9765Y-4.6353
M16
G05
G00X5.9765Y-5.0873
M15
G01X5.9765Y-5.1952
M16
G05
G00X5.9765Y-6.0272
M15
G01X5.9765Y-6.1353
M16
G05
G00X6.0255Y-3.5873
M15
G01X5.9795Y-3.5873
M16
G05
G00X6.0255Y-3.6952
M15
G01X5.9795Y-3.6952
M16
G05
G00X6.0255Y-4.5272
M15
G01X5.9795Y-4.5272
M16
G05
G00X6.0255Y-4.6353
M15
G01X5.9795Y-4.6353
M16
G05
G00X6.0255Y-5.0873
M15
G01X5.9795Y-5.0873
M16
G05
G00X6.0255Y-5.1952
M15
G01X5.9795Y-5.1952
M16
G05
G00X6.0255Y-6.0272
M15
G01X5.9795Y-6.0272
M16
G05
G00X6.0255Y-6.1353
M15
G01X5.9795Y-6.1353
M16
G05
T2
G00X3.7668Y-2.7205
M15
G01X3.7668Y-3.252
M16
G05
G00X3.7668Y-3.4705
M15
G01X3.7668Y-4.002
M16
G05
G00X3.7668Y-4.2205
M15
G01X3.7668Y-4.752
M16
G05
G00X3.7668Y-4.9705
M15
G01X3.7668Y-5.502
M16
G05
G00X3.7668Y-5.7205
M15
G01X3.7668Y-6.252
M16
G05
G00X3.7668Y-2.7205
M15
G01X4.2982Y-2.7205
M16
G05
G00X3.7668Y-3.252
M15
G01X4.2982Y-3.252
M16
G05
G00X3.7668Y-3.4705
M15
G01X4.2982Y-3.4705
M16
G05
G00X3.7668Y-4.002
M15
G01X4.2982Y-4.002
M16
G05
G00X3.7668Y-4.2205
M15
G01X4.2982Y-4.2205
M16
G05
G00X3.7668Y-4.752
M15
G01X4.2982Y-4.752
M16
G05
G00X3.7668Y-4.9705
M15
G01X4.2982Y-4.9705
M16
G05
G00X3.7668Y-5.502
M15
G01X4.2982Y-5.502
M16
G05
G00X3.7668Y-5.7205
M15
G01X4.2982Y-5.7205
M16
G05
G00X3.7668Y-6.252
M15
G01X4.2982Y-6.252
M16
G05
G00X4.2982Y-2.7205
M15
G01X4.2982Y-3.252
M16
G05
G00X4.2982Y-3.4705
M15
G01X4.2982Y-4.002
M16
G05
G00X4.2982Y-4.2205
M15
G01X4.2982Y-4.752
M16
G05
G00X4.2982Y-4.9705
M15
G01X4.2982Y-5.502
M16
G05
G00X4.1418Y-5.7205
M15
G01X4.6732Y-5.7205
M16
G05
G00X4.1418Y-6.252
M15
G01X4.6732Y-6.252
M16
G05
G00X4.5168Y-2.7205
M15
G01X4.5168Y-3.252
M16
G05
G00X4.5168Y-3.4705
M15
G01X4.5168Y-4.002
M16
G05
G00X4.5168Y-4.2205
M15
G01X4.5168Y-4.752
M16
G05
G00X4.5168Y-4.9705
M15
G01X4.5168Y-5.502
M16
G05
G00X4.5168Y-2.7205
M15
G01X5.0482Y-2.7205
M16
G05
G00X4.5168Y-3.252
M15
G01X5.0482Y-3.252
M16
G05
G00X4.5168Y-3.4705
M15
G01X5.0482Y-3.4705
M16
G05
G00X4.5168Y-4.002
M15
G01X5.0482Y-4.002
M16
G05
G00X4.5168Y-4.2205
M15
G01X5.0482Y-4.2205
M16
G05
G00X4.5168Y-4.752
M15
G01X5.0482Y-4.752
M16
G05
G00X4.5168Y-4.9705
M15
G01X5.0482Y-4.9705
M16
G05
G00X4.5168Y-5.502
M15
G01X5.0482Y-5.502
M16
G05
G00X5.0482Y-5.7205
M15
G01X4.5168Y-5.7205
M16
G05
G00X5.0482Y-6.252
M15
G01X4.5168Y-6.252
M16
G05
G00X5.0482Y-2.7205
M15
G01X5.0482Y-3.252
M16
G05
G00X5.0482Y-3.4705
M15
G01X5.0482Y-4.002
M16
G05
G00X5.0482Y-4.2205
M15
G01X5.0482Y-4.752
M16
G05
G00X5.0482Y-4.9705
M15
G01X5.0482Y-5.502
M16
G05
G00X5.0482Y-6.252
M15
G01X5.0482Y-5.7205
M16
G05
G00X5.2668Y-2.7205
M15
G01X5.2668Y-3.252
M16
G05
G00X5.2668Y-3.4705
M15
G01X5.2668Y-4.002
M16
G05
G00X5.2668Y-4.2205
M15
G01X5.2668Y-4.752
M16
G05
G00X5.2668Y-4.9705
M15
G01X5.2668Y-5.502
M16
G05
G00X5.2668Y-5.7205
M15
G01X5.2668Y-6.252
M16
G05
G00X5.2668Y-2.7205
M15
G01X5.7982Y-2.7205
M16
G05
G00X5.2668Y-3.252
M15
G01X5.7982Y-3.252
M16
G05
G00X5.2668Y-3.4705
M15
G01X5.7982Y-3.4705
M16
G05
G00X5.2668Y-4.002
M15
G01X5.7982Y-4.002
M16
G05
G00X5.2668Y-4.2205
M15
G01X5.7982Y-4.2205
M16
G05
G00X5.2668Y-4.752
M15
G01X5.7982Y-4.752
M16
G05
G00X5.2668Y-4.9705
M15
G01X5.7982Y-4.9705
M16
G05
G00X5.2668Y-5.502
M15
G01X5.7982Y-5.502
M16
G05
G00X5.2668Y-5.7205
M15
G01X5.7982Y-5.7205
M16
G05
G00X5.2668Y-6.252
M15
G01X5.7982Y-6.252
M16
G05
G00X5.7982Y-2.7205
M15
G01X5.7982Y-3.252
M16
G05
G00X5.7982Y-3.4705
M15
G01X5.7982Y-4.002
M16
G05
G00X5.7982Y-4.2205
M15
G01X5.7982Y-4.752
M16
G05
G00X5.7982Y-4.9705
M15
G01X5.7982Y-5.502
M16
G05
G00X5.7982Y-5.7205
M15
G01X5.7982Y-6.252
M16
G05
G00X6.0168Y-2.7205
M15
G01X6.0168Y-3.252
M16
G05
G00X6.0168Y-3.4705
M15
G01X6.0168Y-4.002
M16
G05
G00X6.0168Y-3.8455
M15
G01X6.0168Y-4.377
M16
G05
G00X6.0168Y-4.752
M15
G01X6.0168Y-4.2205
M16
G05
G00X6.0168Y-4.9705
M15
G01X6.0168Y-5.502
M16
G05
G00X6.0168Y-5.3455
M15
G01X6.0168Y-5.877
M16
G05
G00X6.0168Y-6.252
M15
G01X6.0168Y-5.7205
M16
G05
G00X6.0168Y-2.7205
M15
G01X6.5482Y-2.7205
M16
G05
G00X6.0168Y-3.252
M15
G01X6.5482Y-3.252
M16
G05
G00X6.5482Y-3.4705
M15
G01X6.0168Y-3.4705
M16
G05
G00X6.0168Y-4.752
M15
G01X6.5482Y-4.752
M16
G05
G00X6.5482Y-4.9705
M15
G01X6.0168Y-4.9705
M16
G05
G00X6.0168Y-6.252
M15
G01X6.5482Y-6.252
M16
G05
G00X6.5482Y-2.7205
M15
G01X6.5482Y-3.252
M16
G05
G00X6.5482Y-3.4705
M15
G01X6.5482Y-4.002
M16
G05
G00X6.5482Y-3.8455
M15
G01X6.5482Y-4.377
M16
G05
G00X6.5482Y-4.752
M15
G01X6.5482Y-4.2205
M16
G05
G00X6.5482Y-4.9705
M15
G01X6.5482Y-5.502
M16
G05
G00X6.5482Y-5.3455
M15
G01X6.5482Y-5.877
M16
G05
G00X6.5482Y-6.252
M15
G01X6.5482Y-5.7205
M16
G05
G00X6.8061Y-2.7166
M15
G01X6.8061Y-3.2559
M16
G05
G00X6.8061Y-3.4666
M15
G01X6.8061Y-4.0059
M16
G05
G00X6.8061Y-4.2166
M15
G01X6.8061Y-4.7559
M16
G05
G00X6.8061Y-4.9666
M15
G01X6.8061Y-5.5059
M16
G05
G00X7.2589Y-2.7166
M15
G01X6.8061Y-2.7166
M16
G05
G00X7.2589Y-3.2559
M15
G01X6.8061Y-3.2559
M16
G05
G00X7.2589Y-3.4666
M15
G01X6.8061Y-3.4666
M16
G05
G00X7.2589Y-4.0059
M15
G01X6.8061Y-4.0059
M16
G05
G00X7.2589Y-4.2166
M15
G01X6.8061Y-4.2166
M16
G05
G00X7.2589Y-4.7559
M15
G01X6.8061Y-4.7559
M16
G05
G00X7.2589Y-4.9666
M15
G01X6.8061Y-4.9666
M16
G05
G00X7.2589Y-5.5059
M15
G01X6.8061Y-5.5059
M16
G05
G00X7.2589Y-2.7166
M15
G01X7.2589Y-3.2559
M16
G05
G00X7.2589Y-3.4666
M15
G01X7.2589Y-4.0059
M16
G05
G00X7.2589Y-4.2166
M15
G01X7.2589Y-4.7559
M16
G05
G00X7.2589Y-4.9666
M15
G01X7.2589Y-5.5059
M16
G05
T0
M30
