%TF.GenerationSoftware,KiCad,Pcbnew,(5.99.0-12610-g07e01e6297)*%
%TF.CreationDate,2021-10-01T22:51:38+01:00*%
%TF.ProjectId,Envoy-Backplate,456e766f-792d-4426-9163-6b706c617465,rev?*%
%TF.SameCoordinates,Original*%
%TF.FileFunction,Copper,L1,Top*%
%TF.FilePolarity,Positive*%
%FSLAX46Y46*%
G04 Gerber Fmt 4.6, Leading zero omitted, Abs format (unit mm)*
G04 Created by KiCad (PCBNEW (5.99.0-12610-g07e01e6297)) date 2021-10-01 22:51:38*
%MOMM*%
%LPD*%
G01*
G04 APERTURE LIST*
%TA.AperFunction,ComponentPad*%
%ADD10C,5.000000*%
%TD*%
G04 APERTURE END LIST*
D10*
%TO.P,H5,1*%
%TO.N,N/C*%
X111599000Y-78294000D03*
%TD*%
%TO.P,H6,1*%
%TO.N,N/C*%
X169325000Y-78294000D03*
%TD*%
%TA.AperFunction,NonConductor*%
G36*
X187295057Y-66803500D02*
G01*
X187309858Y-66805805D01*
X187309861Y-66805805D01*
X187318730Y-66807186D01*
X187327633Y-66806022D01*
X187336608Y-66806131D01*
X187336605Y-66806339D01*
X187358029Y-66806348D01*
X187365838Y-66807376D01*
X187407164Y-66812817D01*
X187438934Y-66821330D01*
X187444155Y-66823492D01*
X187500174Y-66846696D01*
X187528659Y-66863142D01*
X187581247Y-66903494D01*
X187604506Y-66926753D01*
X187644858Y-66979341D01*
X187661304Y-67007826D01*
X187686670Y-67069064D01*
X187695183Y-67100836D01*
X187701170Y-67146309D01*
X187702239Y-67164294D01*
X187702196Y-67167858D01*
X187700814Y-67176730D01*
X187703274Y-67195539D01*
X187704936Y-67208251D01*
X187706000Y-67224589D01*
X187706000Y-142444672D01*
X187704500Y-142464056D01*
X187700814Y-142487730D01*
X187704114Y-142512965D01*
X187705144Y-142532116D01*
X187703216Y-142618041D01*
X187689098Y-143247126D01*
X187687266Y-143328739D01*
X187687013Y-143334380D01*
X187669744Y-143590524D01*
X187631034Y-144164657D01*
X187630527Y-144170288D01*
X187537358Y-144997191D01*
X187536602Y-145002772D01*
X187406423Y-145824696D01*
X187405415Y-145830250D01*
X187388456Y-145913078D01*
X187238498Y-146645466D01*
X187237244Y-146650962D01*
X187033916Y-147457892D01*
X187032412Y-147463343D01*
X186793082Y-148260348D01*
X186791334Y-148265725D01*
X186516502Y-149051150D01*
X186514515Y-149056444D01*
X186204718Y-149828757D01*
X186202500Y-149833946D01*
X186113941Y-150028917D01*
X185858363Y-150591590D01*
X185855910Y-150596685D01*
X185478116Y-151338146D01*
X185475436Y-151343125D01*
X185064778Y-152066855D01*
X185061878Y-152071709D01*
X184619152Y-152776302D01*
X184616037Y-152781021D01*
X184142159Y-153465025D01*
X184138836Y-153469600D01*
X183634713Y-154131697D01*
X183631187Y-154136117D01*
X183097905Y-154774886D01*
X183094185Y-154779144D01*
X182532761Y-155393367D01*
X182528853Y-155397454D01*
X181940454Y-155985853D01*
X181936367Y-155989761D01*
X181322144Y-156551185D01*
X181317886Y-156554905D01*
X180679117Y-157088187D01*
X180674698Y-157091712D01*
X180037109Y-157577175D01*
X180012600Y-157595836D01*
X180008025Y-157599159D01*
X179324021Y-158073037D01*
X179319302Y-158076152D01*
X178614709Y-158518878D01*
X178609855Y-158521778D01*
X177886125Y-158932436D01*
X177881150Y-158935114D01*
X177139671Y-159312917D01*
X177134604Y-159315356D01*
X176376946Y-159659500D01*
X176371766Y-159661714D01*
X175985600Y-159816617D01*
X175599444Y-159971515D01*
X175594150Y-159973502D01*
X175199917Y-160111450D01*
X174808716Y-160248337D01*
X174803357Y-160250079D01*
X174507517Y-160338916D01*
X174006343Y-160489412D01*
X174000895Y-160490915D01*
X173193962Y-160694244D01*
X173188483Y-160695494D01*
X172373250Y-160862415D01*
X172367705Y-160863421D01*
X171545772Y-160993602D01*
X171540208Y-160994356D01*
X171033855Y-161051408D01*
X170713288Y-161087527D01*
X170707657Y-161088034D01*
X170502622Y-161101858D01*
X169877380Y-161144013D01*
X169871748Y-161144266D01*
X169477269Y-161153119D01*
X169082766Y-161161973D01*
X169060554Y-161160505D01*
X169052144Y-161159195D01*
X169052138Y-161159195D01*
X169043270Y-161157814D01*
X169034368Y-161158978D01*
X169034365Y-161158978D01*
X169011749Y-161161936D01*
X168995411Y-161163000D01*
X93775328Y-161163000D01*
X93755943Y-161161500D01*
X93741142Y-161159195D01*
X93741139Y-161159195D01*
X93732270Y-161157814D01*
X93723367Y-161158978D01*
X93714392Y-161158869D01*
X93714395Y-161158661D01*
X93692971Y-161158652D01*
X93678087Y-161156693D01*
X93643836Y-161152183D01*
X93612066Y-161143670D01*
X93581445Y-161130987D01*
X93550826Y-161118304D01*
X93522341Y-161101858D01*
X93469753Y-161061506D01*
X93446494Y-161038247D01*
X93406142Y-160985659D01*
X93389696Y-160957174D01*
X93364330Y-160895936D01*
X93355817Y-160864164D01*
X93350280Y-160822108D01*
X93349749Y-160796455D01*
X93350071Y-160794539D01*
X93350224Y-160782000D01*
X93346273Y-160754412D01*
X93345000Y-160736549D01*
X93345000Y-142479589D01*
X110187673Y-142479589D01*
X110187897Y-142484255D01*
X110187897Y-142484261D01*
X110189734Y-142522497D01*
X110200213Y-142740658D01*
X110251204Y-142997006D01*
X110339526Y-143243002D01*
X110341742Y-143247126D01*
X110406253Y-143367187D01*
X110463237Y-143473241D01*
X110466032Y-143476984D01*
X110466034Y-143476987D01*
X110616830Y-143678927D01*
X110616835Y-143678933D01*
X110619622Y-143682665D01*
X110622931Y-143685945D01*
X110622936Y-143685951D01*
X110801926Y-143863385D01*
X110805243Y-143866673D01*
X110809005Y-143869431D01*
X110809008Y-143869434D01*
X111012250Y-144018457D01*
X111016024Y-144021224D01*
X111020167Y-144023404D01*
X111020169Y-144023405D01*
X111243184Y-144140739D01*
X111243189Y-144140741D01*
X111247334Y-144142922D01*
X111494090Y-144229094D01*
X111498683Y-144229966D01*
X111746285Y-144276974D01*
X111746288Y-144276974D01*
X111750874Y-144277845D01*
X111881458Y-144282976D01*
X112007375Y-144287924D01*
X112007381Y-144287924D01*
X112012043Y-144288107D01*
X112091477Y-144279407D01*
X112267207Y-144260162D01*
X112267212Y-144260161D01*
X112271860Y-144259652D01*
X112384616Y-144229966D01*
X112520094Y-144194298D01*
X112520096Y-144194297D01*
X112524617Y-144193107D01*
X112577730Y-144170288D01*
X112760472Y-144091775D01*
X112764762Y-144089932D01*
X112987019Y-143952396D01*
X112990582Y-143949379D01*
X112990587Y-143949376D01*
X113182939Y-143786537D01*
X113182940Y-143786536D01*
X113186505Y-143783518D01*
X113278229Y-143678927D01*
X113355757Y-143590524D01*
X113355761Y-143590519D01*
X113358839Y-143587009D01*
X113500233Y-143367187D01*
X113607583Y-143128879D01*
X113678530Y-142877322D01*
X113695332Y-142745246D01*
X113711116Y-142621171D01*
X113711116Y-142621167D01*
X113711514Y-142618041D01*
X113713931Y-142525750D01*
X113710501Y-142479589D01*
X167337673Y-142479589D01*
X167337897Y-142484255D01*
X167337897Y-142484261D01*
X167339734Y-142522497D01*
X167350213Y-142740658D01*
X167401204Y-142997006D01*
X167489526Y-143243002D01*
X167491742Y-143247126D01*
X167556253Y-143367187D01*
X167613237Y-143473241D01*
X167616032Y-143476984D01*
X167616034Y-143476987D01*
X167766830Y-143678927D01*
X167766835Y-143678933D01*
X167769622Y-143682665D01*
X167772931Y-143685945D01*
X167772936Y-143685951D01*
X167951926Y-143863385D01*
X167955243Y-143866673D01*
X167959005Y-143869431D01*
X167959008Y-143869434D01*
X168162250Y-144018457D01*
X168166024Y-144021224D01*
X168170167Y-144023404D01*
X168170169Y-144023405D01*
X168393184Y-144140739D01*
X168393189Y-144140741D01*
X168397334Y-144142922D01*
X168644090Y-144229094D01*
X168648683Y-144229966D01*
X168896285Y-144276974D01*
X168896288Y-144276974D01*
X168900874Y-144277845D01*
X169031458Y-144282976D01*
X169157375Y-144287924D01*
X169157381Y-144287924D01*
X169162043Y-144288107D01*
X169241477Y-144279407D01*
X169417207Y-144260162D01*
X169417212Y-144260161D01*
X169421860Y-144259652D01*
X169534616Y-144229966D01*
X169670094Y-144194298D01*
X169670096Y-144194297D01*
X169674617Y-144193107D01*
X169727730Y-144170288D01*
X169910472Y-144091775D01*
X169914762Y-144089932D01*
X170137019Y-143952396D01*
X170140582Y-143949379D01*
X170140587Y-143949376D01*
X170332939Y-143786537D01*
X170332940Y-143786536D01*
X170336505Y-143783518D01*
X170428229Y-143678927D01*
X170505757Y-143590524D01*
X170505761Y-143590519D01*
X170508839Y-143587009D01*
X170650233Y-143367187D01*
X170757583Y-143128879D01*
X170828530Y-142877322D01*
X170845332Y-142745246D01*
X170861116Y-142621171D01*
X170861116Y-142621167D01*
X170861514Y-142618041D01*
X170863931Y-142525750D01*
X170858861Y-142457523D01*
X170844907Y-142269750D01*
X170844906Y-142269746D01*
X170844561Y-142265098D01*
X170833225Y-142214998D01*
X170787908Y-142014730D01*
X170786877Y-142010173D01*
X170692147Y-141766573D01*
X170562451Y-141539652D01*
X170400638Y-141334393D01*
X170210263Y-141155307D01*
X169995509Y-141006326D01*
X169991316Y-141004258D01*
X169765281Y-140892790D01*
X169765278Y-140892789D01*
X169761093Y-140890725D01*
X169714949Y-140875954D01*
X169516623Y-140812470D01*
X169512165Y-140811043D01*
X169254193Y-140769029D01*
X169140442Y-140767540D01*
X168997522Y-140765669D01*
X168997519Y-140765669D01*
X168992845Y-140765608D01*
X168733862Y-140800854D01*
X168482933Y-140873993D01*
X168478680Y-140875953D01*
X168478679Y-140875954D01*
X168442159Y-140892790D01*
X168245572Y-140983418D01*
X168206567Y-141008991D01*
X168030904Y-141124160D01*
X168030899Y-141124164D01*
X168026991Y-141126726D01*
X167831994Y-141300768D01*
X167664863Y-141501720D01*
X167529271Y-141725169D01*
X167428197Y-141966205D01*
X167363859Y-142219533D01*
X167337673Y-142479589D01*
X113710501Y-142479589D01*
X113708861Y-142457523D01*
X113694907Y-142269750D01*
X113694906Y-142269746D01*
X113694561Y-142265098D01*
X113683225Y-142214998D01*
X113637908Y-142014730D01*
X113636877Y-142010173D01*
X113542147Y-141766573D01*
X113412451Y-141539652D01*
X113250638Y-141334393D01*
X113060263Y-141155307D01*
X112845509Y-141006326D01*
X112841316Y-141004258D01*
X112615281Y-140892790D01*
X112615278Y-140892789D01*
X112611093Y-140890725D01*
X112564949Y-140875954D01*
X112366623Y-140812470D01*
X112362165Y-140811043D01*
X112104193Y-140769029D01*
X111990442Y-140767540D01*
X111847522Y-140765669D01*
X111847519Y-140765669D01*
X111842845Y-140765608D01*
X111583862Y-140800854D01*
X111332933Y-140873993D01*
X111328680Y-140875953D01*
X111328679Y-140875954D01*
X111292159Y-140892790D01*
X111095572Y-140983418D01*
X111056567Y-141008991D01*
X110880904Y-141124160D01*
X110880899Y-141124164D01*
X110876991Y-141126726D01*
X110681994Y-141300768D01*
X110514863Y-141501720D01*
X110379271Y-141725169D01*
X110278197Y-141966205D01*
X110213859Y-142219533D01*
X110187673Y-142479589D01*
X93345000Y-142479589D01*
X93345000Y-85329589D01*
X110187673Y-85329589D01*
X110200213Y-85590658D01*
X110251204Y-85847006D01*
X110339526Y-86093002D01*
X110341742Y-86097126D01*
X110406253Y-86217187D01*
X110463237Y-86323241D01*
X110466032Y-86326984D01*
X110466034Y-86326987D01*
X110616830Y-86528927D01*
X110616835Y-86528933D01*
X110619622Y-86532665D01*
X110622931Y-86535945D01*
X110622936Y-86535951D01*
X110801926Y-86713385D01*
X110805243Y-86716673D01*
X110809005Y-86719431D01*
X110809008Y-86719434D01*
X111012250Y-86868457D01*
X111016024Y-86871224D01*
X111020167Y-86873404D01*
X111020169Y-86873405D01*
X111243184Y-86990739D01*
X111243189Y-86990741D01*
X111247334Y-86992922D01*
X111494090Y-87079094D01*
X111498683Y-87079966D01*
X111746285Y-87126974D01*
X111746288Y-87126974D01*
X111750874Y-87127845D01*
X111881459Y-87132976D01*
X112007375Y-87137924D01*
X112007381Y-87137924D01*
X112012043Y-87138107D01*
X112091477Y-87129407D01*
X112267207Y-87110162D01*
X112267212Y-87110161D01*
X112271860Y-87109652D01*
X112384616Y-87079966D01*
X112520094Y-87044298D01*
X112520096Y-87044297D01*
X112524617Y-87043107D01*
X112764762Y-86939932D01*
X112987019Y-86802396D01*
X112990582Y-86799379D01*
X112990587Y-86799376D01*
X113182939Y-86636537D01*
X113182940Y-86636536D01*
X113186505Y-86633518D01*
X113278229Y-86528927D01*
X113355757Y-86440524D01*
X113355761Y-86440519D01*
X113358839Y-86437009D01*
X113500233Y-86217187D01*
X113607583Y-85978879D01*
X113678530Y-85727322D01*
X113695332Y-85595246D01*
X113711116Y-85471171D01*
X113711116Y-85471167D01*
X113711514Y-85468041D01*
X113713931Y-85375750D01*
X113710501Y-85329589D01*
X148287673Y-85329589D01*
X148300213Y-85590658D01*
X148351204Y-85847006D01*
X148439526Y-86093002D01*
X148441742Y-86097126D01*
X148506253Y-86217187D01*
X148563237Y-86323241D01*
X148566032Y-86326984D01*
X148566034Y-86326987D01*
X148716830Y-86528927D01*
X148716835Y-86528933D01*
X148719622Y-86532665D01*
X148722931Y-86535945D01*
X148722936Y-86535951D01*
X148901926Y-86713385D01*
X148905243Y-86716673D01*
X148909005Y-86719431D01*
X148909008Y-86719434D01*
X149112250Y-86868457D01*
X149116024Y-86871224D01*
X149120167Y-86873404D01*
X149120169Y-86873405D01*
X149343184Y-86990739D01*
X149343189Y-86990741D01*
X149347334Y-86992922D01*
X149594090Y-87079094D01*
X149598683Y-87079966D01*
X149846285Y-87126974D01*
X149846288Y-87126974D01*
X149850874Y-87127845D01*
X149981459Y-87132976D01*
X150107375Y-87137924D01*
X150107381Y-87137924D01*
X150112043Y-87138107D01*
X150191477Y-87129407D01*
X150367207Y-87110162D01*
X150367212Y-87110161D01*
X150371860Y-87109652D01*
X150484616Y-87079966D01*
X150620094Y-87044298D01*
X150620096Y-87044297D01*
X150624617Y-87043107D01*
X150864762Y-86939932D01*
X151087019Y-86802396D01*
X151090582Y-86799379D01*
X151090587Y-86799376D01*
X151282939Y-86636537D01*
X151282940Y-86636536D01*
X151286505Y-86633518D01*
X151378229Y-86528927D01*
X151455757Y-86440524D01*
X151455761Y-86440519D01*
X151458839Y-86437009D01*
X151600233Y-86217187D01*
X151707583Y-85978879D01*
X151778530Y-85727322D01*
X151795332Y-85595246D01*
X151811116Y-85471171D01*
X151811116Y-85471167D01*
X151811514Y-85468041D01*
X151813931Y-85375750D01*
X151794561Y-85115098D01*
X151783225Y-85064998D01*
X151737908Y-84864730D01*
X151736877Y-84860173D01*
X151642147Y-84616573D01*
X151512451Y-84389652D01*
X151350638Y-84184393D01*
X151160263Y-84005307D01*
X150945509Y-83856326D01*
X150941316Y-83854258D01*
X150715281Y-83742790D01*
X150715278Y-83742789D01*
X150711093Y-83740725D01*
X150664949Y-83725954D01*
X150466623Y-83662470D01*
X150462165Y-83661043D01*
X150204193Y-83619029D01*
X150090442Y-83617540D01*
X149947522Y-83615669D01*
X149947519Y-83615669D01*
X149942845Y-83615608D01*
X149683862Y-83650854D01*
X149432933Y-83723993D01*
X149428680Y-83725953D01*
X149428679Y-83725954D01*
X149392159Y-83742790D01*
X149195572Y-83833418D01*
X149156567Y-83858991D01*
X148980904Y-83974160D01*
X148980899Y-83974164D01*
X148976991Y-83976726D01*
X148781994Y-84150768D01*
X148614863Y-84351720D01*
X148479271Y-84575169D01*
X148378197Y-84816205D01*
X148313859Y-85069533D01*
X148287673Y-85329589D01*
X113710501Y-85329589D01*
X113694561Y-85115098D01*
X113683225Y-85064998D01*
X113637908Y-84864730D01*
X113636877Y-84860173D01*
X113542147Y-84616573D01*
X113412451Y-84389652D01*
X113250638Y-84184393D01*
X113060263Y-84005307D01*
X112845509Y-83856326D01*
X112841316Y-83854258D01*
X112615281Y-83742790D01*
X112615278Y-83742789D01*
X112611093Y-83740725D01*
X112564949Y-83725954D01*
X112366623Y-83662470D01*
X112362165Y-83661043D01*
X112104193Y-83619029D01*
X111990442Y-83617540D01*
X111847522Y-83615669D01*
X111847519Y-83615669D01*
X111842845Y-83615608D01*
X111583862Y-83650854D01*
X111332933Y-83723993D01*
X111328680Y-83725953D01*
X111328679Y-83725954D01*
X111292159Y-83742790D01*
X111095572Y-83833418D01*
X111056567Y-83858991D01*
X110880904Y-83974160D01*
X110880899Y-83974164D01*
X110876991Y-83976726D01*
X110681994Y-84150768D01*
X110514863Y-84351720D01*
X110379271Y-84575169D01*
X110278197Y-84816205D01*
X110213859Y-85069533D01*
X110187673Y-85329589D01*
X93345000Y-85329589D01*
X93345000Y-78199341D01*
X108586888Y-78199341D01*
X108586983Y-78202971D01*
X108586983Y-78202972D01*
X108589367Y-78294000D01*
X108595970Y-78546171D01*
X108644856Y-78889660D01*
X108732897Y-79225253D01*
X108858927Y-79548503D01*
X108860624Y-79551708D01*
X108994113Y-79803825D01*
X109021275Y-79855126D01*
X109023325Y-79858109D01*
X109023327Y-79858112D01*
X109215733Y-80138064D01*
X109215739Y-80138071D01*
X109217790Y-80141056D01*
X109445866Y-80402505D01*
X109448551Y-80404948D01*
X109658268Y-80595775D01*
X109702481Y-80636006D01*
X109984233Y-80838466D01*
X110287388Y-81007200D01*
X110607928Y-81139972D01*
X110611422Y-81140967D01*
X110611424Y-81140968D01*
X110938103Y-81234025D01*
X110938108Y-81234026D01*
X110941604Y-81235022D01*
X111138304Y-81267233D01*
X111280412Y-81290504D01*
X111280419Y-81290505D01*
X111283993Y-81291090D01*
X111457276Y-81299262D01*
X111626931Y-81307263D01*
X111626932Y-81307263D01*
X111630558Y-81307434D01*
X111639415Y-81306830D01*
X111973073Y-81284084D01*
X111973081Y-81284083D01*
X111976704Y-81283836D01*
X111980279Y-81283173D01*
X111980282Y-81283173D01*
X112314279Y-81221270D01*
X112314283Y-81221269D01*
X112317844Y-81220609D01*
X112649456Y-81118592D01*
X112967145Y-80979136D01*
X113211511Y-80836341D01*
X113263560Y-80805926D01*
X113263562Y-80805925D01*
X113266700Y-80804091D01*
X113269609Y-80801907D01*
X113541244Y-80597958D01*
X113541248Y-80597955D01*
X113544151Y-80595775D01*
X113795819Y-80356950D01*
X114018370Y-80090783D01*
X114208853Y-79800799D01*
X114337446Y-79545121D01*
X114363117Y-79494080D01*
X114363120Y-79494072D01*
X114364744Y-79490844D01*
X114483977Y-79165026D01*
X114484822Y-79161504D01*
X114484825Y-79161496D01*
X114564124Y-78831191D01*
X114564125Y-78831187D01*
X114564971Y-78827662D01*
X114599035Y-78546171D01*
X114606316Y-78486004D01*
X114606316Y-78485997D01*
X114606652Y-78483225D01*
X114612599Y-78294000D01*
X114612438Y-78291204D01*
X114607141Y-78199341D01*
X166312888Y-78199341D01*
X166312983Y-78202971D01*
X166312983Y-78202972D01*
X166315367Y-78294000D01*
X166321970Y-78546171D01*
X166370856Y-78889660D01*
X166458897Y-79225253D01*
X166584927Y-79548503D01*
X166586624Y-79551708D01*
X166720113Y-79803825D01*
X166747275Y-79855126D01*
X166749325Y-79858109D01*
X166749327Y-79858112D01*
X166941733Y-80138064D01*
X166941739Y-80138071D01*
X166943790Y-80141056D01*
X167171866Y-80402505D01*
X167174551Y-80404948D01*
X167384268Y-80595775D01*
X167428481Y-80636006D01*
X167710233Y-80838466D01*
X168013388Y-81007200D01*
X168333928Y-81139972D01*
X168337422Y-81140967D01*
X168337424Y-81140968D01*
X168664103Y-81234025D01*
X168664108Y-81234026D01*
X168667604Y-81235022D01*
X168864304Y-81267233D01*
X169006412Y-81290504D01*
X169006419Y-81290505D01*
X169009993Y-81291090D01*
X169183276Y-81299262D01*
X169352931Y-81307263D01*
X169352932Y-81307263D01*
X169356558Y-81307434D01*
X169365415Y-81306830D01*
X169699073Y-81284084D01*
X169699081Y-81284083D01*
X169702704Y-81283836D01*
X169706279Y-81283173D01*
X169706282Y-81283173D01*
X170040279Y-81221270D01*
X170040283Y-81221269D01*
X170043844Y-81220609D01*
X170375456Y-81118592D01*
X170693145Y-80979136D01*
X170937511Y-80836341D01*
X170989560Y-80805926D01*
X170989562Y-80805925D01*
X170992700Y-80804091D01*
X170995609Y-80801907D01*
X171267244Y-80597958D01*
X171267248Y-80597955D01*
X171270151Y-80595775D01*
X171521819Y-80356950D01*
X171744370Y-80090783D01*
X171934853Y-79800799D01*
X172063446Y-79545121D01*
X172089117Y-79494080D01*
X172089120Y-79494072D01*
X172090744Y-79490844D01*
X172209977Y-79165026D01*
X172210822Y-79161504D01*
X172210825Y-79161496D01*
X172290124Y-78831191D01*
X172290125Y-78831187D01*
X172290971Y-78827662D01*
X172325035Y-78546171D01*
X172332316Y-78486004D01*
X172332316Y-78485997D01*
X172332652Y-78483225D01*
X172338599Y-78294000D01*
X172338438Y-78291204D01*
X172318836Y-77951246D01*
X172318835Y-77951241D01*
X172318627Y-77947626D01*
X172258976Y-77605842D01*
X172160437Y-77273180D01*
X172024316Y-76954048D01*
X171974569Y-76866831D01*
X171854208Y-76655816D01*
X171852417Y-76652676D01*
X171647018Y-76373060D01*
X171410842Y-76118904D01*
X171147019Y-75893578D01*
X170859047Y-75700069D01*
X170550741Y-75540940D01*
X170226189Y-75418302D01*
X170222668Y-75417418D01*
X170222663Y-75417416D01*
X170061378Y-75376904D01*
X169889692Y-75333780D01*
X169867476Y-75330855D01*
X169549315Y-75288968D01*
X169549307Y-75288967D01*
X169545711Y-75288494D01*
X169401045Y-75286221D01*
X169202446Y-75283101D01*
X169202442Y-75283101D01*
X169198804Y-75283044D01*
X169195190Y-75283405D01*
X169195184Y-75283405D01*
X168951843Y-75307694D01*
X168853569Y-75317503D01*
X168514583Y-75391414D01*
X168511156Y-75392587D01*
X168511150Y-75392589D01*
X168432296Y-75419587D01*
X168186339Y-75503797D01*
X167873188Y-75653163D01*
X167579279Y-75837532D01*
X167576443Y-75839804D01*
X167576436Y-75839809D01*
X167332384Y-76035332D01*
X167308509Y-76054459D01*
X167064466Y-76301071D01*
X167062225Y-76303929D01*
X167005732Y-76375978D01*
X166850386Y-76574098D01*
X166848493Y-76577187D01*
X166848491Y-76577190D01*
X166802233Y-76652676D01*
X166669105Y-76869921D01*
X166667580Y-76873206D01*
X166667578Y-76873210D01*
X166628505Y-76957386D01*
X166523027Y-77184620D01*
X166414087Y-77514023D01*
X166343730Y-77853764D01*
X166312888Y-78199341D01*
X114607141Y-78199341D01*
X114592836Y-77951246D01*
X114592835Y-77951241D01*
X114592627Y-77947626D01*
X114532976Y-77605842D01*
X114434437Y-77273180D01*
X114298316Y-76954048D01*
X114248569Y-76866831D01*
X114128208Y-76655816D01*
X114126417Y-76652676D01*
X113921018Y-76373060D01*
X113684842Y-76118904D01*
X113421019Y-75893578D01*
X113133047Y-75700069D01*
X112824741Y-75540940D01*
X112500189Y-75418302D01*
X112496668Y-75417418D01*
X112496663Y-75417416D01*
X112335378Y-75376904D01*
X112163692Y-75333780D01*
X112141476Y-75330855D01*
X111823315Y-75288968D01*
X111823307Y-75288967D01*
X111819711Y-75288494D01*
X111675045Y-75286221D01*
X111476446Y-75283101D01*
X111476442Y-75283101D01*
X111472804Y-75283044D01*
X111469190Y-75283405D01*
X111469184Y-75283405D01*
X111225843Y-75307694D01*
X111127569Y-75317503D01*
X110788583Y-75391414D01*
X110785156Y-75392587D01*
X110785150Y-75392589D01*
X110706296Y-75419587D01*
X110460339Y-75503797D01*
X110147188Y-75653163D01*
X109853279Y-75837532D01*
X109850443Y-75839804D01*
X109850436Y-75839809D01*
X109606384Y-76035332D01*
X109582509Y-76054459D01*
X109338466Y-76301071D01*
X109336225Y-76303929D01*
X109279732Y-76375978D01*
X109124386Y-76574098D01*
X109122493Y-76577187D01*
X109122491Y-76577190D01*
X109076233Y-76652676D01*
X108943105Y-76869921D01*
X108941580Y-76873206D01*
X108941578Y-76873210D01*
X108902505Y-76957386D01*
X108797027Y-77184620D01*
X108688087Y-77514023D01*
X108617730Y-77853764D01*
X108586888Y-78199341D01*
X93345000Y-78199341D01*
X93345000Y-67105329D01*
X93346500Y-67085944D01*
X93348805Y-67071142D01*
X93348805Y-67071140D01*
X93350186Y-67062271D01*
X93349022Y-67053371D01*
X93349132Y-67044395D01*
X93349950Y-67044405D01*
X93350241Y-67022914D01*
X93354310Y-66997222D01*
X93366492Y-66959730D01*
X93384451Y-66924483D01*
X93407623Y-66892590D01*
X93435590Y-66864623D01*
X93467483Y-66841451D01*
X93502730Y-66823492D01*
X93540221Y-66811310D01*
X93565059Y-66807376D01*
X93584768Y-66805946D01*
X93592731Y-66807186D01*
X93624253Y-66803064D01*
X93640590Y-66802000D01*
X187275672Y-66802000D01*
X187295057Y-66803500D01*
G37*
%TD.AperFunction*%
M02*
