%TF.GenerationSoftware,KiCad,Pcbnew,(5.99.0-12610-g07e01e6297)*%
%TF.CreationDate,2021-11-07T17:03:59+00:00*%
%TF.ProjectId,Envoy-Backplate,456e766f-792d-4426-9163-6b706c617465,rev?*%
%TF.SameCoordinates,Original*%
%TF.FileFunction,Legend,Top*%
%TF.FilePolarity,Positive*%
%FSLAX46Y46*%
G04 Gerber Fmt 4.6, Leading zero omitted, Abs format (unit mm)*
G04 Created by KiCad (PCBNEW (5.99.0-12610-g07e01e6297)) date 2021-11-07 17:03:59*
%MOMM*%
%LPD*%
G01*
G04 APERTURE LIST*
%ADD10C,0.150000*%
G04 APERTURE END LIST*
D10*
X172373809Y-66634523D02*
X172373809Y-67241666D01*
X172333333Y-67363095D01*
X172252380Y-67444047D01*
X172130952Y-67484523D01*
X172050000Y-67484523D01*
X173183333Y-67484523D02*
X172778571Y-67484523D01*
X172778571Y-66634523D01*
X173952380Y-67403571D02*
X173911904Y-67444047D01*
X173790476Y-67484523D01*
X173709523Y-67484523D01*
X173588095Y-67444047D01*
X173507142Y-67363095D01*
X173466666Y-67282142D01*
X173426190Y-67120238D01*
X173426190Y-66998809D01*
X173466666Y-66836904D01*
X173507142Y-66755952D01*
X173588095Y-66675000D01*
X173709523Y-66634523D01*
X173790476Y-66634523D01*
X173911904Y-66675000D01*
X173952380Y-66715476D01*
X174559523Y-66634523D02*
X174559523Y-67241666D01*
X174519047Y-67363095D01*
X174438095Y-67444047D01*
X174316666Y-67484523D01*
X174235714Y-67484523D01*
X175369047Y-67484523D02*
X174964285Y-67484523D01*
X174964285Y-66634523D01*
X176138095Y-67403571D02*
X176097619Y-67444047D01*
X175976190Y-67484523D01*
X175895238Y-67484523D01*
X175773809Y-67444047D01*
X175692857Y-67363095D01*
X175652380Y-67282142D01*
X175611904Y-67120238D01*
X175611904Y-66998809D01*
X175652380Y-66836904D01*
X175692857Y-66755952D01*
X175773809Y-66675000D01*
X175895238Y-66634523D01*
X175976190Y-66634523D01*
X176097619Y-66675000D01*
X176138095Y-66715476D01*
X176745238Y-66634523D02*
X176745238Y-67241666D01*
X176704761Y-67363095D01*
X176623809Y-67444047D01*
X176502380Y-67484523D01*
X176421428Y-67484523D01*
X177554761Y-67484523D02*
X177150000Y-67484523D01*
X177150000Y-66634523D01*
X178323809Y-67403571D02*
X178283333Y-67444047D01*
X178161904Y-67484523D01*
X178080952Y-67484523D01*
X177959523Y-67444047D01*
X177878571Y-67363095D01*
X177838095Y-67282142D01*
X177797619Y-67120238D01*
X177797619Y-66998809D01*
X177838095Y-66836904D01*
X177878571Y-66755952D01*
X177959523Y-66675000D01*
X178080952Y-66634523D01*
X178161904Y-66634523D01*
X178283333Y-66675000D01*
X178323809Y-66715476D01*
X178930952Y-66634523D02*
X178930952Y-67241666D01*
X178890476Y-67363095D01*
X178809523Y-67444047D01*
X178688095Y-67484523D01*
X178607142Y-67484523D01*
X179740476Y-67484523D02*
X179335714Y-67484523D01*
X179335714Y-66634523D01*
X180509523Y-67403571D02*
X180469047Y-67444047D01*
X180347619Y-67484523D01*
X180266666Y-67484523D01*
X180145238Y-67444047D01*
X180064285Y-67363095D01*
X180023809Y-67282142D01*
X179983333Y-67120238D01*
X179983333Y-66998809D01*
X180023809Y-66836904D01*
X180064285Y-66755952D01*
X180145238Y-66675000D01*
X180266666Y-66634523D01*
X180347619Y-66634523D01*
X180469047Y-66675000D01*
X180509523Y-66715476D01*
%TO.C,G\u002A\u002A\u002A*%
G36*
X176030894Y-92497836D02*
G01*
X176354535Y-93348644D01*
X176664793Y-94164804D01*
X176957706Y-94935862D01*
X177229314Y-95651366D01*
X177475655Y-96300865D01*
X177692767Y-96873907D01*
X177876691Y-97360038D01*
X178023463Y-97748807D01*
X178129123Y-98029761D01*
X178189711Y-98192449D01*
X178201609Y-98225432D01*
X178265483Y-98369631D01*
X178318847Y-98422146D01*
X178326020Y-98418361D01*
X178355245Y-98345584D01*
X178427161Y-98147374D01*
X178538293Y-97833742D01*
X178685167Y-97414704D01*
X178864310Y-96900272D01*
X179072247Y-96300459D01*
X179305505Y-95625280D01*
X179560610Y-94884747D01*
X179834087Y-94088874D01*
X180122462Y-93247675D01*
X180306908Y-92708652D01*
X182244538Y-87042202D01*
X183626453Y-87022741D01*
X184102930Y-87016762D01*
X184454254Y-87015140D01*
X184698339Y-87019317D01*
X184853100Y-87030740D01*
X184936453Y-87050850D01*
X184966312Y-87081094D01*
X184960593Y-87122914D01*
X184957858Y-87130065D01*
X184927638Y-87211951D01*
X184851662Y-87420262D01*
X184732879Y-87746867D01*
X184574238Y-88183634D01*
X184378686Y-88722433D01*
X184149172Y-89355133D01*
X183888645Y-90073603D01*
X183600052Y-90869712D01*
X183286342Y-91735328D01*
X182950464Y-92662322D01*
X182595365Y-93642563D01*
X182223994Y-94667918D01*
X181839299Y-95730258D01*
X181798562Y-95842766D01*
X181409174Y-96916860D01*
X181030058Y-97960037D01*
X180664393Y-98963682D01*
X180315357Y-99919178D01*
X179986126Y-100817911D01*
X179679881Y-101651264D01*
X179399798Y-102410623D01*
X179149055Y-103087371D01*
X178930831Y-103672894D01*
X178748303Y-104158575D01*
X178604650Y-104535799D01*
X178503050Y-104795951D01*
X178446680Y-104930415D01*
X178445512Y-104932848D01*
X178103546Y-105487729D01*
X177636451Y-106013639D01*
X177061342Y-106497218D01*
X176395332Y-106925108D01*
X175655538Y-107283949D01*
X175225371Y-107446367D01*
X174769508Y-107580039D01*
X174260282Y-107693966D01*
X173752160Y-107778193D01*
X173299608Y-107822769D01*
X173141070Y-107827273D01*
X172756921Y-107827273D01*
X172756921Y-106646709D01*
X172759471Y-106188397D01*
X172767943Y-105857194D01*
X172783567Y-105637187D01*
X172807574Y-105512463D01*
X172841195Y-105467109D01*
X172848234Y-105466146D01*
X173158171Y-105445043D01*
X173551274Y-105388461D01*
X173975062Y-105306490D01*
X174377053Y-105209224D01*
X174690997Y-105111826D01*
X175278632Y-104850943D01*
X175792741Y-104529827D01*
X176215289Y-104163732D01*
X176528240Y-103767909D01*
X176695594Y-103416502D01*
X176739615Y-103176409D01*
X176756838Y-102833018D01*
X176749419Y-102423172D01*
X176719515Y-101983712D01*
X176669283Y-101551480D01*
X176600878Y-101163317D01*
X176552253Y-100967747D01*
X176504972Y-100810411D01*
X176444681Y-100623730D01*
X176368405Y-100399863D01*
X176273168Y-100130970D01*
X176155997Y-99809211D01*
X176013915Y-99426745D01*
X175843948Y-98975732D01*
X175643121Y-98448332D01*
X175408460Y-97836703D01*
X175136988Y-97133007D01*
X174825732Y-96329401D01*
X174471716Y-95418047D01*
X174071966Y-94391103D01*
X173623506Y-93240729D01*
X173507860Y-92944280D01*
X173191323Y-92132889D01*
X172885691Y-91349312D01*
X172595613Y-90605476D01*
X172325738Y-89913308D01*
X172080714Y-89284736D01*
X171865191Y-88731687D01*
X171683816Y-88266089D01*
X171541240Y-87899868D01*
X171442111Y-87644953D01*
X171395663Y-87525160D01*
X171195355Y-87006428D01*
X173941333Y-87006428D01*
X176030894Y-92497836D01*
G37*
G36*
X116845661Y-96065544D02*
G01*
X113912140Y-96065544D01*
X113912140Y-93275121D01*
X116845661Y-93275121D01*
X116845661Y-96065544D01*
G37*
G36*
X113482844Y-96065544D02*
G01*
X110549323Y-96065544D01*
X110549323Y-93275121D01*
X113482844Y-93275121D01*
X113482844Y-96065544D01*
G37*
G36*
X116845661Y-89769206D02*
G01*
X113912140Y-89769206D01*
X113912140Y-86978783D01*
X116845661Y-86978783D01*
X116845661Y-89769206D01*
G37*
G36*
X113482844Y-92917375D02*
G01*
X110549323Y-92917375D01*
X110549323Y-90126952D01*
X113482844Y-90126952D01*
X113482844Y-92917375D01*
G37*
G36*
X113482844Y-99213713D02*
G01*
X110549323Y-99213713D01*
X110549323Y-96423290D01*
X113482844Y-96423290D01*
X113482844Y-99213713D01*
G37*
G36*
X145979350Y-90172484D02*
G01*
X146257200Y-90907873D01*
X146547479Y-91676401D01*
X146840522Y-92452459D01*
X147126661Y-93210439D01*
X147396231Y-93924733D01*
X147639565Y-94569734D01*
X147846997Y-95119832D01*
X147937626Y-95360307D01*
X148125716Y-95853214D01*
X148299519Y-96296697D01*
X148452371Y-96674691D01*
X148577605Y-96971133D01*
X148668558Y-97169959D01*
X148718563Y-97255105D01*
X148724342Y-97256364D01*
X148757945Y-97182280D01*
X148838608Y-96985262D01*
X148962153Y-96675988D01*
X149124401Y-96265133D01*
X149321177Y-95763375D01*
X149548301Y-95181392D01*
X149801596Y-94529859D01*
X150076885Y-93819455D01*
X150369990Y-93060856D01*
X150635214Y-92372625D01*
X150943018Y-91573135D01*
X151238259Y-90806631D01*
X151516533Y-90084526D01*
X151773436Y-89418234D01*
X152004561Y-88819168D01*
X152205505Y-88298743D01*
X152371863Y-87868371D01*
X152499229Y-87539466D01*
X152583200Y-87323442D01*
X152616415Y-87238963D01*
X152738655Y-86934878D01*
X154126098Y-86934878D01*
X154554001Y-86936642D01*
X154928353Y-86941558D01*
X155227401Y-86949060D01*
X155429392Y-86958584D01*
X155512575Y-86969565D01*
X155513540Y-86970913D01*
X155485882Y-87040250D01*
X155405415Y-87232233D01*
X155275898Y-87538067D01*
X155101094Y-87948955D01*
X154884763Y-88456102D01*
X154630665Y-89050712D01*
X154342561Y-89723989D01*
X154024212Y-90467137D01*
X153679379Y-91271360D01*
X153311822Y-92127862D01*
X152925302Y-93027848D01*
X152645616Y-93678659D01*
X152237937Y-94627093D01*
X151839472Y-95554170D01*
X151454719Y-96449423D01*
X151088174Y-97302386D01*
X150744334Y-98102591D01*
X150427697Y-98839572D01*
X150142758Y-99502862D01*
X149894015Y-100081993D01*
X149685965Y-100566499D01*
X149523104Y-100945914D01*
X149409930Y-101209768D01*
X149372236Y-101297765D01*
X148966780Y-102245159D01*
X148602762Y-102245793D01*
X148238744Y-102246428D01*
X145043184Y-94632936D01*
X144627266Y-93641642D01*
X144227124Y-92687248D01*
X143846215Y-91778034D01*
X143487995Y-90922282D01*
X143155921Y-90128271D01*
X142853448Y-89404284D01*
X142584035Y-88758600D01*
X142351136Y-88199500D01*
X142158209Y-87735266D01*
X142008710Y-87374178D01*
X141906095Y-87124516D01*
X141853821Y-86994562D01*
X141847625Y-86977161D01*
X141915631Y-86964407D01*
X142105486Y-86953196D01*
X142395940Y-86944145D01*
X142765748Y-86937872D01*
X143193659Y-86934995D01*
X143301751Y-86934878D01*
X144755877Y-86934878D01*
X145979350Y-90172484D01*
G37*
G36*
X116845661Y-102290333D02*
G01*
X110549323Y-102290333D01*
X110549323Y-99499910D01*
X116845661Y-99499910D01*
X116845661Y-102290333D01*
G37*
G36*
X123499745Y-96065544D02*
G01*
X120566224Y-96065544D01*
X120566224Y-90126952D01*
X123499745Y-90126952D01*
X123499745Y-96065544D01*
G37*
G36*
X120208478Y-89769206D02*
G01*
X117274957Y-89769206D01*
X117274957Y-86978783D01*
X120208478Y-86978783D01*
X120208478Y-89769206D01*
G37*
G36*
X120208478Y-102290333D02*
G01*
X117274957Y-102290333D01*
X117274957Y-99499910D01*
X120208478Y-99499910D01*
X120208478Y-102290333D01*
G37*
G36*
X135302619Y-86763364D02*
G01*
X135692574Y-86776543D01*
X136000071Y-86803007D01*
X136255296Y-86845028D01*
X136409878Y-86882417D01*
X137154527Y-87153634D01*
X137811437Y-87537122D01*
X138377542Y-88029793D01*
X138849771Y-88628555D01*
X139225056Y-89330318D01*
X139446339Y-89939949D01*
X139505699Y-90146430D01*
X139557416Y-90349554D01*
X139602012Y-90560375D01*
X139640011Y-90789946D01*
X139671935Y-91049318D01*
X139698308Y-91349546D01*
X139719654Y-91701681D01*
X139736494Y-92116777D01*
X139749352Y-92605886D01*
X139758752Y-93180062D01*
X139765216Y-93850356D01*
X139769268Y-94627822D01*
X139771430Y-95523513D01*
X139772227Y-96548481D01*
X139772274Y-96826568D01*
X139772695Y-101960230D01*
X137133995Y-101960230D01*
X137107105Y-96862343D01*
X137101833Y-95883851D01*
X137096842Y-95037491D01*
X137091778Y-94312298D01*
X137086292Y-93697307D01*
X137080031Y-93181554D01*
X137072643Y-92754073D01*
X137063778Y-92403899D01*
X137053083Y-92120066D01*
X137040208Y-91891612D01*
X137024799Y-91707569D01*
X137006507Y-91556973D01*
X136984978Y-91428859D01*
X136959862Y-91312263D01*
X136930808Y-91196218D01*
X136924676Y-91172804D01*
X136733918Y-90573168D01*
X136503753Y-90096233D01*
X136221330Y-89724088D01*
X135873797Y-89438821D01*
X135559137Y-89269512D01*
X134914341Y-89056414D01*
X134239107Y-88974852D01*
X133549592Y-89021062D01*
X132861951Y-89191279D01*
X132192339Y-89481738D01*
X131556911Y-89888674D01*
X131061569Y-90317583D01*
X130614385Y-90758632D01*
X130614385Y-101960230D01*
X127895512Y-101960230D01*
X127895512Y-87002274D01*
X129778486Y-87042202D01*
X130576420Y-88884734D01*
X130720614Y-88680856D01*
X131240333Y-88067406D01*
X131855604Y-87559520D01*
X132561810Y-87160568D01*
X133082836Y-86956126D01*
X133315554Y-86883001D01*
X133522824Y-86831168D01*
X133737850Y-86796859D01*
X133993832Y-86776303D01*
X134323971Y-86765733D01*
X134761470Y-86761380D01*
X134800019Y-86761197D01*
X135302619Y-86763364D01*
G37*
G36*
X120208478Y-96065544D02*
G01*
X117274957Y-96065544D01*
X117274957Y-93275121D01*
X120208478Y-93275121D01*
X120208478Y-96065544D01*
G37*
G36*
X156622163Y-93603062D02*
G01*
X156653968Y-93236353D01*
X156840714Y-92139483D01*
X157133254Y-91130339D01*
X157528805Y-90212581D01*
X158024581Y-89389867D01*
X158617799Y-88665856D01*
X159305675Y-88044205D01*
X160085424Y-87528574D01*
X160954261Y-87122621D01*
X161431503Y-86958772D01*
X161666817Y-86889989D01*
X161873937Y-86839805D01*
X162082707Y-86805244D01*
X162322970Y-86783328D01*
X162624569Y-86771079D01*
X163017347Y-86765521D01*
X163383963Y-86763964D01*
X163878292Y-86764861D01*
X164259972Y-86771847D01*
X164559409Y-86787431D01*
X164807006Y-86814124D01*
X165033168Y-86854434D01*
X165268301Y-86910874D01*
X165315794Y-86923439D01*
X166223235Y-87234558D01*
X167043061Y-87657900D01*
X167772659Y-88190571D01*
X168409414Y-88829676D01*
X168950711Y-89572320D01*
X169393935Y-90415609D01*
X169736474Y-91356648D01*
X169899437Y-91998568D01*
X169970538Y-92423453D01*
X170027893Y-92952817D01*
X170070117Y-93548574D01*
X170095824Y-94172639D01*
X170103628Y-94786927D01*
X170092145Y-95353353D01*
X170059988Y-95833831D01*
X170043986Y-95971695D01*
X169842185Y-97051929D01*
X169537217Y-98044955D01*
X169131684Y-98946175D01*
X168628189Y-99750989D01*
X168029335Y-100454801D01*
X167337722Y-101053010D01*
X167059169Y-101246445D01*
X166365701Y-101622625D01*
X165580284Y-101914351D01*
X164729775Y-102116937D01*
X163841028Y-102225697D01*
X162940900Y-102235943D01*
X162056246Y-102142989D01*
X161988752Y-102131277D01*
X161585852Y-102053742D01*
X161260682Y-101974178D01*
X160953849Y-101874645D01*
X160605963Y-101737204D01*
X160414667Y-101655826D01*
X159662266Y-101254596D01*
X158976916Y-100732541D01*
X158364856Y-100098374D01*
X157832325Y-99360805D01*
X157385565Y-98528546D01*
X157030814Y-97610307D01*
X156774312Y-96614800D01*
X156763233Y-96558259D01*
X156689371Y-96059881D01*
X156636763Y-95467469D01*
X156606980Y-94828726D01*
X156604908Y-94583652D01*
X159403651Y-94583652D01*
X159439779Y-95418103D01*
X159533598Y-96227542D01*
X159682854Y-96985838D01*
X159885293Y-97666863D01*
X160138660Y-98244484D01*
X160194903Y-98344714D01*
X160587864Y-98882281D01*
X161079957Y-99339676D01*
X161644411Y-99696139D01*
X162232865Y-99925044D01*
X162526477Y-99977896D01*
X162912821Y-100008944D01*
X163343189Y-100018107D01*
X163768871Y-100005303D01*
X164141160Y-99970453D01*
X164360597Y-99928593D01*
X164928439Y-99714165D01*
X165452294Y-99380286D01*
X165911687Y-98957644D01*
X166376430Y-98366760D01*
X166746399Y-97678640D01*
X167022309Y-96890673D01*
X167204875Y-96000250D01*
X167294810Y-95004761D01*
X167293213Y-93910935D01*
X167223888Y-92966549D01*
X167095189Y-92142311D01*
X166903241Y-91426470D01*
X166644169Y-90807274D01*
X166314096Y-90272972D01*
X165956588Y-89858436D01*
X165476992Y-89475949D01*
X164914360Y-89189402D01*
X164293900Y-89001132D01*
X163640816Y-88913479D01*
X162980314Y-88928780D01*
X162337599Y-89049374D01*
X161737878Y-89277598D01*
X161450105Y-89440405D01*
X160972877Y-89823562D01*
X160538144Y-90324517D01*
X160160554Y-90920704D01*
X159854759Y-91589557D01*
X159663968Y-92191530D01*
X159513491Y-92944236D01*
X159427471Y-93750320D01*
X159403651Y-94583652D01*
X156604908Y-94583652D01*
X156601591Y-94191356D01*
X156622163Y-93603062D01*
G37*
G36*
X153938410Y-104310912D02*
G01*
X154174009Y-104318730D01*
X154311141Y-104346705D01*
X154363367Y-104410005D01*
X154344252Y-104523799D01*
X154274833Y-104687169D01*
X154193128Y-104852278D01*
X154133349Y-104931997D01*
X154075961Y-104945133D01*
X154027537Y-104925204D01*
X153901980Y-104887575D01*
X153727290Y-104867483D01*
X153681097Y-104866446D01*
X153526354Y-104879062D01*
X153405492Y-104931647D01*
X153274089Y-105046312D01*
X153231641Y-105090152D01*
X153096572Y-105260301D01*
X152991768Y-105442127D01*
X152960282Y-105524699D01*
X152941761Y-105646894D01*
X152925617Y-105859365D01*
X152912847Y-106140255D01*
X152904447Y-106467706D01*
X152901416Y-106814901D01*
X152901104Y-107894261D01*
X152284327Y-107894261D01*
X152284327Y-104361810D01*
X152901104Y-104361810D01*
X152901725Y-104628146D01*
X152902347Y-104894481D01*
X153051461Y-104705231D01*
X153284525Y-104495805D01*
X153583356Y-104360183D01*
X153919815Y-104310875D01*
X153938410Y-104310912D01*
G37*
G36*
X167647940Y-105647009D02*
G01*
X167803528Y-105228909D01*
X168037628Y-104867151D01*
X168343880Y-104576901D01*
X168480634Y-104486870D01*
X168633102Y-104406534D01*
X168776573Y-104360208D01*
X168951783Y-104339140D01*
X169189625Y-104334558D01*
X169485802Y-104346676D01*
X169697753Y-104384531D01*
X169820419Y-104434122D01*
X170002649Y-104532902D01*
X170002649Y-102903974D01*
X170619426Y-102903974D01*
X170619426Y-107894261D01*
X170311037Y-107894261D01*
X170132720Y-107889340D01*
X170039828Y-107868203D01*
X170005844Y-107821282D01*
X170002649Y-107783019D01*
X169997181Y-107719159D01*
X169963456Y-107704141D01*
X169875491Y-107739458D01*
X169764349Y-107796698D01*
X169497987Y-107892923D01*
X169183657Y-107941128D01*
X168863020Y-107939937D01*
X168577738Y-107887975D01*
X168456105Y-107839881D01*
X168107738Y-107606343D01*
X167847092Y-107303537D01*
X167673279Y-106930175D01*
X167597750Y-106591577D01*
X167581048Y-106196632D01*
X168251999Y-106196632D01*
X168290308Y-106602126D01*
X168404738Y-106926865D01*
X168594542Y-107169737D01*
X168858971Y-107329629D01*
X169049533Y-107384562D01*
X169381670Y-107411805D01*
X169672599Y-107347550D01*
X169806402Y-107282874D01*
X169974614Y-107187234D01*
X169990623Y-106265140D01*
X169994170Y-105945707D01*
X169993642Y-105658016D01*
X169989365Y-105424148D01*
X169981666Y-105266185D01*
X169975100Y-105215148D01*
X169888339Y-105074783D01*
X169721728Y-104958613D01*
X169507367Y-104884310D01*
X169342018Y-104866656D01*
X169004222Y-104915585D01*
X168721318Y-105058014D01*
X168499442Y-105286456D01*
X168344732Y-105593421D01*
X168263326Y-105971423D01*
X168251999Y-106196632D01*
X167581048Y-106196632D01*
X167577227Y-106106287D01*
X167647940Y-105647009D01*
G37*
G36*
X164094208Y-106609457D02*
G01*
X164208690Y-106354083D01*
X164416613Y-106112725D01*
X164470731Y-106063530D01*
X164812891Y-105831405D01*
X165203814Y-105696781D01*
X165649624Y-105657733D01*
X165750061Y-105661454D01*
X166145359Y-105683791D01*
X166116128Y-105465854D01*
X166033930Y-105223360D01*
X165871903Y-105041094D01*
X165647893Y-104924187D01*
X165379746Y-104877776D01*
X165085307Y-104906992D01*
X164782422Y-105016970D01*
X164704086Y-105059663D01*
X164470837Y-105196356D01*
X164349105Y-104945795D01*
X164278807Y-104795624D01*
X164234834Y-104691147D01*
X164227373Y-104665597D01*
X164274137Y-104628745D01*
X164395970Y-104562247D01*
X164544502Y-104490773D01*
X164910505Y-104367615D01*
X165295312Y-104315493D01*
X165673834Y-104332143D01*
X166020987Y-104415303D01*
X166311684Y-104562709D01*
X166428991Y-104660764D01*
X166536923Y-104782089D01*
X166619862Y-104914088D01*
X166681602Y-105073883D01*
X166725938Y-105278598D01*
X166756665Y-105545356D01*
X166777578Y-105891278D01*
X166791469Y-106296247D01*
X166808279Y-106741292D01*
X166832538Y-107083689D01*
X166865954Y-107332786D01*
X166910236Y-107497930D01*
X166967094Y-107588469D01*
X167032345Y-107613907D01*
X167070705Y-107662637D01*
X167086971Y-107780046D01*
X167086976Y-107782119D01*
X167077178Y-107892437D01*
X167025746Y-107939620D01*
X166899623Y-107950081D01*
X166876711Y-107950122D01*
X166665206Y-107915255D01*
X166467972Y-107824938D01*
X166322233Y-107699985D01*
X166273657Y-107612982D01*
X166235316Y-107492177D01*
X166114457Y-107605633D01*
X165871524Y-107770226D01*
X165565886Y-107885286D01*
X165234206Y-107944184D01*
X164913142Y-107940289D01*
X164647903Y-107870859D01*
X164379201Y-107692792D01*
X164186319Y-107439869D01*
X164078790Y-107127685D01*
X164071856Y-107049929D01*
X164697357Y-107049929D01*
X164787009Y-107242713D01*
X164962278Y-107371580D01*
X165215997Y-107430000D01*
X165391390Y-107429389D01*
X165626626Y-107390700D01*
X165815569Y-107298890D01*
X165896026Y-107238846D01*
X166000089Y-107150407D01*
X166063379Y-107071406D01*
X166097382Y-106970280D01*
X166113584Y-106815466D01*
X166121939Y-106618007D01*
X166138139Y-106166665D01*
X165910050Y-106128130D01*
X165598001Y-106118778D01*
X165300046Y-106187718D01*
X165038612Y-106322496D01*
X164836125Y-106510660D01*
X164715011Y-106739758D01*
X164700485Y-106799759D01*
X164697357Y-107049929D01*
X164071856Y-107049929D01*
X164059161Y-106907573D01*
X164094208Y-106609457D01*
G37*
G36*
X154688259Y-105538212D02*
G01*
X154843527Y-105130768D01*
X155071290Y-104805066D01*
X155354443Y-104554709D01*
X155676464Y-104397290D01*
X156060582Y-104321857D01*
X156103647Y-104318376D01*
X156536541Y-104334131D01*
X156914207Y-104445965D01*
X157232898Y-104651831D01*
X157488865Y-104949677D01*
X157591962Y-105132057D01*
X157671287Y-105313037D01*
X157721938Y-105487976D01*
X157751914Y-105695544D01*
X157769218Y-105974407D01*
X157769951Y-105992323D01*
X157755994Y-106506465D01*
X157667990Y-106939608D01*
X157503775Y-107296827D01*
X157261187Y-107583194D01*
X157015807Y-107760851D01*
X156852390Y-107844816D01*
X156689609Y-107895085D01*
X156485645Y-107921592D01*
X156298542Y-107931238D01*
X156065168Y-107933241D01*
X155859630Y-107924059D01*
X155720281Y-107905632D01*
X155704273Y-107901188D01*
X155333739Y-107727066D01*
X155040814Y-107472417D01*
X154825164Y-107136803D01*
X154686456Y-106719786D01*
X154650672Y-106517426D01*
X154626360Y-106058573D01*
X155287418Y-106058573D01*
X155306170Y-106401461D01*
X155367334Y-106728855D01*
X155467382Y-107008535D01*
X155580615Y-107184969D01*
X155793638Y-107345351D01*
X156058334Y-107427357D01*
X156340753Y-107425029D01*
X156559966Y-107356861D01*
X156793640Y-107189027D01*
X156961489Y-106937973D01*
X157064994Y-106600284D01*
X157105634Y-106172548D01*
X157106402Y-106096341D01*
X157079969Y-105681302D01*
X156997581Y-105357573D01*
X156854599Y-105116758D01*
X156646386Y-104950457D01*
X156426234Y-104864475D01*
X156132085Y-104837916D01*
X155860961Y-104915967D01*
X155625155Y-105091613D01*
X155436960Y-105357838D01*
X155391255Y-105455188D01*
X155314604Y-105732409D01*
X155287418Y-106058573D01*
X154626360Y-106058573D01*
X154623403Y-106002756D01*
X154688259Y-105538212D01*
G37*
G36*
X145218384Y-106636391D02*
G01*
X145365734Y-106314561D01*
X145614405Y-106040237D01*
X145900373Y-105847050D01*
X146052285Y-105769069D01*
X146186116Y-105720233D01*
X146336464Y-105693746D01*
X146537928Y-105682813D01*
X146747214Y-105680723D01*
X147018798Y-105677302D01*
X147190906Y-105660026D01*
X147276201Y-105616136D01*
X147287343Y-105532874D01*
X147236992Y-105397479D01*
X147167881Y-105256804D01*
X147011544Y-105039685D01*
X146802820Y-104913548D01*
X146533265Y-104875227D01*
X146244003Y-104910587D01*
X146036274Y-104968094D01*
X145850999Y-105042801D01*
X145767421Y-105091357D01*
X145614532Y-105204296D01*
X145327482Y-104637830D01*
X145651931Y-104485802D01*
X145825709Y-104411343D01*
X145983116Y-104365962D01*
X146162373Y-104342961D01*
X146401701Y-104335638D01*
X146509051Y-104335547D01*
X146845236Y-104348568D01*
X147101783Y-104391388D01*
X147309337Y-104473503D01*
X147498548Y-104604406D01*
X147565271Y-104662740D01*
X147664198Y-104764840D01*
X147740439Y-104878687D01*
X147797534Y-105020727D01*
X147839021Y-105207404D01*
X147868439Y-105455162D01*
X147889324Y-105780446D01*
X147905217Y-106199700D01*
X147906736Y-106249679D01*
X147918769Y-106625643D01*
X147930690Y-106906789D01*
X147944698Y-107110416D01*
X147962990Y-107253824D01*
X147987766Y-107354312D01*
X148021224Y-107429180D01*
X148065011Y-107494981D01*
X148149983Y-107647176D01*
X148190589Y-107793421D01*
X148191170Y-107807884D01*
X148172962Y-107910368D01*
X148095519Y-107947238D01*
X148026608Y-107950331D01*
X147743133Y-107901591D01*
X147503116Y-107751406D01*
X147444115Y-107692797D01*
X147302853Y-107540452D01*
X147128493Y-107687166D01*
X146864046Y-107844114D01*
X146545456Y-107933574D01*
X146208568Y-107952518D01*
X145889226Y-107897923D01*
X145686140Y-107808910D01*
X145426627Y-107592796D01*
X145255571Y-107318288D01*
X145180607Y-107004524D01*
X145190217Y-106892977D01*
X145836203Y-106892977D01*
X145862601Y-107135599D01*
X145950468Y-107299799D01*
X146112814Y-107397018D01*
X146362650Y-107438698D01*
X146460661Y-107442141D01*
X146655715Y-107425945D01*
X146834408Y-107359505D01*
X146993332Y-107263466D01*
X147266004Y-107081236D01*
X147282229Y-106622420D01*
X147298453Y-106163604D01*
X147049100Y-106126211D01*
X146722105Y-106117747D01*
X146421654Y-106185081D01*
X146165638Y-106316901D01*
X145971947Y-106501898D01*
X145858472Y-106728763D01*
X145836203Y-106892977D01*
X145190217Y-106892977D01*
X145209371Y-106670643D01*
X145218384Y-106636391D01*
G37*
G36*
X141712838Y-104352743D02*
G01*
X142005291Y-104476351D01*
X142150176Y-104582836D01*
X142327047Y-104740870D01*
X142525665Y-104586306D01*
X142842229Y-104403176D01*
X143184792Y-104314434D01*
X143531302Y-104319509D01*
X143859707Y-104417830D01*
X144147956Y-104608825D01*
X144169420Y-104628856D01*
X144264125Y-104734534D01*
X144338736Y-104858731D01*
X144395500Y-105015356D01*
X144436666Y-105218318D01*
X144464483Y-105481523D01*
X144481199Y-105818882D01*
X144489064Y-106244301D01*
X144490508Y-106614813D01*
X144490508Y-107894261D01*
X143817660Y-107894261D01*
X143817660Y-105247726D01*
X143627020Y-105057086D01*
X143492644Y-104938724D01*
X143366658Y-104882589D01*
X143194386Y-104866721D01*
X143152370Y-104866446D01*
X142955371Y-104879783D01*
X142810635Y-104933780D01*
X142670163Y-105040467D01*
X142471965Y-105214487D01*
X142471965Y-107894261D01*
X141799117Y-107894261D01*
X141799117Y-106572914D01*
X141796635Y-106137575D01*
X141789498Y-105766273D01*
X141778173Y-105470531D01*
X141763124Y-105261874D01*
X141744818Y-105151825D01*
X141741384Y-105143693D01*
X141610976Y-105006718D01*
X141410780Y-104912287D01*
X141177923Y-104869115D01*
X140949533Y-104885916D01*
X140828212Y-104929368D01*
X140702958Y-105011190D01*
X140562840Y-105125701D01*
X140551545Y-105136105D01*
X140397351Y-105279921D01*
X140397351Y-107894261D01*
X139780574Y-107894261D01*
X139780574Y-104361810D01*
X139994471Y-104361810D01*
X140141129Y-104374400D01*
X140229378Y-104432642D01*
X140304839Y-104564110D01*
X140401309Y-104766409D01*
X140539464Y-104617337D01*
X140776985Y-104438542D01*
X141070507Y-104334442D01*
X141391850Y-104305642D01*
X141712838Y-104352743D01*
G37*
G36*
X150698280Y-104340235D02*
G01*
X150895488Y-104364337D01*
X151070258Y-104415100D01*
X151236940Y-104486670D01*
X151563283Y-104639565D01*
X151461222Y-104813387D01*
X151355127Y-104975292D01*
X151264700Y-105047585D01*
X151160061Y-105043130D01*
X151045156Y-104992498D01*
X150848960Y-104927160D01*
X150574025Y-104897257D01*
X150429631Y-104894481D01*
X150200002Y-104899225D01*
X150045006Y-104919535D01*
X149927320Y-104964526D01*
X149809620Y-105043314D01*
X149804576Y-105047151D01*
X149577368Y-105283005D01*
X149429778Y-105586638D01*
X149358749Y-105965488D01*
X149351003Y-106150314D01*
X149358772Y-106420201D01*
X149391557Y-106624247D01*
X149457430Y-106807466D01*
X149475962Y-106846970D01*
X149658810Y-107105023D01*
X149909828Y-107288108D01*
X150209438Y-107391085D01*
X150538059Y-107408814D01*
X150876114Y-107336155D01*
X151050347Y-107260314D01*
X151334373Y-107112956D01*
X151455944Y-107363186D01*
X151525944Y-107513367D01*
X151547624Y-107597581D01*
X151522282Y-107650426D01*
X151468338Y-107693872D01*
X151242988Y-107808289D01*
X150942620Y-107889016D01*
X150599971Y-107933427D01*
X150247775Y-107938897D01*
X149918768Y-107902801D01*
X149681073Y-107837196D01*
X149386092Y-107674856D01*
X149112018Y-107440037D01*
X148899343Y-107169076D01*
X148861352Y-107101577D01*
X148737257Y-106757619D01*
X148679483Y-106359025D01*
X148687649Y-105941308D01*
X148761373Y-105539978D01*
X148881505Y-105225958D01*
X149115689Y-104869472D01*
X149408766Y-104605648D01*
X149765290Y-104431873D01*
X150189812Y-104345532D01*
X150433995Y-104334323D01*
X150698280Y-104340235D01*
G37*
G36*
X160784278Y-104361810D02*
G01*
X160968489Y-104367737D01*
X161069783Y-104391836D01*
X161117047Y-104443588D01*
X161127361Y-104474409D01*
X161151003Y-104543467D01*
X161192128Y-104555267D01*
X161282466Y-104509027D01*
X161347805Y-104468964D01*
X161568524Y-104378375D01*
X161850260Y-104326044D01*
X162146948Y-104316929D01*
X162408395Y-104354855D01*
X162781933Y-104509115D01*
X163084432Y-104748527D01*
X163313261Y-105069382D01*
X163465789Y-105467972D01*
X163539385Y-105940590D01*
X163539966Y-105949682D01*
X163528353Y-106433096D01*
X163434402Y-106869937D01*
X163263544Y-107248379D01*
X163021210Y-107556597D01*
X162712830Y-107782766D01*
X162693423Y-107792917D01*
X162434787Y-107882848D01*
X162115950Y-107931826D01*
X161782231Y-107936865D01*
X161478949Y-107894976D01*
X161414555Y-107877244D01*
X161257571Y-107831697D01*
X161175827Y-107825194D01*
X161138025Y-107861781D01*
X161120950Y-107915190D01*
X161107903Y-108018110D01*
X161097273Y-108204785D01*
X161090300Y-108446838D01*
X161088183Y-108665232D01*
X161087417Y-109296027D01*
X160470640Y-109296027D01*
X160470640Y-106151199D01*
X161087417Y-106151199D01*
X161088537Y-106513972D01*
X161092893Y-106781112D01*
X161101975Y-106969112D01*
X161117277Y-107094466D01*
X161140290Y-107173668D01*
X161172506Y-107223212D01*
X161185541Y-107235981D01*
X161404036Y-107359604D01*
X161689913Y-107408336D01*
X162025764Y-107380675D01*
X162242638Y-107327205D01*
X162462655Y-107205204D01*
X162638937Y-107000176D01*
X162768843Y-106733432D01*
X162849734Y-106426286D01*
X162878969Y-106100050D01*
X162853910Y-105776036D01*
X162771915Y-105475557D01*
X162630346Y-105219925D01*
X162518581Y-105099447D01*
X162268373Y-104948412D01*
X161971150Y-104874073D01*
X161662106Y-104878345D01*
X161376438Y-104963144D01*
X161260750Y-105031011D01*
X161087417Y-105154435D01*
X161087417Y-106151199D01*
X160470640Y-106151199D01*
X160470640Y-104361810D01*
X160784278Y-104361810D01*
G37*
%TD*%
M02*
