%TF.GenerationSoftware,KiCad,Pcbnew,(5.99.0-12610-g07e01e6297)*%
%TF.CreationDate,2021-11-07T17:03:59+00:00*%
%TF.ProjectId,Envoy-Backplate,456e766f-792d-4426-9163-6b706c617465,rev?*%
%TF.SameCoordinates,Original*%
%TF.FileFunction,Soldermask,Top*%
%TF.FilePolarity,Negative*%
%FSLAX46Y46*%
G04 Gerber Fmt 4.6, Leading zero omitted, Abs format (unit mm)*
G04 Created by KiCad (PCBNEW (5.99.0-12610-g07e01e6297)) date 2021-11-07 17:03:59*
%MOMM*%
%LPD*%
G01*
G04 APERTURE LIST*
%ADD10C,0.150000*%
%ADD11C,2.800000*%
%ADD12C,5.000000*%
G04 APERTURE END LIST*
D10*
X178231071Y-55868571D02*
X178564404Y-55868571D01*
X178707261Y-56392380D02*
X178231071Y-56392380D01*
X178231071Y-55392380D01*
X178707261Y-55392380D01*
X179135833Y-55725714D02*
X179135833Y-56392380D01*
X179135833Y-55820952D02*
X179183452Y-55773333D01*
X179278690Y-55725714D01*
X179421547Y-55725714D01*
X179516785Y-55773333D01*
X179564404Y-55868571D01*
X179564404Y-56392380D01*
X179945357Y-55725714D02*
X180183452Y-56392380D01*
X180421547Y-55725714D01*
X180945357Y-56392380D02*
X180850119Y-56344761D01*
X180802500Y-56297142D01*
X180754880Y-56201904D01*
X180754880Y-55916190D01*
X180802500Y-55820952D01*
X180850119Y-55773333D01*
X180945357Y-55725714D01*
X181088214Y-55725714D01*
X181183452Y-55773333D01*
X181231071Y-55820952D01*
X181278690Y-55916190D01*
X181278690Y-56201904D01*
X181231071Y-56297142D01*
X181183452Y-56344761D01*
X181088214Y-56392380D01*
X180945357Y-56392380D01*
X181612023Y-55725714D02*
X181850119Y-56392380D01*
X182088214Y-55725714D02*
X181850119Y-56392380D01*
X181754880Y-56630476D01*
X181707261Y-56678095D01*
X181612023Y-56725714D01*
X183231071Y-56392380D02*
X183231071Y-55392380D01*
X183231071Y-55773333D02*
X183326309Y-55725714D01*
X183516785Y-55725714D01*
X183612023Y-55773333D01*
X183659642Y-55820952D01*
X183707261Y-55916190D01*
X183707261Y-56201904D01*
X183659642Y-56297142D01*
X183612023Y-56344761D01*
X183516785Y-56392380D01*
X183326309Y-56392380D01*
X183231071Y-56344761D01*
X184040595Y-55725714D02*
X184278690Y-56392380D01*
X184516785Y-55725714D02*
X184278690Y-56392380D01*
X184183452Y-56630476D01*
X184135833Y-56678095D01*
X184040595Y-56725714D01*
X185945357Y-55392380D02*
X185945357Y-56106666D01*
X185897738Y-56249523D01*
X185802500Y-56344761D01*
X185659642Y-56392380D01*
X185564404Y-56392380D01*
X186802500Y-56344761D02*
X186707261Y-56392380D01*
X186516785Y-56392380D01*
X186421547Y-56344761D01*
X186373928Y-56249523D01*
X186373928Y-55868571D01*
X186421547Y-55773333D01*
X186516785Y-55725714D01*
X186707261Y-55725714D01*
X186802500Y-55773333D01*
X186850119Y-55868571D01*
X186850119Y-55963809D01*
X186373928Y-56059047D01*
X187564404Y-55392380D02*
X187564404Y-56106666D01*
X187516785Y-56249523D01*
X187421547Y-56344761D01*
X187278690Y-56392380D01*
X187183452Y-56392380D01*
X188421547Y-56344761D02*
X188326309Y-56392380D01*
X188135833Y-56392380D01*
X188040595Y-56344761D01*
X187992976Y-56249523D01*
X187992976Y-55868571D01*
X188040595Y-55773333D01*
X188135833Y-55725714D01*
X188326309Y-55725714D01*
X188421547Y-55773333D01*
X188469166Y-55868571D01*
X188469166Y-55963809D01*
X187992976Y-56059047D01*
X188754880Y-55725714D02*
X189135833Y-55725714D01*
X188897738Y-56392380D02*
X188897738Y-55535238D01*
X188945357Y-55440000D01*
X189040595Y-55392380D01*
X189135833Y-55392380D01*
X189326309Y-55725714D02*
X189707261Y-55725714D01*
X189469166Y-56392380D02*
X189469166Y-55535238D01*
X189516785Y-55440000D01*
X189612023Y-55392380D01*
X189707261Y-55392380D01*
X182040595Y-58002380D02*
X182040595Y-57002380D01*
X182040595Y-57383333D02*
X182135833Y-57335714D01*
X182326309Y-57335714D01*
X182421547Y-57383333D01*
X182469166Y-57430952D01*
X182516785Y-57526190D01*
X182516785Y-57811904D01*
X182469166Y-57907142D01*
X182421547Y-57954761D01*
X182326309Y-58002380D01*
X182135833Y-58002380D01*
X182040595Y-57954761D01*
X183373928Y-58002380D02*
X183373928Y-57478571D01*
X183326309Y-57383333D01*
X183231071Y-57335714D01*
X183040595Y-57335714D01*
X182945357Y-57383333D01*
X183373928Y-57954761D02*
X183278690Y-58002380D01*
X183040595Y-58002380D01*
X182945357Y-57954761D01*
X182897738Y-57859523D01*
X182897738Y-57764285D01*
X182945357Y-57669047D01*
X183040595Y-57621428D01*
X183278690Y-57621428D01*
X183373928Y-57573809D01*
X184278690Y-57954761D02*
X184183452Y-58002380D01*
X183992976Y-58002380D01*
X183897738Y-57954761D01*
X183850119Y-57907142D01*
X183802500Y-57811904D01*
X183802500Y-57526190D01*
X183850119Y-57430952D01*
X183897738Y-57383333D01*
X183992976Y-57335714D01*
X184183452Y-57335714D01*
X184278690Y-57383333D01*
X184707261Y-58002380D02*
X184707261Y-57002380D01*
X184802500Y-57621428D02*
X185088214Y-58002380D01*
X185088214Y-57335714D02*
X184707261Y-57716666D01*
X186278690Y-57335714D02*
X186278690Y-58335714D01*
X186278690Y-57383333D02*
X186373928Y-57335714D01*
X186564404Y-57335714D01*
X186659642Y-57383333D01*
X186707261Y-57430952D01*
X186754880Y-57526190D01*
X186754880Y-57811904D01*
X186707261Y-57907142D01*
X186659642Y-57954761D01*
X186564404Y-58002380D01*
X186373928Y-58002380D01*
X186278690Y-57954761D01*
X187326309Y-58002380D02*
X187231071Y-57954761D01*
X187183452Y-57859523D01*
X187183452Y-57002380D01*
X188135833Y-58002380D02*
X188135833Y-57478571D01*
X188088214Y-57383333D01*
X187992976Y-57335714D01*
X187802500Y-57335714D01*
X187707261Y-57383333D01*
X188135833Y-57954761D02*
X188040595Y-58002380D01*
X187802500Y-58002380D01*
X187707261Y-57954761D01*
X187659642Y-57859523D01*
X187659642Y-57764285D01*
X187707261Y-57669047D01*
X187802500Y-57621428D01*
X188040595Y-57621428D01*
X188135833Y-57573809D01*
X188469166Y-57335714D02*
X188850119Y-57335714D01*
X188612023Y-57002380D02*
X188612023Y-57859523D01*
X188659642Y-57954761D01*
X188754880Y-58002380D01*
X188850119Y-58002380D01*
X189564404Y-57954761D02*
X189469166Y-58002380D01*
X189278690Y-58002380D01*
X189183452Y-57954761D01*
X189135833Y-57859523D01*
X189135833Y-57478571D01*
X189183452Y-57383333D01*
X189278690Y-57335714D01*
X189469166Y-57335714D01*
X189564404Y-57383333D01*
X189612023Y-57478571D01*
X189612023Y-57573809D01*
X189135833Y-57669047D01*
X184659642Y-59612380D02*
X184659642Y-58945714D01*
X184659642Y-59136190D02*
X184707261Y-59040952D01*
X184754880Y-58993333D01*
X184850119Y-58945714D01*
X184945357Y-58945714D01*
X185659642Y-59564761D02*
X185564404Y-59612380D01*
X185373928Y-59612380D01*
X185278690Y-59564761D01*
X185231071Y-59469523D01*
X185231071Y-59088571D01*
X185278690Y-58993333D01*
X185373928Y-58945714D01*
X185564404Y-58945714D01*
X185659642Y-58993333D01*
X185707261Y-59088571D01*
X185707261Y-59183809D01*
X185231071Y-59279047D01*
X186040595Y-58945714D02*
X186278690Y-59612380D01*
X186516785Y-58945714D01*
X187850119Y-58612380D02*
X187945357Y-58612380D01*
X188040595Y-58660000D01*
X188088214Y-58707619D01*
X188135833Y-58802857D01*
X188183452Y-58993333D01*
X188183452Y-59231428D01*
X188135833Y-59421904D01*
X188088214Y-59517142D01*
X188040595Y-59564761D01*
X187945357Y-59612380D01*
X187850119Y-59612380D01*
X187754880Y-59564761D01*
X187707261Y-59517142D01*
X187659642Y-59421904D01*
X187612023Y-59231428D01*
X187612023Y-58993333D01*
X187659642Y-58802857D01*
X187707261Y-58707619D01*
X187754880Y-58660000D01*
X187850119Y-58612380D01*
X188612023Y-59517142D02*
X188659642Y-59564761D01*
X188612023Y-59612380D01*
X188564404Y-59564761D01*
X188612023Y-59517142D01*
X188612023Y-59612380D01*
X189040595Y-58707619D02*
X189088214Y-58660000D01*
X189183452Y-58612380D01*
X189421547Y-58612380D01*
X189516785Y-58660000D01*
X189564404Y-58707619D01*
X189612023Y-58802857D01*
X189612023Y-58898095D01*
X189564404Y-59040952D01*
X188992976Y-59612380D01*
X189612023Y-59612380D01*
D11*
%TO.C,H4*%
X176275500Y-126231750D03*
%TD*%
%TO.C,H1*%
X102863000Y-69081750D03*
%TD*%
%TO.C,H3*%
X119135500Y-124461750D03*
%TD*%
%TO.C,H2*%
X157162000Y-69081750D03*
%TD*%
D12*
%TO.C,H5*%
X118774000Y-62000000D03*
%TD*%
%TO.C,H6*%
X176500000Y-62000000D03*
%TD*%
M02*
