%TF.GenerationSoftware,KiCad,Pcbnew,(5.99.0-12610-g07e01e6297)*%
%TF.CreationDate,2021-10-01T22:51:39+01:00*%
%TF.ProjectId,Envoy-Backplate,456e766f-792d-4426-9163-6b706c617465,rev?*%
%TF.SameCoordinates,Original*%
%TF.FileFunction,Legend,Top*%
%TF.FilePolarity,Positive*%
%FSLAX46Y46*%
G04 Gerber Fmt 4.6, Leading zero omitted, Abs format (unit mm)*
G04 Created by KiCad (PCBNEW (5.99.0-12610-g07e01e6297)) date 2021-10-01 22:51:39*
%MOMM*%
%LPD*%
G01*
G04 APERTURE LIST*
%ADD10C,0.150000*%
G04 APERTURE END LIST*
D10*
X165198809Y-82928523D02*
X165198809Y-83535666D01*
X165158333Y-83657095D01*
X165077380Y-83738047D01*
X164955952Y-83778523D01*
X164875000Y-83778523D01*
X166008333Y-83778523D02*
X165603571Y-83778523D01*
X165603571Y-82928523D01*
X166777380Y-83697571D02*
X166736904Y-83738047D01*
X166615476Y-83778523D01*
X166534523Y-83778523D01*
X166413095Y-83738047D01*
X166332142Y-83657095D01*
X166291666Y-83576142D01*
X166251190Y-83414238D01*
X166251190Y-83292809D01*
X166291666Y-83130904D01*
X166332142Y-83049952D01*
X166413095Y-82969000D01*
X166534523Y-82928523D01*
X166615476Y-82928523D01*
X166736904Y-82969000D01*
X166777380Y-83009476D01*
X167384523Y-82928523D02*
X167384523Y-83535666D01*
X167344047Y-83657095D01*
X167263095Y-83738047D01*
X167141666Y-83778523D01*
X167060714Y-83778523D01*
X168194047Y-83778523D02*
X167789285Y-83778523D01*
X167789285Y-82928523D01*
X168963095Y-83697571D02*
X168922619Y-83738047D01*
X168801190Y-83778523D01*
X168720238Y-83778523D01*
X168598809Y-83738047D01*
X168517857Y-83657095D01*
X168477380Y-83576142D01*
X168436904Y-83414238D01*
X168436904Y-83292809D01*
X168477380Y-83130904D01*
X168517857Y-83049952D01*
X168598809Y-82969000D01*
X168720238Y-82928523D01*
X168801190Y-82928523D01*
X168922619Y-82969000D01*
X168963095Y-83009476D01*
X169570238Y-82928523D02*
X169570238Y-83535666D01*
X169529761Y-83657095D01*
X169448809Y-83738047D01*
X169327380Y-83778523D01*
X169246428Y-83778523D01*
X170379761Y-83778523D02*
X169975000Y-83778523D01*
X169975000Y-82928523D01*
X171148809Y-83697571D02*
X171108333Y-83738047D01*
X170986904Y-83778523D01*
X170905952Y-83778523D01*
X170784523Y-83738047D01*
X170703571Y-83657095D01*
X170663095Y-83576142D01*
X170622619Y-83414238D01*
X170622619Y-83292809D01*
X170663095Y-83130904D01*
X170703571Y-83049952D01*
X170784523Y-82969000D01*
X170905952Y-82928523D01*
X170986904Y-82928523D01*
X171108333Y-82969000D01*
X171148809Y-83009476D01*
X171755952Y-82928523D02*
X171755952Y-83535666D01*
X171715476Y-83657095D01*
X171634523Y-83738047D01*
X171513095Y-83778523D01*
X171432142Y-83778523D01*
X172565476Y-83778523D02*
X172160714Y-83778523D01*
X172160714Y-82928523D01*
X173334523Y-83697571D02*
X173294047Y-83738047D01*
X173172619Y-83778523D01*
X173091666Y-83778523D01*
X172970238Y-83738047D01*
X172889285Y-83657095D01*
X172848809Y-83576142D01*
X172808333Y-83414238D01*
X172808333Y-83292809D01*
X172848809Y-83130904D01*
X172889285Y-83049952D01*
X172970238Y-82969000D01*
X173091666Y-82928523D01*
X173172619Y-82928523D01*
X173294047Y-82969000D01*
X173334523Y-83009476D01*
%TO.C,H5*%
X110837095Y-79246380D02*
X110837095Y-78246380D01*
X110837095Y-78722571D02*
X111408523Y-78722571D01*
X111408523Y-79246380D02*
X111408523Y-78246380D01*
X112360904Y-78246380D02*
X111884714Y-78246380D01*
X111837095Y-78722571D01*
X111884714Y-78674952D01*
X111979952Y-78627333D01*
X112218047Y-78627333D01*
X112313285Y-78674952D01*
X112360904Y-78722571D01*
X112408523Y-78817809D01*
X112408523Y-79055904D01*
X112360904Y-79151142D01*
X112313285Y-79198761D01*
X112218047Y-79246380D01*
X111979952Y-79246380D01*
X111884714Y-79198761D01*
X111837095Y-79151142D01*
%TO.C,H6*%
X168563095Y-79246380D02*
X168563095Y-78246380D01*
X168563095Y-78722571D02*
X169134523Y-78722571D01*
X169134523Y-79246380D02*
X169134523Y-78246380D01*
X170039285Y-78246380D02*
X169848809Y-78246380D01*
X169753571Y-78294000D01*
X169705952Y-78341619D01*
X169610714Y-78484476D01*
X169563095Y-78674952D01*
X169563095Y-79055904D01*
X169610714Y-79151142D01*
X169658333Y-79198761D01*
X169753571Y-79246380D01*
X169944047Y-79246380D01*
X170039285Y-79198761D01*
X170086904Y-79151142D01*
X170134523Y-79055904D01*
X170134523Y-78817809D01*
X170086904Y-78722571D01*
X170039285Y-78674952D01*
X169944047Y-78627333D01*
X169753571Y-78627333D01*
X169658333Y-78674952D01*
X169610714Y-78722571D01*
X169563095Y-78817809D01*
%TD*%
M02*
