%TF.GenerationSoftware,KiCad,Pcbnew,(5.99.0-12610-g07e01e6297)*%
%TF.CreationDate,2021-11-07T17:03:59+00:00*%
%TF.ProjectId,Envoy-Backplate,456e766f-792d-4426-9163-6b706c617465,rev?*%
%TF.SameCoordinates,Original*%
%TF.FileFunction,Copper,L2,Bot*%
%TF.FilePolarity,Positive*%
%FSLAX46Y46*%
G04 Gerber Fmt 4.6, Leading zero omitted, Abs format (unit mm)*
G04 Created by KiCad (PCBNEW (5.99.0-12610-g07e01e6297)) date 2021-11-07 17:03:59*
%MOMM*%
%LPD*%
G01*
G04 APERTURE LIST*
%TA.AperFunction,ComponentPad*%
%ADD10C,2.800000*%
%TD*%
%TA.AperFunction,ComponentPad*%
%ADD11C,5.000000*%
%TD*%
G04 APERTURE END LIST*
%TO.C,G\u002A\u002A\u002A*%
G36*
X151412307Y-84413846D02*
G01*
X143401538Y-84413846D01*
X143401538Y-76793846D01*
X151412307Y-76793846D01*
X151412307Y-84413846D01*
G37*
G36*
X134413846Y-118606154D02*
G01*
X134413846Y-117629231D01*
X135390769Y-117629231D01*
X141447692Y-117629231D01*
X141447692Y-103561539D01*
X135390769Y-103561539D01*
X135390769Y-117629231D01*
X134413846Y-117629231D01*
X134413846Y-102584616D01*
X142424615Y-102584616D01*
X142424615Y-118606154D01*
X134413846Y-118606154D01*
G37*
G36*
X134413846Y-84413846D02*
G01*
X134413846Y-83436923D01*
X135390769Y-83436923D01*
X141447692Y-83436923D01*
X141447692Y-77770769D01*
X135390769Y-77770769D01*
X135390769Y-83436923D01*
X134413846Y-83436923D01*
X134413846Y-76793846D01*
X142424615Y-76793846D01*
X142424615Y-84413846D01*
X134413846Y-84413846D01*
G37*
G36*
X160595384Y-84413846D02*
G01*
X152584615Y-84413846D01*
X152584615Y-76793846D01*
X160595384Y-76793846D01*
X160595384Y-84413846D01*
G37*
G36*
X169778461Y-118606154D02*
G01*
X152584615Y-118606154D01*
X152584615Y-110986154D01*
X169778461Y-110986154D01*
X169778461Y-118606154D01*
G37*
G36*
X152584615Y-93010769D02*
G01*
X152584615Y-92033846D01*
X153561538Y-92033846D01*
X159618461Y-92033846D01*
X159618461Y-86367693D01*
X153561538Y-86367693D01*
X153561538Y-92033846D01*
X152584615Y-92033846D01*
X152584615Y-85390769D01*
X160595384Y-85390769D01*
X160595384Y-93010769D01*
X152584615Y-93010769D01*
G37*
G36*
X133009230Y-108031535D02*
G01*
X132428862Y-108917927D01*
X131648941Y-109635313D01*
X130726770Y-110094288D01*
X130664703Y-110113349D01*
X129974529Y-110304698D01*
X129457394Y-110366670D01*
X128932419Y-110300095D01*
X128218727Y-110105806D01*
X127287329Y-109672003D01*
X126459387Y-108953444D01*
X125854973Y-108051152D01*
X125528143Y-107047284D01*
X125530474Y-106551698D01*
X126611966Y-106551698D01*
X126741360Y-107431136D01*
X127146294Y-108225604D01*
X127829101Y-108844833D01*
X128446910Y-109101770D01*
X129431538Y-109226232D01*
X129870193Y-109201701D01*
X130860222Y-108923492D01*
X131614969Y-108364589D01*
X132095751Y-107561531D01*
X132263885Y-106550857D01*
X132237014Y-106159802D01*
X131934692Y-105259693D01*
X131334527Y-104562554D01*
X130484236Y-104112166D01*
X129431538Y-103952308D01*
X129225100Y-103959365D01*
X128518384Y-104064281D01*
X127947810Y-104254870D01*
X127853674Y-104306243D01*
X127170457Y-104898983D01*
X126755777Y-105677558D01*
X126611966Y-106551698D01*
X125530474Y-106551698D01*
X125532957Y-106023997D01*
X125693369Y-105446022D01*
X126243948Y-104460126D01*
X127052995Y-103673558D01*
X128047898Y-103132731D01*
X129156040Y-102884059D01*
X130304808Y-102973955D01*
X131151338Y-103275482D01*
X132149021Y-103957152D01*
X132892328Y-104895548D01*
X133327632Y-106036343D01*
X133342092Y-106109362D01*
X133337774Y-106550857D01*
X133332741Y-107065544D01*
X133009230Y-108031535D01*
G37*
G36*
X169778461Y-93010769D02*
G01*
X161767692Y-93010769D01*
X161767692Y-85390769D01*
X169778461Y-85390769D01*
X169778461Y-93010769D01*
G37*
G36*
X142424615Y-101607693D02*
G01*
X134413846Y-101607693D01*
X134413846Y-85390769D01*
X142424615Y-85390769D01*
X142424615Y-101607693D01*
G37*
G36*
X160595384Y-101607693D02*
G01*
X152584615Y-101607693D01*
X152584615Y-93987693D01*
X160595384Y-93987693D01*
X160595384Y-101607693D01*
G37*
G36*
X151412307Y-101607693D02*
G01*
X143401538Y-101607693D01*
X143401538Y-93987693D01*
X151412307Y-93987693D01*
X151412307Y-101607693D01*
G37*
G36*
X133009230Y-99434612D02*
G01*
X132428862Y-100321004D01*
X131648941Y-101038390D01*
X130726770Y-101497365D01*
X130664703Y-101516426D01*
X129974529Y-101707775D01*
X129457394Y-101769747D01*
X128932419Y-101703172D01*
X128218727Y-101508883D01*
X127287329Y-101075080D01*
X126459387Y-100356520D01*
X125854973Y-99454229D01*
X125528143Y-98450361D01*
X125530474Y-97954775D01*
X126611966Y-97954775D01*
X126741360Y-98834213D01*
X127146294Y-99628681D01*
X127829101Y-100247910D01*
X128446910Y-100504847D01*
X129431538Y-100629309D01*
X129870193Y-100604778D01*
X130860222Y-100326569D01*
X131614969Y-99767666D01*
X132095751Y-98964608D01*
X132263885Y-97953934D01*
X132237014Y-97562879D01*
X131934692Y-96662770D01*
X131334527Y-95965631D01*
X130484236Y-95515243D01*
X129431538Y-95355385D01*
X129225100Y-95362442D01*
X128518384Y-95467358D01*
X127947810Y-95657947D01*
X127853674Y-95709320D01*
X127170457Y-96302060D01*
X126755777Y-97080634D01*
X126611966Y-97954775D01*
X125530474Y-97954775D01*
X125532957Y-97427074D01*
X125693369Y-96849099D01*
X126243948Y-95863203D01*
X127052995Y-95076635D01*
X128047898Y-94535808D01*
X129156040Y-94287136D01*
X130304808Y-94377032D01*
X131151338Y-94678559D01*
X132149021Y-95360228D01*
X132892328Y-96298625D01*
X133327632Y-97439420D01*
X133342092Y-97512438D01*
X133337774Y-97953934D01*
X133332741Y-98468621D01*
X133009230Y-99434612D01*
G37*
G36*
X152584615Y-110204616D02*
G01*
X152584615Y-109227693D01*
X153561538Y-109227693D01*
X159618461Y-109227693D01*
X159618461Y-103561539D01*
X153561538Y-103561539D01*
X153561538Y-109227693D01*
X152584615Y-109227693D01*
X152584615Y-102584616D01*
X160595384Y-102584616D01*
X160595384Y-110204616D01*
X152584615Y-110204616D01*
G37*
G36*
X169778461Y-101607693D02*
G01*
X161767692Y-101607693D01*
X161767692Y-93987693D01*
X169778461Y-93987693D01*
X169778461Y-101607693D01*
G37*
G36*
X133009230Y-90642304D02*
G01*
X132428862Y-91528696D01*
X131648941Y-92246083D01*
X130726770Y-92705057D01*
X130664703Y-92724119D01*
X129974529Y-92915467D01*
X129457394Y-92977439D01*
X128932419Y-92910865D01*
X128218727Y-92716575D01*
X127287329Y-92282772D01*
X126459387Y-91564213D01*
X125854973Y-90661921D01*
X125528143Y-89658053D01*
X125530474Y-89162467D01*
X126611966Y-89162467D01*
X126741360Y-90041905D01*
X127146294Y-90836373D01*
X127829101Y-91455603D01*
X128446910Y-91712539D01*
X129431538Y-91837001D01*
X129870193Y-91812470D01*
X130860222Y-91534261D01*
X131614969Y-90975358D01*
X132095751Y-90172300D01*
X132263885Y-89161626D01*
X132237014Y-88770571D01*
X131934692Y-87870462D01*
X131334527Y-87173323D01*
X130484236Y-86722935D01*
X129431538Y-86563077D01*
X129225100Y-86570134D01*
X128518384Y-86675050D01*
X127947810Y-86865640D01*
X127853674Y-86917013D01*
X127170457Y-87509753D01*
X126755777Y-88288327D01*
X126611966Y-89162467D01*
X125530474Y-89162467D01*
X125532957Y-88634766D01*
X125693369Y-88056792D01*
X126243948Y-87070895D01*
X127052995Y-86284327D01*
X128047898Y-85743500D01*
X129156040Y-85494828D01*
X130304808Y-85584724D01*
X131151338Y-85886251D01*
X132149021Y-86567921D01*
X132892328Y-87506317D01*
X133327632Y-88647112D01*
X133342092Y-88720131D01*
X133337774Y-89161626D01*
X133332741Y-89676314D01*
X133009230Y-90642304D01*
G37*
G36*
X151412307Y-118606154D02*
G01*
X143401538Y-118606154D01*
X143401538Y-110986154D01*
X151412307Y-110986154D01*
X151412307Y-118606154D01*
G37*
G36*
X161767692Y-84413846D02*
G01*
X161767692Y-83436923D01*
X162744615Y-83436923D01*
X168801538Y-83436923D01*
X168801538Y-77770769D01*
X162744615Y-77770769D01*
X162744615Y-83436923D01*
X161767692Y-83436923D01*
X161767692Y-76793846D01*
X169778461Y-76793846D01*
X169778461Y-84413846D01*
X161767692Y-84413846D01*
G37*
G36*
X133009230Y-82045381D02*
G01*
X132428862Y-82931773D01*
X131648941Y-83649160D01*
X130726770Y-84108134D01*
X130664703Y-84127196D01*
X129974529Y-84318544D01*
X129457394Y-84380516D01*
X128932419Y-84313942D01*
X128218727Y-84119652D01*
X127287329Y-83685849D01*
X126459387Y-82967290D01*
X125854973Y-82064998D01*
X125528143Y-81061130D01*
X125530474Y-80565544D01*
X126611966Y-80565544D01*
X126741360Y-81444982D01*
X127146294Y-82239450D01*
X127829101Y-82858679D01*
X128446910Y-83115616D01*
X129431538Y-83240078D01*
X129489740Y-83239658D01*
X130537326Y-83069107D01*
X131380065Y-82610025D01*
X131962053Y-81892190D01*
X132135265Y-81466852D01*
X132252580Y-80535954D01*
X132068486Y-79623867D01*
X131612782Y-78833738D01*
X130915266Y-78268717D01*
X130529881Y-78119046D01*
X129649544Y-77982623D01*
X128724085Y-78032513D01*
X127947810Y-78268717D01*
X127853674Y-78320090D01*
X127170457Y-78912830D01*
X126755777Y-79691404D01*
X126611966Y-80565544D01*
X125530474Y-80565544D01*
X125532957Y-80037843D01*
X125693369Y-79459869D01*
X126243948Y-78473972D01*
X127052995Y-77687404D01*
X128047898Y-77146577D01*
X129156040Y-76897905D01*
X130304808Y-76987801D01*
X131151338Y-77289328D01*
X132149021Y-77970998D01*
X132892328Y-78909394D01*
X133327632Y-80050189D01*
X133342092Y-80123208D01*
X133338056Y-80535954D01*
X133332741Y-81079391D01*
X133009230Y-82045381D01*
G37*
G36*
X169778461Y-110204616D02*
G01*
X161767692Y-110204616D01*
X161767692Y-102584616D01*
X169778461Y-102584616D01*
X169778461Y-110204616D01*
G37*
G36*
X143401538Y-93010769D02*
G01*
X143401538Y-92033846D01*
X144378461Y-92033846D01*
X150435384Y-92033846D01*
X150435384Y-86367693D01*
X144378461Y-86367693D01*
X144378461Y-92033846D01*
X143401538Y-92033846D01*
X143401538Y-85390769D01*
X151412307Y-85390769D01*
X151412307Y-93010769D01*
X143401538Y-93010769D01*
G37*
G36*
X143401538Y-110204616D02*
G01*
X143401538Y-109227693D01*
X144378461Y-109227693D01*
X150435384Y-109227693D01*
X150435384Y-103561539D01*
X144378461Y-103561539D01*
X144378461Y-109227693D01*
X143401538Y-109227693D01*
X143401538Y-102584616D01*
X151412307Y-102584616D01*
X151412307Y-110204616D01*
X143401538Y-110204616D01*
G37*
%TD*%
D10*
%TO.P,H4,*%
%TO.N,*%
X176275500Y-126231750D03*
%TD*%
%TO.P,H1,*%
%TO.N,*%
X102863000Y-69081750D03*
%TD*%
%TO.P,H3,*%
%TO.N,*%
X119135500Y-124461750D03*
%TD*%
%TO.P,H2,*%
%TO.N,*%
X157162000Y-69081750D03*
%TD*%
D11*
%TO.P,H5,1*%
%TO.N,N/C*%
X118774000Y-62000000D03*
%TD*%
%TO.P,H6,1*%
%TO.N,N/C*%
X176500000Y-62000000D03*
%TD*%
%TA.AperFunction,NonConductor*%
G36*
X194470057Y-50509500D02*
G01*
X194484858Y-50511805D01*
X194484861Y-50511805D01*
X194493730Y-50513186D01*
X194502633Y-50512022D01*
X194511608Y-50512131D01*
X194511605Y-50512339D01*
X194533029Y-50512348D01*
X194540838Y-50513376D01*
X194582164Y-50518817D01*
X194613934Y-50527330D01*
X194619155Y-50529492D01*
X194675174Y-50552696D01*
X194703659Y-50569142D01*
X194756247Y-50609494D01*
X194779506Y-50632753D01*
X194819858Y-50685341D01*
X194836304Y-50713826D01*
X194861670Y-50775064D01*
X194870183Y-50806836D01*
X194876170Y-50852309D01*
X194877239Y-50870294D01*
X194877196Y-50873858D01*
X194875814Y-50882730D01*
X194878274Y-50901539D01*
X194879936Y-50914251D01*
X194881000Y-50930589D01*
X194881000Y-126150672D01*
X194879500Y-126170056D01*
X194875814Y-126193730D01*
X194879114Y-126218965D01*
X194880144Y-126238116D01*
X194862266Y-127034739D01*
X194862013Y-127040388D01*
X194806034Y-127870657D01*
X194805527Y-127876288D01*
X194712358Y-128703191D01*
X194711602Y-128708772D01*
X194581423Y-129530696D01*
X194580415Y-129536250D01*
X194563456Y-129619078D01*
X194413498Y-130351466D01*
X194412244Y-130356962D01*
X194208916Y-131163892D01*
X194207412Y-131169343D01*
X193968082Y-131966348D01*
X193966334Y-131971725D01*
X193691502Y-132757150D01*
X193689515Y-132762444D01*
X193379718Y-133534757D01*
X193377500Y-133539946D01*
X193288941Y-133734917D01*
X193033363Y-134297590D01*
X193030910Y-134302685D01*
X192653116Y-135044146D01*
X192650436Y-135049125D01*
X192239778Y-135772855D01*
X192236878Y-135777709D01*
X191794152Y-136482302D01*
X191791037Y-136487021D01*
X191588573Y-136779261D01*
X191360537Y-137108413D01*
X191317159Y-137171025D01*
X191313841Y-137175593D01*
X190809713Y-137837697D01*
X190806187Y-137842117D01*
X190272905Y-138480886D01*
X190269185Y-138485144D01*
X189707761Y-139099367D01*
X189703853Y-139103454D01*
X189115454Y-139691853D01*
X189111367Y-139695761D01*
X188497144Y-140257185D01*
X188492886Y-140260905D01*
X187854117Y-140794187D01*
X187849698Y-140797712D01*
X187212109Y-141283175D01*
X187187600Y-141301836D01*
X187183032Y-141305154D01*
X187102469Y-141360968D01*
X186499021Y-141779037D01*
X186494302Y-141782152D01*
X185789709Y-142224878D01*
X185784855Y-142227778D01*
X185061125Y-142638436D01*
X185056150Y-142641114D01*
X184314671Y-143018917D01*
X184309604Y-143021356D01*
X183551946Y-143365500D01*
X183546766Y-143367714D01*
X183457419Y-143403554D01*
X182774444Y-143677515D01*
X182769150Y-143679502D01*
X182374917Y-143817450D01*
X181983716Y-143954337D01*
X181978357Y-143956079D01*
X181682517Y-144044916D01*
X181181343Y-144195412D01*
X181175895Y-144196915D01*
X180368962Y-144400244D01*
X180363483Y-144401494D01*
X179548250Y-144568415D01*
X179542705Y-144569421D01*
X178720772Y-144699602D01*
X178715208Y-144700356D01*
X178208855Y-144757408D01*
X177888288Y-144793527D01*
X177882657Y-144794034D01*
X177677622Y-144807858D01*
X177052380Y-144850013D01*
X177046748Y-144850266D01*
X176652269Y-144859119D01*
X176257766Y-144867973D01*
X176235554Y-144866505D01*
X176227144Y-144865195D01*
X176227138Y-144865195D01*
X176218270Y-144863814D01*
X176209368Y-144864978D01*
X176209365Y-144864978D01*
X176186749Y-144867936D01*
X176170411Y-144869000D01*
X100950328Y-144869000D01*
X100930943Y-144867500D01*
X100916142Y-144865195D01*
X100916139Y-144865195D01*
X100907270Y-144863814D01*
X100898367Y-144864978D01*
X100889392Y-144864869D01*
X100889395Y-144864661D01*
X100867971Y-144864652D01*
X100853087Y-144862693D01*
X100818836Y-144858183D01*
X100787066Y-144849670D01*
X100756445Y-144836987D01*
X100725826Y-144824304D01*
X100697341Y-144807858D01*
X100644753Y-144767506D01*
X100621494Y-144744247D01*
X100581142Y-144691659D01*
X100564696Y-144663174D01*
X100539330Y-144601936D01*
X100530817Y-144570164D01*
X100525280Y-144528108D01*
X100524749Y-144502455D01*
X100525071Y-144500539D01*
X100525224Y-144488000D01*
X100521273Y-144460412D01*
X100520000Y-144442549D01*
X100520000Y-140166353D01*
X114521280Y-140166353D01*
X114527577Y-140567162D01*
X114571565Y-140965600D01*
X114572167Y-140968509D01*
X114572169Y-140968519D01*
X114641884Y-141305159D01*
X114652854Y-141358130D01*
X114770723Y-141741269D01*
X114924125Y-142111614D01*
X114925514Y-142114237D01*
X115039144Y-142328847D01*
X115111698Y-142465879D01*
X115331779Y-142800920D01*
X115582413Y-143113762D01*
X115584477Y-143115892D01*
X115584485Y-143115901D01*
X115826360Y-143365496D01*
X115861376Y-143401630D01*
X116166191Y-143661967D01*
X116168620Y-143663674D01*
X116168625Y-143663678D01*
X116491723Y-143890754D01*
X116491731Y-143890759D01*
X116494154Y-143892462D01*
X116496728Y-143893930D01*
X116839777Y-144089602D01*
X116839782Y-144089605D01*
X116842353Y-144091071D01*
X117207697Y-144256031D01*
X117586943Y-144385876D01*
X117589817Y-144386566D01*
X117589824Y-144386568D01*
X117847472Y-144448423D01*
X117976726Y-144479454D01*
X117979658Y-144479871D01*
X117979667Y-144479873D01*
X118370648Y-144535518D01*
X118370651Y-144535518D01*
X118373586Y-144535936D01*
X118376551Y-144536076D01*
X118376553Y-144536076D01*
X118771031Y-144554679D01*
X118774000Y-144554819D01*
X118776969Y-144554679D01*
X119171447Y-144536076D01*
X119171449Y-144536076D01*
X119174414Y-144535936D01*
X119177349Y-144535518D01*
X119177352Y-144535518D01*
X119568333Y-144479873D01*
X119568342Y-144479871D01*
X119571274Y-144479454D01*
X119700528Y-144448423D01*
X119958176Y-144386568D01*
X119958183Y-144386566D01*
X119961057Y-144385876D01*
X120340303Y-144256031D01*
X120705647Y-144091071D01*
X120708218Y-144089605D01*
X120708223Y-144089602D01*
X121051272Y-143893930D01*
X121053846Y-143892462D01*
X121056269Y-143890759D01*
X121056277Y-143890754D01*
X121379375Y-143663678D01*
X121379380Y-143663674D01*
X121381809Y-143661967D01*
X121686624Y-143401630D01*
X121721640Y-143365496D01*
X121963515Y-143115901D01*
X121963523Y-143115892D01*
X121965587Y-143113762D01*
X122216221Y-142800920D01*
X122436302Y-142465879D01*
X122508857Y-142328847D01*
X122622486Y-142114237D01*
X122623875Y-142111614D01*
X122777277Y-141741269D01*
X122895146Y-141358130D01*
X122906116Y-141305159D01*
X122975831Y-140968519D01*
X122975833Y-140968509D01*
X122976435Y-140965600D01*
X123020423Y-140567162D01*
X123020500Y-140564709D01*
X123020501Y-140564696D01*
X123028741Y-140302468D01*
X123028819Y-140300000D01*
X123022516Y-140166353D01*
X172247280Y-140166353D01*
X172253577Y-140567162D01*
X172297565Y-140965600D01*
X172298167Y-140968509D01*
X172298169Y-140968519D01*
X172367884Y-141305159D01*
X172378854Y-141358130D01*
X172496723Y-141741269D01*
X172650125Y-142111614D01*
X172651514Y-142114237D01*
X172765144Y-142328847D01*
X172837698Y-142465879D01*
X173057779Y-142800920D01*
X173308413Y-143113762D01*
X173310477Y-143115892D01*
X173310485Y-143115901D01*
X173552360Y-143365496D01*
X173587376Y-143401630D01*
X173892191Y-143661967D01*
X173894620Y-143663674D01*
X173894625Y-143663678D01*
X174217723Y-143890754D01*
X174217731Y-143890759D01*
X174220154Y-143892462D01*
X174222728Y-143893930D01*
X174565777Y-144089602D01*
X174565782Y-144089605D01*
X174568353Y-144091071D01*
X174933697Y-144256031D01*
X175312943Y-144385876D01*
X175315817Y-144386566D01*
X175315824Y-144386568D01*
X175573472Y-144448423D01*
X175702726Y-144479454D01*
X175705658Y-144479871D01*
X175705667Y-144479873D01*
X176096648Y-144535518D01*
X176096651Y-144535518D01*
X176099586Y-144535936D01*
X176102551Y-144536076D01*
X176102553Y-144536076D01*
X176497031Y-144554679D01*
X176500000Y-144554819D01*
X176502969Y-144554679D01*
X176897447Y-144536076D01*
X176897449Y-144536076D01*
X176900414Y-144535936D01*
X176903349Y-144535518D01*
X176903352Y-144535518D01*
X177294333Y-144479873D01*
X177294342Y-144479871D01*
X177297274Y-144479454D01*
X177426528Y-144448423D01*
X177684176Y-144386568D01*
X177684183Y-144386566D01*
X177687057Y-144385876D01*
X178066303Y-144256031D01*
X178431647Y-144091071D01*
X178434218Y-144089605D01*
X178434223Y-144089602D01*
X178777272Y-143893930D01*
X178779846Y-143892462D01*
X178782269Y-143890759D01*
X178782277Y-143890754D01*
X179105375Y-143663678D01*
X179105380Y-143663674D01*
X179107809Y-143661967D01*
X179412624Y-143401630D01*
X179447640Y-143365496D01*
X179689515Y-143115901D01*
X179689523Y-143115892D01*
X179691587Y-143113762D01*
X179942221Y-142800920D01*
X180162302Y-142465879D01*
X180234857Y-142328847D01*
X180348486Y-142114237D01*
X180349875Y-142111614D01*
X180503277Y-141741269D01*
X180621146Y-141358130D01*
X180632116Y-141305159D01*
X180701831Y-140968519D01*
X180701833Y-140968509D01*
X180702435Y-140965600D01*
X180746423Y-140567162D01*
X180746500Y-140564709D01*
X180746501Y-140564696D01*
X180754741Y-140302468D01*
X180754819Y-140300000D01*
X180735936Y-139899586D01*
X180706927Y-139695761D01*
X180679873Y-139505667D01*
X180679871Y-139505658D01*
X180679454Y-139502726D01*
X180585876Y-139112943D01*
X180456031Y-138733697D01*
X180291071Y-138368353D01*
X180187243Y-138186322D01*
X180093930Y-138022728D01*
X180092462Y-138020154D01*
X180090759Y-138017731D01*
X180090754Y-138017723D01*
X179863678Y-137694625D01*
X179863674Y-137694620D01*
X179861967Y-137692191D01*
X179601630Y-137387376D01*
X179502579Y-137291389D01*
X179315901Y-137110485D01*
X179315892Y-137110477D01*
X179313762Y-137108413D01*
X179000920Y-136857779D01*
X178881388Y-136779261D01*
X178668355Y-136639324D01*
X178668348Y-136639320D01*
X178665879Y-136637698D01*
X178663268Y-136636316D01*
X178663262Y-136636312D01*
X178434859Y-136515380D01*
X178311614Y-136450125D01*
X177941269Y-136296723D01*
X177938446Y-136295855D01*
X177938439Y-136295852D01*
X177560968Y-136179727D01*
X177560966Y-136179727D01*
X177558130Y-136178854D01*
X177555227Y-136178253D01*
X177555220Y-136178251D01*
X177168519Y-136098169D01*
X177168509Y-136098167D01*
X177165600Y-136097565D01*
X176767162Y-136053577D01*
X176764181Y-136053530D01*
X176764178Y-136053530D01*
X176653935Y-136051798D01*
X176366353Y-136047280D01*
X176363409Y-136047512D01*
X176363399Y-136047512D01*
X175984993Y-136077295D01*
X175966730Y-136078732D01*
X175571840Y-136147651D01*
X175568969Y-136148437D01*
X175568962Y-136148438D01*
X175188053Y-136252643D01*
X175188043Y-136252646D01*
X175185189Y-136253427D01*
X175182425Y-136254471D01*
X175182414Y-136254475D01*
X174812981Y-136394072D01*
X174810208Y-136395120D01*
X174807541Y-136396427D01*
X174807540Y-136396427D01*
X174632248Y-136482302D01*
X174450225Y-136571474D01*
X174108437Y-136780922D01*
X173787876Y-137021606D01*
X173491389Y-137291389D01*
X173221606Y-137587876D01*
X173219824Y-137590249D01*
X173219821Y-137590253D01*
X173034035Y-137837697D01*
X172980922Y-137908437D01*
X172771474Y-138250225D01*
X172595120Y-138610208D01*
X172594073Y-138612978D01*
X172594072Y-138612981D01*
X172454475Y-138982414D01*
X172454471Y-138982425D01*
X172453427Y-138985189D01*
X172452646Y-138988043D01*
X172452643Y-138988053D01*
X172421073Y-139103454D01*
X172347651Y-139371840D01*
X172278732Y-139766730D01*
X172278500Y-139769678D01*
X172250715Y-140122711D01*
X172247280Y-140166353D01*
X123022516Y-140166353D01*
X123009936Y-139899586D01*
X122980927Y-139695761D01*
X122953873Y-139505667D01*
X122953871Y-139505658D01*
X122953454Y-139502726D01*
X122859876Y-139112943D01*
X122730031Y-138733697D01*
X122565071Y-138368353D01*
X122461243Y-138186322D01*
X122367930Y-138022728D01*
X122366462Y-138020154D01*
X122364759Y-138017731D01*
X122364754Y-138017723D01*
X122137678Y-137694625D01*
X122137674Y-137694620D01*
X122135967Y-137692191D01*
X121875630Y-137387376D01*
X121776579Y-137291389D01*
X121589901Y-137110485D01*
X121589892Y-137110477D01*
X121587762Y-137108413D01*
X121274920Y-136857779D01*
X121155388Y-136779261D01*
X120942355Y-136639324D01*
X120942348Y-136639320D01*
X120939879Y-136637698D01*
X120937268Y-136636316D01*
X120937262Y-136636312D01*
X120708859Y-136515380D01*
X120585614Y-136450125D01*
X120215269Y-136296723D01*
X120212446Y-136295855D01*
X120212439Y-136295852D01*
X119834968Y-136179727D01*
X119834966Y-136179727D01*
X119832130Y-136178854D01*
X119829227Y-136178253D01*
X119829220Y-136178251D01*
X119442519Y-136098169D01*
X119442509Y-136098167D01*
X119439600Y-136097565D01*
X119041162Y-136053577D01*
X119038181Y-136053530D01*
X119038178Y-136053530D01*
X118927935Y-136051798D01*
X118640353Y-136047280D01*
X118637409Y-136047512D01*
X118637399Y-136047512D01*
X118258993Y-136077295D01*
X118240730Y-136078732D01*
X117845840Y-136147651D01*
X117842969Y-136148437D01*
X117842962Y-136148438D01*
X117462053Y-136252643D01*
X117462043Y-136252646D01*
X117459189Y-136253427D01*
X117456425Y-136254471D01*
X117456414Y-136254475D01*
X117086981Y-136394072D01*
X117084208Y-136395120D01*
X117081541Y-136396427D01*
X117081540Y-136396427D01*
X116906248Y-136482302D01*
X116724225Y-136571474D01*
X116382437Y-136780922D01*
X116061876Y-137021606D01*
X115765389Y-137291389D01*
X115495606Y-137587876D01*
X115493824Y-137590249D01*
X115493821Y-137590253D01*
X115308035Y-137837697D01*
X115254922Y-137908437D01*
X115045474Y-138250225D01*
X114869120Y-138610208D01*
X114868073Y-138612978D01*
X114868072Y-138612981D01*
X114728475Y-138982414D01*
X114728471Y-138982425D01*
X114727427Y-138985189D01*
X114726646Y-138988043D01*
X114726643Y-138988053D01*
X114695073Y-139103454D01*
X114621651Y-139371840D01*
X114552732Y-139766730D01*
X114552500Y-139769678D01*
X114524715Y-140122711D01*
X114521280Y-140166353D01*
X100520000Y-140166353D01*
X100520000Y-124401649D01*
X117223069Y-124401649D01*
X117233680Y-124671713D01*
X117282237Y-124937587D01*
X117367772Y-125193967D01*
X117488578Y-125435737D01*
X117491107Y-125439396D01*
X117630088Y-125640485D01*
X117642244Y-125658074D01*
X117825705Y-125856540D01*
X118035299Y-126027177D01*
X118266846Y-126166580D01*
X118270941Y-126168314D01*
X118270943Y-126168315D01*
X118511624Y-126270230D01*
X118511631Y-126270232D01*
X118515725Y-126271966D01*
X118611858Y-126297455D01*
X118772672Y-126340095D01*
X118772677Y-126340096D01*
X118776969Y-126341234D01*
X118781378Y-126341756D01*
X118781384Y-126341757D01*
X118930710Y-126359430D01*
X119045368Y-126373001D01*
X119315564Y-126366633D01*
X119319959Y-126365901D01*
X119319964Y-126365901D01*
X119577767Y-126322991D01*
X119577771Y-126322990D01*
X119582169Y-126322258D01*
X119750459Y-126269035D01*
X119835614Y-126242104D01*
X119835616Y-126242103D01*
X119839860Y-126240761D01*
X119843871Y-126238835D01*
X119843876Y-126238833D01*
X119983786Y-126171649D01*
X174363069Y-126171649D01*
X174363244Y-126176101D01*
X174368987Y-126322258D01*
X174373680Y-126441713D01*
X174422237Y-126707587D01*
X174507772Y-126963967D01*
X174628578Y-127205737D01*
X174631107Y-127209396D01*
X174735063Y-127359808D01*
X174782244Y-127428074D01*
X174965705Y-127626540D01*
X175175299Y-127797177D01*
X175179117Y-127799476D01*
X175179119Y-127799477D01*
X175331623Y-127891292D01*
X175406846Y-127936580D01*
X175410941Y-127938314D01*
X175410943Y-127938315D01*
X175651624Y-128040230D01*
X175651631Y-128040232D01*
X175655725Y-128041966D01*
X175751859Y-128067455D01*
X175912672Y-128110095D01*
X175912677Y-128110096D01*
X175916969Y-128111234D01*
X175921378Y-128111756D01*
X175921384Y-128111757D01*
X176070710Y-128129430D01*
X176185368Y-128143001D01*
X176455564Y-128136633D01*
X176459959Y-128135901D01*
X176459964Y-128135901D01*
X176717767Y-128092991D01*
X176717771Y-128092990D01*
X176722169Y-128092258D01*
X176890459Y-128039035D01*
X176975614Y-128012104D01*
X176975616Y-128012103D01*
X176979860Y-128010761D01*
X176983871Y-128008835D01*
X176983876Y-128008833D01*
X177219479Y-127895698D01*
X177219480Y-127895697D01*
X177223498Y-127893768D01*
X177372268Y-127794363D01*
X177444513Y-127746091D01*
X177444517Y-127746088D01*
X177448221Y-127743613D01*
X177451538Y-127740642D01*
X177451542Y-127740639D01*
X177646229Y-127566262D01*
X177649545Y-127563292D01*
X177823453Y-127356404D01*
X177966475Y-127127075D01*
X178075758Y-126879883D01*
X178149120Y-126619758D01*
X178172446Y-126446093D01*
X178184672Y-126355074D01*
X178184673Y-126355066D01*
X178185099Y-126351892D01*
X178186007Y-126322991D01*
X178188774Y-126234972D01*
X178188774Y-126234967D01*
X178188875Y-126231750D01*
X178169787Y-125962153D01*
X178112902Y-125697935D01*
X178098197Y-125658074D01*
X178020897Y-125448546D01*
X178019356Y-125444369D01*
X177990010Y-125389981D01*
X177893129Y-125210428D01*
X177893129Y-125210427D01*
X177891016Y-125206512D01*
X177730442Y-124989112D01*
X177675409Y-124933207D01*
X177543969Y-124799687D01*
X177540838Y-124796506D01*
X177377320Y-124671713D01*
X177329528Y-124635239D01*
X177329524Y-124635237D01*
X177325987Y-124632537D01*
X177090175Y-124500477D01*
X176838109Y-124402960D01*
X176833784Y-124401957D01*
X176833779Y-124401956D01*
X176728248Y-124377496D01*
X176574818Y-124341932D01*
X176305554Y-124318611D01*
X176301119Y-124318855D01*
X176301115Y-124318855D01*
X176040134Y-124333218D01*
X176040127Y-124333219D01*
X176035691Y-124333463D01*
X175904122Y-124359633D01*
X175774984Y-124385320D01*
X175774979Y-124385321D01*
X175770612Y-124386190D01*
X175766409Y-124387666D01*
X175519815Y-124474263D01*
X175519812Y-124474264D01*
X175515607Y-124475741D01*
X175511654Y-124477794D01*
X175511648Y-124477797D01*
X175467988Y-124500477D01*
X175275764Y-124600330D01*
X175272149Y-124602913D01*
X175272143Y-124602917D01*
X175059490Y-124754881D01*
X175059486Y-124754884D01*
X175055869Y-124757469D01*
X175052649Y-124760541D01*
X174867057Y-124937587D01*
X174860308Y-124944025D01*
X174692985Y-125156274D01*
X174690753Y-125160116D01*
X174690750Y-125160121D01*
X174559474Y-125386127D01*
X174559471Y-125386134D01*
X174557236Y-125389981D01*
X174555562Y-125394114D01*
X174479208Y-125582625D01*
X174455772Y-125640485D01*
X174454701Y-125644798D01*
X174454699Y-125644803D01*
X174391689Y-125898464D01*
X174390616Y-125902785D01*
X174390162Y-125907213D01*
X174390162Y-125907215D01*
X174363824Y-126164282D01*
X174363069Y-126171649D01*
X119983786Y-126171649D01*
X120079479Y-126125698D01*
X120079480Y-126125697D01*
X120083498Y-126123768D01*
X120232268Y-126024363D01*
X120304513Y-125976091D01*
X120304517Y-125976088D01*
X120308221Y-125973613D01*
X120311538Y-125970642D01*
X120311542Y-125970639D01*
X120506229Y-125796262D01*
X120509545Y-125793292D01*
X120683453Y-125586404D01*
X120803376Y-125394114D01*
X120824114Y-125360861D01*
X120824115Y-125360859D01*
X120826475Y-125357075D01*
X120935758Y-125109883D01*
X121009120Y-124849758D01*
X121032446Y-124676093D01*
X121044672Y-124585074D01*
X121044673Y-124585066D01*
X121045099Y-124581892D01*
X121048371Y-124477797D01*
X121048774Y-124464972D01*
X121048774Y-124464967D01*
X121048875Y-124461750D01*
X121044642Y-124401956D01*
X121030102Y-124196602D01*
X121029787Y-124192153D01*
X120972902Y-123927935D01*
X120953301Y-123874803D01*
X120880897Y-123678546D01*
X120879356Y-123674369D01*
X120850010Y-123619981D01*
X120753129Y-123440428D01*
X120753129Y-123440427D01*
X120751016Y-123436512D01*
X120590442Y-123219112D01*
X120400838Y-123026506D01*
X120324056Y-122967908D01*
X120189528Y-122865239D01*
X120189524Y-122865237D01*
X120185987Y-122862537D01*
X119950175Y-122730477D01*
X119698109Y-122632960D01*
X119693784Y-122631957D01*
X119693779Y-122631956D01*
X119588248Y-122607496D01*
X119434818Y-122571932D01*
X119165554Y-122548611D01*
X119161119Y-122548855D01*
X119161115Y-122548855D01*
X118900134Y-122563218D01*
X118900127Y-122563219D01*
X118895691Y-122563463D01*
X118764122Y-122589633D01*
X118634984Y-122615320D01*
X118634979Y-122615321D01*
X118630612Y-122616190D01*
X118626409Y-122617666D01*
X118379815Y-122704263D01*
X118379812Y-122704264D01*
X118375607Y-122705741D01*
X118371654Y-122707794D01*
X118371648Y-122707797D01*
X118327988Y-122730477D01*
X118135764Y-122830330D01*
X118132149Y-122832913D01*
X118132143Y-122832917D01*
X117919490Y-122984881D01*
X117919486Y-122984884D01*
X117915869Y-122987469D01*
X117720308Y-123174025D01*
X117552985Y-123386274D01*
X117550753Y-123390116D01*
X117550750Y-123390121D01*
X117419474Y-123616127D01*
X117419471Y-123616134D01*
X117417236Y-123619981D01*
X117315772Y-123870485D01*
X117314701Y-123874798D01*
X117314699Y-123874803D01*
X117301501Y-123927935D01*
X117250616Y-124132785D01*
X117250162Y-124137213D01*
X117250162Y-124137215D01*
X117231577Y-124318611D01*
X117223069Y-124401649D01*
X100520000Y-124401649D01*
X100520000Y-109700000D01*
X125000000Y-109700000D01*
X125010000Y-110080000D01*
X125017676Y-110241205D01*
X125021286Y-110316998D01*
X125030000Y-110500000D01*
X125110000Y-111100000D01*
X125180000Y-111520000D01*
X125260000Y-111870000D01*
X125350000Y-112210000D01*
X125430000Y-112480000D01*
X125530000Y-112800000D01*
X125620000Y-113050000D01*
X125620631Y-113051504D01*
X125749656Y-113359181D01*
X125749671Y-113359215D01*
X125750000Y-113360000D01*
X125890000Y-113670000D01*
X126050000Y-114000000D01*
X126180000Y-114240000D01*
X126370000Y-114570000D01*
X126560000Y-114880000D01*
X126561107Y-114881581D01*
X126769501Y-115179288D01*
X126769522Y-115179317D01*
X126770000Y-115180000D01*
X126970000Y-115450000D01*
X126970804Y-115450997D01*
X126970811Y-115451006D01*
X127219343Y-115759186D01*
X127219359Y-115759205D01*
X127220000Y-115760000D01*
X127220674Y-115760781D01*
X127220682Y-115760790D01*
X127409362Y-115979262D01*
X127409382Y-115979285D01*
X127410000Y-115980000D01*
X127410649Y-115980705D01*
X127410670Y-115980729D01*
X127638749Y-116228641D01*
X127638762Y-116228654D01*
X127640000Y-116230000D01*
X127940000Y-116520000D01*
X128190000Y-116750000D01*
X128520000Y-117020000D01*
X128790000Y-117230000D01*
X129120000Y-117470000D01*
X129121267Y-117470830D01*
X129121277Y-117470837D01*
X129409215Y-117659486D01*
X129410000Y-117660000D01*
X129720000Y-117850000D01*
X129722004Y-117851039D01*
X129989737Y-117989864D01*
X129989813Y-117989903D01*
X129990000Y-117990000D01*
X130360000Y-118180000D01*
X130361043Y-118180487D01*
X130361068Y-118180499D01*
X130658395Y-118319251D01*
X130660000Y-118320000D01*
X131010000Y-118460000D01*
X131350000Y-118590000D01*
X131519531Y-118642743D01*
X131798446Y-118729517D01*
X131798462Y-118729522D01*
X131800000Y-118730000D01*
X132027119Y-118787893D01*
X132308967Y-118859737D01*
X132308984Y-118859741D01*
X132310000Y-118860000D01*
X132630000Y-118930000D01*
X132799924Y-118959987D01*
X132968570Y-118989748D01*
X132968585Y-118989750D01*
X132970000Y-118990000D01*
X132971435Y-118990185D01*
X132971447Y-118990187D01*
X133103353Y-119007207D01*
X133280000Y-119030000D01*
X133760000Y-119080000D01*
X134052364Y-119089136D01*
X134247423Y-119095232D01*
X134263643Y-119097915D01*
X134263793Y-119096953D01*
X134278352Y-119099220D01*
X134292976Y-119101497D01*
X134309695Y-119105280D01*
X134329382Y-119111168D01*
X134329385Y-119111169D01*
X134337987Y-119113741D01*
X134346962Y-119113796D01*
X134346963Y-119113796D01*
X134353656Y-119113837D01*
X134372402Y-119113951D01*
X134373174Y-119113984D01*
X134374269Y-119114154D01*
X134405144Y-119114154D01*
X134405914Y-119114156D01*
X134479562Y-119114606D01*
X134479563Y-119114606D01*
X134483498Y-119114630D01*
X134484842Y-119114246D01*
X134486187Y-119114154D01*
X142415913Y-119114154D01*
X142416684Y-119114156D01*
X142494267Y-119114630D01*
X142502897Y-119112163D01*
X142502900Y-119112163D01*
X142522661Y-119106515D01*
X142539430Y-119102935D01*
X142551045Y-119101272D01*
X142568903Y-119100000D01*
X143261295Y-119100000D01*
X143297398Y-119105283D01*
X143317078Y-119111169D01*
X143317080Y-119111169D01*
X143325679Y-119113741D01*
X143334654Y-119113796D01*
X143334655Y-119113796D01*
X143341348Y-119113837D01*
X143360094Y-119113951D01*
X143360866Y-119113984D01*
X143361961Y-119114154D01*
X143392836Y-119114154D01*
X143393606Y-119114156D01*
X143467254Y-119114606D01*
X143467255Y-119114606D01*
X143471190Y-119114630D01*
X143472534Y-119114246D01*
X143473879Y-119114154D01*
X151403605Y-119114154D01*
X151404376Y-119114156D01*
X151481959Y-119114630D01*
X151490589Y-119112163D01*
X151490592Y-119112163D01*
X151510353Y-119106515D01*
X151527122Y-119102935D01*
X151538737Y-119101272D01*
X151556595Y-119100000D01*
X152444372Y-119100000D01*
X152480475Y-119105283D01*
X152500155Y-119111169D01*
X152500157Y-119111169D01*
X152508756Y-119113741D01*
X152517731Y-119113796D01*
X152517732Y-119113796D01*
X152524425Y-119113837D01*
X152543171Y-119113951D01*
X152543943Y-119113984D01*
X152545038Y-119114154D01*
X152575913Y-119114154D01*
X152576683Y-119114156D01*
X152650331Y-119114606D01*
X152650332Y-119114606D01*
X152654267Y-119114630D01*
X152655611Y-119114246D01*
X152656956Y-119114154D01*
X169769759Y-119114154D01*
X169770530Y-119114156D01*
X169848113Y-119114630D01*
X169856743Y-119112163D01*
X169856746Y-119112163D01*
X169876507Y-119106515D01*
X169893276Y-119102935D01*
X169904891Y-119101272D01*
X169922749Y-119100000D01*
X170250000Y-119100000D01*
X170250024Y-119080000D01*
X170250322Y-118824503D01*
X170262266Y-118771102D01*
X170265445Y-118764331D01*
X170269260Y-118756206D01*
X170273804Y-118727024D01*
X170277587Y-118710305D01*
X170283475Y-118690618D01*
X170283476Y-118690615D01*
X170286048Y-118682013D01*
X170286258Y-118647598D01*
X170286291Y-118646826D01*
X170286461Y-118645731D01*
X170286461Y-118614856D01*
X170286463Y-118614086D01*
X170286913Y-118540438D01*
X170286913Y-118540437D01*
X170286937Y-118536502D01*
X170286553Y-118535158D01*
X170286461Y-118533813D01*
X170286461Y-110994856D01*
X170286463Y-110994086D01*
X170286882Y-110925476D01*
X170286937Y-110916502D01*
X170284471Y-110907873D01*
X170284470Y-110907868D01*
X170278822Y-110888106D01*
X170275244Y-110871345D01*
X170272330Y-110851000D01*
X170272329Y-110850995D01*
X170271056Y-110842109D01*
X170267340Y-110833937D01*
X170264821Y-110825322D01*
X170267224Y-110824619D01*
X170259708Y-110789703D01*
X170260165Y-110398748D01*
X170265613Y-110362435D01*
X170269260Y-110354668D01*
X170273804Y-110325486D01*
X170277587Y-110308767D01*
X170283475Y-110289080D01*
X170283476Y-110289077D01*
X170286048Y-110280475D01*
X170286258Y-110246060D01*
X170286291Y-110245288D01*
X170286461Y-110244193D01*
X170286461Y-110213318D01*
X170286463Y-110212548D01*
X170286913Y-110138900D01*
X170286913Y-110138899D01*
X170286937Y-110134964D01*
X170286553Y-110133620D01*
X170286461Y-110132275D01*
X170286461Y-102593318D01*
X170286463Y-102592548D01*
X170286882Y-102523938D01*
X170286937Y-102514964D01*
X170284471Y-102506335D01*
X170284470Y-102506330D01*
X170278822Y-102486568D01*
X170275244Y-102469807D01*
X170271057Y-102440572D01*
X170272178Y-102440411D01*
X170269484Y-102421537D01*
X170270256Y-101760953D01*
X170271755Y-101741722D01*
X170273802Y-101728570D01*
X170277587Y-101711844D01*
X170283475Y-101692157D01*
X170283476Y-101692154D01*
X170286048Y-101683552D01*
X170286258Y-101649137D01*
X170286291Y-101648365D01*
X170286461Y-101647270D01*
X170286461Y-101616395D01*
X170286463Y-101615625D01*
X170286913Y-101541977D01*
X170286913Y-101541976D01*
X170286937Y-101538041D01*
X170286553Y-101536697D01*
X170286461Y-101535352D01*
X170286461Y-93996395D01*
X170286463Y-93995625D01*
X170286882Y-93927016D01*
X170286937Y-93918041D01*
X170284320Y-93908884D01*
X170279470Y-93874115D01*
X170280346Y-93123987D01*
X170283241Y-93104270D01*
X170282149Y-93104107D01*
X170283476Y-93095227D01*
X170286048Y-93086628D01*
X170286258Y-93052213D01*
X170286291Y-93051441D01*
X170286461Y-93050346D01*
X170286461Y-93019471D01*
X170286463Y-93018701D01*
X170286913Y-92945053D01*
X170286913Y-92945052D01*
X170286937Y-92941117D01*
X170286553Y-92939773D01*
X170286461Y-92938428D01*
X170286461Y-87889384D01*
X170299979Y-76318115D01*
X170299979Y-76318114D01*
X170300000Y-76300000D01*
X169918704Y-76300000D01*
X169882601Y-76294717D01*
X169862921Y-76288831D01*
X169862919Y-76288831D01*
X169854320Y-76286259D01*
X169845345Y-76286204D01*
X169845344Y-76286204D01*
X169838651Y-76286163D01*
X169819905Y-76286049D01*
X169819133Y-76286016D01*
X169818038Y-76285846D01*
X169787163Y-76285846D01*
X169786393Y-76285844D01*
X169712745Y-76285394D01*
X169712744Y-76285394D01*
X169708809Y-76285370D01*
X169707465Y-76285754D01*
X169706120Y-76285846D01*
X161776394Y-76285846D01*
X161775624Y-76285844D01*
X161774770Y-76285839D01*
X161698040Y-76285370D01*
X161689410Y-76287837D01*
X161689407Y-76287837D01*
X161669646Y-76293485D01*
X161652877Y-76297065D01*
X161641262Y-76298728D01*
X161623404Y-76300000D01*
X160735627Y-76300000D01*
X160699524Y-76294717D01*
X160679844Y-76288831D01*
X160679842Y-76288831D01*
X160671243Y-76286259D01*
X160662268Y-76286204D01*
X160662267Y-76286204D01*
X160655574Y-76286163D01*
X160636828Y-76286049D01*
X160636056Y-76286016D01*
X160634961Y-76285846D01*
X160604086Y-76285846D01*
X160603316Y-76285844D01*
X160529668Y-76285394D01*
X160529667Y-76285394D01*
X160525732Y-76285370D01*
X160524388Y-76285754D01*
X160523043Y-76285846D01*
X152593317Y-76285846D01*
X152592547Y-76285844D01*
X152591693Y-76285839D01*
X152514963Y-76285370D01*
X152506333Y-76287837D01*
X152506330Y-76287837D01*
X152486569Y-76293485D01*
X152469800Y-76297065D01*
X152458185Y-76298728D01*
X152440327Y-76300000D01*
X151552550Y-76300000D01*
X151516447Y-76294717D01*
X151496767Y-76288831D01*
X151496765Y-76288831D01*
X151488166Y-76286259D01*
X151479191Y-76286204D01*
X151479190Y-76286204D01*
X151472497Y-76286163D01*
X151453751Y-76286049D01*
X151452979Y-76286016D01*
X151451884Y-76285846D01*
X151421009Y-76285846D01*
X151420239Y-76285844D01*
X151346591Y-76285394D01*
X151346590Y-76285394D01*
X151342655Y-76285370D01*
X151341311Y-76285754D01*
X151339966Y-76285846D01*
X143410240Y-76285846D01*
X143409470Y-76285844D01*
X143408616Y-76285839D01*
X143331886Y-76285370D01*
X143323256Y-76287837D01*
X143323253Y-76287837D01*
X143303492Y-76293485D01*
X143286723Y-76297065D01*
X143275108Y-76298728D01*
X143257250Y-76300000D01*
X142564858Y-76300000D01*
X142528755Y-76294717D01*
X142509075Y-76288831D01*
X142509073Y-76288831D01*
X142500474Y-76286259D01*
X142491499Y-76286204D01*
X142491498Y-76286204D01*
X142484805Y-76286163D01*
X142466059Y-76286049D01*
X142465287Y-76286016D01*
X142464192Y-76285846D01*
X142433317Y-76285846D01*
X142432547Y-76285844D01*
X142358899Y-76285394D01*
X142358898Y-76285394D01*
X142354963Y-76285370D01*
X142353619Y-76285754D01*
X142352274Y-76285846D01*
X134422548Y-76285846D01*
X134421778Y-76285844D01*
X134420924Y-76285839D01*
X134344194Y-76285370D01*
X134335564Y-76287837D01*
X134335561Y-76287837D01*
X134315800Y-76293485D01*
X134299031Y-76297065D01*
X134287416Y-76298728D01*
X134269558Y-76300000D01*
X125000000Y-76300000D01*
X125000000Y-109700000D01*
X100520000Y-109700000D01*
X100520000Y-69021649D01*
X100950569Y-69021649D01*
X100961180Y-69291713D01*
X101009737Y-69557587D01*
X101095272Y-69813967D01*
X101216078Y-70055737D01*
X101218607Y-70059396D01*
X101322563Y-70209808D01*
X101369744Y-70278074D01*
X101553205Y-70476540D01*
X101762799Y-70647177D01*
X101994346Y-70786580D01*
X101998441Y-70788314D01*
X101998443Y-70788315D01*
X102239124Y-70890230D01*
X102239131Y-70890232D01*
X102243225Y-70891966D01*
X102339358Y-70917455D01*
X102500172Y-70960095D01*
X102500177Y-70960096D01*
X102504469Y-70961234D01*
X102508878Y-70961756D01*
X102508884Y-70961757D01*
X102658210Y-70979430D01*
X102772868Y-70993001D01*
X103043064Y-70986633D01*
X103047459Y-70985901D01*
X103047464Y-70985901D01*
X103305267Y-70942991D01*
X103305271Y-70942990D01*
X103309669Y-70942258D01*
X103477959Y-70889035D01*
X103563114Y-70862104D01*
X103563116Y-70862103D01*
X103567360Y-70860761D01*
X103571371Y-70858835D01*
X103571376Y-70858833D01*
X103806979Y-70745698D01*
X103806980Y-70745697D01*
X103810998Y-70743768D01*
X103959768Y-70644363D01*
X104032013Y-70596091D01*
X104032017Y-70596088D01*
X104035721Y-70593613D01*
X104039038Y-70590642D01*
X104039042Y-70590639D01*
X104233729Y-70416262D01*
X104237045Y-70413292D01*
X104410953Y-70206404D01*
X104553975Y-69977075D01*
X104663258Y-69729883D01*
X104736620Y-69469758D01*
X104759946Y-69296093D01*
X104772172Y-69205074D01*
X104772173Y-69205066D01*
X104772599Y-69201892D01*
X104776375Y-69081750D01*
X104772120Y-69021649D01*
X155249569Y-69021649D01*
X155260180Y-69291713D01*
X155308737Y-69557587D01*
X155394272Y-69813967D01*
X155515078Y-70055737D01*
X155517607Y-70059396D01*
X155621563Y-70209808D01*
X155668744Y-70278074D01*
X155852205Y-70476540D01*
X156061799Y-70647177D01*
X156293346Y-70786580D01*
X156297441Y-70788314D01*
X156297443Y-70788315D01*
X156538124Y-70890230D01*
X156538131Y-70890232D01*
X156542225Y-70891966D01*
X156638358Y-70917455D01*
X156799172Y-70960095D01*
X156799177Y-70960096D01*
X156803469Y-70961234D01*
X156807878Y-70961756D01*
X156807884Y-70961757D01*
X156957210Y-70979430D01*
X157071868Y-70993001D01*
X157342064Y-70986633D01*
X157346459Y-70985901D01*
X157346464Y-70985901D01*
X157604267Y-70942991D01*
X157604271Y-70942990D01*
X157608669Y-70942258D01*
X157776959Y-70889035D01*
X157862114Y-70862104D01*
X157862116Y-70862103D01*
X157866360Y-70860761D01*
X157870371Y-70858835D01*
X157870376Y-70858833D01*
X158105979Y-70745698D01*
X158105980Y-70745697D01*
X158109998Y-70743768D01*
X158258768Y-70644363D01*
X158331013Y-70596091D01*
X158331017Y-70596088D01*
X158334721Y-70593613D01*
X158338038Y-70590642D01*
X158338042Y-70590639D01*
X158532729Y-70416262D01*
X158536045Y-70413292D01*
X158709953Y-70206404D01*
X158852975Y-69977075D01*
X158962258Y-69729883D01*
X159035620Y-69469758D01*
X159058946Y-69296093D01*
X159071172Y-69205074D01*
X159071173Y-69205066D01*
X159071599Y-69201892D01*
X159075375Y-69081750D01*
X159056287Y-68812153D01*
X158999402Y-68547935D01*
X158979801Y-68494803D01*
X158907397Y-68298546D01*
X158905856Y-68294369D01*
X158876510Y-68239981D01*
X158779629Y-68060428D01*
X158779629Y-68060427D01*
X158777516Y-68056512D01*
X158616942Y-67839112D01*
X158427338Y-67646506D01*
X158350556Y-67587908D01*
X158216028Y-67485239D01*
X158216024Y-67485237D01*
X158212487Y-67482537D01*
X157976675Y-67350477D01*
X157724609Y-67252960D01*
X157720284Y-67251957D01*
X157720279Y-67251956D01*
X157614748Y-67227496D01*
X157461318Y-67191932D01*
X157192054Y-67168611D01*
X157187619Y-67168855D01*
X157187615Y-67168855D01*
X156926634Y-67183218D01*
X156926627Y-67183219D01*
X156922191Y-67183463D01*
X156790622Y-67209633D01*
X156661484Y-67235320D01*
X156661479Y-67235321D01*
X156657112Y-67236190D01*
X156652909Y-67237666D01*
X156406315Y-67324263D01*
X156406312Y-67324264D01*
X156402107Y-67325741D01*
X156398154Y-67327794D01*
X156398148Y-67327797D01*
X156354488Y-67350477D01*
X156162264Y-67450330D01*
X156158649Y-67452913D01*
X156158643Y-67452917D01*
X155945990Y-67604881D01*
X155945986Y-67604884D01*
X155942369Y-67607469D01*
X155746808Y-67794025D01*
X155579485Y-68006274D01*
X155577253Y-68010116D01*
X155577250Y-68010121D01*
X155445974Y-68236127D01*
X155445971Y-68236134D01*
X155443736Y-68239981D01*
X155342272Y-68490485D01*
X155341201Y-68494798D01*
X155341199Y-68494803D01*
X155328001Y-68547935D01*
X155277116Y-68752785D01*
X155276662Y-68757213D01*
X155276662Y-68757215D01*
X155250023Y-69017217D01*
X155249569Y-69021649D01*
X104772120Y-69021649D01*
X104757287Y-68812153D01*
X104700402Y-68547935D01*
X104680801Y-68494803D01*
X104608397Y-68298546D01*
X104606856Y-68294369D01*
X104577510Y-68239981D01*
X104480629Y-68060428D01*
X104480629Y-68060427D01*
X104478516Y-68056512D01*
X104317942Y-67839112D01*
X104128338Y-67646506D01*
X104051556Y-67587908D01*
X103917028Y-67485239D01*
X103917024Y-67485237D01*
X103913487Y-67482537D01*
X103677675Y-67350477D01*
X103425609Y-67252960D01*
X103421284Y-67251957D01*
X103421279Y-67251956D01*
X103315748Y-67227496D01*
X103162318Y-67191932D01*
X102893054Y-67168611D01*
X102888619Y-67168855D01*
X102888615Y-67168855D01*
X102627634Y-67183218D01*
X102627627Y-67183219D01*
X102623191Y-67183463D01*
X102491622Y-67209633D01*
X102362484Y-67235320D01*
X102362479Y-67235321D01*
X102358112Y-67236190D01*
X102353909Y-67237666D01*
X102107315Y-67324263D01*
X102107312Y-67324264D01*
X102103107Y-67325741D01*
X102099154Y-67327794D01*
X102099148Y-67327797D01*
X102055488Y-67350477D01*
X101863264Y-67450330D01*
X101859649Y-67452913D01*
X101859643Y-67452917D01*
X101646990Y-67604881D01*
X101646986Y-67604884D01*
X101643369Y-67607469D01*
X101447808Y-67794025D01*
X101280485Y-68006274D01*
X101278253Y-68010116D01*
X101278250Y-68010121D01*
X101146974Y-68236127D01*
X101146971Y-68236134D01*
X101144736Y-68239981D01*
X101043272Y-68490485D01*
X101042201Y-68494798D01*
X101042199Y-68494803D01*
X101029001Y-68547935D01*
X100978116Y-68752785D01*
X100977662Y-68757213D01*
X100977662Y-68757215D01*
X100951023Y-69017217D01*
X100950569Y-69021649D01*
X100520000Y-69021649D01*
X100520000Y-61866353D01*
X114521280Y-61866353D01*
X114527577Y-62267162D01*
X114571565Y-62665600D01*
X114652854Y-63058130D01*
X114770723Y-63441269D01*
X114924125Y-63811614D01*
X115111698Y-64165879D01*
X115331779Y-64500920D01*
X115582413Y-64813762D01*
X115584477Y-64815892D01*
X115584485Y-64815901D01*
X115827227Y-65066391D01*
X115861376Y-65101630D01*
X116166191Y-65361967D01*
X116168620Y-65363674D01*
X116168625Y-65363678D01*
X116491723Y-65590754D01*
X116491731Y-65590759D01*
X116494154Y-65592462D01*
X116496728Y-65593930D01*
X116839777Y-65789602D01*
X116839782Y-65789605D01*
X116842353Y-65791071D01*
X117207697Y-65956031D01*
X117586943Y-66085876D01*
X117589817Y-66086566D01*
X117589824Y-66086568D01*
X117862841Y-66152113D01*
X117976726Y-66179454D01*
X117979658Y-66179871D01*
X117979667Y-66179873D01*
X118370648Y-66235518D01*
X118370651Y-66235518D01*
X118373586Y-66235936D01*
X118376551Y-66236076D01*
X118376553Y-66236076D01*
X118771031Y-66254679D01*
X118774000Y-66254819D01*
X118776969Y-66254679D01*
X119171447Y-66236076D01*
X119171449Y-66236076D01*
X119174414Y-66235936D01*
X119177349Y-66235518D01*
X119177352Y-66235518D01*
X119568333Y-66179873D01*
X119568342Y-66179871D01*
X119571274Y-66179454D01*
X119685159Y-66152113D01*
X119958176Y-66086568D01*
X119958183Y-66086566D01*
X119961057Y-66085876D01*
X120340303Y-65956031D01*
X120705647Y-65791071D01*
X120708218Y-65789605D01*
X120708223Y-65789602D01*
X121051272Y-65593930D01*
X121053846Y-65592462D01*
X121056269Y-65590759D01*
X121056277Y-65590754D01*
X121379375Y-65363678D01*
X121379380Y-65363674D01*
X121381809Y-65361967D01*
X121686624Y-65101630D01*
X121720773Y-65066391D01*
X121963515Y-64815901D01*
X121963523Y-64815892D01*
X121965587Y-64813762D01*
X122216221Y-64500920D01*
X122436302Y-64165879D01*
X122623875Y-63811614D01*
X122777277Y-63441269D01*
X122895146Y-63058130D01*
X122976435Y-62665600D01*
X123020423Y-62267162D01*
X123020500Y-62264709D01*
X123020501Y-62264696D01*
X123028741Y-62002468D01*
X123028819Y-62000000D01*
X123022516Y-61866353D01*
X172247280Y-61866353D01*
X172253577Y-62267162D01*
X172297565Y-62665600D01*
X172378854Y-63058130D01*
X172496723Y-63441269D01*
X172650125Y-63811614D01*
X172837698Y-64165879D01*
X173057779Y-64500920D01*
X173308413Y-64813762D01*
X173310477Y-64815892D01*
X173310485Y-64815901D01*
X173553227Y-65066391D01*
X173587376Y-65101630D01*
X173892191Y-65361967D01*
X173894620Y-65363674D01*
X173894625Y-65363678D01*
X174217723Y-65590754D01*
X174217731Y-65590759D01*
X174220154Y-65592462D01*
X174222728Y-65593930D01*
X174565777Y-65789602D01*
X174565782Y-65789605D01*
X174568353Y-65791071D01*
X174933697Y-65956031D01*
X175312943Y-66085876D01*
X175315817Y-66086566D01*
X175315824Y-66086568D01*
X175588841Y-66152113D01*
X175702726Y-66179454D01*
X175705658Y-66179871D01*
X175705667Y-66179873D01*
X176096648Y-66235518D01*
X176096651Y-66235518D01*
X176099586Y-66235936D01*
X176102551Y-66236076D01*
X176102553Y-66236076D01*
X176497031Y-66254679D01*
X176500000Y-66254819D01*
X176502969Y-66254679D01*
X176897447Y-66236076D01*
X176897449Y-66236076D01*
X176900414Y-66235936D01*
X176903349Y-66235518D01*
X176903352Y-66235518D01*
X177294333Y-66179873D01*
X177294342Y-66179871D01*
X177297274Y-66179454D01*
X177411159Y-66152113D01*
X177684176Y-66086568D01*
X177684183Y-66086566D01*
X177687057Y-66085876D01*
X178066303Y-65956031D01*
X178431647Y-65791071D01*
X178434218Y-65789605D01*
X178434223Y-65789602D01*
X178777272Y-65593930D01*
X178779846Y-65592462D01*
X178782269Y-65590759D01*
X178782277Y-65590754D01*
X179105375Y-65363678D01*
X179105380Y-65363674D01*
X179107809Y-65361967D01*
X179412624Y-65101630D01*
X179446773Y-65066391D01*
X179689515Y-64815901D01*
X179689523Y-64815892D01*
X179691587Y-64813762D01*
X179942221Y-64500920D01*
X180162302Y-64165879D01*
X180349875Y-63811614D01*
X180503277Y-63441269D01*
X180621146Y-63058130D01*
X180702435Y-62665600D01*
X180746423Y-62267162D01*
X180746500Y-62264709D01*
X180746501Y-62264696D01*
X180754741Y-62002468D01*
X180754819Y-62000000D01*
X180735936Y-61599586D01*
X180679454Y-61202726D01*
X180585876Y-60812943D01*
X180456031Y-60433697D01*
X180291071Y-60068353D01*
X180092462Y-59720154D01*
X180090759Y-59717731D01*
X180090754Y-59717723D01*
X179863678Y-59394625D01*
X179863674Y-59394620D01*
X179861967Y-59392191D01*
X179601630Y-59087376D01*
X179502579Y-58991389D01*
X179315901Y-58810485D01*
X179315892Y-58810477D01*
X179313762Y-58808413D01*
X179000920Y-58557779D01*
X178881551Y-58479368D01*
X178668355Y-58339324D01*
X178668348Y-58339320D01*
X178665879Y-58337698D01*
X178663268Y-58336316D01*
X178663262Y-58336312D01*
X178314237Y-58151514D01*
X178311614Y-58150125D01*
X177941269Y-57996723D01*
X177938446Y-57995855D01*
X177938439Y-57995852D01*
X177560968Y-57879727D01*
X177560966Y-57879727D01*
X177558130Y-57878854D01*
X177555227Y-57878253D01*
X177555220Y-57878251D01*
X177168519Y-57798169D01*
X177168509Y-57798167D01*
X177165600Y-57797565D01*
X176767162Y-57753577D01*
X176764181Y-57753530D01*
X176764178Y-57753530D01*
X176653935Y-57751798D01*
X176366353Y-57747280D01*
X176363409Y-57747512D01*
X176363399Y-57747512D01*
X175984993Y-57777295D01*
X175966730Y-57778732D01*
X175571840Y-57847651D01*
X175568969Y-57848437D01*
X175568962Y-57848438D01*
X175188053Y-57952643D01*
X175188043Y-57952646D01*
X175185189Y-57953427D01*
X175182425Y-57954471D01*
X175182414Y-57954475D01*
X174812981Y-58094072D01*
X174810208Y-58095120D01*
X174450225Y-58271474D01*
X174108437Y-58480922D01*
X173787876Y-58721606D01*
X173491389Y-58991389D01*
X173221606Y-59287876D01*
X173219824Y-59290249D01*
X173219821Y-59290253D01*
X173012139Y-59566860D01*
X172980922Y-59608437D01*
X172771474Y-59950225D01*
X172595120Y-60310208D01*
X172594073Y-60312978D01*
X172594072Y-60312981D01*
X172454475Y-60682414D01*
X172454471Y-60682425D01*
X172453427Y-60685189D01*
X172347651Y-61071840D01*
X172278732Y-61466730D01*
X172247280Y-61866353D01*
X123022516Y-61866353D01*
X123009936Y-61599586D01*
X122953454Y-61202726D01*
X122859876Y-60812943D01*
X122730031Y-60433697D01*
X122565071Y-60068353D01*
X122366462Y-59720154D01*
X122364759Y-59717731D01*
X122364754Y-59717723D01*
X122137678Y-59394625D01*
X122137674Y-59394620D01*
X122135967Y-59392191D01*
X121875630Y-59087376D01*
X121776579Y-58991389D01*
X121589901Y-58810485D01*
X121589892Y-58810477D01*
X121587762Y-58808413D01*
X121274920Y-58557779D01*
X121155551Y-58479368D01*
X120942355Y-58339324D01*
X120942348Y-58339320D01*
X120939879Y-58337698D01*
X120937268Y-58336316D01*
X120937262Y-58336312D01*
X120588237Y-58151514D01*
X120585614Y-58150125D01*
X120215269Y-57996723D01*
X120212446Y-57995855D01*
X120212439Y-57995852D01*
X119834968Y-57879727D01*
X119834966Y-57879727D01*
X119832130Y-57878854D01*
X119829227Y-57878253D01*
X119829220Y-57878251D01*
X119442519Y-57798169D01*
X119442509Y-57798167D01*
X119439600Y-57797565D01*
X119041162Y-57753577D01*
X119038181Y-57753530D01*
X119038178Y-57753530D01*
X118927935Y-57751798D01*
X118640353Y-57747280D01*
X118637409Y-57747512D01*
X118637399Y-57747512D01*
X118258993Y-57777295D01*
X118240730Y-57778732D01*
X117845840Y-57847651D01*
X117842969Y-57848437D01*
X117842962Y-57848438D01*
X117462053Y-57952643D01*
X117462043Y-57952646D01*
X117459189Y-57953427D01*
X117456425Y-57954471D01*
X117456414Y-57954475D01*
X117086981Y-58094072D01*
X117084208Y-58095120D01*
X116724225Y-58271474D01*
X116382437Y-58480922D01*
X116061876Y-58721606D01*
X115765389Y-58991389D01*
X115495606Y-59287876D01*
X115493824Y-59290249D01*
X115493821Y-59290253D01*
X115286139Y-59566860D01*
X115254922Y-59608437D01*
X115045474Y-59950225D01*
X114869120Y-60310208D01*
X114868073Y-60312978D01*
X114868072Y-60312981D01*
X114728475Y-60682414D01*
X114728471Y-60682425D01*
X114727427Y-60685189D01*
X114621651Y-61071840D01*
X114552732Y-61466730D01*
X114521280Y-61866353D01*
X100520000Y-61866353D01*
X100520000Y-50811329D01*
X100521500Y-50791944D01*
X100523805Y-50777142D01*
X100523805Y-50777140D01*
X100525186Y-50768271D01*
X100524022Y-50759371D01*
X100524132Y-50750395D01*
X100524950Y-50750405D01*
X100525241Y-50728914D01*
X100529310Y-50703222D01*
X100541492Y-50665730D01*
X100559451Y-50630483D01*
X100582623Y-50598590D01*
X100610590Y-50570623D01*
X100642483Y-50547451D01*
X100677730Y-50529492D01*
X100715221Y-50517310D01*
X100740059Y-50513376D01*
X100759768Y-50511946D01*
X100767731Y-50513186D01*
X100799253Y-50509064D01*
X100815590Y-50508000D01*
X194450672Y-50508000D01*
X194470057Y-50509500D01*
G37*
%TD.AperFunction*%
M02*
