M48
; DRILL file {KiCad (5.99.0-12610-g07e01e6297)} date Sun Nov  7 16:56:26 2021
; FORMAT={-:-/ absolute / inch / decimal}
; #@! TF.CreationDate,2021-11-07T16:56:26+00:00
; #@! TF.GenerationSoftware,Kicad,Pcbnew,(5.99.0-12610-g07e01e6297)
; #@! TF.FileFunction,NonPlated,1,2,NPTH
FMAT,2
INCH
; #@! TA.AperFunction,NonPlated,NPTH,ComponentDrill
T1C0.0591
; #@! TA.AperFunction,NonPlated,NPTH,ComponentDrill
T2C0.0689
; #@! TA.AperFunction,NonPlated,NPTH,ComponentDrill
T3C0.0984
; #@! TA.AperFunction,NonPlated,NPTH,ComponentDrill
T4C0.1181
; #@! TA.AperFunction,NonPlated,NPTH,ComponentDrill
T5C0.1200
; #@! TA.AperFunction,NonPlated,NPTH,ComponentDrill
T6C0.1570
%
G90
G05
T2
X4.1145Y-2.5618
X4.1145Y-3.3118
X4.1145Y-4.0618
X4.1145Y-4.8118
X4.1145Y-5.5618
X4.5145Y-2.5618
X4.5145Y-3.3118
X4.5145Y-4.0618
X4.5145Y-4.8118
X4.8645Y-2.5618
X4.8645Y-3.3118
X4.8645Y-4.0618
X4.8645Y-4.8118
X5.2645Y-2.5618
X5.2645Y-3.3118
X5.2645Y-4.0618
X5.2645Y-4.8118
X5.2645Y-5.5618
X5.6145Y-2.5618
X5.6145Y-3.3118
X5.6145Y-4.0618
X5.6145Y-4.8118
X5.6145Y-5.5618
X6.0145Y-2.5618
X6.0145Y-3.3118
X6.0145Y-4.0618
X6.0145Y-4.8118
X6.0145Y-5.5618
X6.3645Y-2.5618
X6.5645Y-3.1118
X6.5645Y-4.2618
X6.5645Y-4.6118
X6.5645Y-5.7618
X6.7645Y-2.5618
T3
X4.0493Y-2.9368
X4.6899Y-5.1171
X6.187Y-2.9368
X6.9395Y-5.1868
T4
X4.1645Y-2.4618
X4.1645Y-3.2118
X4.1645Y-3.9618
X4.1645Y-4.7118
X4.1645Y-5.4618
X4.4145Y-2.3618
X4.4145Y-3.1118
X4.4145Y-3.8618
X4.4145Y-4.6118
X4.4145Y-5.3618
X4.5395Y-5.4618
X4.7895Y-5.3618
X4.9145Y-2.4618
X4.9145Y-3.2118
X4.9145Y-3.9618
X4.9145Y-4.7118
X4.9645Y-5.7618
X5.1645Y-2.3618
X5.1645Y-3.1118
X5.1645Y-3.8618
X5.1645Y-4.6118
X5.2145Y-5.6618
X5.6645Y-2.4618
X5.6645Y-3.2118
X5.6645Y-3.9618
X5.6645Y-4.7118
X5.6645Y-5.4618
X5.9145Y-2.3618
X5.9145Y-3.1118
X5.9145Y-3.8618
X5.9145Y-4.6118
X5.9145Y-5.3618
X6.3645Y-3.9618
X6.3645Y-5.4618
X6.4145Y-2.4618
X6.4645Y-4.2118
X6.4645Y-5.7118
X6.6645Y-2.3618
X6.6645Y-3.1618
X6.6645Y-3.5368
X6.6645Y-4.6618
X6.6645Y-5.0368
X6.7645Y-3.4118
X6.7645Y-3.7868
X6.7645Y-4.9118
X6.7645Y-5.2868
T5
X4.2195Y-5.8368
X5.1595Y-5.8368
X6.8395Y-3.2168
X6.8395Y-4.1568
X6.8395Y-4.7168
X6.8395Y-5.6568
T6
X4.2195Y-5.2368
X4.3145Y-2.5618
X4.3145Y-3.3118
X4.3145Y-4.0618
X4.3145Y-4.8118
X4.3145Y-5.5618
X4.6895Y-5.5618
X5.0645Y-2.5618
X5.0645Y-3.3118
X5.0645Y-4.0618
X5.0645Y-4.8118
X5.0645Y-5.5618
X5.1595Y-5.2368
X5.8145Y-2.5618
X5.8145Y-3.3118
X5.8145Y-4.0618
X5.8145Y-4.8118
X5.8145Y-5.5618
X6.2395Y-3.2168
X6.2395Y-4.1568
X6.2395Y-4.7168
X6.2395Y-5.6568
X6.5645Y-2.5618
X6.5645Y-3.3118
X6.5645Y-3.6868
X6.5645Y-4.0618
X6.5645Y-4.8118
X6.5645Y-5.1868
X6.5645Y-5.5618
T1
G00X7.094Y-4.0362
M15
G01X7.094Y-4.0874
M16
G05
G00X7.094Y-4.7862
M15
G01X7.094Y-4.8374
M16
G05
G00X7.535Y-4.0362
M15
G01X7.535Y-4.0874
M16
G05
G00X7.535Y-4.7862
M15
G01X7.535Y-4.8374
M16
G05
T2
G00X4.4897Y-5.5618
M15
G01X4.5145Y-5.5618
M16
G05
G00X4.8893Y-5.5618
M15
G01X4.8645Y-5.5618
M16
G05
G00X6.5645Y-3.487
M15
G01X6.5645Y-3.5118
M16
G05
G00X6.5645Y-3.8866
M15
G01X6.5645Y-3.8618
M16
G05
G00X6.5645Y-4.987
M15
G01X6.5645Y-5.0118
M16
G05
G00X6.5645Y-5.3866
M15
G01X6.5645Y-5.3618
M16
G05
T0
M30
