M48
; DRILL file {KiCad (5.99.0-12610-g07e01e6297)} date Fri Oct  1 22:53:13 2021
; FORMAT={-:-/ absolute / inch / decimal}
; #@! TF.CreationDate,2021-10-01T22:53:13+01:00
; #@! TF.GenerationSoftware,Kicad,Pcbnew,(5.99.0-12610-g07e01e6297)
; #@! TF.FileFunction,NonPlated,1,2,NPTH
FMAT,2
INCH
; #@! TA.AperFunction,NonPlated,NPTH,ComponentDrill
T1C0.0591
; #@! TA.AperFunction,NonPlated,NPTH,ComponentDrill
T2C0.0689
; #@! TA.AperFunction,NonPlated,NPTH,ComponentDrill
T3C0.1181
; #@! TA.AperFunction,NonPlated,NPTH,ComponentDrill
T4C0.1200
; #@! TA.AperFunction,NonPlated,NPTH,ComponentDrill
T5C0.1457
; #@! TA.AperFunction,NonPlated,NPTH,ComponentDrill
T6C0.1570
%
G90
G05
T2
X4.1125Y-2.1562
X4.1125Y-2.9062
X4.1125Y-3.6562
X4.1125Y-4.4062
X4.1125Y-5.1562
X4.5125Y-2.1562
X4.5125Y-2.9062
X4.5125Y-3.6562
X4.5125Y-4.4062
X4.8625Y-2.1562
X4.8625Y-2.9062
X4.8625Y-3.6562
X4.8625Y-4.4062
X5.2625Y-2.1562
X5.2625Y-2.9062
X5.2625Y-3.6562
X5.2625Y-4.4062
X5.2625Y-5.1562
X5.6125Y-2.1562
X5.6125Y-2.9062
X5.6125Y-3.6562
X5.6125Y-4.4062
X5.6125Y-5.1562
X6.0125Y-2.1562
X6.0125Y-2.9062
X6.0125Y-3.6562
X6.0125Y-4.4062
X6.0125Y-5.1562
X6.3625Y-2.1562
X6.5625Y-2.7062
X6.5625Y-3.8562
X6.5625Y-4.2062
X6.5625Y-5.3563
X6.7625Y-2.1562
T3
X4.1625Y-2.0562
X4.1625Y-2.8062
X4.1625Y-3.5562
X4.1625Y-4.3062
X4.1625Y-5.0562
X4.4125Y-1.9563
X4.4125Y-2.7062
X4.4125Y-3.4562
X4.4125Y-4.2062
X4.4125Y-4.9562
X4.5375Y-5.0562
X4.7875Y-4.9562
X4.9125Y-2.0562
X4.9125Y-2.8062
X4.9125Y-3.5562
X4.9125Y-4.3062
X4.9625Y-5.3563
X5.1625Y-1.9563
X5.1625Y-2.7062
X5.1625Y-3.4562
X5.1625Y-4.2062
X5.2125Y-5.2562
X5.6625Y-2.0562
X5.6625Y-2.8062
X5.6625Y-3.5562
X5.6625Y-4.3062
X5.6625Y-5.0562
X5.9125Y-1.9563
X5.9125Y-2.7062
X5.9125Y-3.4562
X5.9125Y-4.2062
X5.9125Y-4.9562
X6.3625Y-3.5562
X6.3625Y-5.0562
X6.4125Y-2.0562
X6.4625Y-3.8062
X6.4625Y-5.3062
X6.6625Y-1.9563
X6.6625Y-2.7563
X6.6625Y-3.1313
X6.6625Y-4.2562
X6.6625Y-4.6312
X6.7625Y-3.0063
X6.7625Y-3.3813
X6.7625Y-4.5062
X6.7625Y-4.8812
T4
X4.2175Y-5.4312
X5.1575Y-5.4312
X6.8375Y-2.8112
X6.8375Y-3.7512
X6.8375Y-4.3113
X6.8375Y-5.2512
T5
X4.6875Y-2.5312
X4.6875Y-4.7812
X6.1875Y-2.5312
X6.9375Y-4.7812
T6
X4.2175Y-4.8312
X4.3125Y-2.1562
X4.3125Y-2.9062
X4.3125Y-3.6562
X4.3125Y-4.4062
X4.3125Y-5.1562
X4.6875Y-5.1562
X5.0625Y-2.1562
X5.0625Y-2.9062
X5.0625Y-3.6562
X5.0625Y-4.4062
X5.0625Y-5.1562
X5.1575Y-4.8312
X5.8125Y-2.1562
X5.8125Y-2.9062
X5.8125Y-3.6562
X5.8125Y-4.4062
X5.8125Y-5.1562
X6.2375Y-2.8112
X6.2375Y-3.7512
X6.2375Y-4.3113
X6.2375Y-5.2512
X6.5625Y-2.1562
X6.5625Y-2.9062
X6.5625Y-3.2812
X6.5625Y-3.6562
X6.5625Y-4.4062
X6.5625Y-4.7812
X6.5625Y-5.1562
T1
G00X7.092Y-3.6307
M15
G01X7.092Y-3.6818
M16
G05
G00X7.092Y-4.3807
M15
G01X7.092Y-4.4318
M16
G05
G00X7.533Y-3.6307
M15
G01X7.533Y-3.6818
M16
G05
G00X7.533Y-4.3807
M15
G01X7.533Y-4.4318
M16
G05
T2
G00X4.4877Y-5.1562
M15
G01X4.5125Y-5.1562
M16
G05
G00X4.8873Y-5.1562
M15
G01X4.8625Y-5.1562
M16
G05
G00X6.5625Y-3.0814
M15
G01X6.5625Y-3.1062
M16
G05
G00X6.5625Y-3.4811
M15
G01X6.5625Y-3.4562
M16
G05
G00X6.5625Y-4.5814
M15
G01X6.5625Y-4.6063
M16
G05
G00X6.5625Y-4.9811
M15
G01X6.5625Y-4.9562
M16
G05
T0
M30
