M48
; DRILL file {KiCad (5.99.0-12610-g07e01e6297)} date Sun Nov  7 16:56:26 2021
; FORMAT={-:-/ absolute / inch / decimal}
; #@! TF.CreationDate,2021-11-07T16:56:26+00:00
; #@! TF.GenerationSoftware,Kicad,Pcbnew,(5.99.0-12610-g07e01e6297)
; #@! TF.FileFunction,Plated,1,2,PTH
FMAT,2
INCH
; #@! TA.AperFunction,Plated,PTH,ViaDrill
T1C0.0157
; #@! TA.AperFunction,Plated,PTH,ComponentDrill
T2C0.0320
; #@! TA.AperFunction,Plated,PTH,ComponentDrill
T3C0.0394
; #@! TA.AperFunction,Plated,PTH,ComponentDrill
T4C0.0512
%
G90
G05
T1
X3.9846Y-2.7476
X3.9862Y-5.0874
X3.9894Y-4.1992
X3.9909Y-3.5055
X4.093Y-3.0881
X4.7856Y-3.0881
X4.9198Y-5.2301
X5.5356Y-3.0881
X6.2728Y-2.9614
X6.3988Y-3.4953
X6.461Y-4.6642
X6.4759Y-5.4636
X6.6843Y-5.1453
X6.6921Y-3.6539
X6.878Y-3.5512
X6.9189Y-4.9449
X7.5705Y-2.2453
T2
X7.015Y-2.3405
X7.015Y-2.4405
X7.015Y-2.5405
X7.015Y-2.6405
X7.015Y-2.7405
X7.015Y-2.8405
X7.015Y-2.9405
X7.015Y-3.0405
X7.015Y-3.1405
X7.015Y-3.2405
X7.015Y-3.3405
X7.015Y-3.4405
X7.6142Y-2.3405
X7.6142Y-2.4405
X7.6142Y-2.5405
X7.6142Y-2.6405
X7.6142Y-2.7405
X7.6142Y-2.8405
X7.6142Y-2.9405
X7.6142Y-3.0405
X7.6142Y-3.1405
X7.6142Y-3.2405
X7.6142Y-3.3405
X7.6142Y-3.4405
T3
X4.1358Y-4.3858
X4.1378Y-3.6378
X4.2362Y-4.4879
X4.2402Y-2.8858
X4.4429Y-4.3858
X4.4449Y-3.6378
X4.5433Y-4.4879
X4.5472Y-2.8858
X4.8858Y-4.3858
X4.8898Y-2.8858
X4.8898Y-3.6339
X4.9862Y-4.4879
X5.1929Y-4.3858
X5.1969Y-2.8858
X5.1969Y-3.6339
X5.2933Y-4.4879
X5.3883Y-4.8285
X5.3883Y-5.1356
X5.4907Y-5.0332
X5.4907Y-5.3403
X5.5197Y-4.3858
X5.5399Y-3.6339
X5.6181Y-4.4879
X5.6398Y-2.8858
X5.661Y-5.2379
X5.7658Y-5.1339
X5.8268Y-4.3858
X5.847Y-3.6339
X5.9252Y-4.4879
X5.9469Y-2.8858
X5.9681Y-5.2379
X6.0Y-4.3858
X6.036Y-3.6395
X6.0729Y-5.1339
X6.2308Y-4.4978
X6.3071Y-4.3858
X6.3431Y-3.6395
X6.4085Y-2.8858
X6.5379Y-4.4978
X6.5787Y-4.3858
X6.7156Y-2.8858
X6.8858Y-4.3858
X6.8903Y-2.4803
X6.8903Y-2.7874
X7.0315Y-3.5957
X7.0315Y-3.9028
X7.0315Y-4.2835
X7.0315Y-4.5906
X7.2161Y-2.2665
X7.2161Y-2.8374
X7.2161Y-3.0165
X7.2161Y-3.5874
X7.2161Y-3.7665
X7.2161Y-4.3374
X7.2161Y-4.5165
X7.2161Y-5.0874
X7.3145Y-2.2665
X7.3145Y-3.0165
X7.3145Y-3.7665
X7.3145Y-4.5165
X7.4129Y-2.2665
X7.4129Y-2.8374
X7.4129Y-3.0165
X7.4129Y-3.5874
X7.4129Y-3.7665
X7.4129Y-4.3374
X7.4129Y-4.5165
X7.4129Y-5.0874
T4
X7.1315Y-5.561
X7.3125Y-5.38
T0
M30
