M48
; DRILL file {KiCad (5.99.0-12610-g07e01e6297)} date Fri Oct  1 22:53:13 2021
; FORMAT={-:-/ absolute / inch / decimal}
; #@! TF.CreationDate,2021-10-01T22:53:13+01:00
; #@! TF.GenerationSoftware,Kicad,Pcbnew,(5.99.0-12610-g07e01e6297)
; #@! TF.FileFunction,Plated,1,2,PTH
FMAT,2
INCH
; #@! TA.AperFunction,Plated,PTH,ViaDrill
T1C0.0157
; #@! TA.AperFunction,Plated,PTH,ComponentDrill
T2C0.0320
; #@! TA.AperFunction,Plated,PTH,ComponentDrill
T3C0.0394
; #@! TA.AperFunction,Plated,PTH,ComponentDrill
T4C0.0512
%
G90
G05
T1
X4.035Y-2.62
X4.7835Y-2.6535
X5.5336Y-2.6378
X5.9488Y-4.1024
T2
X7.0129Y-1.935
X7.0129Y-2.035
X7.0129Y-2.135
X7.0129Y-2.235
X7.0129Y-2.335
X7.0129Y-2.435
X7.0129Y-2.535
X7.0129Y-2.635
X7.0129Y-2.735
X7.0129Y-2.835
X7.0129Y-2.935
X7.0129Y-3.035
X7.6122Y-1.935
X7.6122Y-2.035
X7.6122Y-2.135
X7.6122Y-2.235
X7.6122Y-2.335
X7.6122Y-2.435
X7.6122Y-2.535
X7.6122Y-2.635
X7.6122Y-2.735
X7.6122Y-2.835
X7.6122Y-2.935
X7.6122Y-3.035
T3
X4.6562Y-2.0652
X4.6562Y-2.3723
X4.6562Y-2.8152
X4.6562Y-3.1223
X4.6562Y-3.3465
X4.6562Y-3.6535
X4.6562Y-3.8152
X4.6562Y-4.1223
X4.6562Y-4.284
X4.6562Y-4.591
X4.9094Y-4.0
X5.2165Y-4.0
X5.4055Y-4.3583
X5.4055Y-4.6654
X5.4062Y-2.0652
X5.4062Y-2.3723
X5.4062Y-2.8152
X5.4062Y-3.1223
X5.4062Y-3.5652
X5.4062Y-3.8723
X5.4062Y-4.8152
X5.4062Y-5.1223
X5.4965Y-4.0
X5.659Y-3.25
X5.6614Y-4.748
X5.8035Y-4.0
X5.966Y-3.25
X5.9685Y-4.748
X5.9965Y-4.0
X6.1562Y-2.0652
X6.1562Y-2.3723
X6.185Y-4.5394
X6.185Y-4.8465
X6.2165Y-2.9764
X6.2165Y-3.2835
X6.3035Y-4.0
X6.409Y-2.5
X6.716Y-2.5
X6.784Y-4.0625
X6.9Y-2.0815
X6.9Y-2.3885
X6.9688Y-3.1902
X6.9688Y-3.4973
X6.9688Y-3.6277
X6.9688Y-3.9348
X6.9688Y-4.2527
X6.9688Y-4.5598
X7.091Y-4.0625
X7.2141Y-1.861
X7.2141Y-2.4318
X7.2141Y-2.611
X7.2141Y-3.1818
X7.2141Y-3.361
X7.2141Y-3.9318
X7.2141Y-4.111
X7.2141Y-4.6818
X7.3125Y-1.861
X7.3125Y-2.611
X7.3125Y-3.361
X7.3125Y-4.111
X7.4109Y-1.861
X7.4109Y-2.4318
X7.4109Y-2.611
X7.4109Y-3.1818
X7.4109Y-3.361
X7.4109Y-3.9318
X7.4109Y-4.111
X7.4109Y-4.6818
T4
X7.1295Y-5.1555
X7.3105Y-4.9745
T0
M30
