%TF.GenerationSoftware,KiCad,Pcbnew,(5.99.0-12610-g07e01e6297)*%
%TF.CreationDate,2021-11-07T16:56:22+00:00*%
%TF.ProjectId,Envoy,456e766f-792e-46b6-9963-61645f706362,rev?*%
%TF.SameCoordinates,Original*%
%TF.FileFunction,Paste,Bot*%
%TF.FilePolarity,Positive*%
%FSLAX46Y46*%
G04 Gerber Fmt 4.6, Leading zero omitted, Abs format (unit mm)*
G04 Created by KiCad (PCBNEW (5.99.0-12610-g07e01e6297)) date 2021-11-07 16:56:22*
%MOMM*%
%LPD*%
G01*
G04 APERTURE LIST*
%ADD10R,1.600000X1.200000*%
%ADD11R,1.200000X1.600000*%
%ADD12R,2.550000X2.500000*%
%ADD13R,2.500000X2.550000*%
G04 APERTURE END LIST*
D10*
%TO.C,D1*%
X110200000Y-73300000D03*
X113000000Y-73300000D03*
%TD*%
%TO.C,D2*%
X126700000Y-73300000D03*
X129500000Y-73300000D03*
%TD*%
%TO.C,D3*%
X145751000Y-73300000D03*
X148551000Y-73300000D03*
%TD*%
%TO.C,D4*%
X165275000Y-73300000D03*
X168075000Y-73300000D03*
%TD*%
%TO.C,D5*%
X107600000Y-92400000D03*
X110400000Y-92400000D03*
%TD*%
%TO.C,D6*%
X126700000Y-92300000D03*
X129500000Y-92300000D03*
%TD*%
%TO.C,D7*%
X143213500Y-92300000D03*
X146013500Y-92300000D03*
%TD*%
%TO.C,D8*%
X155813500Y-92443750D03*
X158613500Y-92443750D03*
%TD*%
%TO.C,D9*%
X107550000Y-111400000D03*
X110350000Y-111400000D03*
%TD*%
%TO.C,D10*%
X126600000Y-111400000D03*
X129400000Y-111400000D03*
%TD*%
%TO.C,D11*%
X142700000Y-111400000D03*
X145500000Y-111400000D03*
%TD*%
%TO.C,D12*%
X154900000Y-111400000D03*
X157700000Y-111400000D03*
%TD*%
%TO.C,D15*%
X145200000Y-113993750D03*
X148000000Y-113993750D03*
%TD*%
D11*
%TO.C,D17*%
X136863500Y-125143750D03*
X136863500Y-127943750D03*
%TD*%
%TO.C,D18*%
X139463500Y-130343750D03*
X139463500Y-133143750D03*
%TD*%
%TO.C,D22*%
X178600000Y-93831250D03*
X178600000Y-96631250D03*
%TD*%
D12*
%TO.C,MX1*%
X102503500Y-62528750D03*
X115430500Y-59988750D03*
%TD*%
%TO.C,MX2*%
X121553500Y-62528750D03*
X134480500Y-59988750D03*
%TD*%
%TO.C,MX3*%
X140603500Y-62528750D03*
X153530500Y-59988750D03*
%TD*%
%TO.C,MX4*%
X172580500Y-59988750D03*
X159653500Y-62528750D03*
%TD*%
%TO.C,MX5*%
X115430500Y-79038750D03*
X102503500Y-81578750D03*
%TD*%
%TO.C,MX7*%
X140603500Y-81578750D03*
X153530500Y-79038750D03*
%TD*%
D13*
%TO.C,MX8*%
X171818500Y-89960750D03*
X169278500Y-77033750D03*
%TD*%
D12*
%TO.C,MX9*%
X102503500Y-100628750D03*
X115430500Y-98088750D03*
%TD*%
%TO.C,MX10*%
X121553500Y-100628750D03*
X134480500Y-98088750D03*
%TD*%
%TO.C,MX11*%
X140603500Y-100628750D03*
X153530500Y-98088750D03*
%TD*%
D13*
%TO.C,MX12*%
X164198500Y-110253750D03*
X161658500Y-97326750D03*
%TD*%
D12*
%TO.C,MX13*%
X102503500Y-119678750D03*
X115430500Y-117138750D03*
%TD*%
%TO.C,MX15*%
X140603500Y-119678750D03*
X153530500Y-117138750D03*
%TD*%
D13*
%TO.C,MX16*%
X171818500Y-128060750D03*
X169278500Y-115133750D03*
%TD*%
D12*
%TO.C,MX17*%
X102503500Y-138728750D03*
X115430500Y-136188750D03*
%TD*%
%TO.C,MX18*%
X122796500Y-146348750D03*
X135723500Y-143808750D03*
%TD*%
D13*
%TO.C,MX20*%
X161658500Y-135426750D03*
X164198500Y-148353750D03*
%TD*%
D12*
%TO.C,MX19*%
X140603500Y-138728750D03*
X153530500Y-136188750D03*
%TD*%
D13*
%TO.C,MX16-2u1*%
X169278500Y-124658750D03*
X171818500Y-137585750D03*
%TD*%
D12*
%TO.C,MX17-2u1*%
X112028500Y-138728750D03*
X124955500Y-136188750D03*
%TD*%
D13*
%TO.C,MX8-2u1*%
X169278500Y-86558750D03*
X171818500Y-99485750D03*
%TD*%
D12*
%TO.C,MX6*%
X121553500Y-81578750D03*
X134480500Y-79038750D03*
%TD*%
D10*
%TO.C,D13*%
X110100000Y-113993750D03*
X112900000Y-113993750D03*
%TD*%
D12*
%TO.C,MX14*%
X121553500Y-119678750D03*
X134480500Y-117138750D03*
%TD*%
D11*
%TO.C,D24*%
X178600000Y-111300000D03*
X178600000Y-114100000D03*
%TD*%
%TO.C,D21*%
X175013500Y-68300000D03*
X175013500Y-65500000D03*
%TD*%
D10*
%TO.C,D23*%
X169600000Y-111400000D03*
X172400000Y-111400000D03*
%TD*%
%TO.C,D14*%
X129150000Y-113993750D03*
X131950000Y-113993750D03*
%TD*%
%TO.C,D20*%
X148951000Y-130400000D03*
X151751000Y-130400000D03*
%TD*%
%TO.C,D19*%
X146288500Y-133043750D03*
X149088500Y-133043750D03*
%TD*%
%TO.C,D16*%
X160763500Y-114243750D03*
X163563500Y-114243750D03*
%TD*%
M02*
