%TF.GenerationSoftware,KiCad,Pcbnew,(5.99.0-12610-g07e01e6297)*%
%TF.CreationDate,2021-10-01T22:53:11+01:00*%
%TF.ProjectId,Envoy,456e766f-792e-46b6-9963-61645f706362,rev?*%
%TF.SameCoordinates,Original*%
%TF.FileFunction,Paste,Bot*%
%TF.FilePolarity,Positive*%
%FSLAX46Y46*%
G04 Gerber Fmt 4.6, Leading zero omitted, Abs format (unit mm)*
G04 Created by KiCad (PCBNEW (5.99.0-12610-g07e01e6297)) date 2021-10-01 22:53:11*
%MOMM*%
%LPD*%
G01*
G04 APERTURE LIST*
%ADD10R,1.200000X1.600000*%
%ADD11R,1.600000X1.200000*%
%ADD12R,2.550000X2.500000*%
%ADD13R,2.500000X2.550000*%
G04 APERTURE END LIST*
D10*
%TO.C,D1*%
X118268750Y-57756250D03*
X118268750Y-54956250D03*
%TD*%
%TO.C,D2*%
X137318750Y-57756250D03*
X137318750Y-54956250D03*
%TD*%
%TO.C,D3*%
X156368750Y-57756250D03*
X156368750Y-54956250D03*
%TD*%
D11*
%TO.C,D4*%
X165287500Y-63500000D03*
X168087500Y-63500000D03*
%TD*%
D10*
%TO.C,D5*%
X118268750Y-76806250D03*
X118268750Y-74006250D03*
%TD*%
%TO.C,D6*%
X137318750Y-76806250D03*
X137318750Y-74006250D03*
%TD*%
D11*
%TO.C,D7*%
X146237500Y-82550000D03*
X149037500Y-82550000D03*
%TD*%
D10*
%TO.C,D8*%
X157900000Y-80900000D03*
X157900000Y-78100000D03*
%TD*%
%TO.C,D9*%
X118268750Y-90300000D03*
X118268750Y-87500000D03*
%TD*%
%TO.C,D10*%
X137318750Y-95856250D03*
X137318750Y-93056250D03*
%TD*%
D11*
%TO.C,D11*%
X142110000Y-101600000D03*
X144910000Y-101600000D03*
%TD*%
%TO.C,D12*%
X154810000Y-101600000D03*
X157610000Y-101600000D03*
%TD*%
D10*
%TO.C,D15*%
X137300000Y-116000000D03*
X137300000Y-113200000D03*
%TD*%
%TO.C,D17*%
X118268750Y-114112500D03*
X118268750Y-111312500D03*
%TD*%
%TO.C,D18*%
X137318750Y-127606250D03*
X137318750Y-124806250D03*
%TD*%
%TO.C,D22*%
X177006250Y-83531250D03*
X177006250Y-86331250D03*
%TD*%
D12*
%TO.C,MX1*%
X102452500Y-52228750D03*
X115379500Y-49688750D03*
%TD*%
%TO.C,MX2*%
X121502500Y-52228750D03*
X134429500Y-49688750D03*
%TD*%
%TO.C,MX3*%
X140552500Y-52228750D03*
X153479500Y-49688750D03*
%TD*%
%TO.C,MX4*%
X159602500Y-52228750D03*
X172529500Y-49688750D03*
%TD*%
%TO.C,MX5*%
X102452500Y-71278750D03*
X115379500Y-68738750D03*
%TD*%
%TO.C,MX7*%
X140552500Y-71278750D03*
X153479500Y-68738750D03*
%TD*%
D13*
%TO.C,MX8*%
X169227500Y-66733750D03*
X171767500Y-79660750D03*
%TD*%
D12*
%TO.C,MX9*%
X102452500Y-90328750D03*
X115379500Y-87788750D03*
%TD*%
%TO.C,MX10*%
X121502500Y-90328750D03*
X134429500Y-87788750D03*
%TD*%
%TO.C,MX11*%
X140552500Y-90328750D03*
X153479500Y-87788750D03*
%TD*%
D13*
%TO.C,MX12*%
X164147500Y-99953750D03*
X161607500Y-87026750D03*
%TD*%
D12*
%TO.C,MX13*%
X102452500Y-109378750D03*
X115379500Y-106838750D03*
%TD*%
%TO.C,MX15*%
X140552500Y-109378750D03*
X153479500Y-106838750D03*
%TD*%
D13*
%TO.C,MX16*%
X169227500Y-104833750D03*
X171767500Y-117760750D03*
%TD*%
D12*
%TO.C,MX17*%
X102452500Y-128428750D03*
X115379500Y-125888750D03*
%TD*%
%TO.C,MX18*%
X122745500Y-136048750D03*
X135672500Y-133508750D03*
%TD*%
D13*
%TO.C,MX20*%
X164147500Y-138053750D03*
X161607500Y-125126750D03*
%TD*%
D12*
%TO.C,MX19*%
X140552500Y-128428750D03*
X153479500Y-125888750D03*
%TD*%
D13*
%TO.C,MX16-2u1*%
X169227500Y-114358750D03*
X171767500Y-127285750D03*
%TD*%
D12*
%TO.C,MX17-2u1*%
X111977500Y-128428750D03*
X124904500Y-125888750D03*
%TD*%
D13*
%TO.C,MX8-2u1*%
X169227500Y-76258750D03*
X171767500Y-89185750D03*
%TD*%
D12*
%TO.C,MX6*%
X121502500Y-71278750D03*
X134429500Y-68738750D03*
%TD*%
D10*
%TO.C,D13*%
X118268750Y-102206250D03*
X118268750Y-99406250D03*
%TD*%
D12*
%TO.C,MX14*%
X121502500Y-109378750D03*
X134429500Y-106838750D03*
%TD*%
D10*
%TO.C,D24*%
X177006250Y-110518750D03*
X177006250Y-113318750D03*
%TD*%
%TO.C,D21*%
X175260000Y-58169000D03*
X175260000Y-55369000D03*
%TD*%
%TO.C,D23*%
X177006250Y-94643750D03*
X177006250Y-97443750D03*
%TD*%
D11*
%TO.C,D14*%
X127200000Y-101600000D03*
X130000000Y-101600000D03*
%TD*%
D10*
%TO.C,D20*%
X157100000Y-120600000D03*
X157100000Y-117800000D03*
%TD*%
D11*
%TO.C,D19*%
X146300000Y-120600000D03*
X149100000Y-120600000D03*
%TD*%
%TO.C,D16*%
X174812500Y-103187500D03*
X177612500Y-103187500D03*
%TD*%
M02*
