%TF.GenerationSoftware,KiCad,Pcbnew,(5.99.0-12610-g07e01e6297)*%
%TF.CreationDate,2021-10-01T22:53:11+01:00*%
%TF.ProjectId,Envoy,456e766f-792e-46b6-9963-61645f706362,rev?*%
%TF.SameCoordinates,Original*%
%TF.FileFunction,Copper,L2,Bot*%
%TF.FilePolarity,Positive*%
%FSLAX46Y46*%
G04 Gerber Fmt 4.6, Leading zero omitted, Abs format (unit mm)*
G04 Created by KiCad (PCBNEW (5.99.0-12610-g07e01e6297)) date 2021-10-01 22:53:11*
%MOMM*%
%LPD*%
G01*
G04 APERTURE LIST*
%TA.AperFunction,SMDPad,CuDef*%
%ADD10R,0.500000X2.900000*%
%TD*%
%TA.AperFunction,ComponentPad*%
%ADD11R,1.600000X1.600000*%
%TD*%
%TA.AperFunction,SMDPad,CuDef*%
%ADD12R,1.200000X1.600000*%
%TD*%
%TA.AperFunction,ComponentPad*%
%ADD13C,1.600000*%
%TD*%
%TA.AperFunction,SMDPad,CuDef*%
%ADD14R,2.900000X0.500000*%
%TD*%
%TA.AperFunction,SMDPad,CuDef*%
%ADD15R,1.600000X1.200000*%
%TD*%
%TA.AperFunction,WasherPad*%
%ADD16R,2.000000X3.200000*%
%TD*%
%TA.AperFunction,ComponentPad*%
%ADD17R,2.000000X2.000000*%
%TD*%
%TA.AperFunction,ComponentPad*%
%ADD18C,2.000000*%
%TD*%
%TA.AperFunction,SMDPad,CuDef*%
%ADD19R,2.550000X2.500000*%
%TD*%
%TA.AperFunction,SMDPad,CuDef*%
%ADD20R,2.500000X2.550000*%
%TD*%
%TA.AperFunction,ComponentPad*%
%ADD21C,1.524000*%
%TD*%
%TA.AperFunction,ViaPad*%
%ADD22C,0.800000*%
%TD*%
%TA.AperFunction,Conductor*%
%ADD23C,0.250000*%
%TD*%
%TA.AperFunction,Conductor*%
%ADD24C,0.380000*%
%TD*%
G04 APERTURE END LIST*
D10*
%TO.P,D1,1*%
%TO.N,row0*%
X118268750Y-58856250D03*
D11*
X118268750Y-60256250D03*
D12*
X118268750Y-57756250D03*
%TO.P,D1,2*%
%TO.N,Net-(D1-Pad2)*%
X118268750Y-54956250D03*
D13*
X118268750Y-52456250D03*
D10*
X118268750Y-53856250D03*
%TD*%
D12*
%TO.P,D2,1*%
%TO.N,row0*%
X137318750Y-57756250D03*
D10*
X137318750Y-58856250D03*
D11*
X137318750Y-60256250D03*
D13*
%TO.P,D2,2*%
%TO.N,Net-(D2-Pad2)*%
X137318750Y-52456250D03*
D10*
X137318750Y-53856250D03*
D12*
X137318750Y-54956250D03*
%TD*%
D11*
%TO.P,D3,1*%
%TO.N,row0*%
X156368750Y-60256250D03*
D12*
X156368750Y-57756250D03*
D10*
X156368750Y-58856250D03*
D12*
%TO.P,D3,2*%
%TO.N,Net-(D3-Pad2)*%
X156368750Y-54956250D03*
D13*
X156368750Y-52456250D03*
D10*
X156368750Y-53856250D03*
%TD*%
D14*
%TO.P,D4,1*%
%TO.N,row0*%
X164187500Y-63500000D03*
D11*
X162787500Y-63500000D03*
D15*
X165287500Y-63500000D03*
D14*
%TO.P,D4,2*%
%TO.N,Net-(D4-Pad2)*%
X169187500Y-63500000D03*
D13*
X170587500Y-63500000D03*
D15*
X168087500Y-63500000D03*
%TD*%
D12*
%TO.P,D5,1*%
%TO.N,row1*%
X118268750Y-76806250D03*
D11*
X118268750Y-79306250D03*
D10*
X118268750Y-77906250D03*
D13*
%TO.P,D5,2*%
%TO.N,Net-(D5-Pad2)*%
X118268750Y-71506250D03*
D12*
X118268750Y-74006250D03*
D10*
X118268750Y-72906250D03*
%TD*%
D11*
%TO.P,D6,1*%
%TO.N,row1*%
X137318750Y-79306250D03*
D12*
X137318750Y-76806250D03*
D10*
X137318750Y-77906250D03*
D13*
%TO.P,D6,2*%
%TO.N,Net-(D6-Pad2)*%
X137318750Y-71506250D03*
D10*
X137318750Y-72906250D03*
D12*
X137318750Y-74006250D03*
%TD*%
D14*
%TO.P,D7,1*%
%TO.N,row1*%
X145137500Y-82550000D03*
D15*
X146237500Y-82550000D03*
D11*
X143737500Y-82550000D03*
D15*
%TO.P,D7,2*%
%TO.N,Net-(D7-Pad2)*%
X149037500Y-82550000D03*
D14*
X150137500Y-82550000D03*
D13*
X151537500Y-82550000D03*
%TD*%
D10*
%TO.P,D8,1*%
%TO.N,row1*%
X157900000Y-82000000D03*
D11*
X157900000Y-83400000D03*
D12*
X157900000Y-80900000D03*
D13*
%TO.P,D8,2*%
%TO.N,Net-(D8-Pad2)*%
X157900000Y-75600000D03*
D10*
X157900000Y-77000000D03*
D12*
X157900000Y-78100000D03*
%TD*%
%TO.P,D9,1*%
%TO.N,row2*%
X118268750Y-90300000D03*
D11*
X118268750Y-92800000D03*
D10*
X118268750Y-91400000D03*
%TO.P,D9,2*%
%TO.N,Net-(D9-Pad2)*%
X118268750Y-86400000D03*
D13*
X118268750Y-85000000D03*
D12*
X118268750Y-87500000D03*
%TD*%
D10*
%TO.P,D10,1*%
%TO.N,row2*%
X137318750Y-96956250D03*
D11*
X137318750Y-98356250D03*
D12*
X137318750Y-95856250D03*
D13*
%TO.P,D10,2*%
%TO.N,Net-(D10-Pad2)*%
X137318750Y-90556250D03*
D12*
X137318750Y-93056250D03*
D10*
X137318750Y-91956250D03*
%TD*%
D11*
%TO.P,D11,1*%
%TO.N,row2*%
X139610000Y-101600000D03*
D15*
X142110000Y-101600000D03*
D14*
X141010000Y-101600000D03*
D13*
%TO.P,D11,2*%
%TO.N,Net-(D11-Pad2)*%
X147410000Y-101600000D03*
D15*
X144910000Y-101600000D03*
D14*
X146010000Y-101600000D03*
%TD*%
D11*
%TO.P,D12,1*%
%TO.N,row2*%
X152310000Y-101600000D03*
D15*
X154810000Y-101600000D03*
D14*
X153710000Y-101600000D03*
D15*
%TO.P,D12,2*%
%TO.N,Net-(D12-Pad2)*%
X157610000Y-101600000D03*
D14*
X158710000Y-101600000D03*
D13*
X160110000Y-101600000D03*
%TD*%
D11*
%TO.P,D15,1*%
%TO.N,row3*%
X137300000Y-118500000D03*
D10*
X137300000Y-117100000D03*
D12*
X137300000Y-116000000D03*
D10*
%TO.P,D15,2*%
%TO.N,Net-(D15-Pad2)*%
X137300000Y-112100000D03*
D13*
X137300000Y-110700000D03*
D12*
X137300000Y-113200000D03*
%TD*%
%TO.P,D17,1*%
%TO.N,row4*%
X118268750Y-114112500D03*
D11*
X118268750Y-116612500D03*
D10*
X118268750Y-115212500D03*
D13*
%TO.P,D17,2*%
%TO.N,Net-(D17-Pad2)*%
X118268750Y-108812500D03*
D12*
X118268750Y-111312500D03*
D10*
X118268750Y-110212500D03*
%TD*%
%TO.P,D18,1*%
%TO.N,row4*%
X137318750Y-128706250D03*
D12*
X137318750Y-127606250D03*
D11*
X137318750Y-130106250D03*
D12*
%TO.P,D18,2*%
%TO.N,Net-(D18-Pad2)*%
X137318750Y-124806250D03*
D10*
X137318750Y-123706250D03*
D13*
X137318750Y-122306250D03*
%TD*%
D12*
%TO.P,D22,1*%
%TO.N,row1*%
X177006250Y-83531250D03*
D10*
X177006250Y-82431250D03*
D11*
X177006250Y-81031250D03*
D13*
%TO.P,D22,2*%
%TO.N,Net-(D22-Pad2)*%
X177006250Y-88831250D03*
D10*
X177006250Y-87431250D03*
D12*
X177006250Y-86331250D03*
%TD*%
D16*
%TO.P,ENC3,*%
%TO.N,*%
X180137500Y-92868750D03*
X191337500Y-92868750D03*
D17*
%TO.P,ENC3,A*%
%TO.N,enc3A*%
X188237500Y-85368750D03*
D18*
%TO.P,ENC3,B*%
%TO.N,enc3B*%
X183237500Y-85368750D03*
%TO.P,ENC3,C*%
%TO.N,GND*%
X185737500Y-85368750D03*
%TO.P,ENC3,S1*%
%TO.N,Net-(D23-Pad2)*%
X183237500Y-99868750D03*
%TO.P,ENC3,S2*%
%TO.N,col4*%
X188237500Y-99868750D03*
%TD*%
D19*
%TO.P,MX1,1*%
%TO.N,col0*%
X102452500Y-52228750D03*
%TO.P,MX1,2*%
%TO.N,Net-(D1-Pad2)*%
X115379500Y-49688750D03*
%TD*%
%TO.P,MX2,1*%
%TO.N,col1*%
X121502500Y-52228750D03*
%TO.P,MX2,2*%
%TO.N,Net-(D2-Pad2)*%
X134429500Y-49688750D03*
%TD*%
%TO.P,MX3,1*%
%TO.N,col2*%
X140552500Y-52228750D03*
%TO.P,MX3,2*%
%TO.N,Net-(D3-Pad2)*%
X153479500Y-49688750D03*
%TD*%
%TO.P,MX4,1*%
%TO.N,col3*%
X159602500Y-52228750D03*
%TO.P,MX4,2*%
%TO.N,Net-(D4-Pad2)*%
X172529500Y-49688750D03*
%TD*%
%TO.P,MX5,1*%
%TO.N,col0*%
X102452500Y-71278750D03*
%TO.P,MX5,2*%
%TO.N,Net-(D5-Pad2)*%
X115379500Y-68738750D03*
%TD*%
%TO.P,MX7,1*%
%TO.N,col2*%
X140552500Y-71278750D03*
%TO.P,MX7,2*%
%TO.N,Net-(D7-Pad2)*%
X153479500Y-68738750D03*
%TD*%
D20*
%TO.P,MX8,1*%
%TO.N,col3*%
X169227500Y-66733750D03*
%TO.P,MX8,2*%
%TO.N,Net-(D8-Pad2)*%
X171767500Y-79660750D03*
%TD*%
D19*
%TO.P,MX9,1*%
%TO.N,col0*%
X102452500Y-90328750D03*
%TO.P,MX9,2*%
%TO.N,Net-(D9-Pad2)*%
X115379500Y-87788750D03*
%TD*%
%TO.P,MX10,1*%
%TO.N,col1*%
X121502500Y-90328750D03*
%TO.P,MX10,2*%
%TO.N,Net-(D10-Pad2)*%
X134429500Y-87788750D03*
%TD*%
%TO.P,MX11,1*%
%TO.N,col2*%
X140552500Y-90328750D03*
%TO.P,MX11,2*%
%TO.N,Net-(D11-Pad2)*%
X153479500Y-87788750D03*
%TD*%
D20*
%TO.P,MX12,1*%
%TO.N,col3*%
X164147500Y-99953750D03*
%TO.P,MX12,2*%
%TO.N,Net-(D12-Pad2)*%
X161607500Y-87026750D03*
%TD*%
D19*
%TO.P,MX13,1*%
%TO.N,col0*%
X102452500Y-109378750D03*
%TO.P,MX13,2*%
%TO.N,Net-(D13-Pad2)*%
X115379500Y-106838750D03*
%TD*%
%TO.P,MX15,1*%
%TO.N,col2*%
X140552500Y-109378750D03*
%TO.P,MX15,2*%
%TO.N,Net-(D15-Pad2)*%
X153479500Y-106838750D03*
%TD*%
D20*
%TO.P,MX16,1*%
%TO.N,col3*%
X169227500Y-104833750D03*
%TO.P,MX16,2*%
%TO.N,Net-(D16-Pad2)*%
X171767500Y-117760750D03*
%TD*%
D19*
%TO.P,MX17,1*%
%TO.N,col0*%
X102452500Y-128428750D03*
%TO.P,MX17,2*%
%TO.N,Net-(D17-Pad2)*%
X115379500Y-125888750D03*
%TD*%
%TO.P,MX18,1*%
%TO.N,col1*%
X122745500Y-136048750D03*
%TO.P,MX18,2*%
%TO.N,Net-(D18-Pad2)*%
X135672500Y-133508750D03*
%TD*%
D20*
%TO.P,MX20,1*%
%TO.N,col3*%
X164147500Y-138053750D03*
%TO.P,MX20,2*%
%TO.N,Net-(D20-Pad2)*%
X161607500Y-125126750D03*
%TD*%
D19*
%TO.P,MX19,1*%
%TO.N,col2*%
X140552500Y-128428750D03*
%TO.P,MX19,2*%
%TO.N,Net-(D19-Pad2)*%
X153479500Y-125888750D03*
%TD*%
D20*
%TO.P,MX16-2u1,1*%
%TO.N,col3*%
X169227500Y-114358750D03*
%TO.P,MX16-2u1,2*%
%TO.N,Net-(D16-Pad2)*%
X171767500Y-127285750D03*
%TD*%
D19*
%TO.P,MX17-2u1,1*%
%TO.N,col0*%
X111977500Y-128428750D03*
%TO.P,MX17-2u1,2*%
%TO.N,Net-(D17-Pad2)*%
X124904500Y-125888750D03*
%TD*%
D20*
%TO.P,MX8-2u1,1*%
%TO.N,col3*%
X169227500Y-76258750D03*
%TO.P,MX8-2u1,2*%
%TO.N,Net-(D8-Pad2)*%
X171767500Y-89185750D03*
%TD*%
D19*
%TO.P,MX6,1*%
%TO.N,col1*%
X121502500Y-71278750D03*
%TO.P,MX6,2*%
%TO.N,Net-(D6-Pad2)*%
X134429500Y-68738750D03*
%TD*%
D11*
%TO.P,D13,1*%
%TO.N,row3*%
X118268750Y-104706250D03*
D10*
X118268750Y-103306250D03*
D12*
X118268750Y-102206250D03*
D13*
%TO.P,D13,2*%
%TO.N,Net-(D13-Pad2)*%
X118268750Y-96906250D03*
D12*
X118268750Y-99406250D03*
D10*
X118268750Y-98306250D03*
%TD*%
D19*
%TO.P,MX14,1*%
%TO.N,col1*%
X121502500Y-109378750D03*
%TO.P,MX14,2*%
%TO.N,Net-(D14-Pad2)*%
X134429500Y-106838750D03*
%TD*%
D11*
%TO.P,D24,1*%
%TO.N,row3*%
X177006250Y-108018750D03*
D12*
X177006250Y-110518750D03*
D10*
X177006250Y-109418750D03*
%TO.P,D24,2*%
%TO.N,Net-(D24-Pad2)*%
X177006250Y-114418750D03*
D12*
X177006250Y-113318750D03*
D13*
X177006250Y-115818750D03*
%TD*%
D16*
%TO.P,ENC4,*%
%TO.N,*%
X191337500Y-111918750D03*
X180137500Y-111918750D03*
D17*
%TO.P,ENC4,A*%
%TO.N,enc4A*%
X188237500Y-104418750D03*
D18*
%TO.P,ENC4,B*%
%TO.N,enc4B*%
X183237500Y-104418750D03*
%TO.P,ENC4,C*%
%TO.N,GND*%
X185737500Y-104418750D03*
%TO.P,ENC4,S1*%
%TO.N,Net-(D24-Pad2)*%
X183237500Y-118918750D03*
%TO.P,ENC4,S2*%
%TO.N,col4*%
X188237500Y-118918750D03*
%TD*%
D12*
%TO.P,D21,1*%
%TO.N,row0*%
X175260000Y-58169000D03*
D11*
X175260000Y-60669000D03*
D10*
X175260000Y-59269000D03*
D13*
%TO.P,D21,2*%
%TO.N,Net-(D21-Pad2)*%
X175260000Y-52869000D03*
D12*
X175260000Y-55369000D03*
D10*
X175260000Y-54269000D03*
%TD*%
D12*
%TO.P,D23,1*%
%TO.N,row2*%
X177006250Y-94643750D03*
D10*
X177006250Y-93543750D03*
D11*
X177006250Y-92143750D03*
D10*
%TO.P,D23,2*%
%TO.N,Net-(D23-Pad2)*%
X177006250Y-98543750D03*
D13*
X177006250Y-99943750D03*
D12*
X177006250Y-97443750D03*
%TD*%
D18*
%TO.P,RESET1,1*%
%TO.N,GND*%
X185686097Y-126352903D03*
%TO.P,RESET1,2*%
%TO.N,reset*%
X181089903Y-130949097D03*
%TD*%
D11*
%TO.P,D14,1*%
%TO.N,row3*%
X124700000Y-101600000D03*
D14*
X126100000Y-101600000D03*
D15*
X127200000Y-101600000D03*
%TO.P,D14,2*%
%TO.N,Net-(D14-Pad2)*%
X130000000Y-101600000D03*
D14*
X131100000Y-101600000D03*
D13*
X132500000Y-101600000D03*
%TD*%
D21*
%TO.P,U1,1*%
%TO.N,enc1A*%
X193348900Y-49149000D03*
%TO.P,U1,2*%
%TO.N,enc1B*%
X193348900Y-51689000D03*
%TO.P,U1,3*%
%TO.N,GND*%
X193348900Y-54229000D03*
%TO.P,U1,4*%
X193348900Y-56769000D03*
%TO.P,U1,5*%
%TO.N,enc2B*%
X193348900Y-59309000D03*
%TO.P,U1,6*%
%TO.N,enc2A*%
X193348900Y-61849000D03*
%TO.P,U1,7*%
%TO.N,enc3B*%
X193348900Y-64389000D03*
%TO.P,U1,8*%
%TO.N,enc3A*%
X193348900Y-66929000D03*
%TO.P,U1,9*%
%TO.N,enc4B*%
X193348900Y-69469000D03*
%TO.P,U1,10*%
%TO.N,enc4A*%
X193348900Y-72009000D03*
%TO.P,U1,11*%
%TO.N,col4*%
X193348900Y-74549000D03*
%TO.P,U1,12*%
%TO.N,row4*%
X193348900Y-77089000D03*
%TO.P,U1,13*%
%TO.N,row1*%
X178128900Y-77089000D03*
%TO.P,U1,14*%
%TO.N,row2*%
X178128900Y-74549000D03*
%TO.P,U1,15*%
%TO.N,row3*%
X178128900Y-72009000D03*
%TO.P,U1,16*%
%TO.N,col3*%
X178128900Y-69469000D03*
%TO.P,U1,17*%
%TO.N,col2*%
X178128900Y-66929000D03*
%TO.P,U1,18*%
%TO.N,col1*%
X178128900Y-64389000D03*
%TO.P,U1,19*%
%TO.N,col0*%
X178128900Y-61849000D03*
%TO.P,U1,20*%
%TO.N,row0*%
X178128900Y-59309000D03*
%TO.P,U1,21*%
%TO.N,vcc*%
X178128900Y-56769000D03*
%TO.P,U1,22*%
%TO.N,reset*%
X178128900Y-54229000D03*
%TO.P,U1,23*%
%TO.N,GND*%
X178128900Y-51689000D03*
%TO.P,U1,24*%
%TO.N,Net-(U1-Pad24)*%
X178128900Y-49149000D03*
%TD*%
D17*
%TO.P,ENC1,A*%
%TO.N,enc1A*%
X188237500Y-47268750D03*
D18*
%TO.P,ENC1,B*%
%TO.N,enc1B*%
X183237500Y-47268750D03*
%TO.P,ENC1,C*%
%TO.N,GND*%
X185737500Y-47268750D03*
%TO.P,ENC1,S1*%
%TO.N,Net-(D21-Pad2)*%
X183237500Y-61768750D03*
%TO.P,ENC1,S2*%
%TO.N,col4*%
X188237500Y-61768750D03*
%TD*%
D12*
%TO.P,D20,1*%
%TO.N,row4*%
X157100000Y-120600000D03*
D11*
X157100000Y-123100000D03*
D10*
X157100000Y-121700000D03*
%TO.P,D20,2*%
%TO.N,Net-(D20-Pad2)*%
X157100000Y-116700000D03*
D12*
X157100000Y-117800000D03*
D13*
X157100000Y-115300000D03*
%TD*%
D14*
%TO.P,D19,1*%
%TO.N,row4*%
X145200000Y-120600000D03*
D11*
X143800000Y-120600000D03*
D15*
X146300000Y-120600000D03*
D14*
%TO.P,D19,2*%
%TO.N,Net-(D19-Pad2)*%
X150200000Y-120600000D03*
D13*
X151600000Y-120600000D03*
D15*
X149100000Y-120600000D03*
%TD*%
D11*
%TO.P,D16,1*%
%TO.N,row3*%
X172312500Y-103187500D03*
D15*
X174812500Y-103187500D03*
D14*
X173712500Y-103187500D03*
D15*
%TO.P,D16,2*%
%TO.N,Net-(D16-Pad2)*%
X177612500Y-103187500D03*
D14*
X178712500Y-103187500D03*
D13*
X180112500Y-103187500D03*
%TD*%
D17*
%TO.P,ENC2,A*%
%TO.N,enc2A*%
X188237500Y-66318750D03*
D18*
%TO.P,ENC2,B*%
%TO.N,enc2B*%
X183237500Y-66318750D03*
%TO.P,ENC2,C*%
%TO.N,GND*%
X185737500Y-66318750D03*
%TO.P,ENC2,S1*%
%TO.N,Net-(D22-Pad2)*%
X183237500Y-80818750D03*
%TO.P,ENC2,S2*%
%TO.N,col4*%
X188237500Y-80818750D03*
%TD*%
D22*
%TO.N,Net-(D15-Pad2)*%
X151100000Y-104200000D03*
%TO.N,col0*%
X102489038Y-66548000D03*
%TO.N,col1*%
X121500000Y-67400000D03*
%TO.N,col2*%
X140552500Y-67000000D03*
%TD*%
D23*
%TO.N,Net-(D1-Pad2)*%
X115501250Y-49688750D02*
X118268750Y-52456250D01*
%TO.N,Net-(D2-Pad2)*%
X134551250Y-49688750D02*
X137318750Y-52456250D01*
%TO.N,Net-(D3-Pad2)*%
X153601250Y-49688750D02*
X156368750Y-52456250D01*
%TO.N,Net-(D4-Pad2)*%
X170300000Y-53100000D02*
X170300000Y-62387500D01*
X170300000Y-62387500D02*
X169187500Y-63500000D01*
X172529500Y-50870500D02*
X170300000Y-53100000D01*
X172529500Y-49688750D02*
X172529500Y-50870500D01*
%TO.N,row2*%
X177006250Y-92143750D02*
X177006250Y-90963750D01*
X179705000Y-88265000D02*
X179705000Y-76125100D01*
X177006250Y-90963750D02*
X179705000Y-88265000D01*
X179705000Y-76125100D02*
X178128900Y-74549000D01*
%TO.N,Net-(D5-Pad2)*%
X115501250Y-68738750D02*
X118268750Y-71506250D01*
%TO.N,Net-(D6-Pad2)*%
X134551250Y-68738750D02*
X137318750Y-71506250D01*
%TO.N,Net-(D7-Pad2)*%
X153479500Y-69913500D02*
X151257000Y-72136000D01*
X151257000Y-72136000D02*
X151257000Y-81430500D01*
X153479500Y-68738750D02*
X153479500Y-69913500D01*
X151257000Y-81430500D02*
X150137500Y-82550000D01*
%TO.N,Net-(D8-Pad2)*%
X162900000Y-77000000D02*
X166400000Y-80500000D01*
X169672000Y-87090250D02*
X171767500Y-89185750D01*
X169672000Y-82296000D02*
X169672000Y-87090250D01*
X168100000Y-81400000D02*
X168776000Y-81400000D01*
X157900000Y-77000000D02*
X162900000Y-77000000D01*
X167200000Y-80500000D02*
X168100000Y-81400000D01*
X166400000Y-80500000D02*
X167200000Y-80500000D01*
X169672000Y-82296000D02*
X171767500Y-80200500D01*
X168776000Y-81400000D02*
X169672000Y-82296000D01*
%TO.N,row3*%
X177006250Y-108018750D02*
X175521501Y-106534001D01*
X175521501Y-106534001D02*
X175521501Y-74414499D01*
X175521501Y-74414499D02*
X177927000Y-72009000D01*
%TO.N,Net-(D9-Pad2)*%
X115379500Y-87788750D02*
X116880000Y-87788750D01*
X116880000Y-87788750D02*
X118268750Y-86400000D01*
%TO.N,Net-(D10-Pad2)*%
X134551250Y-87788750D02*
X137318750Y-90556250D01*
%TO.N,Net-(D11-Pad2)*%
X153479500Y-89090500D02*
X150700000Y-91870000D01*
X150700000Y-91870000D02*
X150700000Y-98310000D01*
X150700000Y-98310000D02*
X147410000Y-101600000D01*
X153479500Y-87788750D02*
X153479500Y-89090500D01*
%TO.N,Net-(D12-Pad2)*%
X158900000Y-91345000D02*
X161300000Y-93745000D01*
X161300000Y-100410000D02*
X160110000Y-101600000D01*
X160973250Y-87026750D02*
X158900000Y-89100000D01*
X158900000Y-89100000D02*
X158900000Y-91345000D01*
X161300000Y-93745000D02*
X161300000Y-100410000D01*
%TO.N,Net-(D13-Pad2)*%
X115379500Y-101195500D02*
X118268750Y-98306250D01*
X115379500Y-106838750D02*
X115379500Y-101195500D01*
%TO.N,Net-(D14-Pad2)*%
X134429500Y-103529500D02*
X132500000Y-101600000D01*
X134429500Y-106838750D02*
X134429500Y-103529500D01*
%TO.N,Net-(D15-Pad2)*%
X151100000Y-104200000D02*
X153479500Y-106579500D01*
X153479500Y-106579500D02*
X153479500Y-106838750D01*
%TO.N,Net-(D16-Pad2)*%
X178593750Y-104706250D02*
X180112500Y-103187500D01*
X171767500Y-117760750D02*
X177514250Y-117760750D01*
X171767500Y-127285750D02*
X173736000Y-125317250D01*
X177514250Y-117760750D02*
X178593750Y-116681250D01*
X173736000Y-125317250D02*
X173736000Y-119729250D01*
X178593750Y-116681250D02*
X178593750Y-104706250D01*
X173736000Y-119729250D02*
X171767500Y-117760750D01*
%TO.N,Net-(D17-Pad2)*%
X115728750Y-125888750D02*
X117983000Y-128143000D01*
X117983000Y-128143000D02*
X122650250Y-128143000D01*
X115817501Y-125450749D02*
X115817501Y-112663749D01*
X122650250Y-128143000D02*
X124904500Y-125888750D01*
X115817501Y-112663749D02*
X118268750Y-110212500D01*
%TO.N,Net-(D18-Pad2)*%
X135100000Y-125925000D02*
X137318750Y-123706250D01*
X135100000Y-132777500D02*
X135100000Y-125925000D01*
%TO.N,Net-(D19-Pad2)*%
X153479500Y-125888750D02*
X153479500Y-122479500D01*
X153479500Y-122479500D02*
X151600000Y-120600000D01*
%TO.N,Net-(D20-Pad2)*%
X161607500Y-125126750D02*
X161607500Y-119807500D01*
X161607500Y-119807500D02*
X157100000Y-115300000D01*
%TO.N,Net-(D21-Pad2)*%
X182880000Y-56896000D02*
X178943000Y-52959000D01*
X182880000Y-61411250D02*
X182880000Y-56896000D01*
X178943000Y-52959000D02*
X175350000Y-52959000D01*
%TO.N,enc1A*%
X191468650Y-47268750D02*
X193348900Y-49149000D01*
X188237500Y-47268750D02*
X191468650Y-47268750D01*
D24*
%TO.N,GND*%
X181317250Y-51689000D02*
X185737500Y-47268750D01*
X185686097Y-126352903D02*
X185686097Y-125463903D01*
X185737500Y-66318750D02*
X185737500Y-85368750D01*
X178128900Y-51689000D02*
X181317250Y-51689000D01*
X185686097Y-125463903D02*
X185737500Y-125412500D01*
X193348900Y-56769000D02*
X193348900Y-54229000D01*
X185737500Y-104418750D02*
X185737500Y-125412500D01*
X185737500Y-85368750D02*
X185737500Y-104418750D01*
X185737500Y-66318750D02*
X185737500Y-47268750D01*
D23*
%TO.N,col0*%
X102452500Y-90328750D02*
X102452500Y-109378750D01*
X108870750Y-128428750D02*
X106680000Y-126238000D01*
X106680000Y-126238000D02*
X104643250Y-126238000D01*
X102452500Y-52228750D02*
X102452500Y-90328750D01*
X111977500Y-128428750D02*
X108870750Y-128428750D01*
X104643250Y-126238000D02*
X102452500Y-128428750D01*
X102452500Y-109378750D02*
X102452500Y-128428750D01*
%TO.N,col1*%
X122745500Y-136048750D02*
X125857000Y-132937250D01*
X121502500Y-111689752D02*
X121502500Y-109378750D01*
X121502500Y-109378750D02*
X121502500Y-90328750D01*
X121502500Y-52228750D02*
X121502500Y-71278750D01*
X127254000Y-117441252D02*
X121502500Y-111689752D01*
X125857000Y-132937250D02*
X125857000Y-128905000D01*
X127254000Y-127508000D02*
X127254000Y-117441252D01*
X125857000Y-128905000D02*
X127254000Y-127508000D01*
X121502500Y-90328750D02*
X121502500Y-71278750D01*
%TO.N,col2*%
X137900000Y-100600000D02*
X137900000Y-106726250D01*
X140552500Y-71278750D02*
X140552500Y-67000000D01*
X140552500Y-71278750D02*
X140552500Y-90328750D01*
X140552500Y-52228750D02*
X140552500Y-67000000D01*
X140552500Y-97947500D02*
X137900000Y-100600000D01*
X140552500Y-90328750D02*
X140552500Y-97947500D01*
X137900000Y-106726250D02*
X140552500Y-109378750D01*
X140552500Y-109378750D02*
X140552500Y-128428750D01*
%TO.N,col3*%
X171196000Y-94107000D02*
X174752000Y-90551000D01*
X163957000Y-116332000D02*
X163957000Y-131572000D01*
X160337504Y-65881252D02*
X160337500Y-65881256D01*
X166846250Y-99953750D02*
X171196000Y-95604000D01*
X165481000Y-114808000D02*
X163957000Y-116332000D01*
X171962750Y-69469000D02*
X178128900Y-69469000D01*
X171450000Y-72771000D02*
X171450000Y-70104000D01*
X164147500Y-99953750D02*
X166846250Y-99953750D01*
X169227500Y-102427500D02*
X166753750Y-99953750D01*
X171962750Y-69469000D02*
X169227500Y-66733750D01*
X169545000Y-75941250D02*
X169545000Y-74676000D01*
X168778250Y-114808000D02*
X165481000Y-114808000D01*
X171450000Y-70104000D02*
X172085000Y-69469000D01*
X161924994Y-67468750D02*
X160337500Y-65881256D01*
X169227500Y-113072500D02*
X171450000Y-110850000D01*
X163957000Y-131572000D02*
X162052000Y-133477000D01*
X162052000Y-135958250D02*
X164147500Y-138053750D01*
X174752000Y-74168000D02*
X176530000Y-72390000D01*
X160337504Y-54463754D02*
X160337504Y-65881252D01*
X168492500Y-67468750D02*
X161924994Y-67468750D01*
X162052000Y-133477000D02*
X162052000Y-135958250D01*
X174752000Y-90551000D02*
X174752000Y-74168000D01*
X169227500Y-104833750D02*
X169227500Y-102427500D01*
X171450000Y-107056250D02*
X169227500Y-104833750D01*
X169545000Y-74676000D02*
X171450000Y-72771000D01*
X159602500Y-53728750D02*
X160337504Y-54463754D01*
X171450000Y-110850000D02*
X171450000Y-107056250D01*
X171196000Y-95604000D02*
X171196000Y-94107000D01*
X176530000Y-72390000D02*
X176530000Y-71067900D01*
X159602500Y-52228750D02*
X159602500Y-53728750D01*
X176530000Y-71067900D02*
X178128900Y-69469000D01*
X169227500Y-113853125D02*
X169227500Y-113072500D01*
%TO.N,reset*%
X181089903Y-130949097D02*
X181708902Y-130330098D01*
X181708902Y-57809002D02*
X178128900Y-54229000D01*
X181708902Y-130330098D02*
X181708902Y-57809002D01*
%TO.N,col4*%
X189800000Y-101431250D02*
X188237500Y-99868750D01*
X188237500Y-79660400D02*
X193348900Y-74549000D01*
X189800000Y-98306250D02*
X189800000Y-82381250D01*
X188237500Y-80818750D02*
X188237500Y-79660400D01*
X191000000Y-64531250D02*
X191000000Y-72200100D01*
X188237500Y-61768750D02*
X191000000Y-64531250D01*
X189800000Y-117356250D02*
X189800000Y-101431250D01*
X188237500Y-99868750D02*
X189800000Y-98306250D01*
X188237500Y-118918750D02*
X189800000Y-117356250D01*
X189800000Y-82381250D02*
X188237500Y-80818750D01*
X191000000Y-72200100D02*
X193348900Y-74549000D01*
%TD*%
M02*
