%TF.GenerationSoftware,KiCad,Pcbnew,(5.99.0-12610-g07e01e6297)*%
%TF.CreationDate,2021-11-07T16:56:22+00:00*%
%TF.ProjectId,Envoy,456e766f-792e-46b6-9963-61645f706362,rev?*%
%TF.SameCoordinates,Original*%
%TF.FileFunction,Soldermask,Bot*%
%TF.FilePolarity,Negative*%
%FSLAX46Y46*%
G04 Gerber Fmt 4.6, Leading zero omitted, Abs format (unit mm)*
G04 Created by KiCad (PCBNEW (5.99.0-12610-g07e01e6297)) date 2021-11-07 16:56:22*
%MOMM*%
%LPD*%
G01*
G04 APERTURE LIST*
%ADD10C,0.200000*%
%ADD11R,1.600000X1.200000*%
%ADD12R,1.600000X1.600000*%
%ADD13C,1.600000*%
%ADD14R,1.200000X1.600000*%
%ADD15R,2.000000X3.200000*%
%ADD16R,2.000000X2.000000*%
%ADD17C,2.000000*%
%ADD18C,1.750000*%
%ADD19C,3.987800*%
%ADD20C,3.000000*%
%ADD21R,2.550000X2.500000*%
%ADD22O,1.750000X2.380000*%
%ADD23R,2.500000X2.550000*%
%ADD24O,2.380000X1.750000*%
%ADD25C,3.048000*%
%ADD26C,1.524000*%
%ADD27C,2.500000*%
G04 APERTURE END LIST*
D10*
X181781000Y-144018571D02*
X181447666Y-144018571D01*
X181304809Y-144542380D02*
X181781000Y-144542380D01*
X181781000Y-143542380D01*
X181304809Y-143542380D01*
X180876238Y-143875714D02*
X180876238Y-144542380D01*
X180876238Y-143970952D02*
X180828619Y-143923333D01*
X180733380Y-143875714D01*
X180590523Y-143875714D01*
X180495285Y-143923333D01*
X180447666Y-144018571D01*
X180447666Y-144542380D01*
X180066714Y-143875714D02*
X179828619Y-144542380D01*
X179590523Y-143875714D01*
X179066714Y-144542380D02*
X179161952Y-144494761D01*
X179209571Y-144447142D01*
X179257190Y-144351904D01*
X179257190Y-144066190D01*
X179209571Y-143970952D01*
X179161952Y-143923333D01*
X179066714Y-143875714D01*
X178923857Y-143875714D01*
X178828619Y-143923333D01*
X178781000Y-143970952D01*
X178733380Y-144066190D01*
X178733380Y-144351904D01*
X178781000Y-144447142D01*
X178828619Y-144494761D01*
X178923857Y-144542380D01*
X179066714Y-144542380D01*
X178400047Y-143875714D02*
X178161952Y-144542380D01*
X177923857Y-143875714D02*
X178161952Y-144542380D01*
X178257190Y-144780476D01*
X178304809Y-144828095D01*
X178400047Y-144875714D01*
X184352428Y-146152380D02*
X184352428Y-145152380D01*
X184352428Y-145533333D02*
X184257190Y-145485714D01*
X184066714Y-145485714D01*
X183971476Y-145533333D01*
X183923857Y-145580952D01*
X183876238Y-145676190D01*
X183876238Y-145961904D01*
X183923857Y-146057142D01*
X183971476Y-146104761D01*
X184066714Y-146152380D01*
X184257190Y-146152380D01*
X184352428Y-146104761D01*
X183542904Y-145485714D02*
X183304809Y-146152380D01*
X183066714Y-145485714D02*
X183304809Y-146152380D01*
X183400047Y-146390476D01*
X183447666Y-146438095D01*
X183542904Y-146485714D01*
X181638142Y-145152380D02*
X181638142Y-145866666D01*
X181685761Y-146009523D01*
X181781000Y-146104761D01*
X181923857Y-146152380D01*
X182019095Y-146152380D01*
X180781000Y-146104761D02*
X180876238Y-146152380D01*
X181066714Y-146152380D01*
X181161952Y-146104761D01*
X181209571Y-146009523D01*
X181209571Y-145628571D01*
X181161952Y-145533333D01*
X181066714Y-145485714D01*
X180876238Y-145485714D01*
X180781000Y-145533333D01*
X180733380Y-145628571D01*
X180733380Y-145723809D01*
X181209571Y-145819047D01*
X180019095Y-145152380D02*
X180019095Y-145866666D01*
X180066714Y-146009523D01*
X180161952Y-146104761D01*
X180304809Y-146152380D01*
X180400047Y-146152380D01*
X179161952Y-146104761D02*
X179257190Y-146152380D01*
X179447666Y-146152380D01*
X179542904Y-146104761D01*
X179590523Y-146009523D01*
X179590523Y-145628571D01*
X179542904Y-145533333D01*
X179447666Y-145485714D01*
X179257190Y-145485714D01*
X179161952Y-145533333D01*
X179114333Y-145628571D01*
X179114333Y-145723809D01*
X179590523Y-145819047D01*
X178828619Y-145485714D02*
X178447666Y-145485714D01*
X178685761Y-146152380D02*
X178685761Y-145295238D01*
X178638142Y-145200000D01*
X178542904Y-145152380D01*
X178447666Y-145152380D01*
X178257190Y-145485714D02*
X177876238Y-145485714D01*
X178114333Y-146152380D02*
X178114333Y-145295238D01*
X178066714Y-145200000D01*
X177971476Y-145152380D01*
X177876238Y-145152380D01*
X182923857Y-147762380D02*
X182923857Y-147095714D01*
X182923857Y-147286190D02*
X182876238Y-147190952D01*
X182828619Y-147143333D01*
X182733380Y-147095714D01*
X182638142Y-147095714D01*
X181923857Y-147714761D02*
X182019095Y-147762380D01*
X182209571Y-147762380D01*
X182304809Y-147714761D01*
X182352428Y-147619523D01*
X182352428Y-147238571D01*
X182304809Y-147143333D01*
X182209571Y-147095714D01*
X182019095Y-147095714D01*
X181923857Y-147143333D01*
X181876238Y-147238571D01*
X181876238Y-147333809D01*
X182352428Y-147429047D01*
X181542904Y-147095714D02*
X181304809Y-147762380D01*
X181066714Y-147095714D01*
X179733380Y-146762380D02*
X179638142Y-146762380D01*
X179542904Y-146810000D01*
X179495285Y-146857619D01*
X179447666Y-146952857D01*
X179400047Y-147143333D01*
X179400047Y-147381428D01*
X179447666Y-147571904D01*
X179495285Y-147667142D01*
X179542904Y-147714761D01*
X179638142Y-147762380D01*
X179733380Y-147762380D01*
X179828619Y-147714761D01*
X179876238Y-147667142D01*
X179923857Y-147571904D01*
X179971476Y-147381428D01*
X179971476Y-147143333D01*
X179923857Y-146952857D01*
X179876238Y-146857619D01*
X179828619Y-146810000D01*
X179733380Y-146762380D01*
X178971476Y-147667142D02*
X178923857Y-147714761D01*
X178971476Y-147762380D01*
X179019095Y-147714761D01*
X178971476Y-147667142D01*
X178971476Y-147762380D01*
X178542904Y-146857619D02*
X178495285Y-146810000D01*
X178400047Y-146762380D01*
X178161952Y-146762380D01*
X178066714Y-146810000D01*
X178019095Y-146857619D01*
X177971476Y-146952857D01*
X177971476Y-147048095D01*
X178019095Y-147190952D01*
X178590523Y-147762380D01*
X177971476Y-147762380D01*
D11*
%TO.C,D1*%
X110200000Y-73300000D03*
D12*
X107700000Y-73300000D03*
D13*
X115500000Y-73300000D03*
D11*
X113000000Y-73300000D03*
%TD*%
D12*
%TO.C,D2*%
X124200000Y-73300000D03*
D11*
X126700000Y-73300000D03*
X129500000Y-73300000D03*
D13*
X132000000Y-73300000D03*
%TD*%
D12*
%TO.C,D3*%
X143251000Y-73300000D03*
D11*
X145751000Y-73300000D03*
D13*
X151051000Y-73300000D03*
D11*
X148551000Y-73300000D03*
%TD*%
D12*
%TO.C,D4*%
X162775000Y-73300000D03*
D11*
X165275000Y-73300000D03*
X168075000Y-73300000D03*
D13*
X170575000Y-73300000D03*
%TD*%
D12*
%TO.C,D5*%
X105100000Y-92400000D03*
D11*
X107600000Y-92400000D03*
X110400000Y-92400000D03*
D13*
X112900000Y-92400000D03*
%TD*%
D12*
%TO.C,D6*%
X124200000Y-92300000D03*
D11*
X126700000Y-92300000D03*
X129500000Y-92300000D03*
D13*
X132000000Y-92300000D03*
%TD*%
D12*
%TO.C,D7*%
X140713500Y-92300000D03*
D11*
X143213500Y-92300000D03*
X146013500Y-92300000D03*
D13*
X148513500Y-92300000D03*
%TD*%
D11*
%TO.C,D8*%
X155813500Y-92443750D03*
D12*
X153313500Y-92443750D03*
D11*
X158613500Y-92443750D03*
D13*
X161113500Y-92443750D03*
%TD*%
D11*
%TO.C,D9*%
X107550000Y-111400000D03*
D12*
X105050000Y-111400000D03*
D13*
X112850000Y-111400000D03*
D11*
X110350000Y-111400000D03*
%TD*%
%TO.C,D10*%
X126600000Y-111400000D03*
D12*
X124100000Y-111400000D03*
D13*
X131900000Y-111400000D03*
D11*
X129400000Y-111400000D03*
%TD*%
D12*
%TO.C,D11*%
X140200000Y-111400000D03*
D11*
X142700000Y-111400000D03*
X145500000Y-111400000D03*
D13*
X148000000Y-111400000D03*
%TD*%
D11*
%TO.C,D12*%
X154900000Y-111400000D03*
D12*
X152400000Y-111400000D03*
D13*
X160200000Y-111400000D03*
D11*
X157700000Y-111400000D03*
%TD*%
D12*
%TO.C,D15*%
X142700000Y-113993750D03*
D11*
X145200000Y-113993750D03*
D13*
X150500000Y-113993750D03*
D11*
X148000000Y-113993750D03*
%TD*%
D14*
%TO.C,D17*%
X136863500Y-125143750D03*
D12*
X136863500Y-122643750D03*
D14*
X136863500Y-127943750D03*
D13*
X136863500Y-130443750D03*
%TD*%
D14*
%TO.C,D18*%
X139463500Y-130343750D03*
D12*
X139463500Y-127843750D03*
D13*
X139463500Y-135643750D03*
D14*
X139463500Y-133143750D03*
%TD*%
%TO.C,D22*%
X178600000Y-93831250D03*
D12*
X178600000Y-91331250D03*
D14*
X178600000Y-96631250D03*
D13*
X178600000Y-99131250D03*
%TD*%
D15*
%TO.C,ENC3*%
X180188500Y-103168750D03*
X191388500Y-103168750D03*
D16*
X188288500Y-95668750D03*
D17*
X183288500Y-95668750D03*
X185788500Y-95668750D03*
X183288500Y-110168750D03*
X188288500Y-110168750D03*
%TD*%
D18*
%TO.C,MX1*%
X104508500Y-65068750D03*
D19*
X109588500Y-65068750D03*
D20*
X105778500Y-62528750D03*
D18*
X114668500Y-65068750D03*
D20*
X112128500Y-59988750D03*
D21*
X102503500Y-62528750D03*
X115430500Y-59988750D03*
%TD*%
D18*
%TO.C,MX2*%
X123558500Y-65068750D03*
D20*
X124828500Y-62528750D03*
D18*
X133718500Y-65068750D03*
D19*
X128638500Y-65068750D03*
D20*
X131178500Y-59988750D03*
D21*
X121553500Y-62528750D03*
X134480500Y-59988750D03*
%TD*%
D19*
%TO.C,MX3*%
X147688500Y-65068750D03*
D18*
X142608500Y-65068750D03*
D20*
X150228500Y-59988750D03*
D18*
X152768500Y-65068750D03*
D20*
X143878500Y-62528750D03*
D21*
X140603500Y-62528750D03*
X153530500Y-59988750D03*
%TD*%
D18*
%TO.C,MX4*%
X161658500Y-65068750D03*
D20*
X162928500Y-62528750D03*
D18*
X171818500Y-65068750D03*
D19*
X166738500Y-65068750D03*
D20*
X169278500Y-59988750D03*
D21*
X172580500Y-59988750D03*
X159653500Y-62528750D03*
%TD*%
%TO.C,MX5*%
X115430500Y-79038750D03*
X102503500Y-81578750D03*
D19*
X109588500Y-84118750D03*
D20*
X105778500Y-81578750D03*
X112128500Y-79038750D03*
D18*
X104508500Y-84118750D03*
X114668500Y-84118750D03*
%TD*%
D20*
%TO.C,MX7*%
X143878500Y-81578750D03*
D18*
X142608500Y-84118750D03*
D20*
X150228500Y-79038750D03*
D18*
X152768500Y-84118750D03*
D19*
X147688500Y-84118750D03*
D21*
X140603500Y-81578750D03*
X153530500Y-79038750D03*
%TD*%
D20*
%TO.C,MX8*%
X169278500Y-80308750D03*
X171818500Y-86658750D03*
D19*
X166738500Y-84118750D03*
D18*
X166738500Y-79038750D03*
D22*
X166738500Y-88883750D03*
D23*
X171818500Y-89960750D03*
X169278500Y-77033750D03*
%TD*%
D19*
%TO.C,MX9*%
X109588500Y-103168750D03*
D18*
X104508500Y-103168750D03*
X114668500Y-103168750D03*
D20*
X112128500Y-98088750D03*
X105778500Y-100628750D03*
D21*
X102503500Y-100628750D03*
X115430500Y-98088750D03*
%TD*%
D18*
%TO.C,MX10*%
X133718500Y-103168750D03*
D20*
X124828500Y-100628750D03*
X131178500Y-98088750D03*
D18*
X123558500Y-103168750D03*
D19*
X128638500Y-103168750D03*
D21*
X121553500Y-100628750D03*
X134480500Y-98088750D03*
%TD*%
D19*
%TO.C,MX11*%
X147688500Y-103168750D03*
D20*
X143878500Y-100628750D03*
D18*
X142608500Y-103168750D03*
D20*
X150228500Y-98088750D03*
D18*
X152768500Y-103168750D03*
D21*
X140603500Y-100628750D03*
X153530500Y-98088750D03*
%TD*%
D18*
%TO.C,MX12*%
X166738500Y-108248750D03*
D20*
X164198500Y-106978750D03*
D22*
X166738500Y-98403750D03*
D20*
X161658500Y-100628750D03*
D19*
X166738500Y-103168750D03*
D23*
X164198500Y-110253750D03*
X161658500Y-97326750D03*
%TD*%
D20*
%TO.C,MX13*%
X105778500Y-119678750D03*
D18*
X114668500Y-122218750D03*
X104508500Y-122218750D03*
D20*
X112128500Y-117138750D03*
D19*
X109588500Y-122218750D03*
D21*
X102503500Y-119678750D03*
X115430500Y-117138750D03*
%TD*%
D20*
%TO.C,MX15*%
X143878500Y-119678750D03*
D18*
X152768500Y-122218750D03*
X142608500Y-122218750D03*
D20*
X150228500Y-117138750D03*
D19*
X147688500Y-122218750D03*
D21*
X140603500Y-119678750D03*
X153530500Y-117138750D03*
%TD*%
D19*
%TO.C,MX16*%
X166738500Y-122218750D03*
D20*
X169278500Y-118408750D03*
X171818500Y-124758750D03*
D22*
X166738500Y-126983750D03*
D18*
X166738500Y-117138750D03*
D23*
X171818500Y-128060750D03*
X169278500Y-115133750D03*
%TD*%
D20*
%TO.C,MX17*%
X105778500Y-138728750D03*
D24*
X114353500Y-141268750D03*
D19*
X109588500Y-141268750D03*
D18*
X104508500Y-141268750D03*
D20*
X112128500Y-136188750D03*
D21*
X102503500Y-138728750D03*
X115430500Y-136188750D03*
%TD*%
D18*
%TO.C,MX18*%
X133718500Y-141268750D03*
D20*
X126098500Y-146348750D03*
X132448500Y-143808750D03*
D19*
X128638500Y-141268750D03*
D24*
X123873500Y-141268750D03*
D21*
X122796500Y-146348750D03*
X135723500Y-143808750D03*
%TD*%
D22*
%TO.C,MX20*%
X166738500Y-136503750D03*
D20*
X161658500Y-138728750D03*
X164198500Y-145078750D03*
D18*
X166738500Y-146348750D03*
D19*
X166738500Y-141268750D03*
D23*
X161658500Y-135426750D03*
X164198500Y-148353750D03*
%TD*%
D20*
%TO.C,MX19*%
X143878500Y-138728750D03*
D18*
X142608500Y-141268750D03*
D20*
X150228500Y-136188750D03*
D19*
X147688500Y-141268750D03*
D18*
X152768500Y-141268750D03*
D21*
X140603500Y-138728750D03*
X153530500Y-136188750D03*
%TD*%
D25*
%TO.C,MX16-2u1*%
X173723500Y-119805750D03*
X173723500Y-143681750D03*
D19*
X158483500Y-119805750D03*
X166738500Y-131743750D03*
X158483500Y-143681750D03*
D20*
X169278500Y-127933750D03*
X171818500Y-134283750D03*
D23*
X169278500Y-124658750D03*
X171818500Y-137585750D03*
%TD*%
D25*
%TO.C,MX17-2u1*%
X131051500Y-148253750D03*
X107175500Y-148253750D03*
D19*
X131051500Y-133013750D03*
D20*
X115303500Y-138728750D03*
X121653500Y-136188750D03*
D19*
X119113500Y-141268750D03*
X107175500Y-133013750D03*
D21*
X112028500Y-138728750D03*
X124955500Y-136188750D03*
%TD*%
D20*
%TO.C,MX8-2u1*%
X169278500Y-89833750D03*
D25*
X173723500Y-81705750D03*
D20*
X171818500Y-96183750D03*
D19*
X158483500Y-105581750D03*
D25*
X173723500Y-105581750D03*
D19*
X158483500Y-81705750D03*
X166738500Y-93643750D03*
D23*
X169278500Y-86558750D03*
X171818500Y-99485750D03*
%TD*%
D20*
%TO.C,MX6*%
X124828500Y-81578750D03*
X131178500Y-79038750D03*
D18*
X133718500Y-84118750D03*
X123558500Y-84118750D03*
D19*
X128638500Y-84118750D03*
D21*
X121553500Y-81578750D03*
X134480500Y-79038750D03*
%TD*%
D12*
%TO.C,D13*%
X107600000Y-113993750D03*
D11*
X110100000Y-113993750D03*
X112900000Y-113993750D03*
D13*
X115400000Y-113993750D03*
%TD*%
D20*
%TO.C,MX14*%
X124828500Y-119678750D03*
X131178500Y-117138750D03*
D18*
X133718500Y-122218750D03*
D19*
X128638500Y-122218750D03*
D18*
X123558500Y-122218750D03*
D21*
X121553500Y-119678750D03*
X134480500Y-117138750D03*
%TD*%
D12*
%TO.C,D24*%
X178600000Y-108800000D03*
D14*
X178600000Y-111300000D03*
X178600000Y-114100000D03*
D13*
X178600000Y-116600000D03*
%TD*%
D15*
%TO.C,ENC4*%
X191388500Y-122218750D03*
X180188500Y-122218750D03*
D16*
X188288500Y-114718750D03*
D17*
X183288500Y-114718750D03*
X185788500Y-114718750D03*
X183288500Y-129218750D03*
X188288500Y-129218750D03*
%TD*%
D12*
%TO.C,D21*%
X175013500Y-70800000D03*
D14*
X175013500Y-68300000D03*
D13*
X175013500Y-63000000D03*
D14*
X175013500Y-65500000D03*
%TD*%
D12*
%TO.C,D23*%
X167100000Y-111400000D03*
D11*
X169600000Y-111400000D03*
X172400000Y-111400000D03*
D13*
X174900000Y-111400000D03*
%TD*%
D17*
%TO.C,RESET1*%
X185737097Y-136652903D03*
X181140903Y-141249097D03*
%TD*%
D11*
%TO.C,D14*%
X129150000Y-113993750D03*
D12*
X126650000Y-113993750D03*
D13*
X134450000Y-113993750D03*
D11*
X131950000Y-113993750D03*
%TD*%
D26*
%TO.C,ProMicro1*%
X193399900Y-59449000D03*
X193399900Y-61989000D03*
X193399900Y-64529000D03*
X193399900Y-67069000D03*
X193399900Y-69609000D03*
X193399900Y-72149000D03*
X193399900Y-74689000D03*
X193399900Y-77229000D03*
X193399900Y-79769000D03*
X193399900Y-82309000D03*
X193399900Y-84849000D03*
X193399900Y-87389000D03*
X178179900Y-87389000D03*
X178179900Y-84849000D03*
X178179900Y-82309000D03*
X178179900Y-79769000D03*
X178179900Y-77229000D03*
X178179900Y-74689000D03*
X178179900Y-72149000D03*
X178179900Y-69609000D03*
X178179900Y-67069000D03*
X178179900Y-64529000D03*
X178179900Y-61989000D03*
X178179900Y-59449000D03*
%TD*%
D16*
%TO.C,ENC1*%
X188288500Y-57568750D03*
D17*
X183288500Y-57568750D03*
X185788500Y-57568750D03*
X183288500Y-72068750D03*
X188288500Y-72068750D03*
%TD*%
D27*
%TO.C,H1*%
X102851000Y-74593750D03*
%TD*%
%TO.C,H2*%
X157150000Y-74593750D03*
%TD*%
%TO.C,H3*%
X119123500Y-129973750D03*
%TD*%
%TO.C,H4*%
X176263500Y-131743750D03*
%TD*%
D11*
%TO.C,D20*%
X148951000Y-130400000D03*
D12*
X146451000Y-130400000D03*
D13*
X154251000Y-130400000D03*
D11*
X151751000Y-130400000D03*
%TD*%
%TO.C,D19*%
X146288500Y-133043750D03*
D12*
X143788500Y-133043750D03*
D13*
X151588500Y-133043750D03*
D11*
X149088500Y-133043750D03*
%TD*%
D12*
%TO.C,D16*%
X158263500Y-114243750D03*
D11*
X160763500Y-114243750D03*
X163563500Y-114243750D03*
D13*
X166063500Y-114243750D03*
%TD*%
D16*
%TO.C,ENC2*%
X188288500Y-76618750D03*
D17*
X183288500Y-76618750D03*
X185788500Y-76618750D03*
X183288500Y-91118750D03*
X188288500Y-91118750D03*
%TD*%
M02*
