%TF.GenerationSoftware,KiCad,Pcbnew,(5.99.0-12610-g07e01e6297)*%
%TF.CreationDate,2021-11-07T16:56:22+00:00*%
%TF.ProjectId,Envoy,456e766f-792e-46b6-9963-61645f706362,rev?*%
%TF.SameCoordinates,Original*%
%TF.FileFunction,Legend,Top*%
%TF.FilePolarity,Positive*%
%FSLAX46Y46*%
G04 Gerber Fmt 4.6, Leading zero omitted, Abs format (unit mm)*
G04 Created by KiCad (PCBNEW (5.99.0-12610-g07e01e6297)) date 2021-11-07 16:56:22*
%MOMM*%
%LPD*%
G01*
G04 APERTURE LIST*
%ADD10C,0.150000*%
%ADD11C,0.120000*%
%ADD12C,2.000000*%
G04 APERTURE END LIST*
D10*
X124624809Y-67834523D02*
X124624809Y-68441666D01*
X124584333Y-68563095D01*
X124503380Y-68644047D01*
X124381952Y-68684523D01*
X124301000Y-68684523D01*
X125434333Y-68684523D02*
X125029571Y-68684523D01*
X125029571Y-67834523D01*
X126203380Y-68603571D02*
X126162904Y-68644047D01*
X126041476Y-68684523D01*
X125960523Y-68684523D01*
X125839095Y-68644047D01*
X125758142Y-68563095D01*
X125717666Y-68482142D01*
X125677190Y-68320238D01*
X125677190Y-68198809D01*
X125717666Y-68036904D01*
X125758142Y-67955952D01*
X125839095Y-67875000D01*
X125960523Y-67834523D01*
X126041476Y-67834523D01*
X126162904Y-67875000D01*
X126203380Y-67915476D01*
X126810523Y-67834523D02*
X126810523Y-68441666D01*
X126770047Y-68563095D01*
X126689095Y-68644047D01*
X126567666Y-68684523D01*
X126486714Y-68684523D01*
X127620047Y-68684523D02*
X127215285Y-68684523D01*
X127215285Y-67834523D01*
X128389095Y-68603571D02*
X128348619Y-68644047D01*
X128227190Y-68684523D01*
X128146238Y-68684523D01*
X128024809Y-68644047D01*
X127943857Y-68563095D01*
X127903380Y-68482142D01*
X127862904Y-68320238D01*
X127862904Y-68198809D01*
X127903380Y-68036904D01*
X127943857Y-67955952D01*
X128024809Y-67875000D01*
X128146238Y-67834523D01*
X128227190Y-67834523D01*
X128348619Y-67875000D01*
X128389095Y-67915476D01*
X128996238Y-67834523D02*
X128996238Y-68441666D01*
X128955761Y-68563095D01*
X128874809Y-68644047D01*
X128753380Y-68684523D01*
X128672428Y-68684523D01*
X129805761Y-68684523D02*
X129401000Y-68684523D01*
X129401000Y-67834523D01*
X130574809Y-68603571D02*
X130534333Y-68644047D01*
X130412904Y-68684523D01*
X130331952Y-68684523D01*
X130210523Y-68644047D01*
X130129571Y-68563095D01*
X130089095Y-68482142D01*
X130048619Y-68320238D01*
X130048619Y-68198809D01*
X130089095Y-68036904D01*
X130129571Y-67955952D01*
X130210523Y-67875000D01*
X130331952Y-67834523D01*
X130412904Y-67834523D01*
X130534333Y-67875000D01*
X130574809Y-67915476D01*
X131181952Y-67834523D02*
X131181952Y-68441666D01*
X131141476Y-68563095D01*
X131060523Y-68644047D01*
X130939095Y-68684523D01*
X130858142Y-68684523D01*
X131991476Y-68684523D02*
X131586714Y-68684523D01*
X131586714Y-67834523D01*
X132760523Y-68603571D02*
X132720047Y-68644047D01*
X132598619Y-68684523D01*
X132517666Y-68684523D01*
X132396238Y-68644047D01*
X132315285Y-68563095D01*
X132274809Y-68482142D01*
X132234333Y-68320238D01*
X132234333Y-68198809D01*
X132274809Y-68036904D01*
X132315285Y-67955952D01*
X132396238Y-67875000D01*
X132517666Y-67834523D01*
X132598619Y-67834523D01*
X132720047Y-67875000D01*
X132760523Y-67915476D01*
%TO.C,ENC3*%
X184074214Y-98597321D02*
X184407547Y-98597321D01*
X184550404Y-99121130D02*
X184074214Y-99121130D01*
X184074214Y-98121130D01*
X184550404Y-98121130D01*
X184978976Y-99121130D02*
X184978976Y-98121130D01*
X185550404Y-99121130D01*
X185550404Y-98121130D01*
X186598023Y-99025892D02*
X186550404Y-99073511D01*
X186407547Y-99121130D01*
X186312309Y-99121130D01*
X186169452Y-99073511D01*
X186074214Y-98978273D01*
X186026595Y-98883035D01*
X185978976Y-98692559D01*
X185978976Y-98549702D01*
X186026595Y-98359226D01*
X186074214Y-98263988D01*
X186169452Y-98168750D01*
X186312309Y-98121130D01*
X186407547Y-98121130D01*
X186550404Y-98168750D01*
X186598023Y-98216369D01*
X186931357Y-98121130D02*
X187550404Y-98121130D01*
X187217071Y-98502083D01*
X187359928Y-98502083D01*
X187455166Y-98549702D01*
X187502785Y-98597321D01*
X187550404Y-98692559D01*
X187550404Y-98930654D01*
X187502785Y-99025892D01*
X187455166Y-99073511D01*
X187359928Y-99121130D01*
X187074214Y-99121130D01*
X186978976Y-99073511D01*
X186931357Y-99025892D01*
%TO.C,ENC4*%
X184074214Y-117647321D02*
X184407547Y-117647321D01*
X184550404Y-118171130D02*
X184074214Y-118171130D01*
X184074214Y-117171130D01*
X184550404Y-117171130D01*
X184978976Y-118171130D02*
X184978976Y-117171130D01*
X185550404Y-118171130D01*
X185550404Y-117171130D01*
X186598023Y-118075892D02*
X186550404Y-118123511D01*
X186407547Y-118171130D01*
X186312309Y-118171130D01*
X186169452Y-118123511D01*
X186074214Y-118028273D01*
X186026595Y-117933035D01*
X185978976Y-117742559D01*
X185978976Y-117599702D01*
X186026595Y-117409226D01*
X186074214Y-117313988D01*
X186169452Y-117218750D01*
X186312309Y-117171130D01*
X186407547Y-117171130D01*
X186550404Y-117218750D01*
X186598023Y-117266369D01*
X187455166Y-117504464D02*
X187455166Y-118171130D01*
X187217071Y-117123511D02*
X186978976Y-117837797D01*
X187598023Y-117837797D01*
%TO.C,RESET1*%
X182731893Y-140297870D02*
X182159473Y-140196854D01*
X182327832Y-140701931D02*
X181620725Y-139994824D01*
X181890099Y-139725450D01*
X181991114Y-139691778D01*
X182058458Y-139691778D01*
X182159473Y-139725450D01*
X182260488Y-139826465D01*
X182294160Y-139927480D01*
X182294160Y-139994824D01*
X182260488Y-140095839D01*
X181991114Y-140365213D01*
X182664549Y-139624435D02*
X182900251Y-139388732D01*
X183371656Y-139658106D02*
X183034938Y-139994824D01*
X182327832Y-139287717D01*
X182664549Y-138951000D01*
X183607358Y-139355061D02*
X183742045Y-139287717D01*
X183910404Y-139119358D01*
X183944076Y-139018343D01*
X183944076Y-138951000D01*
X183910404Y-138849984D01*
X183843061Y-138782641D01*
X183742045Y-138748969D01*
X183674702Y-138748969D01*
X183573687Y-138782641D01*
X183405328Y-138883656D01*
X183304312Y-138917328D01*
X183236969Y-138917328D01*
X183135954Y-138883656D01*
X183068610Y-138816312D01*
X183034938Y-138715297D01*
X183034938Y-138647954D01*
X183068610Y-138546938D01*
X183236969Y-138378580D01*
X183371656Y-138311236D01*
X183977748Y-138311236D02*
X184213450Y-138075534D01*
X184684854Y-138344908D02*
X184348137Y-138681625D01*
X183641030Y-137974519D01*
X183977748Y-137637801D01*
X184179778Y-137435771D02*
X184583839Y-137031710D01*
X185088915Y-137940847D02*
X184381809Y-137233740D01*
%TO.C,ENC1*%
X184074214Y-60497321D02*
X184407547Y-60497321D01*
X184550404Y-61021130D02*
X184074214Y-61021130D01*
X184074214Y-60021130D01*
X184550404Y-60021130D01*
X184978976Y-61021130D02*
X184978976Y-60021130D01*
X185550404Y-61021130D01*
X185550404Y-60021130D01*
X186598023Y-60925892D02*
X186550404Y-60973511D01*
X186407547Y-61021130D01*
X186312309Y-61021130D01*
X186169452Y-60973511D01*
X186074214Y-60878273D01*
X186026595Y-60783035D01*
X185978976Y-60592559D01*
X185978976Y-60449702D01*
X186026595Y-60259226D01*
X186074214Y-60163988D01*
X186169452Y-60068750D01*
X186312309Y-60021130D01*
X186407547Y-60021130D01*
X186550404Y-60068750D01*
X186598023Y-60116369D01*
X187550404Y-61021130D02*
X186978976Y-61021130D01*
X187264690Y-61021130D02*
X187264690Y-60021130D01*
X187169452Y-60163988D01*
X187074214Y-60259226D01*
X186978976Y-60306845D01*
%TO.C,ENC2*%
X184074214Y-79547321D02*
X184407547Y-79547321D01*
X184550404Y-80071130D02*
X184074214Y-80071130D01*
X184074214Y-79071130D01*
X184550404Y-79071130D01*
X184978976Y-80071130D02*
X184978976Y-79071130D01*
X185550404Y-80071130D01*
X185550404Y-79071130D01*
X186598023Y-79975892D02*
X186550404Y-80023511D01*
X186407547Y-80071130D01*
X186312309Y-80071130D01*
X186169452Y-80023511D01*
X186074214Y-79928273D01*
X186026595Y-79833035D01*
X185978976Y-79642559D01*
X185978976Y-79499702D01*
X186026595Y-79309226D01*
X186074214Y-79213988D01*
X186169452Y-79118750D01*
X186312309Y-79071130D01*
X186407547Y-79071130D01*
X186550404Y-79118750D01*
X186598023Y-79166369D01*
X186978976Y-79166369D02*
X187026595Y-79118750D01*
X187121833Y-79071130D01*
X187359928Y-79071130D01*
X187455166Y-79118750D01*
X187502785Y-79166369D01*
X187550404Y-79261607D01*
X187550404Y-79356845D01*
X187502785Y-79499702D01*
X186931357Y-80071130D01*
X187550404Y-80071130D01*
D11*
%TO.C,ENC3*%
X189588500Y-95668750D02*
X189888500Y-95368750D01*
X189888500Y-95368750D02*
X189888500Y-95968750D01*
X189888500Y-95968750D02*
X189588500Y-95668750D01*
X185788500Y-102668750D02*
X185788500Y-103668750D01*
X179888500Y-109268750D02*
X179888500Y-105168750D01*
X191688500Y-109268750D02*
X189288500Y-109268750D01*
X191688500Y-97068750D02*
X179888500Y-97068750D01*
X179888500Y-101168750D02*
X179888500Y-97068750D01*
X191688500Y-105168750D02*
X191688500Y-109268750D01*
X182288500Y-109268750D02*
X179888500Y-109268750D01*
X191688500Y-101168750D02*
X191688500Y-97068750D01*
X187088500Y-109268750D02*
X184488500Y-109268750D01*
X186288500Y-103168750D02*
X185288500Y-103168750D01*
X188788500Y-103168750D02*
G75*
G03*
X188788500Y-103168750I-3000000J0D01*
G01*
%TO.C,MX16-2u1*%
X173238500Y-142157750D02*
X159888500Y-142157750D01*
X159188500Y-121743750D02*
X159188500Y-141743750D01*
X173238500Y-121329750D02*
X159888500Y-121329750D01*
X173188500Y-118293750D02*
X159888500Y-118281750D01*
X173238500Y-145205750D02*
X159888500Y-145205750D01*
%TO.C,MX17-2u1*%
X132575500Y-134418750D02*
X132575500Y-147768750D01*
X105651500Y-134418750D02*
X105651500Y-147768750D01*
X108699500Y-134418750D02*
X108699500Y-147768750D01*
X109163500Y-133718750D02*
X129063500Y-133718750D01*
X129527500Y-134418750D02*
X129527500Y-147718750D01*
%TO.C,MX8-2u1*%
X173238500Y-83229750D02*
X159888500Y-83229750D01*
X159188500Y-83643750D02*
X159188500Y-103643750D01*
X173238500Y-107105750D02*
X159888500Y-107105750D01*
X173188500Y-80193750D02*
X159888500Y-80181750D01*
X173238500Y-104057750D02*
X159888500Y-104057750D01*
%TO.C,ENC4*%
X182288500Y-128318750D02*
X179888500Y-128318750D01*
X179888500Y-120218750D02*
X179888500Y-116118750D01*
X186288500Y-122218750D02*
X185288500Y-122218750D01*
X189588500Y-114718750D02*
X189888500Y-114418750D01*
X179888500Y-128318750D02*
X179888500Y-124218750D01*
X191688500Y-120218750D02*
X191688500Y-116118750D01*
X191688500Y-128318750D02*
X189288500Y-128318750D01*
X191688500Y-124218750D02*
X191688500Y-128318750D01*
X191688500Y-116118750D02*
X179888500Y-116118750D01*
X185788500Y-121718750D02*
X185788500Y-122718750D01*
X189888500Y-114418750D02*
X189888500Y-115018750D01*
X187088500Y-128318750D02*
X184488500Y-128318750D01*
X189888500Y-115018750D02*
X189588500Y-114718750D01*
X188788500Y-122218750D02*
G75*
G03*
X188788500Y-122218750I-3000000J0D01*
G01*
D10*
%TO.C,RESET1*%
X182555117Y-142309757D02*
X186797757Y-138067117D01*
X182555117Y-142309757D02*
X182378340Y-142132981D01*
X180080243Y-139834883D02*
X184322883Y-135592243D01*
X180080243Y-139834883D02*
X180257019Y-140011660D01*
X186797757Y-138067117D02*
X186620981Y-137890340D01*
X184322883Y-135592243D02*
X184499660Y-135769019D01*
D11*
%TO.C,ENC1*%
X189888500Y-57268750D02*
X189888500Y-57868750D01*
X189888500Y-57868750D02*
X189588500Y-57568750D01*
X186288500Y-65068750D02*
X185288500Y-65068750D01*
X187088500Y-71168750D02*
X184488500Y-71168750D01*
X179888500Y-63068750D02*
X179888500Y-58968750D01*
X191688500Y-63068750D02*
X191688500Y-58968750D01*
X191688500Y-58968750D02*
X179888500Y-58968750D01*
X191688500Y-71168750D02*
X189288500Y-71168750D01*
X189588500Y-57568750D02*
X189888500Y-57268750D01*
X179888500Y-71168750D02*
X179888500Y-67068750D01*
X185788500Y-64568750D02*
X185788500Y-65568750D01*
X182288500Y-71168750D02*
X179888500Y-71168750D01*
X191688500Y-67068750D02*
X191688500Y-71168750D01*
X188788500Y-65068750D02*
G75*
G03*
X188788500Y-65068750I-3000000J0D01*
G01*
%TO.C,ENC2*%
X185788500Y-83618750D02*
X185788500Y-84618750D01*
X191688500Y-90218750D02*
X189288500Y-90218750D01*
X187088500Y-90218750D02*
X184488500Y-90218750D01*
X191688500Y-82118750D02*
X191688500Y-78018750D01*
X189888500Y-76318750D02*
X189888500Y-76918750D01*
X186288500Y-84118750D02*
X185288500Y-84118750D01*
X179888500Y-82118750D02*
X179888500Y-78018750D01*
X182288500Y-90218750D02*
X179888500Y-90218750D01*
X189888500Y-76918750D02*
X189588500Y-76618750D01*
X191688500Y-78018750D02*
X179888500Y-78018750D01*
X191688500Y-86118750D02*
X191688500Y-90218750D01*
X179888500Y-90218750D02*
X179888500Y-86118750D01*
X189588500Y-76618750D02*
X189888500Y-76318750D01*
X188788500Y-84118750D02*
G75*
G03*
X188788500Y-84118750I-3000000J0D01*
G01*
%TD*%
D12*
%TO.C,RESET1*%
X185737097Y-136652903D03*
X181140903Y-141249097D03*
%TD*%
M02*
