%TF.GenerationSoftware,KiCad,Pcbnew,(5.99.0-12610-g07e01e6297)*%
%TF.CreationDate,2021-10-01T22:53:11+01:00*%
%TF.ProjectId,Envoy,456e766f-792e-46b6-9963-61645f706362,rev?*%
%TF.SameCoordinates,Original*%
%TF.FileFunction,Soldermask,Top*%
%TF.FilePolarity,Negative*%
%FSLAX46Y46*%
G04 Gerber Fmt 4.6, Leading zero omitted, Abs format (unit mm)*
G04 Created by KiCad (PCBNEW (5.99.0-12610-g07e01e6297)) date 2021-10-01 22:53:11*
%MOMM*%
%LPD*%
G01*
G04 APERTURE LIST*
%ADD10R,1.600000X1.600000*%
%ADD11C,1.600000*%
%ADD12R,2.000000X3.200000*%
%ADD13R,2.000000X2.000000*%
%ADD14C,2.000000*%
%ADD15C,1.750000*%
%ADD16C,3.987800*%
%ADD17C,3.000000*%
%ADD18O,1.750000X2.380000*%
%ADD19O,2.380000X1.750000*%
%ADD20C,3.048000*%
%ADD21C,1.524000*%
%ADD22C,3.700000*%
G04 APERTURE END LIST*
D10*
%TO.C,D1*%
X118268750Y-60256250D03*
D11*
X118268750Y-52456250D03*
%TD*%
D10*
%TO.C,D2*%
X137318750Y-60256250D03*
D11*
X137318750Y-52456250D03*
%TD*%
D10*
%TO.C,D3*%
X156368750Y-60256250D03*
D11*
X156368750Y-52456250D03*
%TD*%
D10*
%TO.C,D4*%
X162787500Y-63500000D03*
D11*
X170587500Y-63500000D03*
%TD*%
D10*
%TO.C,D5*%
X118268750Y-79306250D03*
D11*
X118268750Y-71506250D03*
%TD*%
D10*
%TO.C,D6*%
X137318750Y-79306250D03*
D11*
X137318750Y-71506250D03*
%TD*%
D10*
%TO.C,D7*%
X143737500Y-82550000D03*
D11*
X151537500Y-82550000D03*
%TD*%
D10*
%TO.C,D8*%
X157900000Y-83400000D03*
D11*
X157900000Y-75600000D03*
%TD*%
D10*
%TO.C,D9*%
X118268750Y-92800000D03*
D11*
X118268750Y-85000000D03*
%TD*%
D10*
%TO.C,D10*%
X137318750Y-98356250D03*
D11*
X137318750Y-90556250D03*
%TD*%
D10*
%TO.C,D11*%
X139610000Y-101600000D03*
D11*
X147410000Y-101600000D03*
%TD*%
D10*
%TO.C,D12*%
X152310000Y-101600000D03*
D11*
X160110000Y-101600000D03*
%TD*%
D10*
%TO.C,D15*%
X137300000Y-118500000D03*
D11*
X137300000Y-110700000D03*
%TD*%
D10*
%TO.C,D17*%
X118268750Y-116612500D03*
D11*
X118268750Y-108812500D03*
%TD*%
D10*
%TO.C,D18*%
X137318750Y-130106250D03*
D11*
X137318750Y-122306250D03*
%TD*%
D10*
%TO.C,D22*%
X177006250Y-81031250D03*
D11*
X177006250Y-88831250D03*
%TD*%
D12*
%TO.C,ENC3*%
X180137500Y-92868750D03*
X191337500Y-92868750D03*
D13*
X188237500Y-85368750D03*
D14*
X183237500Y-85368750D03*
X185737500Y-85368750D03*
X183237500Y-99868750D03*
X188237500Y-99868750D03*
%TD*%
D15*
%TO.C,MX1*%
X104457500Y-54768750D03*
D16*
X109537500Y-54768750D03*
D17*
X105727500Y-52228750D03*
D15*
X114617500Y-54768750D03*
D17*
X112077500Y-49688750D03*
%TD*%
D15*
%TO.C,MX2*%
X123507500Y-54768750D03*
D17*
X124777500Y-52228750D03*
D15*
X133667500Y-54768750D03*
D16*
X128587500Y-54768750D03*
D17*
X131127500Y-49688750D03*
%TD*%
D16*
%TO.C,MX3*%
X147637500Y-54768750D03*
D15*
X142557500Y-54768750D03*
D17*
X150177500Y-49688750D03*
D15*
X152717500Y-54768750D03*
D17*
X143827500Y-52228750D03*
%TD*%
%TO.C,MX4*%
X169227500Y-49688750D03*
D15*
X171767500Y-54768750D03*
D16*
X166687500Y-54768750D03*
D17*
X162877500Y-52228750D03*
D15*
X161607500Y-54768750D03*
%TD*%
%TO.C,MX5*%
X114617500Y-73818750D03*
X104457500Y-73818750D03*
D17*
X112077500Y-68738750D03*
X105727500Y-71278750D03*
D16*
X109537500Y-73818750D03*
%TD*%
D17*
%TO.C,MX7*%
X143827500Y-71278750D03*
D15*
X142557500Y-73818750D03*
D17*
X150177500Y-68738750D03*
D15*
X152717500Y-73818750D03*
D16*
X147637500Y-73818750D03*
%TD*%
D15*
%TO.C,MX8*%
X166687500Y-68738750D03*
D17*
X171767500Y-76358750D03*
D16*
X166687500Y-73818750D03*
D17*
X169227500Y-70008750D03*
D18*
X166687500Y-78583750D03*
%TD*%
D16*
%TO.C,MX9*%
X109537500Y-92868750D03*
D15*
X104457500Y-92868750D03*
X114617500Y-92868750D03*
D17*
X112077500Y-87788750D03*
X105727500Y-90328750D03*
%TD*%
D15*
%TO.C,MX10*%
X133667500Y-92868750D03*
D17*
X124777500Y-90328750D03*
X131127500Y-87788750D03*
D15*
X123507500Y-92868750D03*
D16*
X128587500Y-92868750D03*
%TD*%
%TO.C,MX11*%
X147637500Y-92868750D03*
D17*
X143827500Y-90328750D03*
D15*
X142557500Y-92868750D03*
D17*
X150177500Y-87788750D03*
D15*
X152717500Y-92868750D03*
%TD*%
D17*
%TO.C,MX12*%
X164147500Y-96678750D03*
D16*
X166687500Y-92868750D03*
D18*
X166687500Y-88103750D03*
D17*
X161607500Y-90328750D03*
D15*
X166687500Y-97948750D03*
%TD*%
D17*
%TO.C,MX13*%
X105727500Y-109378750D03*
D15*
X114617500Y-111918750D03*
X104457500Y-111918750D03*
D17*
X112077500Y-106838750D03*
D16*
X109537500Y-111918750D03*
%TD*%
D17*
%TO.C,MX15*%
X143827500Y-109378750D03*
X150177500Y-106838750D03*
D15*
X152717500Y-111918750D03*
X142557500Y-111918750D03*
D16*
X147637500Y-111918750D03*
%TD*%
D17*
%TO.C,MX16*%
X171767500Y-114458750D03*
D18*
X166687500Y-116683750D03*
D16*
X166687500Y-111918750D03*
D17*
X169227500Y-108108750D03*
D15*
X166687500Y-106838750D03*
%TD*%
D16*
%TO.C,MX17*%
X109537500Y-130968750D03*
D17*
X112077500Y-125888750D03*
X105727500Y-128428750D03*
D15*
X104457500Y-130968750D03*
D19*
X114302500Y-130968750D03*
%TD*%
D15*
%TO.C,MX18*%
X133667500Y-130968750D03*
D17*
X126047500Y-136048750D03*
X132397500Y-133508750D03*
D16*
X128587500Y-130968750D03*
D19*
X123822500Y-130968750D03*
%TD*%
D15*
%TO.C,MX20*%
X166687500Y-136048750D03*
D16*
X166687500Y-130968750D03*
D17*
X161607500Y-128428750D03*
D18*
X166687500Y-126203750D03*
D17*
X164147500Y-134778750D03*
%TD*%
D16*
%TO.C,MX19*%
X147637500Y-130968750D03*
D15*
X142557500Y-130968750D03*
D17*
X150177500Y-125888750D03*
D15*
X152717500Y-130968750D03*
D17*
X143827500Y-128428750D03*
%TD*%
%TO.C,MX16-2u1*%
X169227500Y-117633750D03*
D16*
X166687500Y-121443750D03*
D17*
X171767500Y-123983750D03*
D20*
X173672500Y-109505750D03*
D16*
X158432500Y-109505750D03*
X158432500Y-133381750D03*
D20*
X173672500Y-133381750D03*
%TD*%
D16*
%TO.C,MX17-2u1*%
X131000500Y-122713750D03*
X119062500Y-130968750D03*
D17*
X115252500Y-128428750D03*
X121602500Y-125888750D03*
D16*
X107124500Y-122713750D03*
D20*
X131000500Y-137953750D03*
X107124500Y-137953750D03*
%TD*%
%TO.C,MX8-2u1*%
X173672500Y-95281750D03*
D16*
X158432500Y-95281750D03*
D17*
X169227500Y-79533750D03*
D16*
X158432500Y-71405750D03*
X166687500Y-83343750D03*
D17*
X171767500Y-85883750D03*
D20*
X173672500Y-71405750D03*
%TD*%
D17*
%TO.C,MX6*%
X124777500Y-71278750D03*
X131127500Y-68738750D03*
D15*
X133667500Y-73818750D03*
X123507500Y-73818750D03*
D16*
X128587500Y-73818750D03*
%TD*%
D10*
%TO.C,D13*%
X118268750Y-104706250D03*
D11*
X118268750Y-96906250D03*
%TD*%
D17*
%TO.C,MX14*%
X124777500Y-109378750D03*
X131127500Y-106838750D03*
D15*
X133667500Y-111918750D03*
D16*
X128587500Y-111918750D03*
D15*
X123507500Y-111918750D03*
%TD*%
D10*
%TO.C,D24*%
X177006250Y-108018750D03*
D11*
X177006250Y-115818750D03*
%TD*%
D12*
%TO.C,ENC4*%
X191337500Y-111918750D03*
X180137500Y-111918750D03*
D13*
X188237500Y-104418750D03*
D14*
X183237500Y-104418750D03*
X185737500Y-104418750D03*
X183237500Y-118918750D03*
X188237500Y-118918750D03*
%TD*%
D10*
%TO.C,D21*%
X175260000Y-60669000D03*
D11*
X175260000Y-52869000D03*
%TD*%
D10*
%TO.C,D23*%
X177006250Y-92143750D03*
D11*
X177006250Y-99943750D03*
%TD*%
D14*
%TO.C,RESET1*%
X185686097Y-126352903D03*
X181089903Y-130949097D03*
%TD*%
D10*
%TO.C,D14*%
X124700000Y-101600000D03*
D11*
X132500000Y-101600000D03*
%TD*%
D21*
%TO.C,U1*%
X193348900Y-49149000D03*
X193348900Y-51689000D03*
X193348900Y-54229000D03*
X193348900Y-56769000D03*
X193348900Y-59309000D03*
X193348900Y-61849000D03*
X193348900Y-64389000D03*
X193348900Y-66929000D03*
X193348900Y-69469000D03*
X193348900Y-72009000D03*
X193348900Y-74549000D03*
X193348900Y-77089000D03*
X178128900Y-77089000D03*
X178128900Y-74549000D03*
X178128900Y-72009000D03*
X178128900Y-69469000D03*
X178128900Y-66929000D03*
X178128900Y-64389000D03*
X178128900Y-61849000D03*
X178128900Y-59309000D03*
X178128900Y-56769000D03*
X178128900Y-54229000D03*
X178128900Y-51689000D03*
X178128900Y-49149000D03*
%TD*%
D13*
%TO.C,ENC1*%
X188237500Y-47268750D03*
D14*
X183237500Y-47268750D03*
X185737500Y-47268750D03*
X183237500Y-61768750D03*
X188237500Y-61768750D03*
%TD*%
D22*
%TO.C,H1*%
X119062500Y-64293750D03*
%TD*%
%TO.C,H2*%
X157162500Y-64293750D03*
%TD*%
%TO.C,H3*%
X119062500Y-121443750D03*
%TD*%
%TO.C,H4*%
X176212500Y-121443750D03*
%TD*%
D10*
%TO.C,D20*%
X157100000Y-123100000D03*
D11*
X157100000Y-115300000D03*
%TD*%
D10*
%TO.C,D19*%
X143800000Y-120600000D03*
D11*
X151600000Y-120600000D03*
%TD*%
D10*
%TO.C,D16*%
X172312500Y-103187500D03*
D11*
X180112500Y-103187500D03*
%TD*%
D13*
%TO.C,ENC2*%
X188237500Y-66318750D03*
D14*
X183237500Y-66318750D03*
X185737500Y-66318750D03*
X183237500Y-80818750D03*
X188237500Y-80818750D03*
%TD*%
M02*
