%TF.GenerationSoftware,KiCad,Pcbnew,(5.99.0-12610-g07e01e6297)*%
%TF.CreationDate,2021-10-01T22:53:11+01:00*%
%TF.ProjectId,Envoy,456e766f-792e-46b6-9963-61645f706362,rev?*%
%TF.SameCoordinates,Original*%
%TF.FileFunction,Legend,Bot*%
%TF.FilePolarity,Positive*%
%FSLAX46Y46*%
G04 Gerber Fmt 4.6, Leading zero omitted, Abs format (unit mm)*
G04 Created by KiCad (PCBNEW (5.99.0-12610-g07e01e6297)) date 2021-10-01 22:53:11*
%MOMM*%
%LPD*%
G01*
G04 APERTURE LIST*
%ADD10C,0.150000*%
%ADD11C,0.125000*%
%ADD12C,0.120000*%
G04 APERTURE END LIST*
D10*
%TO.C,D1*%
X117230654Y-55740373D02*
X116430654Y-55740373D01*
X116430654Y-55930850D01*
X116468750Y-56045135D01*
X116544940Y-56121326D01*
X116621130Y-56159421D01*
X116773511Y-56197516D01*
X116887797Y-56197516D01*
X117040178Y-56159421D01*
X117116369Y-56121326D01*
X117192559Y-56045135D01*
X117230654Y-55930850D01*
X117230654Y-55740373D01*
X117230654Y-56959421D02*
X117230654Y-56502278D01*
X117230654Y-56730850D02*
X116430654Y-56730850D01*
X116544940Y-56654659D01*
X116621130Y-56578469D01*
X116659226Y-56502278D01*
%TO.C,D2*%
X136280654Y-55740373D02*
X135480654Y-55740373D01*
X135480654Y-55930850D01*
X135518750Y-56045135D01*
X135594940Y-56121326D01*
X135671130Y-56159421D01*
X135823511Y-56197516D01*
X135937797Y-56197516D01*
X136090178Y-56159421D01*
X136166369Y-56121326D01*
X136242559Y-56045135D01*
X136280654Y-55930850D01*
X136280654Y-55740373D01*
X135556845Y-56502278D02*
X135518750Y-56540373D01*
X135480654Y-56616564D01*
X135480654Y-56807040D01*
X135518750Y-56883230D01*
X135556845Y-56921326D01*
X135633035Y-56959421D01*
X135709226Y-56959421D01*
X135823511Y-56921326D01*
X136280654Y-56464183D01*
X136280654Y-56959421D01*
%TO.C,D3*%
X155330654Y-55740373D02*
X154530654Y-55740373D01*
X154530654Y-55930850D01*
X154568750Y-56045135D01*
X154644940Y-56121326D01*
X154721130Y-56159421D01*
X154873511Y-56197516D01*
X154987797Y-56197516D01*
X155140178Y-56159421D01*
X155216369Y-56121326D01*
X155292559Y-56045135D01*
X155330654Y-55930850D01*
X155330654Y-55740373D01*
X154530654Y-56464183D02*
X154530654Y-56959421D01*
X154835416Y-56692754D01*
X154835416Y-56807040D01*
X154873511Y-56883230D01*
X154911607Y-56921326D01*
X154987797Y-56959421D01*
X155178273Y-56959421D01*
X155254464Y-56921326D01*
X155292559Y-56883230D01*
X155330654Y-56807040D01*
X155330654Y-56578469D01*
X155292559Y-56502278D01*
X155254464Y-56464183D01*
%TO.C,D4*%
X167303376Y-62461904D02*
X167303376Y-61661904D01*
X167112900Y-61661904D01*
X166998614Y-61700000D01*
X166922423Y-61776190D01*
X166884328Y-61852380D01*
X166846233Y-62004761D01*
X166846233Y-62119047D01*
X166884328Y-62271428D01*
X166922423Y-62347619D01*
X166998614Y-62423809D01*
X167112900Y-62461904D01*
X167303376Y-62461904D01*
X166160519Y-61928571D02*
X166160519Y-62461904D01*
X166350995Y-61623809D02*
X166541471Y-62195238D01*
X166046233Y-62195238D01*
%TO.C,D5*%
X117230654Y-74790373D02*
X116430654Y-74790373D01*
X116430654Y-74980850D01*
X116468750Y-75095135D01*
X116544940Y-75171326D01*
X116621130Y-75209421D01*
X116773511Y-75247516D01*
X116887797Y-75247516D01*
X117040178Y-75209421D01*
X117116369Y-75171326D01*
X117192559Y-75095135D01*
X117230654Y-74980850D01*
X117230654Y-74790373D01*
X116430654Y-75971326D02*
X116430654Y-75590373D01*
X116811607Y-75552278D01*
X116773511Y-75590373D01*
X116735416Y-75666564D01*
X116735416Y-75857040D01*
X116773511Y-75933230D01*
X116811607Y-75971326D01*
X116887797Y-76009421D01*
X117078273Y-76009421D01*
X117154464Y-75971326D01*
X117192559Y-75933230D01*
X117230654Y-75857040D01*
X117230654Y-75666564D01*
X117192559Y-75590373D01*
X117154464Y-75552278D01*
%TO.C,D6*%
X136280654Y-74790373D02*
X135480654Y-74790373D01*
X135480654Y-74980850D01*
X135518750Y-75095135D01*
X135594940Y-75171326D01*
X135671130Y-75209421D01*
X135823511Y-75247516D01*
X135937797Y-75247516D01*
X136090178Y-75209421D01*
X136166369Y-75171326D01*
X136242559Y-75095135D01*
X136280654Y-74980850D01*
X136280654Y-74790373D01*
X135480654Y-75933230D02*
X135480654Y-75780850D01*
X135518750Y-75704659D01*
X135556845Y-75666564D01*
X135671130Y-75590373D01*
X135823511Y-75552278D01*
X136128273Y-75552278D01*
X136204464Y-75590373D01*
X136242559Y-75628469D01*
X136280654Y-75704659D01*
X136280654Y-75857040D01*
X136242559Y-75933230D01*
X136204464Y-75971326D01*
X136128273Y-76009421D01*
X135937797Y-76009421D01*
X135861607Y-75971326D01*
X135823511Y-75933230D01*
X135785416Y-75857040D01*
X135785416Y-75704659D01*
X135823511Y-75628469D01*
X135861607Y-75590373D01*
X135937797Y-75552278D01*
%TO.C,D7*%
X148253376Y-81511904D02*
X148253376Y-80711904D01*
X148062900Y-80711904D01*
X147948614Y-80750000D01*
X147872423Y-80826190D01*
X147834328Y-80902380D01*
X147796233Y-81054761D01*
X147796233Y-81169047D01*
X147834328Y-81321428D01*
X147872423Y-81397619D01*
X147948614Y-81473809D01*
X148062900Y-81511904D01*
X148253376Y-81511904D01*
X147529566Y-80711904D02*
X146996233Y-80711904D01*
X147339090Y-81511904D01*
%TO.C,D8*%
X156861904Y-78884123D02*
X156061904Y-78884123D01*
X156061904Y-79074600D01*
X156100000Y-79188885D01*
X156176190Y-79265076D01*
X156252380Y-79303171D01*
X156404761Y-79341266D01*
X156519047Y-79341266D01*
X156671428Y-79303171D01*
X156747619Y-79265076D01*
X156823809Y-79188885D01*
X156861904Y-79074600D01*
X156861904Y-78884123D01*
X156404761Y-79798409D02*
X156366666Y-79722219D01*
X156328571Y-79684123D01*
X156252380Y-79646028D01*
X156214285Y-79646028D01*
X156138095Y-79684123D01*
X156100000Y-79722219D01*
X156061904Y-79798409D01*
X156061904Y-79950790D01*
X156100000Y-80026980D01*
X156138095Y-80065076D01*
X156214285Y-80103171D01*
X156252380Y-80103171D01*
X156328571Y-80065076D01*
X156366666Y-80026980D01*
X156404761Y-79950790D01*
X156404761Y-79798409D01*
X156442857Y-79722219D01*
X156480952Y-79684123D01*
X156557142Y-79646028D01*
X156709523Y-79646028D01*
X156785714Y-79684123D01*
X156823809Y-79722219D01*
X156861904Y-79798409D01*
X156861904Y-79950790D01*
X156823809Y-80026980D01*
X156785714Y-80065076D01*
X156709523Y-80103171D01*
X156557142Y-80103171D01*
X156480952Y-80065076D01*
X156442857Y-80026980D01*
X156404761Y-79950790D01*
%TO.C,D9*%
X117230654Y-89709523D02*
X116430654Y-89709523D01*
X116430654Y-89900000D01*
X116468750Y-90014285D01*
X116544940Y-90090476D01*
X116621130Y-90128571D01*
X116773511Y-90166666D01*
X116887797Y-90166666D01*
X117040178Y-90128571D01*
X117116369Y-90090476D01*
X117192559Y-90014285D01*
X117230654Y-89900000D01*
X117230654Y-89709523D01*
X117230654Y-90547619D02*
X117230654Y-90700000D01*
X117192559Y-90776190D01*
X117154464Y-90814285D01*
X117040178Y-90890476D01*
X116887797Y-90928571D01*
X116583035Y-90928571D01*
X116506845Y-90890476D01*
X116468750Y-90852380D01*
X116430654Y-90776190D01*
X116430654Y-90623809D01*
X116468750Y-90547619D01*
X116506845Y-90509523D01*
X116583035Y-90471428D01*
X116773511Y-90471428D01*
X116849702Y-90509523D01*
X116887797Y-90547619D01*
X116925892Y-90623809D01*
X116925892Y-90776190D01*
X116887797Y-90852380D01*
X116849702Y-90890476D01*
X116773511Y-90928571D01*
%TO.C,D10*%
X136280654Y-93459421D02*
X135480654Y-93459421D01*
X135480654Y-93649897D01*
X135518750Y-93764183D01*
X135594940Y-93840373D01*
X135671130Y-93878469D01*
X135823511Y-93916564D01*
X135937797Y-93916564D01*
X136090178Y-93878469D01*
X136166369Y-93840373D01*
X136242559Y-93764183D01*
X136280654Y-93649897D01*
X136280654Y-93459421D01*
X136280654Y-94678469D02*
X136280654Y-94221326D01*
X136280654Y-94449897D02*
X135480654Y-94449897D01*
X135594940Y-94373707D01*
X135671130Y-94297516D01*
X135709226Y-94221326D01*
X135480654Y-95173707D02*
X135480654Y-95249897D01*
X135518750Y-95326088D01*
X135556845Y-95364183D01*
X135633035Y-95402278D01*
X135785416Y-95440373D01*
X135975892Y-95440373D01*
X136128273Y-95402278D01*
X136204464Y-95364183D01*
X136242559Y-95326088D01*
X136280654Y-95249897D01*
X136280654Y-95173707D01*
X136242559Y-95097516D01*
X136204464Y-95059421D01*
X136128273Y-95021326D01*
X135975892Y-94983230D01*
X135785416Y-94983230D01*
X135633035Y-95021326D01*
X135556845Y-95059421D01*
X135518750Y-95097516D01*
X135480654Y-95173707D01*
%TO.C,D11*%
X144506828Y-100561904D02*
X144506828Y-99761904D01*
X144316352Y-99761904D01*
X144202066Y-99800000D01*
X144125876Y-99876190D01*
X144087780Y-99952380D01*
X144049685Y-100104761D01*
X144049685Y-100219047D01*
X144087780Y-100371428D01*
X144125876Y-100447619D01*
X144202066Y-100523809D01*
X144316352Y-100561904D01*
X144506828Y-100561904D01*
X143287780Y-100561904D02*
X143744923Y-100561904D01*
X143516352Y-100561904D02*
X143516352Y-99761904D01*
X143592542Y-99876190D01*
X143668733Y-99952380D01*
X143744923Y-99990476D01*
X142525876Y-100561904D02*
X142983019Y-100561904D01*
X142754447Y-100561904D02*
X142754447Y-99761904D01*
X142830638Y-99876190D01*
X142906828Y-99952380D01*
X142983019Y-99990476D01*
%TO.C,D12*%
X157206828Y-100561904D02*
X157206828Y-99761904D01*
X157016352Y-99761904D01*
X156902066Y-99800000D01*
X156825876Y-99876190D01*
X156787780Y-99952380D01*
X156749685Y-100104761D01*
X156749685Y-100219047D01*
X156787780Y-100371428D01*
X156825876Y-100447619D01*
X156902066Y-100523809D01*
X157016352Y-100561904D01*
X157206828Y-100561904D01*
X155987780Y-100561904D02*
X156444923Y-100561904D01*
X156216352Y-100561904D02*
X156216352Y-99761904D01*
X156292542Y-99876190D01*
X156368733Y-99952380D01*
X156444923Y-99990476D01*
X155683019Y-99838095D02*
X155644923Y-99800000D01*
X155568733Y-99761904D01*
X155378257Y-99761904D01*
X155302066Y-99800000D01*
X155263971Y-99838095D01*
X155225876Y-99914285D01*
X155225876Y-99990476D01*
X155263971Y-100104761D01*
X155721114Y-100561904D01*
X155225876Y-100561904D01*
%TO.C,D15*%
X136261904Y-113603171D02*
X135461904Y-113603171D01*
X135461904Y-113793647D01*
X135500000Y-113907933D01*
X135576190Y-113984123D01*
X135652380Y-114022219D01*
X135804761Y-114060314D01*
X135919047Y-114060314D01*
X136071428Y-114022219D01*
X136147619Y-113984123D01*
X136223809Y-113907933D01*
X136261904Y-113793647D01*
X136261904Y-113603171D01*
X136261904Y-114822219D02*
X136261904Y-114365076D01*
X136261904Y-114593647D02*
X135461904Y-114593647D01*
X135576190Y-114517457D01*
X135652380Y-114441266D01*
X135690476Y-114365076D01*
X135461904Y-115546028D02*
X135461904Y-115165076D01*
X135842857Y-115126980D01*
X135804761Y-115165076D01*
X135766666Y-115241266D01*
X135766666Y-115431742D01*
X135804761Y-115507933D01*
X135842857Y-115546028D01*
X135919047Y-115584123D01*
X136109523Y-115584123D01*
X136185714Y-115546028D01*
X136223809Y-115507933D01*
X136261904Y-115431742D01*
X136261904Y-115241266D01*
X136223809Y-115165076D01*
X136185714Y-115126980D01*
%TO.C,D17*%
X117230654Y-111715671D02*
X116430654Y-111715671D01*
X116430654Y-111906147D01*
X116468750Y-112020433D01*
X116544940Y-112096623D01*
X116621130Y-112134719D01*
X116773511Y-112172814D01*
X116887797Y-112172814D01*
X117040178Y-112134719D01*
X117116369Y-112096623D01*
X117192559Y-112020433D01*
X117230654Y-111906147D01*
X117230654Y-111715671D01*
X117230654Y-112934719D02*
X117230654Y-112477576D01*
X117230654Y-112706147D02*
X116430654Y-112706147D01*
X116544940Y-112629957D01*
X116621130Y-112553766D01*
X116659226Y-112477576D01*
X116430654Y-113201385D02*
X116430654Y-113734719D01*
X117230654Y-113391861D01*
%TO.C,D18*%
X136280654Y-125209421D02*
X135480654Y-125209421D01*
X135480654Y-125399897D01*
X135518750Y-125514183D01*
X135594940Y-125590373D01*
X135671130Y-125628469D01*
X135823511Y-125666564D01*
X135937797Y-125666564D01*
X136090178Y-125628469D01*
X136166369Y-125590373D01*
X136242559Y-125514183D01*
X136280654Y-125399897D01*
X136280654Y-125209421D01*
X136280654Y-126428469D02*
X136280654Y-125971326D01*
X136280654Y-126199897D02*
X135480654Y-126199897D01*
X135594940Y-126123707D01*
X135671130Y-126047516D01*
X135709226Y-125971326D01*
X135823511Y-126885611D02*
X135785416Y-126809421D01*
X135747321Y-126771326D01*
X135671130Y-126733230D01*
X135633035Y-126733230D01*
X135556845Y-126771326D01*
X135518750Y-126809421D01*
X135480654Y-126885611D01*
X135480654Y-127037992D01*
X135518750Y-127114183D01*
X135556845Y-127152278D01*
X135633035Y-127190373D01*
X135671130Y-127190373D01*
X135747321Y-127152278D01*
X135785416Y-127114183D01*
X135823511Y-127037992D01*
X135823511Y-126885611D01*
X135861607Y-126809421D01*
X135899702Y-126771326D01*
X135975892Y-126733230D01*
X136128273Y-126733230D01*
X136204464Y-126771326D01*
X136242559Y-126809421D01*
X136280654Y-126885611D01*
X136280654Y-127037992D01*
X136242559Y-127114183D01*
X136204464Y-127152278D01*
X136128273Y-127190373D01*
X135975892Y-127190373D01*
X135899702Y-127152278D01*
X135861607Y-127114183D01*
X135823511Y-127037992D01*
%TO.C,D22*%
X175961904Y-83928571D02*
X175161904Y-83928571D01*
X175161904Y-84119047D01*
X175200000Y-84233333D01*
X175276190Y-84309523D01*
X175352380Y-84347619D01*
X175504761Y-84385714D01*
X175619047Y-84385714D01*
X175771428Y-84347619D01*
X175847619Y-84309523D01*
X175923809Y-84233333D01*
X175961904Y-84119047D01*
X175961904Y-83928571D01*
X175238095Y-84690476D02*
X175200000Y-84728571D01*
X175161904Y-84804761D01*
X175161904Y-84995238D01*
X175200000Y-85071428D01*
X175238095Y-85109523D01*
X175314285Y-85147619D01*
X175390476Y-85147619D01*
X175504761Y-85109523D01*
X175961904Y-84652380D01*
X175961904Y-85147619D01*
X175238095Y-85452380D02*
X175200000Y-85490476D01*
X175161904Y-85566666D01*
X175161904Y-85757142D01*
X175200000Y-85833333D01*
X175238095Y-85871428D01*
X175314285Y-85909523D01*
X175390476Y-85909523D01*
X175504761Y-85871428D01*
X175961904Y-85414285D01*
X175961904Y-85909523D01*
%TO.C,MX1*%
X110823214Y-58269130D02*
X110823214Y-57269130D01*
X110489880Y-57983416D01*
X110156547Y-57269130D01*
X110156547Y-58269130D01*
X109775595Y-57269130D02*
X109108928Y-58269130D01*
X109108928Y-57269130D02*
X109775595Y-58269130D01*
X108204166Y-58269130D02*
X108775595Y-58269130D01*
X108489880Y-58269130D02*
X108489880Y-57269130D01*
X108585119Y-57411988D01*
X108680357Y-57507226D01*
X108775595Y-57554845D01*
%TO.C,MX2*%
X129873214Y-58269130D02*
X129873214Y-57269130D01*
X129539880Y-57983416D01*
X129206547Y-57269130D01*
X129206547Y-58269130D01*
X128825595Y-57269130D02*
X128158928Y-58269130D01*
X128158928Y-57269130D02*
X128825595Y-58269130D01*
X127825595Y-57364369D02*
X127777976Y-57316750D01*
X127682738Y-57269130D01*
X127444642Y-57269130D01*
X127349404Y-57316750D01*
X127301785Y-57364369D01*
X127254166Y-57459607D01*
X127254166Y-57554845D01*
X127301785Y-57697702D01*
X127873214Y-58269130D01*
X127254166Y-58269130D01*
%TO.C,MX3*%
X148923214Y-58269130D02*
X148923214Y-57269130D01*
X148589880Y-57983416D01*
X148256547Y-57269130D01*
X148256547Y-58269130D01*
X147875595Y-57269130D02*
X147208928Y-58269130D01*
X147208928Y-57269130D02*
X147875595Y-58269130D01*
X146923214Y-57269130D02*
X146304166Y-57269130D01*
X146637500Y-57650083D01*
X146494642Y-57650083D01*
X146399404Y-57697702D01*
X146351785Y-57745321D01*
X146304166Y-57840559D01*
X146304166Y-58078654D01*
X146351785Y-58173892D01*
X146399404Y-58221511D01*
X146494642Y-58269130D01*
X146780357Y-58269130D01*
X146875595Y-58221511D01*
X146923214Y-58173892D01*
%TO.C,MX4*%
X167973214Y-58269130D02*
X167973214Y-57269130D01*
X167639880Y-57983416D01*
X167306547Y-57269130D01*
X167306547Y-58269130D01*
X166925595Y-57269130D02*
X166258928Y-58269130D01*
X166258928Y-57269130D02*
X166925595Y-58269130D01*
X165449404Y-57602464D02*
X165449404Y-58269130D01*
X165687500Y-57221511D02*
X165925595Y-57935797D01*
X165306547Y-57935797D01*
%TO.C,MX5*%
X110823214Y-77319130D02*
X110823214Y-76319130D01*
X110489880Y-77033416D01*
X110156547Y-76319130D01*
X110156547Y-77319130D01*
X109775595Y-76319130D02*
X109108928Y-77319130D01*
X109108928Y-76319130D02*
X109775595Y-77319130D01*
X108251785Y-76319130D02*
X108727976Y-76319130D01*
X108775595Y-76795321D01*
X108727976Y-76747702D01*
X108632738Y-76700083D01*
X108394642Y-76700083D01*
X108299404Y-76747702D01*
X108251785Y-76795321D01*
X108204166Y-76890559D01*
X108204166Y-77128654D01*
X108251785Y-77223892D01*
X108299404Y-77271511D01*
X108394642Y-77319130D01*
X108632738Y-77319130D01*
X108727976Y-77271511D01*
X108775595Y-77223892D01*
%TO.C,MX7*%
X148923214Y-77319130D02*
X148923214Y-76319130D01*
X148589880Y-77033416D01*
X148256547Y-76319130D01*
X148256547Y-77319130D01*
X147875595Y-76319130D02*
X147208928Y-77319130D01*
X147208928Y-76319130D02*
X147875595Y-77319130D01*
X146923214Y-76319130D02*
X146256547Y-76319130D01*
X146685119Y-77319130D01*
%TO.C,MX8*%
X164091880Y-72533035D02*
X163091880Y-72533035D01*
X163806166Y-72866369D01*
X163091880Y-73199702D01*
X164091880Y-73199702D01*
X163091880Y-73580654D02*
X164091880Y-74247321D01*
X163091880Y-74247321D02*
X164091880Y-73580654D01*
X163520452Y-74771130D02*
X163472833Y-74675892D01*
X163425214Y-74628273D01*
X163329976Y-74580654D01*
X163282357Y-74580654D01*
X163187119Y-74628273D01*
X163139500Y-74675892D01*
X163091880Y-74771130D01*
X163091880Y-74961607D01*
X163139500Y-75056845D01*
X163187119Y-75104464D01*
X163282357Y-75152083D01*
X163329976Y-75152083D01*
X163425214Y-75104464D01*
X163472833Y-75056845D01*
X163520452Y-74961607D01*
X163520452Y-74771130D01*
X163568071Y-74675892D01*
X163615690Y-74628273D01*
X163710928Y-74580654D01*
X163901404Y-74580654D01*
X163996642Y-74628273D01*
X164044261Y-74675892D01*
X164091880Y-74771130D01*
X164091880Y-74961607D01*
X164044261Y-75056845D01*
X163996642Y-75104464D01*
X163901404Y-75152083D01*
X163710928Y-75152083D01*
X163615690Y-75104464D01*
X163568071Y-75056845D01*
X163520452Y-74961607D01*
%TO.C,MX9*%
X110823214Y-96369130D02*
X110823214Y-95369130D01*
X110489880Y-96083416D01*
X110156547Y-95369130D01*
X110156547Y-96369130D01*
X109775595Y-95369130D02*
X109108928Y-96369130D01*
X109108928Y-95369130D02*
X109775595Y-96369130D01*
X108680357Y-96369130D02*
X108489880Y-96369130D01*
X108394642Y-96321511D01*
X108347023Y-96273892D01*
X108251785Y-96131035D01*
X108204166Y-95940559D01*
X108204166Y-95559607D01*
X108251785Y-95464369D01*
X108299404Y-95416750D01*
X108394642Y-95369130D01*
X108585119Y-95369130D01*
X108680357Y-95416750D01*
X108727976Y-95464369D01*
X108775595Y-95559607D01*
X108775595Y-95797702D01*
X108727976Y-95892940D01*
X108680357Y-95940559D01*
X108585119Y-95988178D01*
X108394642Y-95988178D01*
X108299404Y-95940559D01*
X108251785Y-95892940D01*
X108204166Y-95797702D01*
%TO.C,MX10*%
X130349404Y-96369130D02*
X130349404Y-95369130D01*
X130016071Y-96083416D01*
X129682738Y-95369130D01*
X129682738Y-96369130D01*
X129301785Y-95369130D02*
X128635119Y-96369130D01*
X128635119Y-95369130D02*
X129301785Y-96369130D01*
X127730357Y-96369130D02*
X128301785Y-96369130D01*
X128016071Y-96369130D02*
X128016071Y-95369130D01*
X128111309Y-95511988D01*
X128206547Y-95607226D01*
X128301785Y-95654845D01*
X127111309Y-95369130D02*
X127016071Y-95369130D01*
X126920833Y-95416750D01*
X126873214Y-95464369D01*
X126825595Y-95559607D01*
X126777976Y-95750083D01*
X126777976Y-95988178D01*
X126825595Y-96178654D01*
X126873214Y-96273892D01*
X126920833Y-96321511D01*
X127016071Y-96369130D01*
X127111309Y-96369130D01*
X127206547Y-96321511D01*
X127254166Y-96273892D01*
X127301785Y-96178654D01*
X127349404Y-95988178D01*
X127349404Y-95750083D01*
X127301785Y-95559607D01*
X127254166Y-95464369D01*
X127206547Y-95416750D01*
X127111309Y-95369130D01*
%TO.C,MX11*%
X149399404Y-96369130D02*
X149399404Y-95369130D01*
X149066071Y-96083416D01*
X148732738Y-95369130D01*
X148732738Y-96369130D01*
X148351785Y-95369130D02*
X147685119Y-96369130D01*
X147685119Y-95369130D02*
X148351785Y-96369130D01*
X146780357Y-96369130D02*
X147351785Y-96369130D01*
X147066071Y-96369130D02*
X147066071Y-95369130D01*
X147161309Y-95511988D01*
X147256547Y-95607226D01*
X147351785Y-95654845D01*
X145827976Y-96369130D02*
X146399404Y-96369130D01*
X146113690Y-96369130D02*
X146113690Y-95369130D01*
X146208928Y-95511988D01*
X146304166Y-95607226D01*
X146399404Y-95654845D01*
%TO.C,MX12*%
X170187880Y-91106845D02*
X169187880Y-91106845D01*
X169902166Y-91440178D01*
X169187880Y-91773511D01*
X170187880Y-91773511D01*
X169187880Y-92154464D02*
X170187880Y-92821130D01*
X169187880Y-92821130D02*
X170187880Y-92154464D01*
X170187880Y-93725892D02*
X170187880Y-93154464D01*
X170187880Y-93440178D02*
X169187880Y-93440178D01*
X169330738Y-93344940D01*
X169425976Y-93249702D01*
X169473595Y-93154464D01*
X169283119Y-94106845D02*
X169235500Y-94154464D01*
X169187880Y-94249702D01*
X169187880Y-94487797D01*
X169235500Y-94583035D01*
X169283119Y-94630654D01*
X169378357Y-94678273D01*
X169473595Y-94678273D01*
X169616452Y-94630654D01*
X170187880Y-94059226D01*
X170187880Y-94678273D01*
%TO.C,MX13*%
X111299404Y-115419130D02*
X111299404Y-114419130D01*
X110966071Y-115133416D01*
X110632738Y-114419130D01*
X110632738Y-115419130D01*
X110251785Y-114419130D02*
X109585119Y-115419130D01*
X109585119Y-114419130D02*
X110251785Y-115419130D01*
X108680357Y-115419130D02*
X109251785Y-115419130D01*
X108966071Y-115419130D02*
X108966071Y-114419130D01*
X109061309Y-114561988D01*
X109156547Y-114657226D01*
X109251785Y-114704845D01*
X108347023Y-114419130D02*
X107727976Y-114419130D01*
X108061309Y-114800083D01*
X107918452Y-114800083D01*
X107823214Y-114847702D01*
X107775595Y-114895321D01*
X107727976Y-114990559D01*
X107727976Y-115228654D01*
X107775595Y-115323892D01*
X107823214Y-115371511D01*
X107918452Y-115419130D01*
X108204166Y-115419130D01*
X108299404Y-115371511D01*
X108347023Y-115323892D01*
%TO.C,MX15*%
X149399404Y-115419130D02*
X149399404Y-114419130D01*
X149066071Y-115133416D01*
X148732738Y-114419130D01*
X148732738Y-115419130D01*
X148351785Y-114419130D02*
X147685119Y-115419130D01*
X147685119Y-114419130D02*
X148351785Y-115419130D01*
X146780357Y-115419130D02*
X147351785Y-115419130D01*
X147066071Y-115419130D02*
X147066071Y-114419130D01*
X147161309Y-114561988D01*
X147256547Y-114657226D01*
X147351785Y-114704845D01*
X145875595Y-114419130D02*
X146351785Y-114419130D01*
X146399404Y-114895321D01*
X146351785Y-114847702D01*
X146256547Y-114800083D01*
X146018452Y-114800083D01*
X145923214Y-114847702D01*
X145875595Y-114895321D01*
X145827976Y-114990559D01*
X145827976Y-115228654D01*
X145875595Y-115323892D01*
X145923214Y-115371511D01*
X146018452Y-115419130D01*
X146256547Y-115419130D01*
X146351785Y-115371511D01*
X146399404Y-115323892D01*
%TO.C,MX16*%
X164091880Y-110156845D02*
X163091880Y-110156845D01*
X163806166Y-110490178D01*
X163091880Y-110823511D01*
X164091880Y-110823511D01*
X163091880Y-111204464D02*
X164091880Y-111871130D01*
X163091880Y-111871130D02*
X164091880Y-111204464D01*
X164091880Y-112775892D02*
X164091880Y-112204464D01*
X164091880Y-112490178D02*
X163091880Y-112490178D01*
X163234738Y-112394940D01*
X163329976Y-112299702D01*
X163377595Y-112204464D01*
X163091880Y-113633035D02*
X163091880Y-113442559D01*
X163139500Y-113347321D01*
X163187119Y-113299702D01*
X163329976Y-113204464D01*
X163520452Y-113156845D01*
X163901404Y-113156845D01*
X163996642Y-113204464D01*
X164044261Y-113252083D01*
X164091880Y-113347321D01*
X164091880Y-113537797D01*
X164044261Y-113633035D01*
X163996642Y-113680654D01*
X163901404Y-113728273D01*
X163663309Y-113728273D01*
X163568071Y-113680654D01*
X163520452Y-113633035D01*
X163472833Y-113537797D01*
X163472833Y-113347321D01*
X163520452Y-113252083D01*
X163568071Y-113204464D01*
X163663309Y-113156845D01*
%TO.C,MX17*%
X111299404Y-134469130D02*
X111299404Y-133469130D01*
X110966071Y-134183416D01*
X110632738Y-133469130D01*
X110632738Y-134469130D01*
X110251785Y-133469130D02*
X109585119Y-134469130D01*
X109585119Y-133469130D02*
X110251785Y-134469130D01*
X108680357Y-134469130D02*
X109251785Y-134469130D01*
X108966071Y-134469130D02*
X108966071Y-133469130D01*
X109061309Y-133611988D01*
X109156547Y-133707226D01*
X109251785Y-133754845D01*
X108347023Y-133469130D02*
X107680357Y-133469130D01*
X108108928Y-134469130D01*
%TO.C,MX18*%
X130349404Y-128373130D02*
X130349404Y-127373130D01*
X130016071Y-128087416D01*
X129682738Y-127373130D01*
X129682738Y-128373130D01*
X129301785Y-127373130D02*
X128635119Y-128373130D01*
X128635119Y-127373130D02*
X129301785Y-128373130D01*
X127730357Y-128373130D02*
X128301785Y-128373130D01*
X128016071Y-128373130D02*
X128016071Y-127373130D01*
X128111309Y-127515988D01*
X128206547Y-127611226D01*
X128301785Y-127658845D01*
X127158928Y-127801702D02*
X127254166Y-127754083D01*
X127301785Y-127706464D01*
X127349404Y-127611226D01*
X127349404Y-127563607D01*
X127301785Y-127468369D01*
X127254166Y-127420750D01*
X127158928Y-127373130D01*
X126968452Y-127373130D01*
X126873214Y-127420750D01*
X126825595Y-127468369D01*
X126777976Y-127563607D01*
X126777976Y-127611226D01*
X126825595Y-127706464D01*
X126873214Y-127754083D01*
X126968452Y-127801702D01*
X127158928Y-127801702D01*
X127254166Y-127849321D01*
X127301785Y-127896940D01*
X127349404Y-127992178D01*
X127349404Y-128182654D01*
X127301785Y-128277892D01*
X127254166Y-128325511D01*
X127158928Y-128373130D01*
X126968452Y-128373130D01*
X126873214Y-128325511D01*
X126825595Y-128277892D01*
X126777976Y-128182654D01*
X126777976Y-127992178D01*
X126825595Y-127896940D01*
X126873214Y-127849321D01*
X126968452Y-127801702D01*
%TO.C,MX20*%
X170187880Y-129206845D02*
X169187880Y-129206845D01*
X169902166Y-129540178D01*
X169187880Y-129873511D01*
X170187880Y-129873511D01*
X169187880Y-130254464D02*
X170187880Y-130921130D01*
X169187880Y-130921130D02*
X170187880Y-130254464D01*
X169283119Y-131254464D02*
X169235500Y-131302083D01*
X169187880Y-131397321D01*
X169187880Y-131635416D01*
X169235500Y-131730654D01*
X169283119Y-131778273D01*
X169378357Y-131825892D01*
X169473595Y-131825892D01*
X169616452Y-131778273D01*
X170187880Y-131206845D01*
X170187880Y-131825892D01*
X169187880Y-132444940D02*
X169187880Y-132540178D01*
X169235500Y-132635416D01*
X169283119Y-132683035D01*
X169378357Y-132730654D01*
X169568833Y-132778273D01*
X169806928Y-132778273D01*
X169997404Y-132730654D01*
X170092642Y-132683035D01*
X170140261Y-132635416D01*
X170187880Y-132540178D01*
X170187880Y-132444940D01*
X170140261Y-132349702D01*
X170092642Y-132302083D01*
X169997404Y-132254464D01*
X169806928Y-132206845D01*
X169568833Y-132206845D01*
X169378357Y-132254464D01*
X169283119Y-132302083D01*
X169235500Y-132349702D01*
X169187880Y-132444940D01*
%TO.C,MX19*%
X149399404Y-134469130D02*
X149399404Y-133469130D01*
X149066071Y-134183416D01*
X148732738Y-133469130D01*
X148732738Y-134469130D01*
X148351785Y-133469130D02*
X147685119Y-134469130D01*
X147685119Y-133469130D02*
X148351785Y-134469130D01*
X146780357Y-134469130D02*
X147351785Y-134469130D01*
X147066071Y-134469130D02*
X147066071Y-133469130D01*
X147161309Y-133611988D01*
X147256547Y-133707226D01*
X147351785Y-133754845D01*
X146304166Y-134469130D02*
X146113690Y-134469130D01*
X146018452Y-134421511D01*
X145970833Y-134373892D01*
X145875595Y-134231035D01*
X145827976Y-134040559D01*
X145827976Y-133659607D01*
X145875595Y-133564369D01*
X145923214Y-133516750D01*
X146018452Y-133469130D01*
X146208928Y-133469130D01*
X146304166Y-133516750D01*
X146351785Y-133564369D01*
X146399404Y-133659607D01*
X146399404Y-133897702D01*
X146351785Y-133992940D01*
X146304166Y-134040559D01*
X146208928Y-134088178D01*
X146018452Y-134088178D01*
X145923214Y-134040559D01*
X145875595Y-133992940D01*
X145827976Y-133897702D01*
%TO.C,MX16-2u1*%
X164091880Y-117658035D02*
X163091880Y-117658035D01*
X163806166Y-117991369D01*
X163091880Y-118324702D01*
X164091880Y-118324702D01*
X163091880Y-118705654D02*
X164091880Y-119372321D01*
X163091880Y-119372321D02*
X164091880Y-118705654D01*
X164091880Y-120277083D02*
X164091880Y-119705654D01*
X164091880Y-119991369D02*
X163091880Y-119991369D01*
X163234738Y-119896130D01*
X163329976Y-119800892D01*
X163377595Y-119705654D01*
X163091880Y-121134226D02*
X163091880Y-120943750D01*
X163139500Y-120848511D01*
X163187119Y-120800892D01*
X163329976Y-120705654D01*
X163520452Y-120658035D01*
X163901404Y-120658035D01*
X163996642Y-120705654D01*
X164044261Y-120753273D01*
X164091880Y-120848511D01*
X164091880Y-121038988D01*
X164044261Y-121134226D01*
X163996642Y-121181845D01*
X163901404Y-121229464D01*
X163663309Y-121229464D01*
X163568071Y-121181845D01*
X163520452Y-121134226D01*
X163472833Y-121038988D01*
X163472833Y-120848511D01*
X163520452Y-120753273D01*
X163568071Y-120705654D01*
X163663309Y-120658035D01*
X163710928Y-121658035D02*
X163710928Y-122419940D01*
X163187119Y-122848511D02*
X163139500Y-122896130D01*
X163091880Y-122991369D01*
X163091880Y-123229464D01*
X163139500Y-123324702D01*
X163187119Y-123372321D01*
X163282357Y-123419940D01*
X163377595Y-123419940D01*
X163520452Y-123372321D01*
X164091880Y-122800892D01*
X164091880Y-123419940D01*
X163425214Y-124277083D02*
X164091880Y-124277083D01*
X163425214Y-123848511D02*
X163949023Y-123848511D01*
X164044261Y-123896130D01*
X164091880Y-123991369D01*
X164091880Y-124134226D01*
X164044261Y-124229464D01*
X163996642Y-124277083D01*
X164091880Y-125277083D02*
X164091880Y-124705654D01*
X164091880Y-124991369D02*
X163091880Y-124991369D01*
X163234738Y-124896130D01*
X163329976Y-124800892D01*
X163377595Y-124705654D01*
%TO.C,MX17-2u1*%
X122848214Y-134469130D02*
X122848214Y-133469130D01*
X122514880Y-134183416D01*
X122181547Y-133469130D01*
X122181547Y-134469130D01*
X121800595Y-133469130D02*
X121133928Y-134469130D01*
X121133928Y-133469130D02*
X121800595Y-134469130D01*
X120229166Y-134469130D02*
X120800595Y-134469130D01*
X120514880Y-134469130D02*
X120514880Y-133469130D01*
X120610119Y-133611988D01*
X120705357Y-133707226D01*
X120800595Y-133754845D01*
X119895833Y-133469130D02*
X119229166Y-133469130D01*
X119657738Y-134469130D01*
X118848214Y-134088178D02*
X118086309Y-134088178D01*
X117657738Y-133564369D02*
X117610119Y-133516750D01*
X117514880Y-133469130D01*
X117276785Y-133469130D01*
X117181547Y-133516750D01*
X117133928Y-133564369D01*
X117086309Y-133659607D01*
X117086309Y-133754845D01*
X117133928Y-133897702D01*
X117705357Y-134469130D01*
X117086309Y-134469130D01*
X116229166Y-133802464D02*
X116229166Y-134469130D01*
X116657738Y-133802464D02*
X116657738Y-134326273D01*
X116610119Y-134421511D01*
X116514880Y-134469130D01*
X116372023Y-134469130D01*
X116276785Y-134421511D01*
X116229166Y-134373892D01*
X115229166Y-134469130D02*
X115800595Y-134469130D01*
X115514880Y-134469130D02*
X115514880Y-133469130D01*
X115610119Y-133611988D01*
X115705357Y-133707226D01*
X115800595Y-133754845D01*
%TO.C,MX8-2u1*%
X164091880Y-80034226D02*
X163091880Y-80034226D01*
X163806166Y-80367559D01*
X163091880Y-80700892D01*
X164091880Y-80700892D01*
X163091880Y-81081845D02*
X164091880Y-81748511D01*
X163091880Y-81748511D02*
X164091880Y-81081845D01*
X163520452Y-82272321D02*
X163472833Y-82177083D01*
X163425214Y-82129464D01*
X163329976Y-82081845D01*
X163282357Y-82081845D01*
X163187119Y-82129464D01*
X163139500Y-82177083D01*
X163091880Y-82272321D01*
X163091880Y-82462797D01*
X163139500Y-82558035D01*
X163187119Y-82605654D01*
X163282357Y-82653273D01*
X163329976Y-82653273D01*
X163425214Y-82605654D01*
X163472833Y-82558035D01*
X163520452Y-82462797D01*
X163520452Y-82272321D01*
X163568071Y-82177083D01*
X163615690Y-82129464D01*
X163710928Y-82081845D01*
X163901404Y-82081845D01*
X163996642Y-82129464D01*
X164044261Y-82177083D01*
X164091880Y-82272321D01*
X164091880Y-82462797D01*
X164044261Y-82558035D01*
X163996642Y-82605654D01*
X163901404Y-82653273D01*
X163710928Y-82653273D01*
X163615690Y-82605654D01*
X163568071Y-82558035D01*
X163520452Y-82462797D01*
X163710928Y-83081845D02*
X163710928Y-83843750D01*
X163187119Y-84272321D02*
X163139500Y-84319940D01*
X163091880Y-84415178D01*
X163091880Y-84653273D01*
X163139500Y-84748511D01*
X163187119Y-84796130D01*
X163282357Y-84843750D01*
X163377595Y-84843750D01*
X163520452Y-84796130D01*
X164091880Y-84224702D01*
X164091880Y-84843750D01*
X163425214Y-85700892D02*
X164091880Y-85700892D01*
X163425214Y-85272321D02*
X163949023Y-85272321D01*
X164044261Y-85319940D01*
X164091880Y-85415178D01*
X164091880Y-85558035D01*
X164044261Y-85653273D01*
X163996642Y-85700892D01*
X164091880Y-86700892D02*
X164091880Y-86129464D01*
X164091880Y-86415178D02*
X163091880Y-86415178D01*
X163234738Y-86319940D01*
X163329976Y-86224702D01*
X163377595Y-86129464D01*
%TO.C,MX6*%
X129873214Y-77319130D02*
X129873214Y-76319130D01*
X129539880Y-77033416D01*
X129206547Y-76319130D01*
X129206547Y-77319130D01*
X128825595Y-76319130D02*
X128158928Y-77319130D01*
X128158928Y-76319130D02*
X128825595Y-77319130D01*
X127349404Y-76319130D02*
X127539880Y-76319130D01*
X127635119Y-76366750D01*
X127682738Y-76414369D01*
X127777976Y-76557226D01*
X127825595Y-76747702D01*
X127825595Y-77128654D01*
X127777976Y-77223892D01*
X127730357Y-77271511D01*
X127635119Y-77319130D01*
X127444642Y-77319130D01*
X127349404Y-77271511D01*
X127301785Y-77223892D01*
X127254166Y-77128654D01*
X127254166Y-76890559D01*
X127301785Y-76795321D01*
X127349404Y-76747702D01*
X127444642Y-76700083D01*
X127635119Y-76700083D01*
X127730357Y-76747702D01*
X127777976Y-76795321D01*
X127825595Y-76890559D01*
%TO.C,D13*%
X117230654Y-99809421D02*
X116430654Y-99809421D01*
X116430654Y-99999897D01*
X116468750Y-100114183D01*
X116544940Y-100190373D01*
X116621130Y-100228469D01*
X116773511Y-100266564D01*
X116887797Y-100266564D01*
X117040178Y-100228469D01*
X117116369Y-100190373D01*
X117192559Y-100114183D01*
X117230654Y-99999897D01*
X117230654Y-99809421D01*
X117230654Y-101028469D02*
X117230654Y-100571326D01*
X117230654Y-100799897D02*
X116430654Y-100799897D01*
X116544940Y-100723707D01*
X116621130Y-100647516D01*
X116659226Y-100571326D01*
X116430654Y-101295135D02*
X116430654Y-101790373D01*
X116735416Y-101523707D01*
X116735416Y-101637992D01*
X116773511Y-101714183D01*
X116811607Y-101752278D01*
X116887797Y-101790373D01*
X117078273Y-101790373D01*
X117154464Y-101752278D01*
X117192559Y-101714183D01*
X117230654Y-101637992D01*
X117230654Y-101409421D01*
X117192559Y-101333230D01*
X117154464Y-101295135D01*
%TO.C,MX14*%
X130349404Y-115419130D02*
X130349404Y-114419130D01*
X130016071Y-115133416D01*
X129682738Y-114419130D01*
X129682738Y-115419130D01*
X129301785Y-114419130D02*
X128635119Y-115419130D01*
X128635119Y-114419130D02*
X129301785Y-115419130D01*
X127730357Y-115419130D02*
X128301785Y-115419130D01*
X128016071Y-115419130D02*
X128016071Y-114419130D01*
X128111309Y-114561988D01*
X128206547Y-114657226D01*
X128301785Y-114704845D01*
X126873214Y-114752464D02*
X126873214Y-115419130D01*
X127111309Y-114371511D02*
X127349404Y-115085797D01*
X126730357Y-115085797D01*
%TO.C,D24*%
X175961904Y-111028571D02*
X175161904Y-111028571D01*
X175161904Y-111219047D01*
X175200000Y-111333333D01*
X175276190Y-111409523D01*
X175352380Y-111447619D01*
X175504761Y-111485714D01*
X175619047Y-111485714D01*
X175771428Y-111447619D01*
X175847619Y-111409523D01*
X175923809Y-111333333D01*
X175961904Y-111219047D01*
X175961904Y-111028571D01*
X175238095Y-111790476D02*
X175200000Y-111828571D01*
X175161904Y-111904761D01*
X175161904Y-112095238D01*
X175200000Y-112171428D01*
X175238095Y-112209523D01*
X175314285Y-112247619D01*
X175390476Y-112247619D01*
X175504761Y-112209523D01*
X175961904Y-111752380D01*
X175961904Y-112247619D01*
X175428571Y-112933333D02*
X175961904Y-112933333D01*
X175123809Y-112742857D02*
X175695238Y-112552380D01*
X175695238Y-113047619D01*
%TO.C,D21*%
X174221904Y-55772171D02*
X173421904Y-55772171D01*
X173421904Y-55962647D01*
X173460000Y-56076933D01*
X173536190Y-56153123D01*
X173612380Y-56191219D01*
X173764761Y-56229314D01*
X173879047Y-56229314D01*
X174031428Y-56191219D01*
X174107619Y-56153123D01*
X174183809Y-56076933D01*
X174221904Y-55962647D01*
X174221904Y-55772171D01*
X173498095Y-56534076D02*
X173460000Y-56572171D01*
X173421904Y-56648361D01*
X173421904Y-56838838D01*
X173460000Y-56915028D01*
X173498095Y-56953123D01*
X173574285Y-56991219D01*
X173650476Y-56991219D01*
X173764761Y-56953123D01*
X174221904Y-56495980D01*
X174221904Y-56991219D01*
X174221904Y-57753123D02*
X174221904Y-57295980D01*
X174221904Y-57524552D02*
X173421904Y-57524552D01*
X173536190Y-57448361D01*
X173612380Y-57372171D01*
X173650476Y-57295980D01*
%TO.C,D23*%
X175961904Y-96528571D02*
X175161904Y-96528571D01*
X175161904Y-96719047D01*
X175200000Y-96833333D01*
X175276190Y-96909523D01*
X175352380Y-96947619D01*
X175504761Y-96985714D01*
X175619047Y-96985714D01*
X175771428Y-96947619D01*
X175847619Y-96909523D01*
X175923809Y-96833333D01*
X175961904Y-96719047D01*
X175961904Y-96528571D01*
X175238095Y-97290476D02*
X175200000Y-97328571D01*
X175161904Y-97404761D01*
X175161904Y-97595238D01*
X175200000Y-97671428D01*
X175238095Y-97709523D01*
X175314285Y-97747619D01*
X175390476Y-97747619D01*
X175504761Y-97709523D01*
X175961904Y-97252380D01*
X175961904Y-97747619D01*
X175161904Y-98014285D02*
X175161904Y-98509523D01*
X175466666Y-98242857D01*
X175466666Y-98357142D01*
X175504761Y-98433333D01*
X175542857Y-98471428D01*
X175619047Y-98509523D01*
X175809523Y-98509523D01*
X175885714Y-98471428D01*
X175923809Y-98433333D01*
X175961904Y-98357142D01*
X175961904Y-98128571D01*
X175923809Y-98052380D01*
X175885714Y-98014285D01*
%TO.C,RESET1*%
X184824673Y-127854090D02*
X184723657Y-127281670D01*
X185228734Y-127450029D02*
X184521627Y-126742922D01*
X184252253Y-127012296D01*
X184218581Y-127113311D01*
X184218581Y-127180655D01*
X184252253Y-127281670D01*
X184353268Y-127382685D01*
X184454283Y-127416357D01*
X184521627Y-127416357D01*
X184622642Y-127382685D01*
X184892016Y-127113311D01*
X184151238Y-127786746D02*
X183915535Y-128022448D01*
X184184909Y-128493853D02*
X184521627Y-128157135D01*
X183814520Y-127450029D01*
X183477803Y-127786746D01*
X183881864Y-128729555D02*
X183814520Y-128864242D01*
X183646161Y-129032601D01*
X183545146Y-129066273D01*
X183477803Y-129066273D01*
X183376787Y-129032601D01*
X183309444Y-128965258D01*
X183275772Y-128864242D01*
X183275772Y-128796899D01*
X183309444Y-128695884D01*
X183410459Y-128527525D01*
X183444131Y-128426509D01*
X183444131Y-128359166D01*
X183410459Y-128258151D01*
X183343115Y-128190807D01*
X183242100Y-128157135D01*
X183174757Y-128157135D01*
X183073741Y-128190807D01*
X182905383Y-128359166D01*
X182838039Y-128493853D01*
X182838039Y-129099945D02*
X182602337Y-129335647D01*
X182871711Y-129807051D02*
X183208428Y-129470334D01*
X182501322Y-128763227D01*
X182164604Y-129099945D01*
X181962574Y-129301975D02*
X181558513Y-129706036D01*
X182467650Y-130211112D02*
X181760543Y-129504006D01*
%TO.C,D14*%
X129596828Y-100561904D02*
X129596828Y-99761904D01*
X129406352Y-99761904D01*
X129292066Y-99800000D01*
X129215876Y-99876190D01*
X129177780Y-99952380D01*
X129139685Y-100104761D01*
X129139685Y-100219047D01*
X129177780Y-100371428D01*
X129215876Y-100447619D01*
X129292066Y-100523809D01*
X129406352Y-100561904D01*
X129596828Y-100561904D01*
X128377780Y-100561904D02*
X128834923Y-100561904D01*
X128606352Y-100561904D02*
X128606352Y-99761904D01*
X128682542Y-99876190D01*
X128758733Y-99952380D01*
X128834923Y-99990476D01*
X127692066Y-100028571D02*
X127692066Y-100561904D01*
X127882542Y-99723809D02*
X128073019Y-100295238D01*
X127577780Y-100295238D01*
%TO.C,U1*%
X185189880Y-57865095D02*
X185999404Y-57865095D01*
X186094642Y-57912714D01*
X186142261Y-57960333D01*
X186189880Y-58055571D01*
X186189880Y-58246047D01*
X186142261Y-58341285D01*
X186094642Y-58388904D01*
X185999404Y-58436523D01*
X185189880Y-58436523D01*
X186189880Y-59436523D02*
X186189880Y-58865095D01*
X186189880Y-59150809D02*
X185189880Y-59150809D01*
X185332738Y-59055571D01*
X185427976Y-58960333D01*
X185475595Y-58865095D01*
D11*
X191708126Y-64728285D02*
X191708126Y-63978285D01*
X191548602Y-63978285D01*
X191452888Y-64014000D01*
X191389078Y-64085428D01*
X191357173Y-64156857D01*
X191325269Y-64299714D01*
X191325269Y-64406857D01*
X191357173Y-64549714D01*
X191389078Y-64621142D01*
X191452888Y-64692571D01*
X191548602Y-64728285D01*
X191708126Y-64728285D01*
X190750983Y-64228285D02*
X190750983Y-64728285D01*
X190910507Y-63942571D02*
X191070030Y-64478285D01*
X190655269Y-64478285D01*
X189921459Y-63942571D02*
X190495745Y-64906857D01*
X189410983Y-64228285D02*
X189410983Y-64728285D01*
X189570507Y-63942571D02*
X189730030Y-64478285D01*
X189315269Y-64478285D01*
X191708126Y-49488285D02*
X191708126Y-48738285D01*
X191548602Y-48738285D01*
X191452888Y-48774000D01*
X191389078Y-48845428D01*
X191357173Y-48916857D01*
X191325269Y-49059714D01*
X191325269Y-49166857D01*
X191357173Y-49309714D01*
X191389078Y-49381142D01*
X191452888Y-49452571D01*
X191548602Y-49488285D01*
X191708126Y-49488285D01*
X191101935Y-48738285D02*
X190687173Y-48738285D01*
X190910507Y-49024000D01*
X190814792Y-49024000D01*
X190750983Y-49059714D01*
X190719078Y-49095428D01*
X190687173Y-49166857D01*
X190687173Y-49345428D01*
X190719078Y-49416857D01*
X190750983Y-49452571D01*
X190814792Y-49488285D01*
X191006221Y-49488285D01*
X191070030Y-49452571D01*
X191101935Y-49416857D01*
X189921459Y-48702571D02*
X190495745Y-49666857D01*
X189793840Y-48738285D02*
X189410983Y-48738285D01*
X189602411Y-49488285D02*
X189602411Y-48738285D01*
X189251459Y-48738285D02*
X188804792Y-49488285D01*
X188804792Y-48738285D02*
X189251459Y-49488285D01*
X188421935Y-48738285D02*
X188358126Y-48738285D01*
X188294316Y-48774000D01*
X188262411Y-48809714D01*
X188230507Y-48881142D01*
X188198602Y-49024000D01*
X188198602Y-49202571D01*
X188230507Y-49345428D01*
X188262411Y-49416857D01*
X188294316Y-49452571D01*
X188358126Y-49488285D01*
X188421935Y-49488285D01*
X188485745Y-49452571D01*
X188517650Y-49416857D01*
X188549554Y-49345428D01*
X188581459Y-49202571D01*
X188581459Y-49024000D01*
X188549554Y-48881142D01*
X188517650Y-48809714D01*
X188485745Y-48774000D01*
X188421935Y-48738285D01*
X191357173Y-53854000D02*
X191420983Y-53818285D01*
X191516697Y-53818285D01*
X191612411Y-53854000D01*
X191676221Y-53925428D01*
X191708126Y-53996857D01*
X191740030Y-54139714D01*
X191740030Y-54246857D01*
X191708126Y-54389714D01*
X191676221Y-54461142D01*
X191612411Y-54532571D01*
X191516697Y-54568285D01*
X191452888Y-54568285D01*
X191357173Y-54532571D01*
X191325269Y-54496857D01*
X191325269Y-54246857D01*
X191452888Y-54246857D01*
X191038126Y-54568285D02*
X191038126Y-53818285D01*
X190655269Y-54568285D01*
X190655269Y-53818285D01*
X190336221Y-54568285D02*
X190336221Y-53818285D01*
X190176697Y-53818285D01*
X190080983Y-53854000D01*
X190017173Y-53925428D01*
X189985269Y-53996857D01*
X189953364Y-54139714D01*
X189953364Y-54246857D01*
X189985269Y-54389714D01*
X190017173Y-54461142D01*
X190080983Y-54532571D01*
X190176697Y-54568285D01*
X190336221Y-54568285D01*
X191479504Y-67419235D02*
X191522827Y-67439644D01*
X191624888Y-67435121D01*
X191683625Y-67410189D01*
X191757775Y-67339915D01*
X191788603Y-67249232D01*
X191790062Y-67171016D01*
X191763612Y-67027049D01*
X191721748Y-66928423D01*
X191636561Y-66809389D01*
X191579283Y-66756105D01*
X191492636Y-66715287D01*
X191390576Y-66719810D01*
X191331839Y-66744742D01*
X191257688Y-66815016D01*
X191242275Y-66860357D01*
X190685733Y-67018998D02*
X190803206Y-66969134D01*
X190875898Y-66977076D01*
X190919221Y-66997485D01*
X191019822Y-67071179D01*
X191105010Y-67190213D01*
X191216647Y-67453214D01*
X191215188Y-67531431D01*
X191199774Y-67576772D01*
X191154992Y-67634580D01*
X191037518Y-67684445D01*
X190964826Y-67676502D01*
X190921503Y-67656093D01*
X190864225Y-67602809D01*
X190794452Y-67438433D01*
X190795911Y-67360216D01*
X190811325Y-67314875D01*
X190856107Y-67257067D01*
X190973581Y-67207203D01*
X191046273Y-67215145D01*
X191089596Y-67235554D01*
X191146874Y-67288839D01*
X189908197Y-67310244D02*
X190813606Y-67973482D01*
X189422888Y-67555044D02*
X189716572Y-67430382D01*
X189885488Y-67746668D01*
X189842165Y-67726259D01*
X189769473Y-67718316D01*
X189622630Y-67780647D01*
X189577848Y-67838455D01*
X189562434Y-67883796D01*
X189560975Y-67962012D01*
X189630749Y-68126388D01*
X189688027Y-68179673D01*
X189731350Y-68200082D01*
X189804041Y-68208024D01*
X189950884Y-68145693D01*
X189995666Y-68087886D01*
X190011080Y-68042545D01*
X191780030Y-59612571D02*
X191684316Y-59648285D01*
X191524792Y-59648285D01*
X191460983Y-59612571D01*
X191429078Y-59576857D01*
X191397173Y-59505428D01*
X191397173Y-59434000D01*
X191429078Y-59362571D01*
X191460983Y-59326857D01*
X191524792Y-59291142D01*
X191652411Y-59255428D01*
X191716221Y-59219714D01*
X191748126Y-59184000D01*
X191780030Y-59112571D01*
X191780030Y-59041142D01*
X191748126Y-58969714D01*
X191716221Y-58934000D01*
X191652411Y-58898285D01*
X191492888Y-58898285D01*
X191397173Y-58934000D01*
X191110030Y-59648285D02*
X191110030Y-58898285D01*
X190950507Y-58898285D01*
X190854792Y-58934000D01*
X190790983Y-59005428D01*
X190759078Y-59076857D01*
X190727173Y-59219714D01*
X190727173Y-59326857D01*
X190759078Y-59469714D01*
X190790983Y-59541142D01*
X190854792Y-59612571D01*
X190950507Y-59648285D01*
X191110030Y-59648285D01*
X190471935Y-59434000D02*
X190152888Y-59434000D01*
X190535745Y-59648285D02*
X190312411Y-58898285D01*
X190089078Y-59648285D01*
X189387173Y-58862571D02*
X189961459Y-59826857D01*
X189163840Y-59648285D02*
X189163840Y-58898285D01*
X189004316Y-58898285D01*
X188908602Y-58934000D01*
X188844792Y-59005428D01*
X188812888Y-59076857D01*
X188780983Y-59219714D01*
X188780983Y-59326857D01*
X188812888Y-59469714D01*
X188844792Y-59541142D01*
X188908602Y-59612571D01*
X189004316Y-59648285D01*
X189163840Y-59648285D01*
X188142888Y-59648285D02*
X188525745Y-59648285D01*
X188334316Y-59648285D02*
X188334316Y-58898285D01*
X188398126Y-59005428D01*
X188461935Y-59076857D01*
X188525745Y-59112571D01*
X187377173Y-58862571D02*
X187951459Y-59826857D01*
X187185745Y-58969714D02*
X187153840Y-58934000D01*
X187090030Y-58898285D01*
X186930507Y-58898285D01*
X186866697Y-58934000D01*
X186834792Y-58969714D01*
X186802888Y-59041142D01*
X186802888Y-59112571D01*
X186834792Y-59219714D01*
X187217650Y-59648285D01*
X186802888Y-59648285D01*
X182385864Y-69816285D02*
X182768721Y-69816285D01*
X182577292Y-69816285D02*
X182577292Y-69066285D01*
X182641102Y-69173428D01*
X182704911Y-69244857D01*
X182768721Y-69280571D01*
X181779673Y-69066285D02*
X182098721Y-69066285D01*
X182130626Y-69423428D01*
X182098721Y-69387714D01*
X182034911Y-69352000D01*
X181875388Y-69352000D01*
X181811578Y-69387714D01*
X181779673Y-69423428D01*
X181747769Y-69494857D01*
X181747769Y-69673428D01*
X181779673Y-69744857D01*
X181811578Y-69780571D01*
X181875388Y-69816285D01*
X182034911Y-69816285D01*
X182098721Y-69780571D01*
X182130626Y-69744857D01*
X180982054Y-69030571D02*
X181556340Y-69994857D01*
X180535388Y-69423428D02*
X180439673Y-69459142D01*
X180407769Y-69494857D01*
X180375864Y-69566285D01*
X180375864Y-69673428D01*
X180407769Y-69744857D01*
X180439673Y-69780571D01*
X180503483Y-69816285D01*
X180758721Y-69816285D01*
X180758721Y-69066285D01*
X180535388Y-69066285D01*
X180471578Y-69102000D01*
X180439673Y-69137714D01*
X180407769Y-69209142D01*
X180407769Y-69280571D01*
X180439673Y-69352000D01*
X180471578Y-69387714D01*
X180535388Y-69423428D01*
X180758721Y-69423428D01*
X179737769Y-69816285D02*
X180120626Y-69816285D01*
X179929197Y-69816285D02*
X179929197Y-69066285D01*
X179993007Y-69173428D01*
X180056816Y-69244857D01*
X180120626Y-69280571D01*
X191524792Y-77035428D02*
X191429078Y-77071142D01*
X191397173Y-77106857D01*
X191365269Y-77178285D01*
X191365269Y-77285428D01*
X191397173Y-77356857D01*
X191429078Y-77392571D01*
X191492888Y-77428285D01*
X191748126Y-77428285D01*
X191748126Y-76678285D01*
X191524792Y-76678285D01*
X191460983Y-76714000D01*
X191429078Y-76749714D01*
X191397173Y-76821142D01*
X191397173Y-76892571D01*
X191429078Y-76964000D01*
X191460983Y-76999714D01*
X191524792Y-77035428D01*
X191748126Y-77035428D01*
X190759078Y-76678285D02*
X191078126Y-76678285D01*
X191110030Y-77035428D01*
X191078126Y-76999714D01*
X191014316Y-76964000D01*
X190854792Y-76964000D01*
X190790983Y-76999714D01*
X190759078Y-77035428D01*
X190727173Y-77106857D01*
X190727173Y-77285428D01*
X190759078Y-77356857D01*
X190790983Y-77392571D01*
X190854792Y-77428285D01*
X191014316Y-77428285D01*
X191078126Y-77392571D01*
X191110030Y-77356857D01*
X189961459Y-76642571D02*
X190535745Y-77606857D01*
X189706221Y-77428285D02*
X189578602Y-77428285D01*
X189514792Y-77392571D01*
X189482888Y-77356857D01*
X189419078Y-77249714D01*
X189387173Y-77106857D01*
X189387173Y-76821142D01*
X189419078Y-76749714D01*
X189450983Y-76714000D01*
X189514792Y-76678285D01*
X189642411Y-76678285D01*
X189706221Y-76714000D01*
X189738126Y-76749714D01*
X189770030Y-76821142D01*
X189770030Y-76999714D01*
X189738126Y-77071142D01*
X189706221Y-77106857D01*
X189642411Y-77142571D01*
X189514792Y-77142571D01*
X189450983Y-77106857D01*
X189419078Y-77071142D01*
X189387173Y-76999714D01*
X182385864Y-72348285D02*
X182768721Y-72348285D01*
X182577292Y-72348285D02*
X182577292Y-71598285D01*
X182641102Y-71705428D01*
X182704911Y-71776857D01*
X182768721Y-71812571D01*
X181811578Y-71848285D02*
X181811578Y-72348285D01*
X181971102Y-71562571D02*
X182130626Y-72098285D01*
X181715864Y-72098285D01*
X180982054Y-71562571D02*
X181556340Y-72526857D01*
X180535388Y-71955428D02*
X180439673Y-71991142D01*
X180407769Y-72026857D01*
X180375864Y-72098285D01*
X180375864Y-72205428D01*
X180407769Y-72276857D01*
X180439673Y-72312571D01*
X180503483Y-72348285D01*
X180758721Y-72348285D01*
X180758721Y-71598285D01*
X180535388Y-71598285D01*
X180471578Y-71634000D01*
X180439673Y-71669714D01*
X180407769Y-71741142D01*
X180407769Y-71812571D01*
X180439673Y-71884000D01*
X180471578Y-71919714D01*
X180535388Y-71955428D01*
X180758721Y-71955428D01*
X180152530Y-71598285D02*
X179737769Y-71598285D01*
X179961102Y-71884000D01*
X179865388Y-71884000D01*
X179801578Y-71919714D01*
X179769673Y-71955428D01*
X179737769Y-72026857D01*
X179737769Y-72205428D01*
X179769673Y-72276857D01*
X179801578Y-72312571D01*
X179865388Y-72348285D01*
X180056816Y-72348285D01*
X180120626Y-72312571D01*
X180152530Y-72276857D01*
X182609197Y-59434000D02*
X182290150Y-59434000D01*
X182673007Y-59648285D02*
X182449673Y-58898285D01*
X182226340Y-59648285D01*
X182066816Y-58898285D02*
X181652054Y-58898285D01*
X181875388Y-59184000D01*
X181779673Y-59184000D01*
X181715864Y-59219714D01*
X181683959Y-59255428D01*
X181652054Y-59326857D01*
X181652054Y-59505428D01*
X181683959Y-59576857D01*
X181715864Y-59612571D01*
X181779673Y-59648285D01*
X181971102Y-59648285D01*
X182034911Y-59612571D01*
X182066816Y-59576857D01*
X180886340Y-58862571D02*
X181460626Y-59826857D01*
X180439673Y-59255428D02*
X180663007Y-59255428D01*
X180663007Y-59648285D02*
X180663007Y-58898285D01*
X180343959Y-58898285D01*
X179801578Y-59148285D02*
X179801578Y-59648285D01*
X179961102Y-58862571D02*
X180120626Y-59398285D01*
X179705864Y-59398285D01*
X182315487Y-68247631D02*
X182021802Y-68122969D01*
X182290496Y-68469814D02*
X182377965Y-67692172D01*
X181879337Y-68295288D01*
X181849332Y-67467781D02*
X181790595Y-67442849D01*
X181717903Y-67450791D01*
X181674580Y-67471200D01*
X181617302Y-67524485D01*
X181532115Y-67643519D01*
X181462342Y-67807895D01*
X181435891Y-67951862D01*
X181437351Y-68030078D01*
X181452764Y-68075420D01*
X181497547Y-68133227D01*
X181556284Y-68158160D01*
X181628975Y-68150217D01*
X181672299Y-68129808D01*
X181729576Y-68076524D01*
X181814764Y-67957489D01*
X181884537Y-67793113D01*
X181910987Y-67649146D01*
X181909528Y-67570930D01*
X181894114Y-67525588D01*
X181849332Y-67467781D01*
X180952864Y-67048454D02*
X181104720Y-68160475D01*
X180388203Y-67235554D02*
X180593783Y-67322818D01*
X180440281Y-67684445D02*
X180733329Y-66994066D01*
X180439645Y-66869404D01*
X180263434Y-66794607D02*
X179852275Y-66620080D01*
X179823543Y-67422655D01*
X181141578Y-51314000D02*
X181205388Y-51278285D01*
X181301102Y-51278285D01*
X181396816Y-51314000D01*
X181460626Y-51385428D01*
X181492530Y-51456857D01*
X181524435Y-51599714D01*
X181524435Y-51706857D01*
X181492530Y-51849714D01*
X181460626Y-51921142D01*
X181396816Y-51992571D01*
X181301102Y-52028285D01*
X181237292Y-52028285D01*
X181141578Y-51992571D01*
X181109673Y-51956857D01*
X181109673Y-51706857D01*
X181237292Y-51706857D01*
X180822530Y-52028285D02*
X180822530Y-51278285D01*
X180439673Y-52028285D01*
X180439673Y-51278285D01*
X180120626Y-52028285D02*
X180120626Y-51278285D01*
X179961102Y-51278285D01*
X179865388Y-51314000D01*
X179801578Y-51385428D01*
X179769673Y-51456857D01*
X179737769Y-51599714D01*
X179737769Y-51706857D01*
X179769673Y-51849714D01*
X179801578Y-51921142D01*
X179865388Y-51992571D01*
X179961102Y-52028285D01*
X180120626Y-52028285D01*
X191708126Y-52028285D02*
X191708126Y-51278285D01*
X191548602Y-51278285D01*
X191452888Y-51314000D01*
X191389078Y-51385428D01*
X191357173Y-51456857D01*
X191325269Y-51599714D01*
X191325269Y-51706857D01*
X191357173Y-51849714D01*
X191389078Y-51921142D01*
X191452888Y-51992571D01*
X191548602Y-52028285D01*
X191708126Y-52028285D01*
X191070030Y-51349714D02*
X191038126Y-51314000D01*
X190974316Y-51278285D01*
X190814792Y-51278285D01*
X190750983Y-51314000D01*
X190719078Y-51349714D01*
X190687173Y-51421142D01*
X190687173Y-51492571D01*
X190719078Y-51599714D01*
X191101935Y-52028285D01*
X190687173Y-52028285D01*
X189921459Y-51242571D02*
X190495745Y-52206857D01*
X189315269Y-52028285D02*
X189538602Y-51671142D01*
X189698126Y-52028285D02*
X189698126Y-51278285D01*
X189442888Y-51278285D01*
X189379078Y-51314000D01*
X189347173Y-51349714D01*
X189315269Y-51421142D01*
X189315269Y-51528285D01*
X189347173Y-51599714D01*
X189379078Y-51635428D01*
X189442888Y-51671142D01*
X189698126Y-51671142D01*
X189091935Y-51278285D02*
X188645269Y-52028285D01*
X188645269Y-51278285D02*
X189091935Y-52028285D01*
X188039078Y-52028285D02*
X188421935Y-52028285D01*
X188230507Y-52028285D02*
X188230507Y-51278285D01*
X188294316Y-51385428D01*
X188358126Y-51456857D01*
X188421935Y-51492571D01*
X191708126Y-71955428D02*
X191484792Y-71955428D01*
X191389078Y-72348285D02*
X191708126Y-72348285D01*
X191708126Y-71598285D01*
X191389078Y-71598285D01*
X190814792Y-71598285D02*
X190942411Y-71598285D01*
X191006221Y-71634000D01*
X191038126Y-71669714D01*
X191101935Y-71776857D01*
X191133840Y-71919714D01*
X191133840Y-72205428D01*
X191101935Y-72276857D01*
X191070030Y-72312571D01*
X191006221Y-72348285D01*
X190878602Y-72348285D01*
X190814792Y-72312571D01*
X190782888Y-72276857D01*
X190750983Y-72205428D01*
X190750983Y-72026857D01*
X190782888Y-71955428D01*
X190814792Y-71919714D01*
X190878602Y-71884000D01*
X191006221Y-71884000D01*
X191070030Y-71919714D01*
X191101935Y-71955428D01*
X191133840Y-72026857D01*
X189985269Y-71562571D02*
X190559554Y-72526857D01*
X189825745Y-71598285D02*
X189379078Y-71598285D01*
X189666221Y-72348285D01*
X191484792Y-74495428D02*
X191389078Y-74531142D01*
X191357173Y-74566857D01*
X191325269Y-74638285D01*
X191325269Y-74745428D01*
X191357173Y-74816857D01*
X191389078Y-74852571D01*
X191452888Y-74888285D01*
X191708126Y-74888285D01*
X191708126Y-74138285D01*
X191484792Y-74138285D01*
X191420983Y-74174000D01*
X191389078Y-74209714D01*
X191357173Y-74281142D01*
X191357173Y-74352571D01*
X191389078Y-74424000D01*
X191420983Y-74459714D01*
X191484792Y-74495428D01*
X191708126Y-74495428D01*
X190750983Y-74388285D02*
X190750983Y-74888285D01*
X190910507Y-74102571D02*
X191070030Y-74638285D01*
X190655269Y-74638285D01*
X189921459Y-74102571D02*
X190495745Y-75066857D01*
X189602411Y-74459714D02*
X189666221Y-74424000D01*
X189698126Y-74388285D01*
X189730030Y-74316857D01*
X189730030Y-74281142D01*
X189698126Y-74209714D01*
X189666221Y-74174000D01*
X189602411Y-74138285D01*
X189474792Y-74138285D01*
X189410983Y-74174000D01*
X189379078Y-74209714D01*
X189347173Y-74281142D01*
X189347173Y-74316857D01*
X189379078Y-74388285D01*
X189410983Y-74424000D01*
X189474792Y-74459714D01*
X189602411Y-74459714D01*
X189666221Y-74495428D01*
X189698126Y-74531142D01*
X189730030Y-74602571D01*
X189730030Y-74745428D01*
X189698126Y-74816857D01*
X189666221Y-74852571D01*
X189602411Y-74888285D01*
X189474792Y-74888285D01*
X189410983Y-74852571D01*
X189379078Y-74816857D01*
X189347173Y-74745428D01*
X189347173Y-74602571D01*
X189379078Y-74531142D01*
X189410983Y-74495428D01*
X189474792Y-74459714D01*
X182385864Y-77428285D02*
X182768721Y-77428285D01*
X182577292Y-77428285D02*
X182577292Y-76678285D01*
X182641102Y-76785428D01*
X182704911Y-76856857D01*
X182768721Y-76892571D01*
X181971102Y-76678285D02*
X181907292Y-76678285D01*
X181843483Y-76714000D01*
X181811578Y-76749714D01*
X181779673Y-76821142D01*
X181747769Y-76964000D01*
X181747769Y-77142571D01*
X181779673Y-77285428D01*
X181811578Y-77356857D01*
X181843483Y-77392571D01*
X181907292Y-77428285D01*
X181971102Y-77428285D01*
X182034911Y-77392571D01*
X182066816Y-77356857D01*
X182098721Y-77285428D01*
X182130626Y-77142571D01*
X182130626Y-76964000D01*
X182098721Y-76821142D01*
X182066816Y-76749714D01*
X182034911Y-76714000D01*
X181971102Y-76678285D01*
X180982054Y-76642571D02*
X181556340Y-77606857D01*
X180535388Y-77035428D02*
X180439673Y-77071142D01*
X180407769Y-77106857D01*
X180375864Y-77178285D01*
X180375864Y-77285428D01*
X180407769Y-77356857D01*
X180439673Y-77392571D01*
X180503483Y-77428285D01*
X180758721Y-77428285D01*
X180758721Y-76678285D01*
X180535388Y-76678285D01*
X180471578Y-76714000D01*
X180439673Y-76749714D01*
X180407769Y-76821142D01*
X180407769Y-76892571D01*
X180439673Y-76964000D01*
X180471578Y-76999714D01*
X180535388Y-77035428D01*
X180758721Y-77035428D01*
X179801578Y-76678285D02*
X179929197Y-76678285D01*
X179993007Y-76714000D01*
X180024911Y-76749714D01*
X180088721Y-76856857D01*
X180120626Y-76999714D01*
X180120626Y-77285428D01*
X180088721Y-77356857D01*
X180056816Y-77392571D01*
X179993007Y-77428285D01*
X179865388Y-77428285D01*
X179801578Y-77392571D01*
X179769673Y-77356857D01*
X179737769Y-77285428D01*
X179737769Y-77106857D01*
X179769673Y-77035428D01*
X179801578Y-76999714D01*
X179865388Y-76964000D01*
X179993007Y-76964000D01*
X180056816Y-76999714D01*
X180088721Y-77035428D01*
X180120626Y-77106857D01*
X181460626Y-56358285D02*
X181237292Y-57108285D01*
X181013959Y-56358285D01*
X180407769Y-57036857D02*
X180439673Y-57072571D01*
X180535388Y-57108285D01*
X180599197Y-57108285D01*
X180694911Y-57072571D01*
X180758721Y-57001142D01*
X180790626Y-56929714D01*
X180822530Y-56786857D01*
X180822530Y-56679714D01*
X180790626Y-56536857D01*
X180758721Y-56465428D01*
X180694911Y-56394000D01*
X180599197Y-56358285D01*
X180535388Y-56358285D01*
X180439673Y-56394000D01*
X180407769Y-56429714D01*
X179737769Y-57036857D02*
X179769673Y-57072571D01*
X179865388Y-57108285D01*
X179929197Y-57108285D01*
X180024911Y-57072571D01*
X180088721Y-57001142D01*
X180120626Y-56929714D01*
X180152530Y-56786857D01*
X180152530Y-56679714D01*
X180120626Y-56536857D01*
X180088721Y-56465428D01*
X180024911Y-56394000D01*
X179929197Y-56358285D01*
X179865388Y-56358285D01*
X179769673Y-56394000D01*
X179737769Y-56429714D01*
X182315487Y-63167631D02*
X182021802Y-63042969D01*
X182290496Y-63389814D02*
X182377965Y-62612172D01*
X181879337Y-63215288D01*
X181968265Y-62515862D02*
X181952851Y-62470521D01*
X181908069Y-62412713D01*
X181761227Y-62350382D01*
X181688535Y-62358325D01*
X181645212Y-62378734D01*
X181587934Y-62432018D01*
X181560025Y-62497769D01*
X181547529Y-62608860D01*
X181732495Y-63152957D01*
X181350704Y-62990896D01*
X180952864Y-61968454D02*
X181104720Y-63080475D01*
X180388203Y-62155554D02*
X180593783Y-62242818D01*
X180440281Y-62604445D02*
X180733329Y-61914066D01*
X180439645Y-61789404D01*
X179911012Y-61565013D02*
X180204697Y-61689675D01*
X180094518Y-62030893D01*
X180079105Y-61985551D01*
X180034322Y-61927744D01*
X179887480Y-61865413D01*
X179814788Y-61873356D01*
X179771465Y-61893765D01*
X179714187Y-61947049D01*
X179644414Y-62111425D01*
X179645873Y-62189641D01*
X179661287Y-62234982D01*
X179706069Y-62292790D01*
X179852911Y-62355121D01*
X179925603Y-62347178D01*
X179968926Y-62326769D01*
X181077769Y-49488285D02*
X181301102Y-49131142D01*
X181460626Y-49488285D02*
X181460626Y-48738285D01*
X181205388Y-48738285D01*
X181141578Y-48774000D01*
X181109673Y-48809714D01*
X181077769Y-48881142D01*
X181077769Y-48988285D01*
X181109673Y-49059714D01*
X181141578Y-49095428D01*
X181205388Y-49131142D01*
X181460626Y-49131142D01*
X180822530Y-49274000D02*
X180503483Y-49274000D01*
X180886340Y-49488285D02*
X180663007Y-48738285D01*
X180439673Y-49488285D01*
X180280150Y-48738285D02*
X180120626Y-49488285D01*
X179993007Y-48952571D01*
X179865388Y-49488285D01*
X179705864Y-48738285D01*
X191397173Y-56394000D02*
X191460983Y-56358285D01*
X191556697Y-56358285D01*
X191652411Y-56394000D01*
X191716221Y-56465428D01*
X191748126Y-56536857D01*
X191780030Y-56679714D01*
X191780030Y-56786857D01*
X191748126Y-56929714D01*
X191716221Y-57001142D01*
X191652411Y-57072571D01*
X191556697Y-57108285D01*
X191492888Y-57108285D01*
X191397173Y-57072571D01*
X191365269Y-57036857D01*
X191365269Y-56786857D01*
X191492888Y-56786857D01*
X191078126Y-57108285D02*
X191078126Y-56358285D01*
X190695269Y-57108285D01*
X190695269Y-56358285D01*
X190376221Y-57108285D02*
X190376221Y-56358285D01*
X190216697Y-56358285D01*
X190120983Y-56394000D01*
X190057173Y-56465428D01*
X190025269Y-56536857D01*
X189993364Y-56679714D01*
X189993364Y-56786857D01*
X190025269Y-56929714D01*
X190057173Y-57001142D01*
X190120983Y-57072571D01*
X190216697Y-57108285D01*
X190376221Y-57108285D01*
X191708126Y-69808285D02*
X191708126Y-69058285D01*
X191548602Y-69058285D01*
X191452888Y-69094000D01*
X191389078Y-69165428D01*
X191357173Y-69236857D01*
X191325269Y-69379714D01*
X191325269Y-69486857D01*
X191357173Y-69629714D01*
X191389078Y-69701142D01*
X191452888Y-69772571D01*
X191548602Y-69808285D01*
X191708126Y-69808285D01*
X191101935Y-69058285D02*
X190655269Y-69058285D01*
X190942411Y-69808285D01*
X189921459Y-69022571D02*
X190495745Y-69986857D01*
X189410983Y-69058285D02*
X189538602Y-69058285D01*
X189602411Y-69094000D01*
X189634316Y-69129714D01*
X189698126Y-69236857D01*
X189730030Y-69379714D01*
X189730030Y-69665428D01*
X189698126Y-69736857D01*
X189666221Y-69772571D01*
X189602411Y-69808285D01*
X189474792Y-69808285D01*
X189410983Y-69772571D01*
X189379078Y-69736857D01*
X189347173Y-69665428D01*
X189347173Y-69486857D01*
X189379078Y-69415428D01*
X189410983Y-69379714D01*
X189474792Y-69344000D01*
X189602411Y-69344000D01*
X189666221Y-69379714D01*
X189698126Y-69415428D01*
X189730030Y-69486857D01*
X182385864Y-74916285D02*
X182768721Y-74916285D01*
X182577292Y-74916285D02*
X182577292Y-74166285D01*
X182641102Y-74273428D01*
X182704911Y-74344857D01*
X182768721Y-74380571D01*
X181811578Y-74166285D02*
X181939197Y-74166285D01*
X182003007Y-74202000D01*
X182034911Y-74237714D01*
X182098721Y-74344857D01*
X182130626Y-74487714D01*
X182130626Y-74773428D01*
X182098721Y-74844857D01*
X182066816Y-74880571D01*
X182003007Y-74916285D01*
X181875388Y-74916285D01*
X181811578Y-74880571D01*
X181779673Y-74844857D01*
X181747769Y-74773428D01*
X181747769Y-74594857D01*
X181779673Y-74523428D01*
X181811578Y-74487714D01*
X181875388Y-74452000D01*
X182003007Y-74452000D01*
X182066816Y-74487714D01*
X182098721Y-74523428D01*
X182130626Y-74594857D01*
X180982054Y-74130571D02*
X181556340Y-75094857D01*
X180535388Y-74523428D02*
X180439673Y-74559142D01*
X180407769Y-74594857D01*
X180375864Y-74666285D01*
X180375864Y-74773428D01*
X180407769Y-74844857D01*
X180439673Y-74880571D01*
X180503483Y-74916285D01*
X180758721Y-74916285D01*
X180758721Y-74166285D01*
X180535388Y-74166285D01*
X180471578Y-74202000D01*
X180439673Y-74237714D01*
X180407769Y-74309142D01*
X180407769Y-74380571D01*
X180439673Y-74452000D01*
X180471578Y-74487714D01*
X180535388Y-74523428D01*
X180758721Y-74523428D01*
X180120626Y-74237714D02*
X180088721Y-74202000D01*
X180024911Y-74166285D01*
X179865388Y-74166285D01*
X179801578Y-74202000D01*
X179769673Y-74237714D01*
X179737769Y-74309142D01*
X179737769Y-74380571D01*
X179769673Y-74487714D01*
X180152530Y-74916285D01*
X179737769Y-74916285D01*
X180886340Y-54568285D02*
X181109673Y-54211142D01*
X181269197Y-54568285D02*
X181269197Y-53818285D01*
X181013959Y-53818285D01*
X180950150Y-53854000D01*
X180918245Y-53889714D01*
X180886340Y-53961142D01*
X180886340Y-54068285D01*
X180918245Y-54139714D01*
X180950150Y-54175428D01*
X181013959Y-54211142D01*
X181269197Y-54211142D01*
X180631102Y-54532571D02*
X180535388Y-54568285D01*
X180375864Y-54568285D01*
X180312054Y-54532571D01*
X180280150Y-54496857D01*
X180248245Y-54425428D01*
X180248245Y-54354000D01*
X180280150Y-54282571D01*
X180312054Y-54246857D01*
X180375864Y-54211142D01*
X180503483Y-54175428D01*
X180567292Y-54139714D01*
X180599197Y-54104000D01*
X180631102Y-54032571D01*
X180631102Y-53961142D01*
X180599197Y-53889714D01*
X180567292Y-53854000D01*
X180503483Y-53818285D01*
X180343959Y-53818285D01*
X180248245Y-53854000D01*
X180056816Y-53818285D02*
X179673959Y-53818285D01*
X179865388Y-54568285D02*
X179865388Y-53818285D01*
X182609197Y-64514000D02*
X182290150Y-64514000D01*
X182673007Y-64728285D02*
X182449673Y-63978285D01*
X182226340Y-64728285D01*
X181652054Y-64728285D02*
X182034911Y-64728285D01*
X181843483Y-64728285D02*
X181843483Y-63978285D01*
X181907292Y-64085428D01*
X181971102Y-64156857D01*
X182034911Y-64192571D01*
X180886340Y-63942571D02*
X181460626Y-64906857D01*
X180439673Y-64335428D02*
X180663007Y-64335428D01*
X180663007Y-64728285D02*
X180663007Y-63978285D01*
X180343959Y-63978285D01*
X179801578Y-63978285D02*
X179929197Y-63978285D01*
X179993007Y-64014000D01*
X180024911Y-64049714D01*
X180088721Y-64156857D01*
X180120626Y-64299714D01*
X180120626Y-64585428D01*
X180088721Y-64656857D01*
X180056816Y-64692571D01*
X179993007Y-64728285D01*
X179865388Y-64728285D01*
X179801578Y-64692571D01*
X179769673Y-64656857D01*
X179737769Y-64585428D01*
X179737769Y-64406857D01*
X179769673Y-64335428D01*
X179801578Y-64299714D01*
X179865388Y-64264000D01*
X179993007Y-64264000D01*
X180056816Y-64299714D01*
X180088721Y-64335428D01*
X180120626Y-64406857D01*
X191915249Y-62210050D02*
X191841099Y-62280324D01*
X191694256Y-62342655D01*
X191621564Y-62334712D01*
X191578241Y-62314303D01*
X191520963Y-62261019D01*
X191493054Y-62195268D01*
X191494513Y-62117052D01*
X191509927Y-62071711D01*
X191554709Y-62013903D01*
X191658229Y-61931163D01*
X191703011Y-61873356D01*
X191718425Y-61828014D01*
X191719884Y-61749798D01*
X191691974Y-61684047D01*
X191634697Y-61630763D01*
X191591373Y-61610354D01*
X191518682Y-61602411D01*
X191371839Y-61664742D01*
X191297688Y-61735016D01*
X190932135Y-62588559D02*
X190975458Y-62608968D01*
X191077518Y-62604445D01*
X191136255Y-62579512D01*
X191210406Y-62509239D01*
X191241233Y-62418556D01*
X191242692Y-62340339D01*
X191216242Y-62196372D01*
X191174378Y-62097747D01*
X191089191Y-61978712D01*
X191031913Y-61925428D01*
X190945267Y-61884610D01*
X190843206Y-61889134D01*
X190784470Y-61914066D01*
X190710319Y-61984340D01*
X190694905Y-62029681D01*
X190402043Y-62891167D02*
X190695728Y-62766505D01*
X190402679Y-62076126D01*
X189448933Y-62442169D02*
X190354342Y-63105407D01*
X189550356Y-63252686D02*
X189257308Y-62562308D01*
X189110466Y-62624638D01*
X189036315Y-62694912D01*
X189005487Y-62785595D01*
X189004028Y-62863811D01*
X189030478Y-63007778D01*
X189072342Y-63106404D01*
X189157530Y-63225438D01*
X189214808Y-63278722D01*
X189301454Y-63319540D01*
X189403514Y-63315017D01*
X189550356Y-63252686D01*
X188523096Y-62873962D02*
X188464359Y-62898894D01*
X188419577Y-62956702D01*
X188404163Y-63002043D01*
X188402704Y-63080260D01*
X188429154Y-63224227D01*
X188498927Y-63388603D01*
X188584115Y-63507637D01*
X188641392Y-63560921D01*
X188684716Y-63581330D01*
X188757407Y-63589273D01*
X188816144Y-63564341D01*
X188860927Y-63506533D01*
X188876340Y-63461192D01*
X188877799Y-63382975D01*
X188851349Y-63239008D01*
X188781576Y-63074633D01*
X188696389Y-62955598D01*
X188639111Y-62902314D01*
X188595788Y-62881905D01*
X188523096Y-62873962D01*
X187598718Y-63227539D02*
X188504127Y-63890777D01*
X187465830Y-63322745D02*
X187084040Y-63484805D01*
X187401257Y-63660543D01*
X187313151Y-63697942D01*
X187268369Y-63755749D01*
X187252955Y-63801091D01*
X187251496Y-63879307D01*
X187321270Y-64043683D01*
X187378547Y-64096967D01*
X187421871Y-64117376D01*
X187494562Y-64125319D01*
X187670773Y-64050522D01*
X187715556Y-63992714D01*
X187730969Y-63947373D01*
D10*
%TO.C,D20*%
X156061904Y-118203171D02*
X155261904Y-118203171D01*
X155261904Y-118393647D01*
X155300000Y-118507933D01*
X155376190Y-118584123D01*
X155452380Y-118622219D01*
X155604761Y-118660314D01*
X155719047Y-118660314D01*
X155871428Y-118622219D01*
X155947619Y-118584123D01*
X156023809Y-118507933D01*
X156061904Y-118393647D01*
X156061904Y-118203171D01*
X155338095Y-118965076D02*
X155300000Y-119003171D01*
X155261904Y-119079361D01*
X155261904Y-119269838D01*
X155300000Y-119346028D01*
X155338095Y-119384123D01*
X155414285Y-119422219D01*
X155490476Y-119422219D01*
X155604761Y-119384123D01*
X156061904Y-118926980D01*
X156061904Y-119422219D01*
X155261904Y-119917457D02*
X155261904Y-119993647D01*
X155300000Y-120069838D01*
X155338095Y-120107933D01*
X155414285Y-120146028D01*
X155566666Y-120184123D01*
X155757142Y-120184123D01*
X155909523Y-120146028D01*
X155985714Y-120107933D01*
X156023809Y-120069838D01*
X156061904Y-119993647D01*
X156061904Y-119917457D01*
X156023809Y-119841266D01*
X155985714Y-119803171D01*
X155909523Y-119765076D01*
X155757142Y-119726980D01*
X155566666Y-119726980D01*
X155414285Y-119765076D01*
X155338095Y-119803171D01*
X155300000Y-119841266D01*
X155261904Y-119917457D01*
%TO.C,D19*%
X148696828Y-119561904D02*
X148696828Y-118761904D01*
X148506352Y-118761904D01*
X148392066Y-118800000D01*
X148315876Y-118876190D01*
X148277780Y-118952380D01*
X148239685Y-119104761D01*
X148239685Y-119219047D01*
X148277780Y-119371428D01*
X148315876Y-119447619D01*
X148392066Y-119523809D01*
X148506352Y-119561904D01*
X148696828Y-119561904D01*
X147477780Y-119561904D02*
X147934923Y-119561904D01*
X147706352Y-119561904D02*
X147706352Y-118761904D01*
X147782542Y-118876190D01*
X147858733Y-118952380D01*
X147934923Y-118990476D01*
X147096828Y-119561904D02*
X146944447Y-119561904D01*
X146868257Y-119523809D01*
X146830161Y-119485714D01*
X146753971Y-119371428D01*
X146715876Y-119219047D01*
X146715876Y-118914285D01*
X146753971Y-118838095D01*
X146792066Y-118800000D01*
X146868257Y-118761904D01*
X147020638Y-118761904D01*
X147096828Y-118800000D01*
X147134923Y-118838095D01*
X147173019Y-118914285D01*
X147173019Y-119104761D01*
X147134923Y-119180952D01*
X147096828Y-119219047D01*
X147020638Y-119257142D01*
X146868257Y-119257142D01*
X146792066Y-119219047D01*
X146753971Y-119180952D01*
X146715876Y-119104761D01*
%TO.C,D16*%
X177209328Y-102149404D02*
X177209328Y-101349404D01*
X177018852Y-101349404D01*
X176904566Y-101387500D01*
X176828376Y-101463690D01*
X176790280Y-101539880D01*
X176752185Y-101692261D01*
X176752185Y-101806547D01*
X176790280Y-101958928D01*
X176828376Y-102035119D01*
X176904566Y-102111309D01*
X177018852Y-102149404D01*
X177209328Y-102149404D01*
X175990280Y-102149404D02*
X176447423Y-102149404D01*
X176218852Y-102149404D02*
X176218852Y-101349404D01*
X176295042Y-101463690D01*
X176371233Y-101539880D01*
X176447423Y-101577976D01*
X175304566Y-101349404D02*
X175456947Y-101349404D01*
X175533138Y-101387500D01*
X175571233Y-101425595D01*
X175647423Y-101539880D01*
X175685519Y-101692261D01*
X175685519Y-101997023D01*
X175647423Y-102073214D01*
X175609328Y-102111309D01*
X175533138Y-102149404D01*
X175380757Y-102149404D01*
X175304566Y-102111309D01*
X175266471Y-102073214D01*
X175228376Y-101997023D01*
X175228376Y-101806547D01*
X175266471Y-101730357D01*
X175304566Y-101692261D01*
X175380757Y-101654166D01*
X175533138Y-101654166D01*
X175609328Y-101692261D01*
X175647423Y-101730357D01*
X175685519Y-101806547D01*
%TO.C,D1*%
X119030750Y-58896250D02*
X119030750Y-53456250D01*
X117506750Y-53456250D02*
X117506750Y-58896250D01*
X119030750Y-53456250D02*
X117506750Y-53456250D01*
X119030750Y-58665250D02*
X117506750Y-58665250D01*
X117506750Y-58665250D02*
X117506750Y-59277250D01*
X117506750Y-59277250D02*
X119030750Y-59277250D01*
X119030750Y-59277250D02*
X119030750Y-58665250D01*
G36*
X119030750Y-58665250D02*
G01*
X117506750Y-58665250D01*
X117506750Y-59277250D01*
X119030750Y-59277250D01*
X119030750Y-58665250D01*
G37*
%TO.C,D2*%
X138080750Y-53456250D02*
X136556750Y-53456250D01*
X138080750Y-58896250D02*
X138080750Y-53456250D01*
X136556750Y-53456250D02*
X136556750Y-58896250D01*
X138080750Y-58665250D02*
X136556750Y-58665250D01*
X136556750Y-58665250D02*
X136556750Y-59277250D01*
X136556750Y-59277250D02*
X138080750Y-59277250D01*
X138080750Y-59277250D02*
X138080750Y-58665250D01*
G36*
X138080750Y-58665250D02*
G01*
X136556750Y-58665250D01*
X136556750Y-59277250D01*
X138080750Y-59277250D01*
X138080750Y-58665250D01*
G37*
%TO.C,D3*%
X157130750Y-58896250D02*
X157130750Y-53456250D01*
X157130750Y-53456250D02*
X155606750Y-53456250D01*
X155606750Y-53456250D02*
X155606750Y-58896250D01*
X157130750Y-58665250D02*
X155606750Y-58665250D01*
X155606750Y-58665250D02*
X155606750Y-59277250D01*
X155606750Y-59277250D02*
X157130750Y-59277250D01*
X157130750Y-59277250D02*
X157130750Y-58665250D01*
G36*
X157130750Y-58665250D02*
G01*
X155606750Y-58665250D01*
X155606750Y-59277250D01*
X157130750Y-59277250D01*
X157130750Y-58665250D01*
G37*
%TO.C,D4*%
X169587500Y-62738000D02*
X164147500Y-62738000D01*
X164147500Y-64262000D02*
X169587500Y-64262000D01*
X169587500Y-64262000D02*
X169587500Y-62738000D01*
X164378500Y-64262000D02*
X163766500Y-64262000D01*
X163766500Y-64262000D02*
X163766500Y-62738000D01*
X163766500Y-62738000D02*
X164378500Y-62738000D01*
X164378500Y-62738000D02*
X164378500Y-64262000D01*
G36*
X164378500Y-64262000D02*
G01*
X163766500Y-64262000D01*
X163766500Y-62738000D01*
X164378500Y-62738000D01*
X164378500Y-64262000D01*
G37*
%TO.C,D5*%
X119030750Y-77946250D02*
X119030750Y-72506250D01*
X117506750Y-72506250D02*
X117506750Y-77946250D01*
X119030750Y-72506250D02*
X117506750Y-72506250D01*
X119030750Y-77715250D02*
X117506750Y-77715250D01*
X117506750Y-77715250D02*
X117506750Y-78327250D01*
X117506750Y-78327250D02*
X119030750Y-78327250D01*
X119030750Y-78327250D02*
X119030750Y-77715250D01*
G36*
X119030750Y-77715250D02*
G01*
X117506750Y-77715250D01*
X117506750Y-78327250D01*
X119030750Y-78327250D01*
X119030750Y-77715250D01*
G37*
%TO.C,D6*%
X136556750Y-72506250D02*
X136556750Y-77946250D01*
X138080750Y-72506250D02*
X136556750Y-72506250D01*
X138080750Y-77946250D02*
X138080750Y-72506250D01*
X138080750Y-77715250D02*
X136556750Y-77715250D01*
X136556750Y-77715250D02*
X136556750Y-78327250D01*
X136556750Y-78327250D02*
X138080750Y-78327250D01*
X138080750Y-78327250D02*
X138080750Y-77715250D01*
G36*
X138080750Y-77715250D02*
G01*
X136556750Y-77715250D01*
X136556750Y-78327250D01*
X138080750Y-78327250D01*
X138080750Y-77715250D01*
G37*
%TO.C,D7*%
X150537500Y-83312000D02*
X150537500Y-81788000D01*
X150537500Y-81788000D02*
X145097500Y-81788000D01*
X145097500Y-83312000D02*
X150537500Y-83312000D01*
X145328500Y-83312000D02*
X144716500Y-83312000D01*
X144716500Y-83312000D02*
X144716500Y-81788000D01*
X144716500Y-81788000D02*
X145328500Y-81788000D01*
X145328500Y-81788000D02*
X145328500Y-83312000D01*
G36*
X145328500Y-83312000D02*
G01*
X144716500Y-83312000D01*
X144716500Y-81788000D01*
X145328500Y-81788000D01*
X145328500Y-83312000D01*
G37*
%TO.C,D8*%
X157138000Y-76600000D02*
X157138000Y-82040000D01*
X158662000Y-76600000D02*
X157138000Y-76600000D01*
X158662000Y-82040000D02*
X158662000Y-76600000D01*
X158662000Y-81809000D02*
X157138000Y-81809000D01*
X157138000Y-81809000D02*
X157138000Y-82421000D01*
X157138000Y-82421000D02*
X158662000Y-82421000D01*
X158662000Y-82421000D02*
X158662000Y-81809000D01*
G36*
X158662000Y-81809000D02*
G01*
X157138000Y-81809000D01*
X157138000Y-82421000D01*
X158662000Y-82421000D01*
X158662000Y-81809000D01*
G37*
%TO.C,D9*%
X117506750Y-86000000D02*
X117506750Y-91440000D01*
X119030750Y-86000000D02*
X117506750Y-86000000D01*
X119030750Y-91440000D02*
X119030750Y-86000000D01*
X119030750Y-91209000D02*
X117506750Y-91209000D01*
X117506750Y-91209000D02*
X117506750Y-91821000D01*
X117506750Y-91821000D02*
X119030750Y-91821000D01*
X119030750Y-91821000D02*
X119030750Y-91209000D01*
G36*
X119030750Y-91209000D02*
G01*
X117506750Y-91209000D01*
X117506750Y-91821000D01*
X119030750Y-91821000D01*
X119030750Y-91209000D01*
G37*
%TO.C,D10*%
X136556750Y-91556250D02*
X136556750Y-96996250D01*
X138080750Y-96996250D02*
X138080750Y-91556250D01*
X138080750Y-91556250D02*
X136556750Y-91556250D01*
X138080750Y-96765250D02*
X136556750Y-96765250D01*
X136556750Y-96765250D02*
X136556750Y-97377250D01*
X136556750Y-97377250D02*
X138080750Y-97377250D01*
X138080750Y-97377250D02*
X138080750Y-96765250D01*
G36*
X138080750Y-96765250D02*
G01*
X136556750Y-96765250D01*
X136556750Y-97377250D01*
X138080750Y-97377250D01*
X138080750Y-96765250D01*
G37*
%TO.C,D11*%
X140970000Y-102362000D02*
X146410000Y-102362000D01*
X146410000Y-102362000D02*
X146410000Y-100838000D01*
X146410000Y-100838000D02*
X140970000Y-100838000D01*
X141201000Y-102362000D02*
X140589000Y-102362000D01*
X140589000Y-102362000D02*
X140589000Y-100838000D01*
X140589000Y-100838000D02*
X141201000Y-100838000D01*
X141201000Y-100838000D02*
X141201000Y-102362000D01*
G36*
X141201000Y-102362000D02*
G01*
X140589000Y-102362000D01*
X140589000Y-100838000D01*
X141201000Y-100838000D01*
X141201000Y-102362000D01*
G37*
%TO.C,D12*%
X159110000Y-102362000D02*
X159110000Y-100838000D01*
X159110000Y-100838000D02*
X153670000Y-100838000D01*
X153670000Y-102362000D02*
X159110000Y-102362000D01*
X153901000Y-102362000D02*
X153289000Y-102362000D01*
X153289000Y-102362000D02*
X153289000Y-100838000D01*
X153289000Y-100838000D02*
X153901000Y-100838000D01*
X153901000Y-100838000D02*
X153901000Y-102362000D01*
G36*
X153901000Y-102362000D02*
G01*
X153289000Y-102362000D01*
X153289000Y-100838000D01*
X153901000Y-100838000D01*
X153901000Y-102362000D01*
G37*
%TO.C,D15*%
X138062000Y-111700000D02*
X136538000Y-111700000D01*
X138062000Y-117140000D02*
X138062000Y-111700000D01*
X136538000Y-111700000D02*
X136538000Y-117140000D01*
X138062000Y-116909000D02*
X136538000Y-116909000D01*
X136538000Y-116909000D02*
X136538000Y-117521000D01*
X136538000Y-117521000D02*
X138062000Y-117521000D01*
X138062000Y-117521000D02*
X138062000Y-116909000D01*
G36*
X138062000Y-116909000D02*
G01*
X136538000Y-116909000D01*
X136538000Y-117521000D01*
X138062000Y-117521000D01*
X138062000Y-116909000D01*
G37*
%TO.C,D17*%
X119030750Y-115252500D02*
X119030750Y-109812500D01*
X117506750Y-109812500D02*
X117506750Y-115252500D01*
X119030750Y-109812500D02*
X117506750Y-109812500D01*
X119030750Y-115021500D02*
X117506750Y-115021500D01*
X117506750Y-115021500D02*
X117506750Y-115633500D01*
X117506750Y-115633500D02*
X119030750Y-115633500D01*
X119030750Y-115633500D02*
X119030750Y-115021500D01*
G36*
X119030750Y-115021500D02*
G01*
X117506750Y-115021500D01*
X117506750Y-115633500D01*
X119030750Y-115633500D01*
X119030750Y-115021500D01*
G37*
%TO.C,D18*%
X138080750Y-128746250D02*
X138080750Y-123306250D01*
X138080750Y-123306250D02*
X136556750Y-123306250D01*
X136556750Y-123306250D02*
X136556750Y-128746250D01*
X138080750Y-128515250D02*
X136556750Y-128515250D01*
X136556750Y-128515250D02*
X136556750Y-129127250D01*
X136556750Y-129127250D02*
X138080750Y-129127250D01*
X138080750Y-129127250D02*
X138080750Y-128515250D01*
G36*
X138080750Y-128515250D02*
G01*
X136556750Y-128515250D01*
X136556750Y-129127250D01*
X138080750Y-129127250D01*
X138080750Y-128515250D01*
G37*
%TO.C,D22*%
X176244250Y-82391250D02*
X176244250Y-87831250D01*
X177768250Y-87831250D02*
X177768250Y-82391250D01*
X176244250Y-87831250D02*
X177768250Y-87831250D01*
X176244250Y-82622250D02*
X177768250Y-82622250D01*
X177768250Y-82622250D02*
X177768250Y-82010250D01*
X177768250Y-82010250D02*
X176244250Y-82010250D01*
X176244250Y-82010250D02*
X176244250Y-82622250D01*
G36*
X176244250Y-82622250D02*
G01*
X177768250Y-82622250D01*
X177768250Y-82010250D01*
X176244250Y-82010250D01*
X176244250Y-82622250D01*
G37*
D12*
%TO.C,MX1*%
X103837500Y-53538750D02*
X103837500Y-50458750D01*
X107387500Y-53538750D02*
X106837500Y-53538750D01*
X103837500Y-53538750D02*
X104637500Y-53538750D01*
X113967500Y-51478750D02*
X108187500Y-51468750D01*
X113967500Y-48458750D02*
X113967500Y-51478750D01*
X107387500Y-53538750D02*
X107387500Y-52268750D01*
X105837500Y-48458750D02*
X110987500Y-48458750D01*
X113967500Y-48458750D02*
X113187500Y-48458750D01*
X107387500Y-52268750D02*
G75*
G02*
X108187500Y-51468750I800000J0D01*
G01*
X103837500Y-50458750D02*
G75*
G02*
X105837500Y-48458750I2000000J0D01*
G01*
%TO.C,MX2*%
X133017500Y-51478750D02*
X127237500Y-51468750D01*
X133017500Y-48458750D02*
X133017500Y-51478750D01*
X122887500Y-53538750D02*
X123687500Y-53538750D01*
X122887500Y-53538750D02*
X122887500Y-50458750D01*
X126437500Y-53538750D02*
X126437500Y-52268750D01*
X124887500Y-48458750D02*
X130037500Y-48458750D01*
X133017500Y-48458750D02*
X132237500Y-48458750D01*
X126437500Y-53538750D02*
X125887500Y-53538750D01*
X126437500Y-52268750D02*
G75*
G02*
X127237500Y-51468750I800000J0D01*
G01*
X122887500Y-50458750D02*
G75*
G02*
X124887500Y-48458750I2000000J0D01*
G01*
%TO.C,MX3*%
X145487500Y-53538750D02*
X145487500Y-52268750D01*
X143937500Y-48458750D02*
X149087500Y-48458750D01*
X152067500Y-48458750D02*
X151287500Y-48458750D01*
X141937500Y-53538750D02*
X141937500Y-50458750D01*
X141937500Y-53538750D02*
X142737500Y-53538750D01*
X152067500Y-48458750D02*
X152067500Y-51478750D01*
X152067500Y-51478750D02*
X146287500Y-51468750D01*
X145487500Y-53538750D02*
X144937500Y-53538750D01*
X141937500Y-50458750D02*
G75*
G02*
X143937500Y-48458750I2000000J0D01*
G01*
X145487500Y-52268750D02*
G75*
G02*
X146287500Y-51468750I800000J0D01*
G01*
%TO.C,MX4*%
X162987500Y-48458750D02*
X168137500Y-48458750D01*
X171117500Y-48458750D02*
X171117500Y-51478750D01*
X171117500Y-48458750D02*
X170337500Y-48458750D01*
X164537500Y-53538750D02*
X163987500Y-53538750D01*
X164537500Y-53538750D02*
X164537500Y-52268750D01*
X160987500Y-53538750D02*
X161787500Y-53538750D01*
X160987500Y-53538750D02*
X160987500Y-50458750D01*
X171117500Y-51478750D02*
X165337500Y-51468750D01*
X164537500Y-52268750D02*
G75*
G02*
X165337500Y-51468750I800000J0D01*
G01*
X160987500Y-50458750D02*
G75*
G02*
X162987500Y-48458750I2000000J0D01*
G01*
%TO.C,MX5*%
X113967500Y-70528750D02*
X108187500Y-70518750D01*
X107387500Y-72588750D02*
X107387500Y-71318750D01*
X103837500Y-72588750D02*
X103837500Y-69508750D01*
X105837500Y-67508750D02*
X110987500Y-67508750D01*
X103837500Y-72588750D02*
X104637500Y-72588750D01*
X107387500Y-72588750D02*
X106837500Y-72588750D01*
X113967500Y-67508750D02*
X113187500Y-67508750D01*
X113967500Y-67508750D02*
X113967500Y-70528750D01*
X107387500Y-71318750D02*
G75*
G02*
X108187500Y-70518750I800000J0D01*
G01*
X103837500Y-69508750D02*
G75*
G02*
X105837500Y-67508750I2000000J0D01*
G01*
%TO.C,MX7*%
X143937500Y-67508750D02*
X149087500Y-67508750D01*
X145487500Y-72588750D02*
X144937500Y-72588750D01*
X152067500Y-67508750D02*
X151287500Y-67508750D01*
X141937500Y-72588750D02*
X141937500Y-69508750D01*
X152067500Y-70528750D02*
X146287500Y-70518750D01*
X145487500Y-72588750D02*
X145487500Y-71318750D01*
X141937500Y-72588750D02*
X142737500Y-72588750D01*
X152067500Y-67508750D02*
X152067500Y-70528750D01*
X145487500Y-71318750D02*
G75*
G02*
X146287500Y-70518750I800000J0D01*
G01*
X141937500Y-69508750D02*
G75*
G02*
X143937500Y-67508750I2000000J0D01*
G01*
%TO.C,MX8*%
X173037500Y-70118750D02*
X173037500Y-75268750D01*
X173037500Y-78248750D02*
X170027500Y-78248750D01*
X167957500Y-68118750D02*
X167957500Y-68918750D01*
X167957500Y-68118750D02*
X171037500Y-68118750D01*
X173037500Y-78248750D02*
X173037500Y-77468750D01*
X167957500Y-71668750D02*
X169227500Y-71668750D01*
X170027500Y-78248750D02*
X170027500Y-72468750D01*
X167957500Y-71668750D02*
X167957500Y-71118750D01*
X169227500Y-71668750D02*
G75*
G02*
X170027500Y-72468750I0J-800000D01*
G01*
X171037500Y-68118750D02*
G75*
G02*
X173037500Y-70118750I0J-2000000D01*
G01*
%TO.C,MX9*%
X103837500Y-91638750D02*
X104637500Y-91638750D01*
X113967500Y-86558750D02*
X113967500Y-89578750D01*
X107387500Y-91638750D02*
X106837500Y-91638750D01*
X113967500Y-89578750D02*
X108187500Y-89568750D01*
X103837500Y-91638750D02*
X103837500Y-88558750D01*
X107387500Y-91638750D02*
X107387500Y-90368750D01*
X113967500Y-86558750D02*
X113187500Y-86558750D01*
X105837500Y-86558750D02*
X110987500Y-86558750D01*
X103837500Y-88558750D02*
G75*
G02*
X105837500Y-86558750I2000000J0D01*
G01*
X107387500Y-90368750D02*
G75*
G02*
X108187500Y-89568750I800000J0D01*
G01*
%TO.C,MX10*%
X126437500Y-91638750D02*
X125887500Y-91638750D01*
X124887500Y-86558750D02*
X130037500Y-86558750D01*
X122887500Y-91638750D02*
X123687500Y-91638750D01*
X122887500Y-91638750D02*
X122887500Y-88558750D01*
X133017500Y-86558750D02*
X133017500Y-89578750D01*
X133017500Y-86558750D02*
X132237500Y-86558750D01*
X133017500Y-89578750D02*
X127237500Y-89568750D01*
X126437500Y-91638750D02*
X126437500Y-90368750D01*
X122887500Y-88558750D02*
G75*
G02*
X124887500Y-86558750I2000000J0D01*
G01*
X126437500Y-90368750D02*
G75*
G02*
X127237500Y-89568750I800000J0D01*
G01*
%TO.C,MX11*%
X152067500Y-86558750D02*
X151287500Y-86558750D01*
X152067500Y-86558750D02*
X152067500Y-89578750D01*
X141937500Y-91638750D02*
X141937500Y-88558750D01*
X145487500Y-91638750D02*
X145487500Y-90368750D01*
X152067500Y-89578750D02*
X146287500Y-89568750D01*
X145487500Y-91638750D02*
X144937500Y-91638750D01*
X141937500Y-91638750D02*
X142737500Y-91638750D01*
X143937500Y-86558750D02*
X149087500Y-86558750D01*
X145487500Y-90368750D02*
G75*
G02*
X146287500Y-89568750I800000J0D01*
G01*
X141937500Y-88558750D02*
G75*
G02*
X143937500Y-86558750I2000000J0D01*
G01*
%TO.C,MX12*%
X165417500Y-98568750D02*
X165417500Y-97768750D01*
X160337500Y-88438750D02*
X160337500Y-89218750D01*
X165417500Y-95018750D02*
X165417500Y-95568750D01*
X160337500Y-88438750D02*
X163347500Y-88438750D01*
X160337500Y-96568750D02*
X160337500Y-91418750D01*
X165417500Y-95018750D02*
X164147500Y-95018750D01*
X165417500Y-98568750D02*
X162337500Y-98568750D01*
X163347500Y-88438750D02*
X163347500Y-94218750D01*
X164147500Y-95018750D02*
G75*
G02*
X163347500Y-94218750I0J800000D01*
G01*
X162337500Y-98568750D02*
G75*
G02*
X160337500Y-96568750I0J2000000D01*
G01*
%TO.C,MX13*%
X113967500Y-108628750D02*
X108187500Y-108618750D01*
X103837500Y-110688750D02*
X104637500Y-110688750D01*
X107387500Y-110688750D02*
X107387500Y-109418750D01*
X113967500Y-105608750D02*
X113967500Y-108628750D01*
X105837500Y-105608750D02*
X110987500Y-105608750D01*
X107387500Y-110688750D02*
X106837500Y-110688750D01*
X113967500Y-105608750D02*
X113187500Y-105608750D01*
X103837500Y-110688750D02*
X103837500Y-107608750D01*
X103837500Y-107608750D02*
G75*
G02*
X105837500Y-105608750I2000000J0D01*
G01*
X107387500Y-109418750D02*
G75*
G02*
X108187500Y-108618750I800000J0D01*
G01*
%TO.C,MX15*%
X141937500Y-110688750D02*
X142737500Y-110688750D01*
X152067500Y-105608750D02*
X151287500Y-105608750D01*
X145487500Y-110688750D02*
X145487500Y-109418750D01*
X145487500Y-110688750D02*
X144937500Y-110688750D01*
X143937500Y-105608750D02*
X149087500Y-105608750D01*
X141937500Y-110688750D02*
X141937500Y-107608750D01*
X152067500Y-108628750D02*
X146287500Y-108618750D01*
X152067500Y-105608750D02*
X152067500Y-108628750D01*
X141937500Y-107608750D02*
G75*
G02*
X143937500Y-105608750I2000000J0D01*
G01*
X145487500Y-109418750D02*
G75*
G02*
X146287500Y-108618750I800000J0D01*
G01*
%TO.C,MX16*%
X167957500Y-106218750D02*
X167957500Y-107018750D01*
X173037500Y-108218750D02*
X173037500Y-113368750D01*
X173037500Y-116348750D02*
X173037500Y-115568750D01*
X167957500Y-106218750D02*
X171037500Y-106218750D01*
X167957500Y-109768750D02*
X167957500Y-109218750D01*
X170027500Y-116348750D02*
X170027500Y-110568750D01*
X167957500Y-109768750D02*
X169227500Y-109768750D01*
X173037500Y-116348750D02*
X170027500Y-116348750D01*
X171037500Y-106218750D02*
G75*
G02*
X173037500Y-108218750I0J-2000000D01*
G01*
X169227500Y-109768750D02*
G75*
G02*
X170027500Y-110568750I0J-800000D01*
G01*
%TO.C,MX17*%
X107387500Y-129698750D02*
X107387500Y-128428750D01*
X103837500Y-129698750D02*
X103837500Y-126618750D01*
X113967500Y-127628750D02*
X108187500Y-127628750D01*
X107387500Y-129698750D02*
X106837500Y-129698750D01*
X113967500Y-124618750D02*
X113967500Y-127628750D01*
X105837500Y-124618750D02*
X110987500Y-124618750D01*
X113967500Y-124618750D02*
X113187500Y-124618750D01*
X103837500Y-129698750D02*
X104637500Y-129698750D01*
X103837500Y-126618750D02*
G75*
G02*
X105837500Y-124618750I2000000J0D01*
G01*
X107387500Y-128428750D02*
G75*
G02*
X108187500Y-127628750I800000J0D01*
G01*
%TO.C,MX18*%
X132287500Y-137323750D02*
X127137500Y-137323750D01*
X130737500Y-132243750D02*
X130737500Y-133513750D01*
X124157500Y-137323750D02*
X124937500Y-137323750D01*
X134287500Y-132243750D02*
X134287500Y-135323750D01*
X124157500Y-134313750D02*
X129937500Y-134313750D01*
X130737500Y-132243750D02*
X131287500Y-132243750D01*
X134287500Y-132243750D02*
X133487500Y-132243750D01*
X124157500Y-137323750D02*
X124157500Y-134313750D01*
X130737500Y-133513750D02*
G75*
G02*
X129937500Y-134313750I-800000J0D01*
G01*
X134287500Y-135323750D02*
G75*
G02*
X132287500Y-137323750I-2000000J0D01*
G01*
%TO.C,MX20*%
X160337500Y-134668750D02*
X160337500Y-129518750D01*
X165417500Y-133118750D02*
X164147500Y-133118750D01*
X160337500Y-126538750D02*
X160337500Y-127318750D01*
X160337500Y-126538750D02*
X163347500Y-126538750D01*
X165417500Y-136668750D02*
X162337500Y-136668750D01*
X165417500Y-133118750D02*
X165417500Y-133668750D01*
X165417500Y-136668750D02*
X165417500Y-135868750D01*
X163347500Y-126538750D02*
X163347500Y-132318750D01*
X162337500Y-136668750D02*
G75*
G02*
X160337500Y-134668750I0J2000000D01*
G01*
X164147500Y-133118750D02*
G75*
G02*
X163347500Y-132318750I0J800000D01*
G01*
%TO.C,MX19*%
X141937500Y-129738750D02*
X142737500Y-129738750D01*
X141937500Y-129738750D02*
X141937500Y-126658750D01*
X143937500Y-124658750D02*
X149087500Y-124658750D01*
X145487500Y-129738750D02*
X144937500Y-129738750D01*
X152067500Y-127678750D02*
X146287500Y-127668750D01*
X152067500Y-124658750D02*
X152067500Y-127678750D01*
X145487500Y-129738750D02*
X145487500Y-128468750D01*
X152067500Y-124658750D02*
X151287500Y-124658750D01*
X145487500Y-128468750D02*
G75*
G02*
X146287500Y-127668750I800000J0D01*
G01*
X141937500Y-126658750D02*
G75*
G02*
X143937500Y-124658750I2000000J0D01*
G01*
%TO.C,MX16-2u1*%
X167947500Y-119293750D02*
X167947500Y-118743750D01*
X167947500Y-115743750D02*
X167947500Y-116543750D01*
X173027500Y-125873750D02*
X170017500Y-125873750D01*
X170017500Y-125873750D02*
X170017500Y-120093750D01*
X173027500Y-117743750D02*
X173027500Y-122893750D01*
X167947500Y-115743750D02*
X171027500Y-115743750D01*
X167947500Y-119293750D02*
X169217500Y-119293750D01*
X173027500Y-125873750D02*
X173027500Y-125093750D01*
X171027500Y-115743750D02*
G75*
G02*
X173027500Y-117743750I0J-2000000D01*
G01*
X156637499Y-132284200D02*
G75*
G03*
X156637500Y-134479301I521156J-1097550D01*
G01*
X169217500Y-119293750D02*
G75*
G02*
X170017500Y-120093750I0J-800000D01*
G01*
X156637500Y-108408200D02*
G75*
G03*
X156637500Y-110593750I519402J-1092775D01*
G01*
%TO.C,MX17-2u1*%
X116912500Y-129708750D02*
X116912500Y-128438750D01*
X115362500Y-124628750D02*
X120512500Y-124628750D01*
X113362500Y-129708750D02*
X113362500Y-126628750D01*
X123492500Y-124628750D02*
X123492500Y-127638750D01*
X123492500Y-124628750D02*
X122712500Y-124628750D01*
X116912500Y-129708750D02*
X116362500Y-129708750D01*
X113362500Y-129708750D02*
X114162500Y-129708750D01*
X123492500Y-127638750D02*
X117712500Y-127638750D01*
X129912500Y-120918749D02*
G75*
G02*
X132062500Y-120918750I1075000J-510448D01*
G01*
X116912500Y-128438750D02*
G75*
G02*
X117712500Y-127638750I800000J0D01*
G01*
X113362500Y-126628750D02*
G75*
G02*
X115362500Y-124628750I2000000J0D01*
G01*
X106012501Y-120918749D02*
G75*
G02*
X108212500Y-120918750I1099999J-522319D01*
G01*
%TO.C,MX8-2u1*%
X167947500Y-81193750D02*
X169217500Y-81193750D01*
X173027500Y-87773750D02*
X170017500Y-87773750D01*
X170017500Y-87773750D02*
X170017500Y-81993750D01*
X173027500Y-87773750D02*
X173027500Y-86993750D01*
X167947500Y-81193750D02*
X167947500Y-80643750D01*
X167947500Y-77643750D02*
X171027500Y-77643750D01*
X173027500Y-79643750D02*
X173027500Y-84793750D01*
X167947500Y-77643750D02*
X167947500Y-78443750D01*
X171027500Y-77643750D02*
G75*
G02*
X173027500Y-79643750I0J-2000000D01*
G01*
X169217500Y-81193750D02*
G75*
G02*
X170017500Y-81993750I0J-800000D01*
G01*
X156637499Y-94184200D02*
G75*
G03*
X156637500Y-96379301I521156J-1097550D01*
G01*
X156637500Y-70308200D02*
G75*
G03*
X156637500Y-72493750I519402J-1092775D01*
G01*
%TO.C,MX6*%
X126437500Y-72588750D02*
X125887500Y-72588750D01*
X126437500Y-72588750D02*
X126437500Y-71318750D01*
X124887500Y-67508750D02*
X130037500Y-67508750D01*
X122887500Y-72588750D02*
X122887500Y-69508750D01*
X122887500Y-72588750D02*
X123687500Y-72588750D01*
X133017500Y-70528750D02*
X127237500Y-70518750D01*
X133017500Y-67508750D02*
X133017500Y-70528750D01*
X133017500Y-67508750D02*
X132237500Y-67508750D01*
X122887500Y-69508750D02*
G75*
G02*
X124887500Y-67508750I2000000J0D01*
G01*
X126437500Y-71318750D02*
G75*
G02*
X127237500Y-70518750I800000J0D01*
G01*
D10*
%TO.C,D13*%
X119030750Y-103346250D02*
X119030750Y-97906250D01*
X119030750Y-97906250D02*
X117506750Y-97906250D01*
X117506750Y-97906250D02*
X117506750Y-103346250D01*
X119030750Y-103115250D02*
X117506750Y-103115250D01*
X117506750Y-103115250D02*
X117506750Y-103727250D01*
X117506750Y-103727250D02*
X119030750Y-103727250D01*
X119030750Y-103727250D02*
X119030750Y-103115250D01*
G36*
X119030750Y-103115250D02*
G01*
X117506750Y-103115250D01*
X117506750Y-103727250D01*
X119030750Y-103727250D01*
X119030750Y-103115250D01*
G37*
D12*
%TO.C,MX14*%
X126437500Y-110688750D02*
X125887500Y-110688750D01*
X122887500Y-110688750D02*
X123687500Y-110688750D01*
X126437500Y-110688750D02*
X126437500Y-109418750D01*
X133017500Y-105608750D02*
X132237500Y-105608750D01*
X122887500Y-110688750D02*
X122887500Y-107608750D01*
X124887500Y-105608750D02*
X130037500Y-105608750D01*
X133017500Y-108628750D02*
X127237500Y-108618750D01*
X133017500Y-105608750D02*
X133017500Y-108628750D01*
X126437500Y-109418750D02*
G75*
G02*
X127237500Y-108618750I800000J0D01*
G01*
X122887500Y-107608750D02*
G75*
G02*
X124887500Y-105608750I2000000J0D01*
G01*
D10*
%TO.C,D24*%
X176244250Y-109378750D02*
X176244250Y-114818750D01*
X176244250Y-114818750D02*
X177768250Y-114818750D01*
X177768250Y-114818750D02*
X177768250Y-109378750D01*
X176244250Y-109609750D02*
X177768250Y-109609750D01*
X177768250Y-109609750D02*
X177768250Y-108997750D01*
X177768250Y-108997750D02*
X176244250Y-108997750D01*
X176244250Y-108997750D02*
X176244250Y-109609750D01*
G36*
X176244250Y-109609750D02*
G01*
X177768250Y-109609750D01*
X177768250Y-108997750D01*
X176244250Y-108997750D01*
X176244250Y-109609750D01*
G37*
%TO.C,D21*%
X174498000Y-53869000D02*
X174498000Y-59309000D01*
X176022000Y-53869000D02*
X174498000Y-53869000D01*
X176022000Y-59309000D02*
X176022000Y-53869000D01*
X176022000Y-59078000D02*
X174498000Y-59078000D01*
X174498000Y-59078000D02*
X174498000Y-59690000D01*
X174498000Y-59690000D02*
X176022000Y-59690000D01*
X176022000Y-59690000D02*
X176022000Y-59078000D01*
G36*
X176022000Y-59078000D02*
G01*
X174498000Y-59078000D01*
X174498000Y-59690000D01*
X176022000Y-59690000D01*
X176022000Y-59078000D01*
G37*
%TO.C,D23*%
X176244250Y-93503750D02*
X176244250Y-98943750D01*
X177768250Y-98943750D02*
X177768250Y-93503750D01*
X176244250Y-98943750D02*
X177768250Y-98943750D01*
X176244250Y-93734750D02*
X177768250Y-93734750D01*
X177768250Y-93734750D02*
X177768250Y-93122750D01*
X177768250Y-93122750D02*
X176244250Y-93122750D01*
X176244250Y-93122750D02*
X176244250Y-93734750D01*
G36*
X176244250Y-93734750D02*
G01*
X177768250Y-93734750D01*
X177768250Y-93122750D01*
X176244250Y-93122750D01*
X176244250Y-93734750D01*
G37*
%TO.C,RESET1*%
X186746757Y-127767117D02*
X182504117Y-132009757D01*
X186569981Y-127590340D02*
X186746757Y-127767117D01*
X182504117Y-132009757D02*
X182327340Y-131832981D01*
X180206019Y-129711660D02*
X180029243Y-129534883D01*
X184271883Y-125292243D02*
X184448660Y-125469019D01*
X180029243Y-129534883D02*
X184271883Y-125292243D01*
%TO.C,D14*%
X131500000Y-102362000D02*
X131500000Y-100838000D01*
X131500000Y-100838000D02*
X126060000Y-100838000D01*
X126060000Y-102362000D02*
X131500000Y-102362000D01*
X126291000Y-102362000D02*
X125679000Y-102362000D01*
X125679000Y-102362000D02*
X125679000Y-100838000D01*
X125679000Y-100838000D02*
X126291000Y-100838000D01*
X126291000Y-100838000D02*
X126291000Y-102362000D01*
G36*
X126291000Y-102362000D02*
G01*
X125679000Y-102362000D01*
X125679000Y-100838000D01*
X126291000Y-100838000D01*
X126291000Y-102362000D01*
G37*
D12*
%TO.C,U1*%
X194627500Y-78359000D02*
X192087500Y-78359000D01*
X176847500Y-47879000D02*
X176847500Y-78359000D01*
D10*
X194487500Y-78227000D02*
X193627500Y-78227000D01*
X194487500Y-48027000D02*
X194487500Y-48877000D01*
D12*
X194627500Y-47879000D02*
X192087500Y-47879000D01*
D10*
X194487500Y-48027000D02*
X193687500Y-48027000D01*
D12*
X179387500Y-47879000D02*
X176847500Y-47879000D01*
D10*
X194487500Y-77377000D02*
X194487500Y-78227000D01*
X176987500Y-48027000D02*
X177837500Y-48027000D01*
D12*
X194618900Y-47879000D02*
X194618900Y-78359000D01*
X179387500Y-78359000D02*
X176847500Y-78359000D01*
D10*
X176987500Y-48027000D02*
X176987500Y-48877000D01*
X176987500Y-78227000D02*
X177837500Y-78227000D01*
D12*
X192087500Y-47879000D02*
X192087500Y-78359000D01*
D10*
X176987500Y-77327000D02*
X176987500Y-78227000D01*
D12*
X179398900Y-47879000D02*
X179398900Y-78359000D01*
D10*
%TO.C,D20*%
X156338000Y-116300000D02*
X156338000Y-121740000D01*
X157862000Y-116300000D02*
X156338000Y-116300000D01*
X157862000Y-121740000D02*
X157862000Y-116300000D01*
X157862000Y-121509000D02*
X156338000Y-121509000D01*
X156338000Y-121509000D02*
X156338000Y-122121000D01*
X156338000Y-122121000D02*
X157862000Y-122121000D01*
X157862000Y-122121000D02*
X157862000Y-121509000D01*
G36*
X157862000Y-121509000D02*
G01*
X156338000Y-121509000D01*
X156338000Y-122121000D01*
X157862000Y-122121000D01*
X157862000Y-121509000D01*
G37*
%TO.C,D19*%
X150600000Y-119838000D02*
X145160000Y-119838000D01*
X145160000Y-121362000D02*
X150600000Y-121362000D01*
X150600000Y-121362000D02*
X150600000Y-119838000D01*
X145391000Y-121362000D02*
X144779000Y-121362000D01*
X144779000Y-121362000D02*
X144779000Y-119838000D01*
X144779000Y-119838000D02*
X145391000Y-119838000D01*
X145391000Y-119838000D02*
X145391000Y-121362000D01*
G36*
X145391000Y-121362000D02*
G01*
X144779000Y-121362000D01*
X144779000Y-119838000D01*
X145391000Y-119838000D01*
X145391000Y-121362000D01*
G37*
%TO.C,D16*%
X179112500Y-103949500D02*
X179112500Y-102425500D01*
X173672500Y-103949500D02*
X179112500Y-103949500D01*
X179112500Y-102425500D02*
X173672500Y-102425500D01*
X173903500Y-103949500D02*
X173291500Y-103949500D01*
X173291500Y-103949500D02*
X173291500Y-102425500D01*
X173291500Y-102425500D02*
X173903500Y-102425500D01*
X173903500Y-102425500D02*
X173903500Y-103949500D01*
G36*
X173903500Y-103949500D02*
G01*
X173291500Y-103949500D01*
X173291500Y-102425500D01*
X173903500Y-102425500D01*
X173903500Y-103949500D01*
G37*
%TD*%
M02*
